<?xml version="1.0" encoding="UTF-8"?><svg id="Layer_2" xmlns="http://www.w3.org/2000/svg" viewBox="0 0 737.98 255.68"><defs><style>.cls-1{fill:none;stroke:#000;stroke-linecap:round;stroke-linejoin:round;stroke-width:2px;}</style></defs><g id="Layer_1-2"><g><path d="M706.05,202.54c.86-.21,1.72-.43,2.69-.67,.07,.33,.17,.67,.19,1.01,.05,.66,0,1.34,.11,1.99,.08,.52,.25,1.06,.51,1.52,.36,.64,.99,.9,1.72,.7,.64-.18,1.26-.44,1.91-.68,.56,.07,1.17,.11,1.75,.23,1.04,.22,1.91-.02,2.61-.84,.23-.27,.54-.48,.88-.79,.31,0,.67-.02,1.02,0,.69,.04,1.33-.08,1.89-.5,.51-.37,1.09-.47,1.7-.55,1.08-.15,2.14-.37,3.17-.55,.45-.59,.85-1.12,1.32-1.74,.47,.14,.92,.27,1.36,.42,1.32,.47,2.12,.17,2.57-1.14,.78-2.28,2.5-3.63,4.46-4.78,.05-.03,.12-.01,.21-.02,.76,.17,1.05,.79,1.1,1.46,.2,2.46,.75,4.86,.74,7.37-.08,15.63-.03,31.25-.04,46.88,0,.83,.16,1.69-.18,2.46-.55,.53-1.19,.36-1.78,.36-3.52,.02-7.03,.02-10.55,.02-15.58,0-31.16,0-46.74,0-3.33,0-6.67,.02-10,0-.72,0-1.46,.1-2.23-.3-.5-.87-1.03-1.8-1.58-2.73-1.22-2.09-2.43-4.18-3.68-6.26-.77-1.29-1.62-2.54-2.39-3.84-.24-.4-.39-.86-.55-1.31-.49-1.36-.91-2.75-1.85-3.92-.41-.5-.51-1.24-.91-1.75-.83-1.09-1.21-2.33-1.53-3.64-.15-.63-.54-1.21-.89-1.77-.26-.41-.55-.37-1.2,.09,.14,.99,.24,2.01,.45,3.01,.09,.45,.38,.88,.62,1.29,.83,1.42,1.47,2.89,1.6,4.57,.1,1.26,.72,2.29,1.47,2.94,.79,3.04,1.51,5.84,2.26,8.63,.12,.46,.38,.89,.64,1.3,.64,1.02,.86,2.1,.66,3.39-.3,.08-.63,.23-.97,.26-.66,.05-1.33,.03-2,.03-25.34,0-50.68-.01-76.02-.02-.9,0-1.81,0-2.68,0-.35-.62-.63-1.12-.93-1.66-.76,.29-.34,1.07-.89,1.5-1.11,.27-2.33,.2-3.54,0-.21-3.79-.25-7.4,.05-11.01,.22-2.69,.45-3.6,1.46-5.66-.34-1.43,.03-2.92,.03-4.42,0-.4,.15-.86-.47-1.14-.11,.19-.29,.37-.34,.57-.26,1.18-.5,2.36-.73,3.55-.24,1.25-.46,2.5-.7,3.74-.11,.55-.35,1.07-.84,1.35-1.49,.87-2.41,2.17-2.95,3.83-.54,.11-1.06,.21-1.67,.33-.53,.98-1.07,1.98-1.6,2.97-1.37-.64-1.36-.62-3-.44-.72,.08-1.46,.14-2.18,.05-2.19-.25-4.34,.02-6.5,.29-1.14,.14-2.3,.08-3.45,.15-.4,.02-.88-.02-1.03,.65,.18,.09,.37,.26,.57,.28,.36,.05,.72,.01,1.09,0,.97-.03,1.89,.14,2.84,.37,1.76,.41,3.59,.52,5.39,.78,.7,.1,1.47-.09,2.05,.41,.21,.48,0,.79-.38,.9-.4,.12-.85,.21-1.24,.12-1.06-.25-2.04,0-3.05,.25-.53,.14-1.06,.26-1.59,.38-.55,.13-1.1,.11-1.58-.22-2-1.36-4.04-.79-6.09-.18-.23,.07-.44,.2-.67,.29-.82,.35-1.68,.34-2.49,.04-1.95-.72-3.95-.57-5.93-.33-1.12,.13-2.14,.17-3.15-.44-.82-.49-1.74-.45-2.65-.31-1.85,.3-3.7,.6-5.55,.88-1.16,.18-2.3,.07-3.4-.33-.74-.27-1.49-.51-2.22-.79-1.03-.4-2.08-.69-3.19-.59-1.36,.12-2.45-.49-3.51-1.2-.07-.05-.05-.22-.1-.45,.68-.45,1.41-.79,2.31-.67,.85,.12,1.68,.05,2.47-.25q.14-.73-.21-1.46c-.99-.19-2.05-.39-3.12-.59-.36-.07-.74-.04-1.07-.17-1.7-.66-3.48-.33-5.22-.44-.58-.04-1.17,.23-1.74,.35-1.55-.62-2.22-2.27-3.66-2.96-1.33,.26-2.08,1-2.24,2.31-.07,.54-.12,1.09-.68,1.59-.7,.35-1.84-.21-2.57,.75,.45,.64,1.1,.82,1.75,.89,.85,.09,1.65,.32,2.46,.61,.99,.36,2.04,.23,3.06,.09,.6-.09,1.19-.25,1.79-.32,.35-.04,.82-.11,1.05,.06,.74,.57,1.5,.25,2.22,.17,.49,.63,.48,.99-.03,1.11-.65,.15-1.31,.21-1.96,.34-2.44,.5-4.91,.62-7.4,.61-.97,0-1.94,.05-2.91,.07-.66,.01-1.32-.01-1.99,0-.54,0-1.1-.01-1.63,.08-1.33,.24-2.64,.13-3.98-.02-1.44-.15-2.92-.21-4.34-.02-1.33,.17-2.52,.22-3.65-.71-1.19,.06-2.39,.14-3.59,.18-1.33,.05-2.63,.02-3.94-.42-.94-.31-2.03-.25-3.05-.22-1.27,.04-2.53,.21-3.79,.34-.29,.03-.58,.14-.98,.24-.18,.48-.39,.97-.56,1.48-.11,.34-.16,.71-.26,1.06-.2,.74-.52,1.35-1.42,1.41-1.14,.07-1.79-.25-2.22-1.18-.79-1.7-.39-3.57,1.05-4.73,.27-.22,.65-.44,.97-.43,1.55,.04,3.17-.34,4.63,.62,.75-.17,1.53-.2,2.29-.78-.4-.45-.75-.83-1.14-1.27v-4.25c-.59,.73-.4,1.38-.56,1.93-.15,.52-.3,1.03-.44,1.52-1.37,.72-2.7,.87-4.13,.55-.41-1.07-.16-1.96,.38-2.81,.56-.89,1.37-1.13,2.46-.76v-1.04c.59-.74,1.63-.88,2.69-1.69-.73,.1-1.08,.12-1.42,.19-1.24,.24-2.4,.82-3.72,.72-.33-.02-.67,.25-1.01,.38-.62,.24-1.24,.48-1.87,.69-2.69,.92-5.01,.18-7.06-1.63-.4-.35-.75-.81-1-1.28-.5-.94-.4-1.87,.24-2.73,.53-.72,1.57-1.33,2.86-1.68,.55,.71,1.06,1.54,1.74,2.2,.64,.63,1.44,1.09,2.21,1.64,.35-.06,.72-.08,1.06-.19,.81-.26,1.62-.41,2.49-.37,1.34,.06,2.39-.69,2.65-2.01,.23-1.17,.78-1.98,1.73-2.64,.38-.27,.72-.68,.91-1.1,.54-1.18,1.41-1.77,2.69-1.8,.22,0,.43-.16,.59-.23,.21-.52,0-.82-.36-.97-.5-.21-1.03-.34-1.56-.51-.61-1.01-1.59-1.88-1.01-3.34,.31-.02,.61-.09,.89-.04,.89,.14,1.8,.25,2.67,.51,.67,.2,1.28,.6,2.07,.99,.71-.83,2.35-.81,2.75-2.48-.38-.09-.65-.2-.92-.21-.79,0-1.57,.01-2.36,.05-1.54,.08-3.03-.11-4.42-.81-.72-.36-1.48-.49-2.27-.56-1.14-.1-2.29-.26-3.42-.48-1.43-.27-1.69-.64-1.79-2.06-.04-.64,.11-1.3-.23-2.1-.82,1.13-.19,2.43-.91,3.52-1.65,.35-2.61,1.64-3.38,3.12-.97,1.85-1.6,3.79-1.64,5.89,0,.3-.02,.61-.02,.91,.02,.86-.32,1.5-1.1,1.93-.64,.35-1.26,.73-1.84,1.16-.48,.36-.95,.76-1.31,1.24-1.09,1.47-1.07,2.86-.04,4.37,.49,.71,1.08,1.32,1.84,1.73,1.9,1.03,3.87,1.73,6.09,1.35,.52-.09,1.08-.28,1.6,.34-.03,.21-.04,.51-.13,.78-.29,.86-.64,1.69-.91,2.56-.37,1.19-1.14,1.8-2.38,1.88-.47,.03-1.01,.02-1.4,.24-.85,.5-1.71,.5-2.63,.36-1.86-.28-3.72-.51-5.58-.75-.3-.04-.6-.08-.9-.07-1.57,.09-3.14,.16-4.71,.31-2.43,.23-4.84-.15-7.26-.1-1.71-.55-3.39-.52-5.16-.09-1.13,.28-2.4,.2-3.59-.23-.61-.22-1.3-.25-1.96-.32-.84-.09-1.69-.16-2.53-.2-.54-.02-1.08,0-1.62,.05-2.12,.2-4.22,.33-6.3-.39-.56-.19-1.19-.21-1.79-.24-.98-.04-1.54-.62-1.93-1.43-.35-.74,.15-1.56,.99-1.5,.52,.04,1.06,.25,1.53,.48,1.13,.56,2.3,.78,3.53,.55,.45-.08,.88-.31,1.35-.48-.09-.98-.6-1.36-1.38-1.55-.81-.19-1.6-.47-2.66-.79,.12-.02-.07-.02-.23,.05-1.15,.49-2.23,.35-3.3-.29-.61-.37-1.24-.79-2.15-.65-.31,.4-.67,.86-1.02,1.3-.71,.19-1.49-.47-2.18,.43,.02,.33,.05,.81,.06,1.28,.02,1.22-.42,1.92-1.58,2.05-1.1,.12-2.11,.45-3.17,.71-.56,.14-1.2,.02-1.79-.08-2.21-.38-4.4-.82-6.61-1.19-.53-.09-1.09,0-1.63-.02-.62-.01-1.2-.12-1.54-.82,.5-.9,1.43-1.05,2.25-1.36,.62-.23,1.17-.02,1.74,.24,.42,.2,.93,.38,1.37,.32,.93-.13,1.8,0,2.7,.2,1.96,.42,3.84,.09,5.65-.71,.15-.07,.27-.23,.39-.36,.03-.04,.02-.12,.03-.18-.02-.06-.02-.15-.06-.17-2.56-1.15-5.13-2.12-8-1.1-.37,.13-.83,.04-1.24,0-.84-.07-1.67-.2-2.51-.24-1.33-.05-2.65-.12-3.94-.56-.8-.27-1.64-.46-2.48-.55-.58-.06-1.25-.02-1.76,.23-1.19,.59-2.41,.76-3.61,.59-.89,.43-1.7,.82-2.51,1.21,.82,1.25,2.69,1.77,4.93,1.38,.59,.34,1.22,.69,1.43,1.41-.06,.6-.44,.83-.88,.78-.78-.09-1.61-.14-2.29-.47-1.28-.64-2.46-.43-3.69,.02-.51,.18-1.02,.38-1.55,.48-.34,.07-.77,.07-1.07-.07-1.41-.69-2.97-.53-4.45-.81-.41-.08-.85-.11-1.27-.07-1.75,.13-3.49,.37-5.25,.43-2,.07-3.98,.25-5.96,.51-.52,.07-1.11,0-1.59-.21-1-.43-1.99-.48-3.02-.26-.79,.17-1.54,.11-2.32-.15-.62-.21-1.3-.26-1.95-.37-.65-.12-1.31-.23-1.96-.34-.12-.02-.24-.11-.35-.1-1.51,.2-2.81-.6-4.23-.84-1.01-.18-2.04-.22-3.07-.32-.3-.03-.61,.02-.91-.04-1.85-.39-3.7-.48-5.58-.2-.7,.11-1.46,.02-1.97-.83,.4-.4,.8-.79,1.36-1.34-1.02-.1-1.84-.13-2.63-.26-.76-.12-1.45-.62-2.36-.5-.16,.38-.3,.77-.48,1.14-.51,1.06-1.5,1.23-2.34,.39-.25-.25-.42-.59-.66-.86-.5-.59-1.12-.96-1.92-.77-1.15,.27-2.16,.02-2.98-.74-.26,0-.44,0-.62,0-1.67,.06-2.62-.61-3.09-2.17-.2-.66,.03-1.2,.48-1.66,.76-.77,1.54-1.52,2.41-2.37,1.06-.15,1.81,.89,2.85,1.14,1.04,.25,1.67,1.43,2.78,1.46,.14-.04,.21-.04,.25-.08,1.12-1.17,2.46-1.42,3.98-.96,.28,.08,.6,.04,.9,.03,.18,0,.35-.09,.57-.15,.51-.93,1.04-1.87,1.53-2.83,.27-.52,.65-.85,1.2-1.04,.84-.28,1.38-.11,1.87,.63,.07,.1,.11,.22,.17,.32,.78,1.29,1.41,1.54,2.84,1.14,.35-.1,.68-.26,.94-.37,.67-.04,1.13,.26,1.56,.6,.56,.46,1.17,.53,1.87,.44,.59-.08,1.25-.13,1.79,.06,1.04,.38,1.9,.09,2.77-.39,.37-.2,.7-.45,.98-.63,1.14,.17,1.61,.95,2.09,1.88,.37-.24,.69-.46,1.03-.68-.17-1.12-.76-1.98-1.23-2.88-.27-.51-.81-.7-1.38-.75-.68-.06-1.32,.11-1.94,.39-.81,.36-1.66,.39-2.49,.11-1.11-.38-2.22-.57-3.39-.38-.1,.02-.21-.09-.43-.19,.09-.6,.18-1.23,.26-1.79,.11-.18,.16-.29,.23-.39,.99-1.39,2.25-1.72,3.81-.99,.68,.32,1.42,.32,2.14,.15,1.47-.34,2.89-.33,4.19,.75,.43-.24,.82-.46,1.18-.65,0-2.08-1.88-2.86-2.66-4.41,.15-.4,.31-.84,.44-1.2-1-.88-1.93-1.71-2.87-2.54-.76-.6-2.08,.23-2.7-1.1,.95-1.08,2.88-1.41,2.63-3.31-.25-.61-.82-.75-1.28-1.03-.58-.35-.83-.85-.73-1.53,.09-.6,.06-1.23,.25-1.79,.36-1.05,.48-2.09,.17-3.09,.73-1,1.49-.28,2.26-.18,.59-.55,1.21-1.13,1.83-1.7,1.07-.99,2.26-.9,3.76-.47-.02,0,.23-.06,.4-.21,.54-.48,1.14-.64,1.85-.5,.6,.12,1.21,.21,1.74-.49-.04-.32-.03-.74-.15-1.13-.31-1.02-.07-1.76,.9-2.28,.53-.28,1.07-.6,1.23-1.42-.19-.49-.43-1.09-.66-1.69,2.16-.55,4.97-.12,6.44,.85,.48,.92,.83,1.68,1.27,2.38,.43,.69,.72,1.39,.71,2.21,0,.73,.11,1.44,.43,2.12,.34,.72,.58,1.49,.21,2.27-.39,.82-.81,1.64-1.81,1.91-.15,.04-.27,.22-.49,.41,.08,.31,.12,.66,.28,.96,.23,.42,.54,.8,.83,1.19,.48,.65,.84,1.32,.74,2.17-.02,.15,.12,.33,.22,.59,.31,.05,.65,.13,.99,.15,.3,.02,.61-.07,.9-.04,.84,.08,1.27,.75,1.01,1.55-.13,.4-.33,.78-.49,1.17-.23,.58-.36,1.24-.03,1.77,.72,1.18,.72,2.54,1.13,3.8,.2,.63,.32,1.29,.5,2.03-.15,.31-.3,.71-.52,1.07-.61,1.03-.48,1.96,.29,2.84,.16,.18,.29,.39,.42,.58,.71-.07,1.3-.13,1.92-.19,.2,.25,.41,.47,.57,.72,.45,.69,1.1,.91,1.88,.86,.36-.03,.72-.11,1.08-.1,.98,0,1.73,.38,2.25,1.26,.62,1.03,1.32,2,2.06,3.09,.37-.25,.72-.38,.91-.63,.37-.48,.65-1.02,.96-1.54,.84-1.42,2.18-1.63,3.24-.35,.68,.81,1.45,1.22,2.43,1.42,.88,.18,1.55-.11,2.07-.8,.29-.38,.52-.81,.81-1.26,.56-.18,1.12-.37,1.8-.59,1.07-1.35,.65-3.06,1-4.59-1.1-1.31-2.72-2.05-3.26-3.85,.26-.11,.51-.21,.76-.32,.59-.24,.79-.7,.76-1.41-.46-.82-1.32-1.24-2.23-1.76-.35,.25-.72,.45-1,.74-.41,.44-.73,.97-1.13,1.42-.52,.57-.8,1.24-.74,1.99,.14,1.65-.64,2.89-1.72,4.13-.43-.83-1.08-1.45-1.3-2.36-.17-.72-.69-1.11-1.56-1.17-1.21,.92-2.87,1.35-3.66,2.77-.78,.36-1.31,.05-1.78-.35-.32-.27-.57-.62-.86-.93-.63-.68-1.36-.98-2.28-.65-.22,.08-.46,.11-.69,.17-.68-.44-1.04-1.04-1.25-1.85,.2-.5,.43-1.06,.58-1.44-.07-1.49-.13-2.81-.19-4.18,.76-.84,.99-1.85,1.01-2.99,.02-1.45,.24-2.89,.33-4.34,.03-.51,.17-.95,.51-1.32,.95-1.03,1.42-2.21,1.25-3.65-.08-.7,.22-1.3,.82-1.72,.24-.17,.45-.38,.61-.51,.04-.18,.08-.25,.06-.29-.75-1.72,.06-2.89,1.38-3.87,.1-.07,.21-.11,.46-.24,.58,.16,1.28,.31,1.95,.56,.8,.29,1.54,.33,2.24-.2,.67-.52,1.43-.61,2.23-.6,.97,.01,1.94,0,2.91,.03,.36,.01,.72,.09,1.07,.18,.16,.04,.3,.2,.54,.37,.08,.4,.16,.86,.26,1.33,.21,1.02,.54,1.33,1.55,1.46,.78,.1,1.56,.18,2.34,.3,.23,.03,.45,.16,.62,.23,.41,.62,.22,1.08-.21,1.49-.74,.21-1.35-.67-2.09-.22-.14,1,.18,1.52,1.06,1.65,.3,.04,.6,.01,.91,.01,.29,0,.58,0,1.02,0-.31,1.31,.65,2.58-.38,3.8-.32,.05-.67,.14-1.02,.16-1.82,.14-3.34,.89-4.62,2.19-.33,.33-.8,.53-1.22,.78-.49,.29-.83,.7-.92,1.28-.08,.48,.1,.82,.68,1.1,.4-.09,.92-.24,1.44-.33,.38-.06,.73,.04,.91,.43,.18,.37,0,.84-.45,1.06-.49,.24-1.02,.4-1.51,.61-.5,.22-1.01,.44-1.05,1.1,.15,.46,.51,.51,.88,.44,.83-.16,1.66-.33,2.48-.55,1.17-.31,2.14-.05,2.97,.83,.24,.26,.54,.47,.82,.7,.88-.16,1.21-.79,1.48-1.48,.29-.73,.6-1.45,.85-2.19,.13-.39,.22-.82,.2-1.23-.08-1.37,.42-2.52,1.39-3.41,1.24-1.14,1.37-2.48,1-3.98-.06-.23-.17-.45-.23-.69-.18-.76-.03-1.12,.63-1.52,.36-.21,.72-.41,1.14-.64,0-.39,.01-.75,0-1.1-.03-.48-.12-.97-.11-1.45,.04-1.48,.75-2.13,2.19-1.97,.78,.08,1.57,.2,2.28,.84,.45,1.72,.93,3.52,1.37,5.33,.1,.4,.12,.86,0,1.25-.27,.91-.19,1.79,0,2.69,.09,.41,.05,.84,.09,1.26,.03,.3,0,.66,.17,.87,.75,.97,.81,2.14,1.01,3.26,.17,.94,.43,1.78,1.68,2.1-.54,.54-.95,.95-1.35,1.35-.23,.73-.1,1.32,.42,1.74,.66,.13,1.01-.21,1.37-.54,.4-.36,.82-.71,1.27-1.01,.8-.53,1.63-.74,2.57-.24,.26,.14,.66,.02,1.12,.02-.09-.36-.07-.66-.21-.79-.89-.81-1.09-1.99-1.67-2.97-.24-.4-.12-.83,.44-1.15,.4,.23,.85,.49,1.34,.77,.13-.08,.36-.14,.41-.27,.51-1.32,1.35-2.42,2.28-3.46,.43-.48,.67-1.01,.56-1.65-.11-.67-.04-1.31,.21-1.95,.35-.89,.08-1.82-.14-2.68-.27-1.04-.02-1.93,.51-2.76,.25-.39,.65-.73,1.05-.97,.96-.56,1.78-.27,2.22,.74,.27,.61,.56,1.23,.68,1.87,.12,.63,.03,1.29,.03,2.05,.55,.21,1.03-.43,1.61-.38,.6,.05,1.19,.17,1.87,.27,1.42-.63,2.99-1.09,4.17-2.34,.55-.58,1.39-.67,2.02-.93,1.08,.54,.81,1.54,1.15,2.42,.67-.1,1.37-.2,2.12-.3,.45,.23,.93,.47,1.45,.74,.28-.02,.58-.03,.88-.07,.72-.1,1.3,.12,1.76,.7,.52,.65,1.07,1.28,1.59,1.91,.49-.05,.61-.4,.62-.77,.01-.62-.11-1.21-.67-1.6-.45-.31-.92-.59-1.35-.92-.36-.27-.59-.62-.29-1.2,1.14-.2,2.33-.1,3.49,.23,.81,.23,1.59,.59,2.32,1.01,.6,.35,1.2,.53,1.88,.57,2.36,.15,4.71,.37,7.06,.45,.95,.03,1.95-.1,2.85-.38,.82-.25,1.63-.4,2.48-.45,1.14-.06,2.28-.23,3.57-.37,.34,.3,.79,.69,1.35,1.19,1.45-.23,2.99-.47,4.53-.72,1.54-.25,3.08-.52,4.64-.78,.73-.5,1.48-1.02,2.23-1.52,.62-.41,.86-.96,.84-1.69-.03-1.03,0-2.06,.05-3.08,.02-.33,.21-.66,.34-1.04,.42,.12,.74,.22,1.14,.34,.37-1.38-.61-2.77,.17-4.25,.14,.32,.28,.51,.3,.71,.41,3.12,.81,6.24,1.2,9.36,.03,.24,.05,.48,.1,.72,.29,1.21,.89,1.81,2.14,1.84,1.69,.04,3.4,.01,5.08-.12,1.57-.12,3.12-.42,4.68-.65,.18-.03,.36-.06,.54-.1,1.55-.37,2.02-1.03,1.88-2.59-.16-1.8-.31-3.6-.48-5.59,.42,.17,.71,.29,1.11,.45,.4-.38,.8-.81,1.26-1.18,.42-.35,1.02-.28,1.26,.19,.27,.53,.45,1.11,.57,1.69,.23,1.06,.36,2.15,.92,3.13,.99,.28,1.99,.52,2.95,.85,1.19,.41,2.09,.06,2.93-.83,.87-.92,1.31-1.88,1.38-3.21,.08-1.58,.73-3.11,.85-4.74,.06-.87,.87-1.5,1.75-1.65,1.36-.25,2.75-.38,4.14-.47,.75-.05,.75,.05,1.62,.8-.57,1.15-.79,2.47-1.5,3.61-.22,.35-.35,.76-.53,1.15-.17,.39-.24,.88-.53,1.14-1.32,1.22-1.61,2.94-2.3,4.46-.42,.92-.7,1.9-1.04,2.86,.34,.5,.85,.46,1.3,.3,1.58-.57,3.3-.77,4.7-1.83,.97-.74,1.94-.51,2.82,.23,1.02,.86,2,1.75,3.03,2.59,.6,.49,1.25,.94,1.92,1.35,.67,.41,1.37,.78,2.08,1.11,.49,.23,1,.42,1.52,.57,.54,.15,1.09,.05,1.57-.26,.51-.33,1.02-.66,1.5-1.02,.24-.18,.58-.44,.58-.66-.01-1.43,1.35-2.42,1.22-3.87-.08-.86,.68-1.41,.8-2.18,.11-.71,.01-1.45,.15-2.15,.07-.37,.39-.78,.72-.98,.67-.4,1.4-.74,2.14-.96,1.1-.32,2.24-.55,3.37-.75,.52-.09,1.09-.08,1.62,.01,.74,.13,1.22,.7,1.07,1.44-.28,1.34,.09,2.5,.67,3.67,.21,.43,.32,.91,.45,1.38,.22,.78,.66,1.43,1.21,2.01,.74,.77,1.3,.9,2.28,.51,.23-.09,.44-.2,.66-.31,1.61-.8,3.28-1.11,5.08-.91,.83,.09,1.7,0,2.53-.13,1.94-.31,3.73-.02,5.38,1.09,.28,.19,.63,.29,1.1,.51,0-.44,.07-.73-.01-.98-.17-.51-.46-.99-.64-1.5-.21-.62-.35-1.27-.55-1.9-.37-1.21-.75-2.43-1.14-3.63-.53-1.61-1.11-3.2-1.58-4.82-.2-.68-.16-1.43-.25-2.28-.34-.61-.82-1.31-1.16-2.08-.67-1.52,.47-4.12,2.04-4.69,.37-.13,.88-.17,1.23-.02,.89,.36,1.75,.82,2.59,1.3,.23,.13,.35,.46,.55,.74-.43,.49-.89,.89-1.18,1.38-.31,.51-.43,1.13-.69,1.68-.31,.64-.68,1.26-1.08,1.97,.36,.22,.64,.47,.96,.57,1.4,.41,2.08,1.39,2.27,2.77,.17,1.16,.62,2.22,1.2,3.21,.33,.57,.72,1.13,1.17,1.61,.93,1,1.45,1.02,2.49,.2,.33-.26,.64-.55,1.01-.87,.34,.17,.73,.25,.94,.49,1.08,1.25,2.57,1.78,4.01,2.41,.44,.2,.93,.31,1.34,.56,1.16,.7,2.39,.78,3.69,.52,1.01-.2,2.03-.34,3.04-.58,.45-.11,.98-.28,1.27-.61,.72-.81,1.33-1.72,1.96-2.61,.13-.18,.15-.46,.17-.69,.02-.24,0-.48-.02-.73-.16-1.58,.61-2.51,2.05-3,.23-.08,.45-.19,.68-.25,.73-.17,1.33-.55,1.86-1.07,1.38-1.36,2.98-1.5,4.69-.74,1.45,.64,2.89,.87,4.4,.29,.16-.06,.29-.19,.58-.38-.69-.38-1.59,.19-2-.58-.11-.2-.15-.43-.26-.73,.87-.36,1.94,0,2.55-.98,.08-.69,.17-1.45,.28-2.47-.2-.16-.53-.41-.92-.71,0-.62-.04-1.28,.9-1.53,.86,1.14,.77,2.64,1.4,3.79,.17,0,.25,.03,.29,0,1.01-.94,1.97-1.92,3.2-2.61,.63-.35,.95-1.06,.93-1.87-.01-.41,.08-.82,.14-1.3,.74-.22,1.43-.42,2.22-.65,.56,.25,1.16,.53,1.76,.79,.44,.19,.89,.37,1.35,.53,.77,.26,1.45,.09,1.94-.57,1.17-1.54,2.32-3.09,3.47-4.64,.22-.29,.4-.61,.65-.87,2.54-2.71,4.72-5.67,6.53-8.91,.49-.89,1.28-1.61,1.56-2.76-.27-.13-.53-.24-.77-.39-.62-.38-.81-.83-.6-1.33,.2-.46,.61-.73,1.17-.66,.71,.09,1.42,.23,2.14,.34,.35-.34,.68-.6,.95-.92,.95-1.1,1.91-2.18,2.81-3.32,.6-.76,1.08-1.61,1.19-2.58-.1-.2-.14-.39-.26-.52-1.13-1.2-2.15-.98-2.68,.57-.12,.34-.16,.71-.3,1.04-.08,.18-.29,.31-.57,.58-.23-.97-.41-1.75-.64-2.71,.18-.18,.47-.47,.75-.77,.91-.98,1.8-1.96,2.35-3.21,.37-.85,.9-1.55,1.82-1.92,.37-.15,.64-.53,.95-.81,.31-.28,.58-.65,.94-.84,.83-.45,1.43-1.09,1.99-1.82,.22-.28,.53-.5,.81-.72,.08-.06,.23-.03,.47-.05,0,.22,.05,.43,0,.63-.05,.23-.22,.45-.24,.68-.13,1.35-1.01,2.2-2.04,2.85-.97,.61-1.75,1.23-1.9,2.47-.04,.38-.43,.71-.61,1.09-.33,.68-.43,1.36,.19,2.1,.27-.18,.55-.3,.73-.5,2.02-2.26,3.82-4.69,5.77-7,1.88-2.22,3.62-4.55,5.33-6.89,.5-.68,1.11-1.28,1.61-1.96,1.15-1.56,2.3-3.11,3.38-4.72,.91-1.36,1.75-2.74,2.77-4.03,1.39-1.75,2.64-3.6,3.92-5.43,.24-.34,.36-.77,.58-1.13,.24-.4,.54-.76,.86-1.21,.62,.32,1.13,.59,1.71,.89,1.09-1.49,.56-3.02,.23-4.36,.46-.54,.84-.47,1.08-.17,.34,.42,.63,.89,.83,1.39,.32,.81,.85,1.47,1.45,2.07,.63,.63,1.21,.73,1.95,.24,.44-.29,.79-.73,1.14-1.13,.28-.31,.48-.7,.77-.99,.35-.34,1.14-.13,1.17,.36,.09,1.49,.47,3-.11,4.48-.58,1.47-.84,3.02-.9,4.6-.04,1.07,.27,2.04,.92,2.88,.59,.77,1.36,.87,2.03,.21,.81-.8,1.72-1.51,2.14-2.66,.2-.53,.67-.99,1.1-1.4,.52-.49,1.13-.9,1.72-1.35,.49,.09,.95,.18,1.44,.27,.11-.18,.28-.32,.28-.47,.02-1.46-.18-2.89-.68-4.28-1.31-3.66-2.92-7.16-5.01-10.45-.19-.3-.41-.6-.67-.86-1.61-1.64-3.05-3.43-4.93-4.81-.41-.3-.72-.82-.91-1.31-.46-1.17-1.22-2.08-2.18-2.85-1.36-1.11-2.67-2.28-4.22-3.14-.4-.22-.72-.6-1.13-.96,.23-.06,.36-.15,.42-.11,1.79,1.02,3.58,2.03,5.34,3.09,1.34,.82,2.66,1.69,3.95,2.59,1.47,1.03,2.54,2.46,3.42,3.96,1.48,2.5,2.83,5.08,4.09,7.69,.89,1.85,1.76,3.72,2.27,5.73,.13,.5,.31,1.03,1.01,1.39,.06-.45,.19-.79,.12-1.09-.55-2.42-1.11-4.83-1.73-7.24-.15-.57-.46-1.11-.76-1.63-.24-.42-.56-.79-.84-1.18-1.3-1.84-2.36-3.77-3.05-5.95-.68-2.15-2.01-4.01-3.44-5.73-.72-.87-1.74-1.5-2.63-2.22-1.89-1.53-2.05-2.5-.68-4.45,.53-.75,1-1.5,.99-2.57-.38-.17-.73-.4-1.12-.49-2.01-.47-4.01-.93-6.03-1.35-.77-.16-1.56-.26-2.34-.3-1-.05-1.88-.31-2.69-.93-.52-.39-1.17-.61-1.76-.91l.03,.02c-1.47-1.24-3.18-1.94-5.07-2.19-.84-.11-1.69-.18-2.53-.24-.54-.04-1.09-.06-1.63-.03-1.45,.08-2.9,.16-4.34,.3-1.14,.11-2.28,.3-3.41,.48-.78,.13-1.55,.27-2.42-.03-.97-1.73-2.75-2.36-4.52-3-1.48-.53-2.98-1.02-4.46-1.56-.74-.27-1.44-.62-1.94-1.42,.18-.23,.33-.48,.54-.67,.27-.24,.57-.48,.9-.61,1.99-.79,3.54-2.3,5.39-3.32,.52-.29,.99-.7,1.39-1.14,.74-.81,.69-1.4-.16-2.14-.37-.32-.77-.6-.83-1.29,.56-1.26,1.06-2.67-.67-3.56-.23-.91-.28-1.81-.68-2.51-.33-.58-1.07-.94-1.64-1.4-.62,.34-.39,1.03-.73,1.43-.36,.42-.48,.94-.71,1.42-.75,1.63-1.03,3.51-2.47,4.79-.09,.08-.17,.18-.21,.29-.38,1.16-1.06,2.16-1.65,3.21-.38,.68-.68,1.4-1.06,2.2,.15,.35,.33,.78,.5,1.16-.34,.59-.82,.67-1.31,.5-1.31-.46-2.74-.57-3.92-1.39-.29-.2-.67-.28-1.01-.39-.56-.17-1.09-.08-1.53,.3-.37,.32-.71,.66-1.07,.99-.85,.78-1.74,1.51-2.54,2.34-.58,.6-1.06,1.31-1.56,1.98-.25,.33-.47,.7-.72,1.03-.06,.08-.21,.1-.44,.19-.35-.42-.72-.87-1.15-1.4-.52-.11-1.11-.23-1.73-.36-.33,.14-.67,.26-1,.41-.52,.24-1.03,.3-1.58,.11-.4-.14-.82-.22-1.24-.25-.94-.06-1.78-.37-2.55-.89-.87-.58-1.81-.97-2.83-1.2-1.39-.31-2.68-.88-3.64-1.93-1.93-2.11-3.35-4.45-2.95-7.49,.14-1.08,.24-2.16,.45-3.23,.15-.78,.55-1.43,1.29-1.89,.44-.27,.78-.75,1.09-1.18,.99-1.39,1.32-3.09,2.11-4.58,.06-.1,.09-.23,.11-.35,.15-.88,.3-1.75,.45-2.66-.25-.49-.77-.46-1.24-.55-1.32-.24-1.66-.61-1.64-1.92,.02-1.44,.3-2.77,1.67-3.62,.4-.25,.74-.62,1.05-.99,.58-.69,.52-1.27-.19-1.89-.32-.28-.69-.5-1.01-.77-.46-.39-.94-.78-.98-1.44,.08-.51,.41-.81,.85-.83,.66-.03,1.36-.08,1.97,.11,1.26,.4,2.48,.95,3.72,1.44,.22,.09,.45,.15,.62,.2,.73-.16,.94-.65,.95-1.23,.02-.81-.19-1.56-.77-2.16-.25-.25-.52-.49-.8-.76,.1-.34,.15-.63,.27-.9,.24-.53,.26-1.06,.07-1.59-.43-1.16-.55-2.35-.36-3.57,.03-.22-.06-.46-.11-.76-.51-.2-1-.4-1.58-.63-.47-.77-.93-1.59-.75-2.58,.19-.09,.32-.21,.4-.18,1.37,.5,2.75,.16,4.12,.03,.66-.06,1.31-.24,1.96-.38,1.02-.22,2.04-.29,3.06-.06,.27,.06,.55,.05,.85-.03-1.06-.77-2.69-.11-3.6-1.5,.22-.24,.37-.58,.6-.64,.63-.17,1.3-.31,1.95-.3,1.99,.03,3.81,.66,5.46,1.76,1.11,.74,2.17,1.54,3.25,2.31,.25,.18,.47,.44,.74,.51,1.28,.34,2.58,.64,3.88,.91,.2,.04,.45-.11,.74-.2-.29-1.54-.21-3.03-.19-4.53,0-.95,.14-1.95-.45-2.82-.57-.85-.3-1.61,.26-2.33,.63-.81,1.26-1.61,1.87-2.38-.05-1.27-.52-2.2-1.49-2.87-.72-.49-1.2-1.15-1.61-1.92-.92-1.77-2.66-2.78-4.01-4.15-.74-.75-1.83-.95-2.83-1.13-1.15-.21-2.05-.7-2.67-1.9,.09-.35,.22-.8,.34-1.26,.02-.06,.05-.12,.09-.16,.79-.82,.8-2.15,1.9-2.81,.97-.59,1.68-1.53,2.76-2.03,.81-.38,1.5-1.02,2.23-1.56,.92-.68,1.91-.98,3.07-.76,1.12,.22,2.27,.24,3.4,.45,1.11,.2,2.29,.04,3.44-.01,.84-.04,1.68-.18,2.53-.26,.78-.08,1.56-.14,2.38-.22,.76,.45,1.5,.93,2.5,.83,.74-.07,1.37,.37,1.83,1.01,.38,.53,.79,1.08,1.67,1.09,.16-.43,.32-.86,.47-1.29,.1-.06,.2-.16,.31-.18,1.05-.21,2.05-.2,2.84,.7,.08,.09,.19,.15,.3,.19,1.31,.46,2.62,.94,3.94,1.35,.45,.14,.97,.16,1.43,.08,.78-.13,1.44,.05,2.07,.47,.55,.37,1.1,.74,1.65,1.12,.35,.24,.66,.56,1.03,.73,.9,.4,1.68,.95,2.44,1.56,.62,.5,1.31,.88,2.12,.99,.18,.02,.36,.07,.53,.13,.53,.19,1.04,.46,1.09,1.08,.06,.71-.16,1.32-.96,1.54-.1,.03-.18,.15-.32,.27,.32,1.26,2.17,1.4,2.24,2.93-.2,.24-.43,.51-.69,.82,.08,.14,.12,.35,.24,.44,2.03,1.36,3.77,3.03,5.32,4.9,.33,.4,.86,.65,1.32,.94,.96,.62,1.99,1.16,2.53,2.27,.13,.26,.36,.5,.6,.68,1.66,1.25,2.16,3.15,2.8,4.97,.25,.7,.24,1.43,.04,2.15-.13,.47-.26,.94-.43,1.39-.51,1.38-.2,2.74,.05,4.1,.09,.51,.46,.88,.92,1.06,.73,.29,1.47,.55,2.23,.75,.99,.26,2.01,.43,3.01,.69,.57,.15,1.19,.31,1.38,1.14-.28,.3-.6,.64-.93,.98,.05,.21,.04,.43,.14,.55,.6,.68,1.22,1.35,1.86,1.99,.69,.69,1.23,1.45,1.73,2.31,.73,1.25,1.66,2.37,2.54,3.52,.18,.23,.45,.43,.73,.53,1.42,.54,2.21,1.83,3.38,2.55-.11,.6-.46,.57-.72,.43-.52-.29-1-.67-1.51-.99-.2-.13-.42-.24-.64-.32-.09-.03-.22,.05-.41,.1-.25,.62-.05,1.23,.46,1.57,1.09,.72,1.31,1.83,1.54,2.96,.13,.65,.31,1.3,.44,1.95,.16,.83,.22,1.66,.1,2.52-.19,1.38-.31,2.77-.35,4.15-.02,.83,.11,1.68,.27,2.51,.52,2.74,1.62,5.31,2.29,8,.28,1.12,.64,2.22,.82,3.35,.25,1.51,.84,2.9,1.25,4.35,.18,.63,.36,1.29,.39,1.94,.06,1.57,.04,3.15,.02,4.72,0,.4-.15,.79-.22,1.14-.9,.28-1.17-.73-1.87-.68-.29,.19-.15,.43-.03,.63,.22,.36,.45,.72,.71,1.05,1.02,1.29,1.81,2.72,2.47,4.22,.29,.66,.72,1.26,1.07,1.89,.68,1.21,1.42,2.4,1.99,3.66,.34,.75,.55,1.63,.56,2.46,.01,2.45,.67,4.79,1.02,7.18,.07,.47,.15,.93,.25,1.53-.47-.18-.79-.3-1.16-.44-.69,.39-1,1.03-1.06,1.78-.1,1.27-.22,2.53-.7,3.73-.13,.32-.19,.75-.09,1.07,.51,1.6-.21,3.26,.24,4.85,.42,1.45,.84,2.91,1.27,4.36,.4,1.33,.04,2.6-.2,3.82-.88,.38-1.06-.57-1.65-.66-.34,.28-.11,.58,.05,.78,.44,.57,.93,1.11,1.39,1.65,.02,.13,.1,.28,.05,.36-.73,1.45-.23,2.82,.24,4.21,.27,.8,.49,1.62,.74,2.42,.66,2.07,1.16,4.19,2.2,6.13,1.07,1.99,1.63,4.14,1.85,6.4,.15,1.53,.13,3.01-.13,4.51-.08,.48-.19,.96-.89,1.15-.19-.22-.49-.44-.62-.74-.3-.72-.54-1.48-.77-2.23-.38-1.23-.96-2.34-1.85-3.29-.61-.65-1.13-1.4-1.76-2.19-.38,.29-.69,.52-.99,.76-.11-.06-.26-.09-.3-.18-.24-.55-.46-1.11-.69-1.67-.25-.6-.34-1.29-.81-1.76-.43,.05-.37,.33-.37,.56,0,.97-.02,1.94,.06,2.9,.15,1.73,.63,3.33,2,4.53,.82,.72,1.63,1.44,2.43,2.18,.97,.89,2.12,1.62,2.65,2.97-.53,1.67-2.27,1.4-3.3,2.16-1.18-.09-2.16-1.1-3.4-.47-.55,.65-.34,1.32-.02,2.01,.25,.54,.57,1.08,.67,1.66,.26,1.44-.26,2.61-1.63,3.56-.28,.08-.74,.21-1.28,.36-.24,.36-.51,.76-.73,1.1-.54,.34-1.03,.22-1.43-.07-.53-.39-.98-.88-1.47-1.33-.3-.27-.6-.54-1.01-.9-.26,.41-.53,.67-.61,.98-.12,.52-.16,1.08-.16,1.62-.01,3.93-.32,7.85-.56,11.78-.13,2.05-.13,4.11-.16,6.16-.03,1.93,0,3.86-.03,5.8-.03,2.23-.3,4.45-.22,6.69,.01,.41-.16,.82-.23,1.14,.24,1.33,.46,2.57,.68,3.81,1.32,.96,2.14-.07,3.09-.78,1.21,.74,2.48,1.25,4.14,.99,.37-.25,.91-.63,1.6-1.1,.22,0,.58-.04,.93,0,.94,.13,1.48-.39,1.87-1.14,.31-.6,.43-1.24,.33-1.93-.08-.53-.08-1.08-.02-1.62,.04-.37,.28-.68,.88-.52,.13,.43,.29,.93,.46,1.48,.85,.67,1.79,.86,2.91,.37,.17-.54,.35-1.1,.56-1.77,.77,.6,.2,1.81,1.27,2.22,.46-.16,1.02-.35,1.7-.58,.16,.28,.37,.56,.49,.87,.17,.45,.24,.94,.42,1.39,.55,1.33,2.09,1.86,3.33,1.11,.33-.2,.54-.61,.77-.95,.09-.14,.1-.35,.1-.53,.04-1.39,.59-2.58,1.5-3.61l-.03,.02Zm-96.65-150.64c1.16,.15,1.84-.38,2.39-1.18,.2-.29,.46-.59,.76-.77,1.6-.98,2.99-2.26,4.71-3.07,.63-.29,1.13-.89,1.63-1.4,.34-.35,.54-.86,.37-1.35-.31-.9-.18-1.77,.09-2.67-1.56-1.4-3.14-2.67-4.81-3.69-1.37,.1-2.66,.08-3.9,.31-1.26,.23-2.44,.76-2.99,2.09-.28,.67-.54,1.35-.79,2.03-.4,1.07-1.09,1.88-2.09,2.42-.24,.13-.56,.25-.82-.17,1.7-1.43,2.37-3.23,1.89-5.54-1.9-.71-4.18-.59-5.47-2.62,.57-1.33,.42-2.68,.14-3.97-.62-.59-1.24-.7-1.91-.4-.6,.27-.9,.79-1.07,1.39-.21,.72-.26,1.46,.15,2.12,.66,1.07,.85,2.27,1,3.46,.12,.9,.12,1.81,.12,2.72,0,1.18,.58,1.93,1.65,2.35,.59,.23,1.19,.46,1.87,.72-.95,.82-1.74,1.56-2.6,2.23-.9,.7-1.85,1.34-2.72,1.96,.04,1.12,.04,1.32,.31,1.46,.36,.2,.76,.39,1.16,.43,.47,.05,.96-.07,1.45-.09,2.24-.09,3.03,.41,3.92,2.43,.26,.59,.37,1.3,1.15,1.71,.25-.08,.6-.13,.9-.29,.43-.22,.78-.63,1.22-.74,1.01-.26,1.72-.84,2.29-1.86Zm-64.72,163.41c-.3-.23-.58-.59-.94-.7-.69-.22-1.41-.34-2.13-.44-2.28-.29-4.56-.54-6.85-.81-3.06-.36-6.13-.72-9.19-1.09-3.73-.44-7.45-.9-11.18-1.31-.65-.07-1.33,.02-1.99,.07-.78,.06-1.56,.15-2.34,.25-.34,.04-.67,.13-.94,.19,.02,2.41,.65,4.66,.39,6.97-.05,.46,.07,.98,.25,1.42,.5,1.23,1.02,2.45,1.62,3.63,.43,.84,.69,1.66,.56,2.61-.07,.54-.14,1.09,.27,1.53,.46,.35,.95,.33,1.39,.1,1.17-.61,2.17-1.45,3.07-2.36-.27-.59-.5-1.08-.76-1.64,1.11-1.39,1.07-3.01,.87-4.54,.4-.8,.75-1.49,1.07-2.13,.21-.06,.33-.14,.43-.12,.29,.07,.57,.16,.85,.28q1.26,.52,2.33-.61c-.1-1.37,.1-2.71,1.32-3.79,2.38,.23,4.79,.45,7.19,.68,.75,.07,1.41,.35,1.9,1.1,.09,.57,.19,1.22,.31,1.87,.05,.3,.08,.6,.18,.89,.22,.64,.99,.91,1.47,.46,.65-.6,1.41-1.13,1.61-2.12,.1-.51,.35-1.04,1.03-1.33,1.79,.26,3.75,.14,5.57,.94,.24,.72,.45,1.38,.73,2.23,.75-.76,1.62-1.11,1.91-2.21Zm94.03-166.01c-.33-.88-.22-1.41-.11-1.94,.14-.67,.07-1.32-.18-1.95-.24-.59-.6-1.05-1.32-1.04-.83,.58-1.65,1.16-2.44,1.71-.01,.27-.05,.45-.02,.62,.2,1.14-.22,2.02-1.13,2.67-.52,.37-.81,.87-1.01,1.46-.07,.21-.25,.39-.42,.64-.38-.09-.72-.21-1.06-.24-.35-.03-.74-.06-1.06,.06-1.18,.45-2.33,.97-3.5,1.46-.32,.66-.68,1.3-.92,1.97-.38,1.04,.23,1.86,1.32,1.77,.65-.05,1.32-.22,1.92-.47,1.13-.47,2.27-.77,3.51-.76,.52,0,1.09-.13,1.57-.35,2.04-.95,3.93-2.15,5.37-3.92,1-1.23,1.73-2.62,1.72-4.28,0-.27,.03-.63-.48-.69-.71,.85-1.01,1.99-1.75,3.26Zm-69.45,184.35c-.08-.21-.17-.34-.15-.44,.42-2.24,.85-4.47,1.27-6.7-.9-.38-1.51-.44-2.24-.28-.57,.12-.96,.47-1.3,.91-.75,1-1.51,1.99-2.33,3.07,.41,.59,.76,1.14,1.16,1.66,.35,.45,.61,.92,.51,1.49-.17,.94-.26,1.92-.88,2.69-.9,.48-2.06,.5-2.56,1.63,.54,1.07,1.6,1.65,2.4,2.68,.1,.87,.21,1.88,.31,2.89,.04,.39,.18,.78,.56,.82,.32,.04,.7-.11,.98-.29,.24-.15,.41-.44,.55-.7,.64-1.23,1.27-2.47,1.86-3.72,.2-.43,.37-.91,.4-1.38,.05-.81,.29-1.52,.65-2.23,.17-.34,.11-.79,.15-1.13-.54-.39-.98-.7-1.34-.96Zm-156.16,.13c-.21-1.08-.46-1.97-.98-2.7-.75-1.05-.95-2.19-.95-3.42,0-.6-.06-1.2-.1-1.79,.31-.52,.62-1.02,.9-1.49-.62-.97-.89-1.15-1.57-.91-1.27,.47-2.47,1.05-2.68,2.62-.02,.17-.16,.32-.21,.43-.92,.94-2.15,.78-3.24,1.01-.57,1.05-.6,2.08-.34,3.19,.33,.2,.63,.4,.94,.57,.81,.42,1.33,1.07,1.37,1.99,.06,1.4,.95,1.98,2.13,2.34,.88,.27,1.67,.24,2.25-.6,.36-.53,.88-.8,1.51-.9,.28-.05,.55-.2,.97-.35Zm42.65-21.38c.08,1.72,.68,2.97,1.19,4.24,.23,.56,.55,1.08,1.17,1.29,2.07-.17,5.26-1.19,7.35-2.38,.56-.32,1.2-.59,1.44-1.34-.21-.84-.86-1.11-1.63-1.12-1.51-.02-3.02-.03-4.52,.07-.79,.05-1.53,.08-2.31-.18-.79-.27-1.63-.36-2.71-.58Zm203.44,5.66c-.58-.48-.86-.7-1.13-.93-.36-.32-.83-.58-1.04-.98-.6-1.16-1.61-1.77-2.74-2.24-.69-.29-1.29-.63-1.73-1.25-.21-.29-.53-.49-.78-.75-.63-.65-1.26-1.3-1.87-1.96-.85-.93-1.5-2.04-2.7-2.64-.4-.2-.68-.67-.97-1.05-1.1-1.44-2.54-2.48-3.93-3.67-.43,1.37-.4,1.65,.69,2.33,.86,.54,1.58,1.09,1.73,2.17,.03,.22,.18,.46,.34,.63,.79,.79,1.23,1.79,1.69,2.77,.38,.81,.94,1.39,1.77,1.72,.39,.16,.76,.37,1.15,.53,1.88,.74,3.46,1.93,4.95,3.26,.63,.56,1.26,1.13,1.94,1.63,.65,.48,1.39,.65,2.61,.44Zm18.59,17.89c.43-.71,.53-1.36,.59-2.01,.14-1.56,.26-3.13,.39-4.7,.05-.6,.1-1.2,.16-1.8,.22-2.22,.46-4.45,.68-6.67,.1-1.02,.09-2.06,.3-3.05,.44-2.1,.34-4.21,.32-6.33,0-.38-.15-.77-.29-1.39-.3,.37-.55,.52-.57,.7-.14,1.41-1.15,2.7-.44,4.39-.47,.29-.94,.58-1.19,.73-.05,.43-.11,.56-.07,.67,.72,2.44,.08,4.9,.17,7.35,0,.17-.12,.35-.13,.52-.06,1.08-.22,2.17-.13,3.24,.08,.99,.01,1.92-.21,2.87-.12,.52-.24,1.09-.16,1.6,.09,.55,.1,1.05-.01,1.6-.16,.77,0,1.52,.59,2.28Zm-3.37-96.86c-.14,.65-.28,.97-.26,1.29,.04,.72-.19,1.3-.66,1.82-1.26,1.38-1.29,3.02-.62,4.58,.68,1.57,.76,3.14,.67,4.78-.02,.41-.03,.86,.11,1.24,.22,.61,.16,1.18,.04,1.78-.07,.34-.06,.69-.11,1.22,.51-.15,.88-.25,1.24-.35,.28-1.58,.25-3.11,.85-4.53,.13-.3,.02-.72-.02-1.07-.07-.53-.17-1.06-.26-1.57,.39-.44,.75-.84,1.15-1.29-.23-.58-.45-1.13-.7-1.74,.16-.46,.37-.96,.52-1.48,.29-1.01,.16-1.94-.72-2.61-.42-.32-.63-.7-.76-1.19-.05-.2-.2-.38-.47-.87Zm-10.66,71.12c-.64,1.02-.44,1.73-.04,2.45,.86,1.52,1.69,3.06,2.54,4.59,.46,.83,1.23,1.31,2.06,1.71,.5,.24,.75,.09,1.21-.68-.21-.59-.43-1.2-.62-1.72,.36-.97,1.53-1.26,1.51-2.35-.17-.47-.53-.76-1-.95-.83-.33-1.49,.46-2.33,.33-1.49-.59-2.08-2.19-3.33-3.38Zm-311.98,.88c-.64,0-1.24-.05-1.83,0-1.41,.13-1.88,.87-1.46,2.23,.18,.58,.41,1.14,.51,1.73,.09,.56,.02,1.14,.02,1.95,.77-.81,1.38-1.45,1.99-2.08,.18-.58,.36-1.16,.54-1.73,.19-.62,.6-1.2,.23-2.1ZM651.01,66.45c.12-.53,.23-.98,.32-1.39-.66-.72-.87-.91-1.16-.84-.39,.1-.86,.21-1.12,.48-.45,.46-.76,1.05-1.08,1.52,.19,1.46,.74,2.51,2.03,3.09,.67-.3,1.15-.7,1.42-1.43-.12-.41-.25-.87-.41-1.43Zm-69.88,184.45c.59-.3,.75-.89,.84-1.49,.15-1.07,.3-2.15,.39-3.23,.08-.96,.11-1.94-.27-2.86-.11-.28-.27-.56-.64-.43-.06,.06-.14,.1-.15,.14-.01,.47-.05,.95-.01,1.42,.1,1.3-.02,2.52-.91,3.58-.26,.31-.47,.73-.52,1.13-.05,.39,.06,.83,.23,1.2,.18,.39,.53,.66,1.06,.55Zm-96-23.43c.43,.49,.85,.92,1.2,1.41,.35,.49,.61,1.04,.93,1.55,.32,.51,.71,.98,1.01,1.5,.3,.52,.53,1.08,.77,1.63,.36,.82,.35,.82,1.06,1.47-.17-.76-.25-1.36-.45-1.91-.79-2.15-1.61-4.3-2.82-6.26-.19-.31-.37-.63-.6-.91-.17-.2-.41-.34-.72-.58-.14,.76-.25,1.34-.38,2.09Zm89.7,15.71c-.35,.61-.23,1.23-.06,1.89,.18,.69,.36,1.41,.34,2.12-.04,1.37,.34,2.61,.9,3.82,.11,.24,.19,.59,.61,.46,.06-.66,.15-1.31,.18-1.96,.02-.42,.02-.85-.07-1.25-.32-1.46-.94-2.85-1.02-4.37-.02-.41-.3-.79-.89-.71Zm-138.42,2.25c-1.58-1.13-2.94-1.58-4.51-1.13-.81,.23-1.62,.42-2.43,.66-.19,.06-.33,.25-.57,.45,.28,.15,.43,.29,.58,.29,1.98,.02,3.96,.03,5.93,.02,.22,0,.43-.12,.99-.29Zm219.33-165.37c.68-1.98,.61-3.68,.12-5.38-.05-.18-.27-.32-.48-.56-.7,.94-1.1,1.91-1.2,2.9-.12,1.16,.35,2.18,1.56,3.04Zm-9.73-5.37c0,.18-.03,.26,0,.3,.82,1.04,1.96,1.29,3.19,1.29,.42,0,.74-.56,.56-.95-.15-.31-.35-.67-.63-.83-1.09-.64-2.16-.52-3.12,.2Zm-200.55,171.02c.15,.24,.24,.57,.44,.69,1.08,.63,2.83,.45,4.03-.4-.7-.38-1.38-.75-2.06-1.12-.82,.16-1.7,.03-2.41,.83Zm-64.33-34.6c.84-.17,1.63-.21,2.22-.82,.41-.43,.26-1.27-.28-1.29-1-.03-2.03,.05-2.84,.77-.32,.29-.24,.88,.14,1.07,.26,.13,.55,.19,.76,.27ZM645.05,69.6c-1.2-.63-2.24-.48-3.27-.06-.23,.09-.37,.39-.63,.68,1.04,.6,1.99,.89,3.08,.9,.19-.23,.42-.44,.56-.69,.12-.2,.14-.45,.25-.84Zm-160.64,159.47c-1.23-.02-1.81,.55-2.24,1.3-.21,.37-.31,.78,.07,1.2,.37,.07,.78,.11,1.18,.23,.34,.1,.67,.26,.99,.4,.32,.14,.51,.66,1.11,.41-.6-.99-1.15-1.9-1.68-2.77,.19-.26,.33-.44,.57-.77Zm190.7-32.55c-.23-.59-.27-.89-.44-1.1-1.31-1.64-2.64-3.27-3.98-4.89-.03-.03-.2,.05-.31,.08,.28,.59,3.41,5.18,3.85,5.6,.11,.11,.32,.12,.87,.31Zm-293.35,8.94c-.04-.34,.01-.66-.12-.87-.3-.48-.81-.75-1.36-.73-.38,.01-.8,.2-1.13,.42-.35,.24-.57,.62-.35,1.08q1.2,.54,2.95,.11Zm167.58,9.76c1.38,.2,2.56-.2,3.52-1.16,.13-.13,0-.51-.01-.84-1.62,.02-2.64,.83-3.5,2Zm-186.82,14.08c-.43,1.02-.37,1.56,.19,2.19,.46,.51,1.19,.34,1.42-.33,.34-1-.08-1.51-1.61-1.86Zm205.63-16.24q1.54-.68,1.38-2.14c-.38-.14-.8-.3-1.25-.46-.66,.92-.87,1.73-.14,2.6Zm37.22-179.72c-.74-1.01-.78-1.1-1.34-1.16-.31-.03-.64,.13-.97,.2-.15,.85,.13,1.42,.8,1.68,.62,.24,1.16,.03,1.51-.72Zm-122.19,188.27c-.43-1.93-1.72-3.32-3-4.71-.08-.09-.29-.07-.65-.14,1.11,1.86,2.36,3.36,3.65,4.86Zm-80.11,2.77c.21,.8,.63,1.17,1.41,1.2,.53-.35,1.05-.7,1.72-1.15-1.13-.67-2.08-.6-3.14-.05Zm259.32-100.55c-.46,.72-.81,1.26-1.13,1.76,.33,.74,.76,1.06,1.44,.94q.58-1.3-.31-2.7Zm-19.97,106.7c-1-.98-2.24-.92-3.76-.81,1.15,.51,2.06,.93,2.99,1.3,.29,.12,.6,.05,.77-.49Zm-89.29-9.05c-.28-1.03-.49-1.31-.92-1.24-.62,.12-.84,.54-.76,1.24h1.68Zm-195.08,7.53c-.37,.77-.06,1.21,.39,1.52,.38,.27,.79,.27,1.04-.33-.17-.66-.62-1.04-1.43-1.2Z"/><path d="M445.21,198.92c1.1,.67,1.84,1.2,2.64,1.6,.72,.36,1.65,0,2.42,.45-.16,.17-.23,.32-.31,.33-1.68,.15-3.34,.51-5.06,.19-.86-.16-1.81,0-2.7,.1-.61,.07-1.18,.09-1.79-.02-1.97-.33-3.95-.58-5.93-.84-1.14-.15-2.29-.22-3.43-.37-2.1-.27-4.2-.54-6.3-.85-.81-.12-1.57-.09-2.27,.36-.82,.53-1.62,.45-2.37-.11-1.07-.79-2.31-1.04-3.58-1.2-2.94-.37-5.89-.75-8.84-1.08-.83-.09-1.69-.01-2.58-.01-.25,.33-.5,.66-.76,.99-.8,1-2.54,.98-2.81-.51-.05-.29-.21-.56-.35-.94-3.41-.84-6.93-.93-10.4-1.36-.7-.09-1.44-.14-2.21,.18,.05,.7,.1,1.35,.14,1.89-.28,.57-.67,.65-1.12,.6-.72-.07-1.45-.13-2.17-.21-1.49-.16-1.97-.79-1.74-2.31,.03-.17,.06-.35,.08-.51-1.03-.5-1.93-.83-3.31-.73-2.03,.15-3.94-.31-5.91-.61-2.75-.41-5.54-.61-8.31-.9-2.65-.28-5.3-.57-7.95-.84-3.37-.34-6.75-.62-10.11-1.01-1.92-.22-3.85-.34-5.75-.77-1.64-.38-3.36-.43-5.04-.62-4.03-.45-8.07-.89-12.1-1.35-3.49-.4-6.98-.81-10.47-1.21-4.21-.49-8.42-1-12.64-1.44-1.74-.18-3.5-.25-5.25-.32-.9-.03-1.81,.1-2.71,.07-.9-.03-1.81-.16-2.88-.26-.55-.73-1.54-.81-2.5-.91-3.67-.4-7.35-.8-11.02-1.18-5.54-.58-11.09-1.16-16.63-1.73-5.36-.55-10.73-1.06-16.1-1.61-2.77-.28-5.54-.62-8.31-.88-.9-.08-1.81,.02-2.71-.02-1.45-.07-2.89-.15-4.33-.29-4.1-.42-8.19-.89-12.28-1.33-2.71-.29-5.42-.55-8.14-.83-3.07-.31-6.15-.64-9.22-.95-4.22-.42-8.44-.83-12.66-1.25-4.46-.44-8.92-.88-13.38-1.32-4.28-.43-8.56-.89-12.84-1.27-4.4-.4-8.79-1.06-13.23-.92-1.03,.03-2.02-.13-3.02-.47-1.01-.35-2.14-.39-3.22-.5-6.09-.6-12.18-1.17-18.27-1.75-3.2-.3-6.4-.57-9.59-.87-3.32-.31-6.63-.64-9.95-.96-2.95-.28-5.91-.56-8.87-.84-4.64-.44-9.29-.88-13.93-1.31-3.32-.31-6.64-.59-9.96-.89-4.83-.44-9.65-.89-14.48-1.32-3.14-.28-6.27-.65-9.43-.55-1.52,.05-3.02-.14-4.5-.52-.76-.2-1.55-.32-2.33-.39-2.11-.19-4.23-.33-6.34-.5-1.15-.09-2.29-.22-3.44-.33-3.62-.34-7.23-.69-10.85-1-3.62-.31-7.24-.55-10.86-.86-2.46-.21-4.92-.48-7.38-.83,.88-.23,1.76-.15,2.64-.05,.84,.1,1.69,.16,2.53,.22,2.65,.21,5.31,.41,7.97,.61,.24,.02,.48,.06,.72,.07,2.54,.14,5.08,.26,7.62,.43,2.6,.18,5.19,.4,7.78,.61,1.45,.12,2.9,.26,4.35,.35,2.72,.18,5.44,.32,8.16,.5,1.69,.11,3.39,.18,5.07,.41,4.03,.55,8.08,.71,12.12,1.06,3.44,.3,6.87,.63,10.31,.93,1.93,.17,3.87,.29,5.8,.46,3.86,.33,7.72,.67,11.58,.99,2.11,.18,4.23,.3,6.34,.48,3.32,.29,6.63,.61,9.95,.91,.54,.05,1.09,.1,1.63,.15,3.92,.33,7.84,.66,11.77,.99,1.99,.17,3.98,.32,5.98,.5,2.17,.19,4.34,.42,6.51,.62,1.81,.16,3.62,.3,5.43,.45,2.72,.23,5.43,.47,8.15,.69,.72,.06,1.45,.03,2.18,.08,1.45,.1,2.9,.2,4.34,.33,2.53,.24,5.06,.52,7.59,.78,2.65,.26,5.3,.52,7.96,.77,2.35,.22,4.7,.44,7.05,.66,3.32,.31,6.63,.64,9.95,.95,1.99,.18,3.98,.34,5.97,.52,.78,.07,1.57,.15,2.35,.22,3.01,.29,6.03,.58,9.04,.88,1.21,.12,2.41,.25,3.62,.37,3.31,.33,6.63,.67,9.94,.99,4.34,.41,8.68,.82,13.02,1.21,1.39,.12,2.78,.2,4.17,.3,.42,.03,.88,0,1.26,.15,1.89,.79,3.93,.7,5.9,.92,5.66,.64,11.33,1.19,16.99,1.74,3.31,.32,6.64,.58,9.95,.88,1.27,.11,2.53,.26,3.8,.39,4.34,.44,8.67,.97,13.02,1.29,3.56,.27,7.1,.82,10.68,.94,2.04,.06,4.13,.12,6.11,.8,.28,.1,.6,.11,.9,.13,4.66,.22,9.28,.87,13.92,1.4,4.33,.49,8.68,.81,13.02,1.24,3.31,.33,6.62,.74,9.93,1.1,2.17,.24,4.34,.44,6.51,.66,3.98,.42,7.95,.84,11.93,1.26,1.99,.21,3.98,.39,5.97,.59,1.08,.11,2.17,.24,3.25,.36,5.12,.57,10.23,1.15,15.35,1.69,2.89,.31,5.79,.55,8.68,.84,2.59,.26,5.18,.53,7.77,.82,2.89,.32,5.78,.65,8.67,.97,2.35,.26,4.73,.34,7.03,.82,1.63,.34,3.24,.18,4.84,.35,3.31,.35,6.61,.79,9.92,1.17,1.99,.23,3.98,.41,5.96,.61,2.53,.26,5.08,.38,7.58,.83,1.78,.32,3.53,.69,5.14,.63Z"/><path d="M586.83,131.85c-.51-.97-.36-1.7-.27-2.41,.52-4.2,1.08-8.4,1.6-12.6,.22-1.8,.37-3.61,.52-5.41,.09-1.03,.29-2.03,.71-2.98,.36-.83,.65-1.68,.92-2.4,1-.6,1.84-1.17,2.74-1.63,.58-.3,1.23-.51,1.87-.67,.67-.17,1.23-.45,1.69-.97,.76-.86,1.62-1.61,2.27-2.58,.53-.79,1.3-1.43,2.02-2.08,.97-.88,2.16-1,3.4-.76,.08,.02,.14,.18,.26,.36-.16,.14-.31,.33-.51,.41-2.29,.97-2.62,1.63-1.99,4.1,.76,.37,1.57,.75,2.37,1.13,.2-.14,.44-.21,.48-.34,.52-1.59,1.57-2.99,1.55-4.77,0-.7,.31-1.41,.53-2.1,.06-.18,.28-.32,.63-.68,.06,.86,.1,1.43,.14,1.98,.73,.57,1.45,.42,2.09,.05,.99-.57,1.97-1.13,2.78-2,1.42-1.52,3.18-2.58,5.22-3.12,.16-.04,.35,0,.5,0,.33,.29,.23,.6,.03,.83-.48,.55-.9,1.08-.99,1.88-.07,.62-.66,1-1.19,1.29-.81,.45-1.5,1-2.03,1.77-.49,.7-1.18,.96-2.05,.89-1.18-.09-2.26,.14-3.15,1.05-.41,.42-.99,.69-1.51,1-.91,.54-1.4,1.31-1.41,2.37,0,.54,0,1.07,0,1.67,1.06,.71,2.13,.87,3.28,.36,.5-.22,1.05-.41,1.43-.77,1.24-1.14,2.87-1.8,3.95-3.14,.12-.15,.38-.18,.62-.29,0,.24,.05,.39,0,.45-1.47,1.6-2.77,3.34-4.47,4.74-2.06,1.69-3.82,3.69-5.5,5.77-1.75,2.17-3.27,4.49-4.67,6.89-.98,1.68-2.2,3.18-3.42,4.68-.61,.75-1.28,1.45-1.88,2.2-.42,.52-.79,1.07-1.15,1.62-.91,1.37-1.88,2.67-3.28,3.59-1.3,.85-2.69,.93-4.13,.63Z"/><path d="M465.07,233.92c-.18,.61-.3,1.2-.53,1.75-.88,2.15-2.72,2.57-4.48,1.03-.13-.12-.22-.29-.35-.47,.14-.23,.29-.46,.48-.77-1.75-1.56-1.7-3.55-1.28-5.65,.64-.17,1.47,.2,1.72-.9-.13-.24-.33-.6-.51-.96-.4-.8-.13-1.61,.7-2.16,.71-.47,1.57-.35,2.07,.4,.29,.43,.48,.98,.53,1.5,.1,.96,.11,1.93,.08,2.9-.04,1.03,.18,1.91,1.01,2.59,.18,.15,.29,.38,.56,.76Zm-2.64-.3c-.89-.18-1.63-.33-2.46-.51-.02,.91,.31,1.43,1.04,1.6,.69,.16,1.14-.18,1.42-1.09Z"/><path d="M526.88,194.54c-.9,.36-1.4,1.3-2.46,1.57-.19-.26-.42-.47-.53-.73-.26-.6-.67-1.01-1.3-1.16-1.1-.27-1.6-1.14-1.85-2.06-.61-2.24-.59-4.43,1.01-6.35,1.01-1.2,2-2.42,3.02-3.62,.18-.21,.45-.35,.83-.63-.16,1.25-.49,2.17-1.22,2.96-.53,.58-.95,1.25-1.42,1.88-.7,.96-.79,2.32,.24,3.3,.43,.41,.8,.91,1.14,1.4,.48,.7,.98,1.37,1.69,1.88,.44,.31,.86,.69,.85,1.56Z"/><path d="M629.66,86.1c.98,.77,1.87,1.47,2.71,2.14-.02,1.36-.72,2.13-1.69,2.84-.54-.06-1.12-.13-1.74-.2,0,1.06,.75,1.52,1.41,2.12-.33,.63-.91,.76-1.5,.8-.79,.06-1.27-.41-1.2-1.2,.03-.41,.13-.82,.17-1.12-.21-.83-1.49-.68-1.22-1.84,.31-.24,.72-.54,1.16-.87-.59-.54-1.55-.26-1.91-1.12-.11-.81,.57-1.22,1.06-1.72,.75-.76,1.71-1.06,2.86-1.22-.04,.51-.08,.9-.12,1.38Z"/><path d="M561.61,180.25c.25,.35,.43,.52,.51,.73,1.18,2.97,2.36,5.94,3.52,8.92,.17,.44,.21,.93,.29,1.27-.37,.71-.65,1.3-.97,1.88-.35,.63-1.11,.66-1.45,.04-.17-.31-.29-.67-.32-1.02-.17-1.62-.28-3.24-.44-4.86-.12-1.14-.21-2.29-.46-3.4-.14-.62-.54-1.2-.87-1.76-.34-.57-.48-1.09,.2-1.79Z"/><path d="M589.05,134.58c-.43,.31-.77,.55-1.27,.9-.18,.71-.39,1.57-.61,2.43,.43,.41,.78,.73,1.11,1.05,.23,.57-.05,1.07-.2,1.58-.45,1.5-1.27,2.71-2.73,3.38-.42-.1-.43-.45-.4-.72,.26-2.39,.49-4.79,.85-7.16,.18-1.2,1.41-2.04,2.63-2.03,.11,0,.24,.06,.33,.13,.08,.07,.13,.19,.28,.44Z"/><path d="M499.14,180.64c-1.69-.93-3.29-.58-4.96-.1,.09-.23,.1-.38,.16-.4,3.43-1.41,6.46-3.53,9.61-5.45,.46-.28,.92-.58,1.4-.83,.19-.1,.43-.08,.78-.13-.18,1.03-.77,1.64-1.37,2.2-.57,.53-1.22,.99-1.87,1.42-1.01,.67-2.02,1.31-2.7,2.37-.21,.34-.61,.55-1.04,.93Z"/><path d="M569.82,252.38c-1.09-.61-2.09-1.47-3.45-.55-.11-.47-.19-.69-.2-.91,0-.17,.05-.36,.12-.53,.09-.22,.21-.42,.34-.66h1.22c.59-.35,.68-.9,.82-1.42,.2-.78,.55-1.43,1.18-1.99,.42-.37,.64-.96,.94-1.43,.36,.78,.36,1.09,.35,2.31,0,.91-.45,1.61-.89,2.22-.22,1,1.14,2.05-.42,2.95Z"/><path d="M463.91,194.66c.21,1.07-.13,1.77-.77,2.08-1.56,.74-2.65,2.05-4.03,3.01-.92,.63-1.83,.7-2.98,.32,.58-1.04,1.36-1.67,2.17-2.26,.43-.32,.91-.59,1.4-.82,1.14-.54,2.29-1.06,3.24-1.93,.2-.18,.53-.22,.99-.39Z"/><path d="M647.51,126.01c-.72,.36-1.01,.59-1.34,.66-1.44,.33-2.71,1.02-3.95,1.77-.75,.45-1.56,.6-2.4,.67-.09,0-.2-.12-.41-.27,.09-.23,.13-.62,.31-.71,2.16-1.06,4.31-2.19,6.75-2.5,.19-.02,.41,.14,1.03,.37Z"/><path d="M596.63,30.29c-.84-.56-1.64-1.04-2.38-1.61-.53-.4-.56-1.09-.15-1.59,.25-.31,.57-.43,.95-.33,.69,.19,1.13,.68,1.41,1.29,.31,.68,.69,1.39,.17,2.24Z"/><path d="M610.79,101.75c-.83,1.09-1.97,1.77-3.33,2.56-.03-.46-.13-.71-.05-.87,.56-1.17,1.68-1.65,2.78-2.13,.09-.04,.25,.02,.34,.08,.09,.06,.14,.18,.27,.36Z"/><path d="M706.08,202.51c-.95-.59-.88-1.49-.71-2.41,.03-.16,.18-.31,.3-.44,.24-.26,.77-.34,.98-.08,.17,.2,.29,.54,.27,.79-.03,.28-.28,.52-.39,.8-.18,.44-.33,.9-.49,1.35l.03-.02Z"/><path d="M476.43,181.71c1.11,.53,1.32,.92,1.11,1.81-.15,.61-.35,.75-1.17,.74-.25-.79-.19-1.59,.06-2.55Z"/><path d="M651.12,86.94c.43,.4,.85,.82,1.3,1.21,.39,.33,.82,.61,1.41,1.05-2.13-.27-2.78-.59-3.71-1.73,.18-.51,.64-.44,1.04-.5l-.03-.02Z"/><path d="M609.07,166.68c-.59,1.31-1.45,2.19-3.09,2.25,.17-.34,.21-.61,.36-.7,.9-.54,1.82-1.04,2.73-1.55Z"/><path d="M591.47,133.27c.18-1.08,.85-1.54,1.45-1.99,.49-.05,.69,.2,.59,.52-.11,.38-.34,.74-.58,1.06-.23,.3-.36,.3-1.46,.41Z"/><path d="M565.73,254.63c1.13-.11,2.24-.25,3.31-.7,.38-.16,.84-.11,.97,.44-.12,.1-.2,.24-.29,.25-1.33,.01-2.66,0-3.98,0Z"/><path d="M672.8,122.21c-.3,.96-.97,1.32-1.62,1.76-.48-.47-.34-.92-.07-1.3,.36-.5,.85-.8,1.69-.46Z"/><path d="M527.39,198.33c.27,.76,.03,1.13-.55,1.34q-.6-.36-.92-.98c.11-.11,.21-.33,.34-.34,.38-.05,.76-.02,1.13-.02Z"/><path class="cls-1" d="M53.74,161.27c-.24-.06-.48-.13-.73-.18-.3-.07-.61-.12-.91-.18"/><path class="cls-1" d="M41.37,160.18c-.25-.34-.61-.13-.91-.18-.36-.07-.73-.12-1.09-.18"/><path class="cls-1" d="M37.01,159.81c-.38-.34-.85-.12-1.27-.18-.48-.07-.97-.12-1.45-.18"/><path class="cls-1" d="M32.64,159.45c-.24-.06-.48-.15-.73-.18-.85-.08-1.7-.12-2.54-.19-.19-.02-.36-.16-.55-.17-.79-.02-1.58,0-2.36-.01-.74-.01-1.45-.02-2.2-.3-.69-.26-1.56-.03-2.34-.06-.61-.02-1.21-.11-1.82-.17s-1.21-.13-1.82-.18c-.97-.07-1.94-.15-2.91-.18-.99-.02-1.94-.22-2.91-.35-1.02-.14-2.05-.03-3.09-.17-1.32-.19-2.66-.14-4-.22-.43-.02-.85-.14-1.27-.17-1.03-.08-2.06-.13-3.09-.19"/><path class="cls-1" d="M656.42,98.4c1.28,1.04,2.75,1.76,4.18,2.54"/><path class="cls-1" d="M673.15,115.84c.12,.18,.24,.36,.36,.55"/><path class="cls-1" d="M673.88,117.66c.12,.18,.24,.36,.36,.55"/><path class="cls-1" d="M674.6,119.48c.24,.24,.49,.48,.73,.73-.16,1.32,.63,2.33,1.09,3.45"/><path class="cls-1" d="M561.49,180.17c.13,.93,.36,1.52,.72,2.18,.28,.52,.49,1.09,.74,1.63"/><path class="cls-1" d="M605.86,43.16c-.18,.18-.39,.34-.54,.55-.4,.57-.98,.81-1.64,.9"/><path class="cls-1" d="M525.84,181.62c-.62,.21-.88,.72-1.09,1.27"/><path class="cls-1" d="M636.6,145.82c-.18,.24-.36,.48-.55,.73"/><path class="cls-1" d="M627.87,156.36c-.12,.67-.24,1.33-.36,2"/><path class="cls-1" d="M385.81,227.41c.25,.18,.18,.32,.02,.56-.12,.19,.04,.55-.39,.53"/><path class="cls-1" d="M683.7,54.6c-.64-.31-1.53-.19-1.82-1.09"/><path class="cls-1" d="M639.32,47.15c-.4,.33-.49,.79-.55,1.27-.04,.31-.12,.61-.18,.91"/><path class="cls-1" d="M506.02,173.81c-.24,.18-.48,.36-.73,.55"/><path class="cls-1" d="M496.75,179.44c-.91,.51-1.98,.61-2.91,1.09"/><path class="cls-1" d="M390.54,245.95h.55"/><path class="cls-1" d="M606.59,100.94c-.75,.61-.97,1.46-1.09,2.36"/><path class="cls-1" d="M600.04,31.16c-.18,.06-.37,.19-.54,.17-.7-.09-1.29,.11-1.82,.56"/><path class="cls-1" d="M657.51,122.38v.55"/><path class="cls-1" d="M647.33,126.02c-.57,.01-1.1,.06-1.66,.31-.42,.18-.98,.16-1.43,.42"/><path class="cls-1" d="M478.56,192.52c.06,.12,.17,.24,.17,.36,.02,.54,.06,1.1,0,1.63-.08,.61,.33,1.09,.36,1.64,.04,.62,.18,1.29-.35,1.82"/><path class="cls-1" d="M510.2,249.76c-.55,.05-1.03,.67-1.64,.18"/><path class="cls-1" d="M570.94,244.49c-.06,.18-.23,.45-.16,.53,.43,.58-.09,.99-.2,1.47"/><path class="cls-1" d="M570.22,254.49c-.42-.06-.93-.3-1.26-.15-1.26,.58-2.56,.22-3.83,.33"/><path class="cls-1" d="M654.96,15.54h-.55"/><path class="cls-1" d="M696.43,202.33c.36,.83,.11,1.7,.18,2.54"/><path class="cls-1" d="M680.79,209.78c-.39-.5-.95-.33-1.45-.36"/><path class="cls-1" d="M727.71,201.61v.55"/><path class="cls-1" d="M424.73,205.24v.55"/><path class="cls-1" d="M678.24,219.78h-.55"/><path class="cls-1" d="M371.26,225.59h-.55"/><path class="cls-1" d="M459.28,233.59c.36,.89,1.05,1.48,1.82,2"/><path class="cls-1" d="M653.87,89.31c-.79-.36-1.58-.73-2.36-1.09"/><path class="cls-1" d="M677.51,232.86h-.55"/><path class="cls-1" d="M610.95,101.67h-.55"/><path class="cls-1" d="M604.77,97.67c-.61,.06-1.21,.12-1.82,.18"/><path class="cls-1" d="M576.95,252.3c-.24,.06-.48,.12-.73,.18"/><path class="cls-1" d="M609.5,166.72c-.3,.18-.65,.32-.9,.55-.61,.59-1.66,1.18-2.74,1.44"/><path class="cls-1" d="M678.97,204.88h-.55"/><path class="cls-1" d="M677.88,221.6h-.55"/><path class="cls-1" d="M663.33,211.06h-.55"/><path class="cls-1" d="M679.7,188.52h-.55"/><path class="cls-1" d="M553.12,203.79v.55"/><path class="cls-1" d="M662.97,123.47c-.18-.12-.36-.24-.55-.36"/><path class="cls-1" d="M602.59,44.61c-.48,.06-.97,.12-1.45,.18"/><path class="cls-1" d="M607.5,95.49c-.18,.79-.36,1.57-.55,2.36"/><path class="cls-1" d="M654.6,237.59h-.55"/><path class="cls-1" d="M659.69,118.38v.55"/><path class="cls-1" d="M678.97,214.69h-.55"/><path class="cls-1" d="M653.87,235.41h-.55"/><path class="cls-1" d="M628.23,90.22c.06,.48,.12,.97,.18,1.45"/><path class="cls-1" d="M350.53,205.61v.55"/><path class="cls-1" d="M638.6,3.54v.55"/><path class="cls-1" d="M615.68,101.3c-.3,.18-.65,.32-.9,.56-.46,.45-.86,.96-1.28,1.44"/><path class="cls-1" d="M394.54,204.88v-.55"/><path class="cls-1" d="M599.13,186.34c.54,.27,.27,.89,.55,1.27"/><path class="cls-1" d="M477.65,196.52c0,.12,.05,.28,0,.36-.43,.6,0,.93,.37,1.28"/><path class="cls-1" d="M679.7,195.43h-.55"/><path class="cls-1" d="M380.72,199.79v.55"/><path class="cls-1" d="M718.61,204.88v.55"/><path class="cls-1" d="M617.86,1v.55"/><path class="cls-1" d="M406.91,206.33h-.55"/><path class="cls-1" d="M441.1,207.42h-.55"/><path class="cls-1" d="M626.23,53.33h-.55"/><path class="cls-1" d="M606.95,53.7v.55"/><path class="cls-1" d="M659.69,252.49h-.55"/><path class="cls-1" d="M463.28,204.15c-.06,.42-.12,.85-.18,1.27"/><path class="cls-1" d="M532.03,214.69c-.42,.06-.85,.12-1.27,.18"/><path class="cls-1" d="M656.42,241.58c-.42,.06-.85,.12-1.27,.18"/><path class="cls-1" d="M564.22,228.68c.42,.06,.85,.12,1.27,.18"/><path class="cls-1" d="M627.68,155.82h-1.09"/><path class="cls-1" d="M405.45,224.87c.06,.3,.12,.61,.18,.91"/><path class="cls-1" d="M414.73,216.69c-.3,.06-.61,.12-.91,.18"/><path class="cls-1" d="M348.17,220.32c-.3,.06-.61,.12-.91,.18"/><path class="cls-1" d="M675.7,140.37l-.73,.18"/></g></g></svg>