<?xml version="1.0" encoding="UTF-8"?><svg id="Layer_2" xmlns="http://www.w3.org/2000/svg" viewBox="0 0 314.57 184.39"><defs><style>.cls-1{letter-spacing:-.02em;}.cls-2{letter-spacing:-.09em;}.cls-3{fill:none;stroke:#000;stroke-miterlimit:10;stroke-width:2px;}.cls-4{letter-spacing:0em;}.cls-5{font-family:ReemKufi-Regular, 'Reem Kufi';font-size:24px;}</style></defs><g id="Layer_1-2"><text class="cls-5" transform="translate(30.26 38.78)"><tspan class="cls-2" x="0" y="0">W</tspan><tspan x="22.01" y="0">elcome to</tspan><tspan x="0" y="28.8">My Port</tspan><tspan class="cls-1" x="82.97" y="28.8">f</tspan><tspan class="cls-4" x="91.7" y="28.8">olio!</tspan></text><path class="cls-3" d="M200.91,79.92c2.32-2.26-5.66-8.9-10.85-17.39-8.52-13.94-3.23-23.74-6.25-33.25C174.6,.29,102.42,.79,63.03,1.06c-25.76,.18-38.31,2.66-48.02,12.02C4.61,23.11-.46,39.07,1.37,54.02c.52,4.28,2.1,17.16,12.07,26.77,9.89,9.53,24.58,10.42,53.56,11.8,18.22,.87,16-.69,34.07,.39,5.12,.31,17.07,.86,40.97,1.98,0,0,10.84,.5,22.57-3.15,3.14-.98,5.8-2.1,8.4-4.2,4.5-3.64,4.05-6.36,6.96-8.48,6.94-5.07,18.49,3.17,20.94,.79Z"/><path d="M286.01,163.06c-.36-.42-.72-.83-1.21-1.39,.42-.03,.7-.05,1.07-.07-.07-.39-.17-.77-.19-1.16-.05-.79,.14-1.51,.88-1.92,.52-.29,.61-.71,.66-1.27,.06-.72,.15-1.55,.55-2.1,.63-.88,1.05-1.75,1.06-2.83,0-.21,.16-.41,.28-.68-.3-.24-.59-.48-.87-.71,.39-.68,.75-1.4,1.2-2.04,.14-.2,.73-.16,.79-.33,.43-1.33,1.23-2.63,.42-4.2-.97,.94-.85,2.29-1.43,3.32-.58,1.03-1.17,2.06-1.84,3.24h.9c-.27,.38-.48,.84-.82,1.13-.75,.63-1.05,1.39-1.01,2.36,.01,.33-.2,.68-.37,1-.28,.54-.66,1.03-.9,1.58-.56,1.28-1.11,2.57-1.58,3.89-.29,.81-.43,1.68-.65,2.56,.26,.38,.55,.81,.84,1.25-.05,.07-.11,.13-.16,.2-.33-.09-.65-.18-1.15-.32-.58,1.34-1.16,2.69-1.76,4.07-.88-.34-.59-.87-.45-1.32,.56-1.79,1.09-3.59,1.71-5.37,2.75-8,5.52-15.99,8.29-23.98,.84-2.44,1.67-4.89,2.56-7.31,.37-1.03,.41-1.97-.03-2.99-.93-2.16-1.76-4.36-2.66-6.53-1.39-3.34-3.52-6.06-6.59-8.06-.76-.5-1.35-1.27-2.02-1.91l-.02,.02c1.12,.07,2.24,.12,3.37,.2,2.01,.14,4.02,.27,6.03,.44,2.1,.18,4.2,.46,6.3,.6,1.85,.13,1.94,0,2.57-1.68,1.01-2.73,2.02-5.46,3.04-8.18,.15-.39,.4-.74,.78-1.04-2.95,10.24-6.34,20.31-9.89,30.44,.24,.11,.51,.29,.81,.36,.84,.2,1.09,.06,1.37-.76,.35-1.02,.66-2.05,1.02-3.07,.08-.24,.28-.45,.65-.63,.02,.28,.12,.59,.04,.84-.32,1.08-.69,2.15-1.05,3.21-.32,.93-.24,1.75,.18,2.7,1.59,3.59,2.69,7.32,2.58,11.31-.07,2.67-.15,5.35-.26,8.02-.02,.51-.12,1.03-.26,1.52-.89,3.16-1.8,6.31-2.7,9.47-.17,.6-.31,1.21-.46,1.82-.12,0-.24-.02-.36-.03-.03-.27-.16-.58-.08-.8,.69-1.69,.69-3.6,1.48-5.23,1.58-3.29,1.64-6.8,1.73-10.32,.06-2.3,.07-4.6-.04-6.89-.12-2.51-.9-4.89-1.91-7.18-.11-.25-.27-.48-.44-.76-.69,.27-.73,.89-.89,1.38-1.09,3.25-2.14,6.51-3.21,9.77-1.55,4.73-3.07,9.47-4.66,14.19-.26,.77-.82,1.45-1.25,2.17,0,0,.03,.03,.03,.03Zm-.02-49.07c-.2-.57-.42-1.12-1.03-1.23-.08,.09-.16,.18-.24,.28,.43,.31,.86,.62,1.28,.94,.3,.36,.58,.74,.9,1.08,1.81,1.89,3.17,4.06,4.17,6.46,.62,1.47,1.23,2.94,1.86,4.4,.18,.41,.4,.8,.68,1.35,.26-.35,.45-.51,.52-.71,.74-2.07,1.47-4.15,2.2-6.23,.25-.72-.07-1.11-.72-1.43-2.27-1.11-4.52-2.27-6.77-3.42-.96-.49-1.91-.99-2.86-1.49Zm11.49,2.53c.26-.69,.37-.95,.45-1.22,.41-1.26,.29-1.56-.98-1.71-2.28-.27-4.58-.45-6.87-.66-.12-.01-.24,.09-.48,.18,.19,.17,.3,.34,.45,.38,1.66,.5,3.32,1.01,4.99,1.45,.91,.23,1.88,.25,2.44,1.58Zm-3.14,17.97c-.5,.89-1.18,1.38-1.25,2.45-.08,1.11-.53,2.26-1.64,2.92-.06,.04-.08,.16-.13,.3,.16,.26,.33,.54,.56,.91-.48,.17-.83,.29-1.22,.43,.21,.42,.37,.73,.51,1.01-.26,.29-.45,.51-.67,.76,1.08,.56,1.16,.59,1.44-.22,.89-2.65,1.72-5.32,2.56-7.99,.03-.1-.06-.25-.16-.57Z"/><path d="M8.96,105.09c.48-.04,.92-.11,1.35-.1,3.94,.09,7.89,.21,11.83,.28,6.76,.12,13.53,.2,20.29,.32,4.37,.08,8.74,.09,13.1,.35,2.58,.15,5.13-.24,7.69-.18,1.36,.03,2.72,.09,4.08,.13,10.47,.28,20.94,.62,31.41,.83,9.67,.19,19.35,.25,29.03,.33,5.12,.04,10.23,0,15.35,.03,5.45,.02,10.9,.07,16.34,.12,.48,0,1.03-.14,1.53,.45-.33,.12-.56,.28-.79,.28-.75,0-1.5,0-2.25-.09-1.55-.17-3.08-.25-4.63,.02-.66,.11-1.38-.07-2.07-.14-.6-.06-1.24-.3-1.8-.19-3.25,.69-6.54,.43-9.82,.43-6.67,0-13.34,.05-20.01,0-8.69-.06-17.38-.15-26.06-.31-7.28-.13-14.55-.37-21.82-.59-2.62-.08-5.24-.28-7.87-.37-1.17-.04-2.34,.1-3.51,.08-7.65-.14-15.3-.3-22.94-.45-1.93-.04-3.85-.02-5.78-.07-5.91-.14-11.83-.3-17.74-.46-1.27-.03-2.54-.04-3.8-.09-.38-.01-.88,.17-1.11-.62Z"/><path d="M202.24,96.74c-.92-2.03-.62-4.14-.36-6.24,.15-1.24,.91-2.04,2.02-2.51,.79-.34,1.29-.14,1.51,.69,.47,1.74,.67,3.48-.05,5.25-.46,1.12-.81,2.3-1.05,3.48-.17,.82-.48,1.37-1.28,1.67-2.02,.76-4.03,1.54-6.22,2.1,.59-.59,1.18-1.17,1.76-1.75-.37-.99-.66-1.92-.97-2.83-.35-1.01,.06-2.28,.16-3.73,1.85,1.17,3.16,2.53,4.5,3.86,.22,.39,.43,.78,.65,1.17,.08-.06,.17-.12,.25-.18-.3-.32-.61-.65-.91-.97Z"/><path d="M299.26,122.98c-.32-.53-.24-1.05-.05-1.62,2.15-6.31,4.3-12.62,6.44-18.93,1.84-5.42,3.66-10.85,5.5-16.27,.49-1.44,1.03-2.87,1.78-4.23-.39,1.24-.76,2.48-1.17,3.72-2.71,8.2-5.44,16.39-8.15,24.59-.66,2-.55,2.17,1.51,2.35,1.21,.11,2.43,.16,3.65,.27,.39,.03,.77,.16,1.1,.23,.08,.71-.3,.84-.68,.84-.8,.02-1.59,0-2.39-.04-.8-.03-1.59-.13-2.39-.15-1.68-.03-1.95,.15-2.48,1.69-.65,1.91-1.24,3.84-1.89,5.75-.21,.61-.52,1.19-.79,1.79l.02,.02Z"/><path d="M162.22,107.16c-.2-.17-.55-.31-.58-.5-.21-1.56-1.33-2.41-2.43-3.31-.5-.4-.91-.92-1.29-1.44-.12-.17-.02-.51-.02-1.13,.59,1.21,1.13,1.95,2.25,1.97,.2,0,.38,.26,.59,.35,.77,.33,1.52,.76,2.33,.92,2.07,.41,4.16,.69,6.24,1.02,2.55,.4,5.09,.84,7.65,1.19,1.29,.17,2.59,.18,4.16,.28-1.61,.51-2.92,.99-4.44,.75-3.43-.55-6.87-.99-10.31-1.49-.51-.07-1-.27-1.5-.38-1.86-.43-2.27-.15-2.68,1.8l.02-.02Z"/><path d="M239.98,134.76c-.02,.25,0,.59-.07,.9-.05,.21-.21,.57-.33,.57-.68,.02-1.39,.07-2.02-.12-.32-.1-.71-.73-.67-1.07,.1-.92,.38-1.82,.67-2.7,.17-.5,.64-.65,1.16-.58,.5,.07,.92,.31,1.01,.84,.12,.69,.16,1.39,.25,2.17Z"/><path d="M211.09,97.45c-1.78,.21-3.42,.41-5.24,.63,.53-1.2,.93-2.31,2.22-2.48,1.36-.18,2.25,.62,3.02,1.84Z"/><path d="M237.46,136.6c.73,.26,1.38,.4,1.93,.72,.57,.34,.73,.98,.52,1.6-.21,.64-.82,.6-1.3,.46-.65-.2-1.33-.45-1.85-.86-.25-.2-.3-.87-.19-1.25,.09-.29,.58-.45,.89-.67Z"/><path d="M217.81,103.83c-1.97-1.61-3.36-3.79-5.23-5.52,.86,.23,1.54,.67,2.11,1.36,.52,.64,1.19,1.16,1.79,1.73,.47,.45,.98,.87,1.4,1.36,.18,.21,.2,.55,.29,.84-.12,.08-.24,.15-.35,.23Z"/><path d="M283.22,165.97c.68,.27,1.14,.45,1.79,.71-.25,.94-.46,1.83-.74,2.7-.05,.15-.37,.31-.54,.28-.18-.03-.48-.25-.48-.41-.04-1.04-.02-2.08-.02-3.28Z"/><path d="M285.99,163.03c.39,1.33-.47,2.05-1.32,2.82-.61-.34-.43-.85-.3-1.26,.18-.57,.73-1.06-.1-1.81l.41-.02c.44,.1,.89,.19,1.33,.29,0,0-.03-.03-.03-.03Z"/><path d="M281.5,111.13c-1-.65-2-1.3-2.99-1.94,.06-.08,.11-.16,.17-.24,1.04,.59,2.07,1.19,2.81,2.21,0,0,.02-.02,.02-.02Z"/><path d="M162.19,107.18c.36,.16,.72,.32,1.33,.58-.88,.23-1.18-.03-1.31-.6,0,0-.02,.02-.02,.02Z"/><path d="M298.4,124.98c-.01,.42-.03,.84-.04,1.26-.68-.54-.17-.86,.06-1.24,0,0-.02-.02-.02-.02Z"/><path d="M299.24,122.96c-.1,.75-.21,1.49-.84,2.01,0,0,.02,.02,.02,.02,.09-.75-.08-1.61,.84-2.01,0,0-.02-.02-.02-.02Z"/><path d="M314.2,77.84c.06-.34,.12-.68,.19-1.02,.06,.02,.12,.03,.18,.05-.13,.32-.26,.64-.38,.95l.02,.02Z"/><path d="M314.18,77.82c-.19,.57-.38,1.13-.56,1.7l.02,.02c.19-.57,.37-1.13,.56-1.7,0,0-.02-.02-.02-.02Z"/><path d="M285.79,165.95c-.07,.02-.14,.04-.2,.06,0-.08-.05-.17-.02-.23,.02-.04,.13-.04,.19-.06,0,.07,.02,.15,.03,.23Z"/><path d="M313.62,79.52c-.07,.28-.14,.55-.2,.83-.06-.02-.13-.05-.19-.07,.14-.25,.27-.49,.41-.74,0,0-.02-.02-.02-.02Z"/><path d="M238.17,61.12c-.27,1.04-.7,1.47-1.8,1.44-1.35-.03-2.69-.2-4.04-.29-.93-.06-1.86-.12-2.79-.12-1.11,0-2.23,.12-3.34,.05-.48-.03-.93-.44-1.54-.76,2.25-1.38,4.45-2.02,6.81-2.11,.42-.02,.9,.07,1.24-.11,1.39-.76,2.4,.09,3.48,.71,.62,.36,1.24,.74,1.98,1.19Z"/><path d="M257.78,72.81c-2.29,1.11-8.35-.14-9.76-1.88,.39-.16,.76-.3,1.22-.48-.21-.29-.39-.53-.6-.82,.27-.68,.85-.92,1.53-1.02,3.51-.48,6.69,.43,9.65,2.28,.14,.09,.21,.27,.43,.56-.5,.09-.85,.22-1.18,.19-1.26-.11-2.52-.23-3.77-.42-.69-.11-1.35-.44-2.03-.52-.62-.07-1.26,.05-2.01,.1,.87,.99,2.02,1.06,3.08,1.31,1.06,.25,2.14,.43,3.46,.69Z"/><path d="M236.71,70.04c-2.19,.35-4.3,1.44-6.75,.84,.43-1.13,1.76-.26,2.16-1.38-.3-.14-.59-.38-.91-.4-1.54-.09-3.08-.12-4.62-.16-.44,0-.88,.04-1.38,.07-.08-.98,.63-1.24,1.04-1.76,.38,.14,.54,.76,1.12,.45,.49-.26,1.11-.28,1.58-.57,1.41-.85,2.92-.91,4.49-.72,.4,.05,.8,.04,1.4,.07-.21-.37-.31-.56-.42-.74,.07-.04,.17-.12,.21-.1,.61,.33,1.26,.62,1.81,1.04,.74,.57,.75,.97,.39,1.93-.13,.36-.09,.79-.14,1.42Zm-4.56-1.51c.07,.03,.15,.06,.22,.08,.02-.06,.04-.13,.05-.19,0,0-.09-.05-.11-.03-.06,.03-.11,.09-.16,.14Z"/><path d="M219.59,66.95c.69,1.7,.24,3.28-.45,4.85-.33-1.65-.49-3.29,.45-4.85Z"/></g><g id="Layer_5"><path d="M242.33,35.11c.17,.37,.42,.67,.87,.49,.56-.23,1.11-.48,1.63-.78,.39-.23,.73-.55,1.07-.82,1.54,1.35,1.91,.87,3.09-.19-.21,.81-.38,1.44-.57,2.17,.92-.04,1.54-.44,2.05-.97,.42-.43,.89-.44,1.42-.42,.71,.02,1.43,0,2.24,0-.08,.39-.18,.86-.3,1.39,.72,.21,1.1-.22,1.45-.64,1.12-1.3,1.11-1.3,2.35-.22,1.2-.09,2.19-1.02,3.58-.92-.28,1.35-1.77,1.22-2.22,2.28,1.81-.72,3.62-1.45,5.44-2.15,.42-.16,.89-.22,1.33-.32,.03,.06,.06,.12,.08,.18-.29,1.05-1.3,.89-2.12,1.19-.1,.48-.21,.96-.3,1.4,.6,.58,1.12,.19,1.64,.06,1.13-.29,1.13-.3,1.78,.78,.19-.09,.48-.13,.58-.28,.53-.86,1.14-1.18,2.03-.49,.09,.07,.3,.09,.4,.04,1.23-.58,2.01,.29,2.87,.89,0,0-.01-.02-.01-.02-.14,.21-.29,.6-.43,.59-1-.05-1.66,.45-2.28,1.14-.34,.37-.88,.55-1.25,.9-.32,.31-.52,.74-.82,1.18,.31,.23,.53,.39,.74,.55,.77,.59,1.53,1.22,2.32,1.78,.57,.41,1.16,.81,1.8,1.09,2.61,1.14,4.85,2.84,7.07,4.58,.36,.28,.6,.71,.88,1.08,.69,.94,1.37,1.88,2.06,2.82,.08,.11,.25,.2,.27,.32,.25,1.25,.75,2.47,.39,3.77-.21-1.34-1.22-2.19-2.06-3.1-.44-.48-1.2-.61-1.99-.33,.14,.2,.19,.38,.29,.41,1.25,.37,1.99,1.34,2.77,2.28,.26,.31,.66,.49,1,.73,.33,1.12,.62,2.26,1.02,3.36,.51,1.42,.37,2.85,.3,4.33-.35,.06-.65,.11-1.04,.18,.03,.52,0,1,.1,1.44,.22,1.11,.09,2.19-.39,3.17-.7,1.41-1.24,2.84-1.07,4.41-1.07,.3-1.34,.68-1.12,1.56,.09,.36,.29,.69,.4,1.05,.15,.51,.07,.93-.54,1.04-.67-.32-.24-1.49-1.36-1.54,.1,.47,.18,.86,.26,1.27-.23,.34-.62,.68-.67,1.06-.05,.36,.18,.83,.42,1.14,.39,.5,.64,.98,.69,1.64,.04,.52,.36,1.01,.57,1.54,.89-.21,.97-.71,.81-1.32-.13-.49-.29-.96-.34-1.52,.55,.68,1.07,1.29,1.93,1.64,.4,.16,.65,1.02,.71,1.59,.11,1.14,.41,2.07,1.09,3.08,.81,1.19,1.58,2.51,1.87,4.05,.19,1.01,.88,1.95,1.46,2.85,.59,.93,1.13,1.95,2.24,2.42,.08,.03,.07,.25,.14,.5-.35,.04-.66,.13-.94,.09-.84-.13-1.66-.3-2.49-.47-1.3-.27-1.3-.27-2.07-1.4-.36,.98-1.13,.91-1.89,.79-1.98-.31-4.03-.26-5.91-1.18-.9-.44-1.22-.32-2.5,.08,.19,2.23-1.43,3.71-2.49,5.57,1.25,.47,2.42,.93,3.6,1.34,.53,.19,.85,.49,1.03,1.04,.44,1.38,.95,2.73,1.42,4.1,.09,.26,.16,.52,.31,1-.46-.17-.76-.23-1.01-.37-1.66-.97-3.31-1.96-4.97-2.93-.28-.16-.59-.28-.9-.39-.59-.2-1.05-.06-1.16,.61-.19,1.13-.94,1.4-1.94,1.37-.61-.02-1.23,.06-1.83,0-2.74-.25-5.17,.66-7.53,1.9-1.91,1-3.86,1.93-5.82,2.83-1.3,.6-2.39,1.46-3.41,2.46-.8,.79-1.01,1.61-.72,2.67,.6,2.22,1.13,4.46,1.73,6.69,1.72,6.45,3.13,12.98,4.02,19.6,1.24,9.2,3.42,18.19,5.69,27.17,.72,2.86,1.77,5.65,2.73,8.45,.34,1,.56,1.95,.29,3.02-.17,.67-.07,1.4-.1,2.1-.02,.42,0,.86-.1,1.26-.06,.21-.34,.4-.56,.48-.08,.03-.4-.28-.41-.46-.1-1.01-.53-1.89-1.05-2.73-.12-.19-.16-.44-.18-.67-.22-1.95-.86-3.71-2.04-5.3-.25-.34-.29-.86-.36-1.31-.1-.64-.05-1.32-.2-1.94-1.06-4.33-2.2-8.65-3.21-12.99-1.07-4.57-2.25-9.14-2.99-13.77-.95-5.9-2.02-11.76-3.27-17.6-.57-2.66-1.22-5.31-1.86-7.95-.13-.53-.38-1.03-.71-1.89-.38,.75-.64,1.17-.81,1.62-.21,.57-.38,1.17-.49,1.76-.27,1.46-.81,2.78-1.85,3.88-.59,.64-.77,1.44-.9,2.31-.18,1.2-.57,2.36-.89,3.54-.32,1.18-.67,2.35-.99,3.52-.14,.54-.23,1.09-.6,1.65-.08-.7-.25-1.41-.21-2.11,.08-1.39-.62-2.53-1.06-3.76-.12-.34-.62-.53-.9-.83-.14-.15-.33-.47-.27-.57,.12-.19,.39-.33,.62-.39,.35-.08,.73-.08,1.19-.11,.43,1.01-.42,2.43,.86,3.36,.78-.96,1.58-1.8,1.3-3.13-.31-1.46-2.2-2.68-3.92-2.49-.69,.08-1.35,.26-2.05-.13-.22-.12-.8,.16-1.05,.41-.25,.26-.56,.79,.24,.88,.31,.96,.63,1.92,.94,2.88,.1,.3,.2,.6,.34,1,.47-.31,.84-.55,1.52-1-.24,.56-.31,.84-.47,1.06-1.4,1.98-1.77,4.31-2.19,6.61-.11,.6,.27,1.01,.79,1.19,.97,.34,1.95,.64,2.94,.91,.39,.11,.83,.07,1.3,.11-.26,2.1-.57,4.13-.75,6.18-.49,5.66-.88,11.34-1.4,17-.37,4.02-.88,8.03-1.36,12.04-.15,1.27-.38,1.41-1.64,1.33-1.36-.09-2.72-.14-4.08-.23-1.33-.09-1.57-.34-1.43-1.67,.3-2.71,.69-5.41,.98-8.12,.8-7.43,1.74-14.84,2.3-22.29,.4-5.38,.72-10.79,.2-16.19-.08-.79-.11-1.61,0-2.39,.16-1.13-.11-2.11-.61-3.11-1.26-2.52-2.47-5.07-3.64-7.63-1.18-2.56-2.99-4.54-5.38-5.99-1.6-.98-3.22-1.92-4.85-2.86-.74-.43-.87-.83-.4-1.61,.46-.76,.97-1.5,1.43-2.26,.17-.27,.28-.58,.5-1.07-.54,.1-.91,.17-1.32,.25-.09-.06-.26-.11-.31-.22-.51-.99-1.02-1.99-1.51-3-.53-1.09-1-2.21-1.58-3.28-.46-.84-.84-1.06-1.72-1.68-.69-.48-1.35-1.02-1.96-1.6-1.66-1.55-3.48-2.86-5.54-3.83-.48-.23-.91-.59-1.51-.99,1.18-.58,2.49-.63,2.64-2.09,1.38,.13,2.31,.9,3.22,1.59,.92,.69,1.8,1.55,2.42,2.51,.6,.93,.85,2.09,1.46,3.15,.02-.33,.15-.7,.06-.99-.66-2.02-.09-4,.08-6,.04-.49,.09-1.09-.15-1.47-.98-1.57-1.24-3.12-.26-4.76,.04-.07,.01-.18,.02-.29-.65-.78-1.25-.51-1.79,.25-.47-.85,.25-1.2,.48-1.79h-.82c.07-.95,.13-1.82,.21-2.91-.37,.21-.57,.32-.94,.53-.28-.52-.57-1.07-.9-1.69-.11,0-.34,.07-.56,.04-1.03-.18-1.32-.92-.64-1.7,.46-.53,.98-1.02,1.47-1.52,.66-.67,1.26-1.34,1.55-2.3,.22-.74,.83-1.34,1.18-2.06,.35-.72,.65-1.49-.29-2.1-.15-.09-.05-.56-.07-.95h-1.02c.19-1.81,1.4-2.86,2.55-4.02-.59-.33-1.14-.64-1.68-.94,0-.21-.03-.36,0-.49,.24-.75-.92-1.62,0-2.17,.72-.43,.84-1.22,1.44-1.66,.11-.08,.18-.21,.27-.33,.79-1.09,.69-1.41-.52-1.79-.39-.94-.76-1.81-1.15-2.75,.71-.29,1.39-.41,1.81-1.17,.2-.37,1.1-.37,1.68-.53,.55-.15,1.18-.18,.85-1.08-.07-.18,.21-.57,.42-.76,.41-.36,.88-.64,1.25-.9-.19-.23-.57-.51-.62-.84-.03-.2,.42-.62,.72-.7,1.75-.45,2.03-1.98,2.54-3.34,.11-.3,.13-.64,.21-1.07h3.58c.55-.28,1.15-.52,1.68-.88,.53-.35,1.03-.77,1.45-1.24,.3-.33,.44-.8,.63-1.17,.72,.49,1.34,.91,1.99,1.35,.26-.27,.45-.65,.67-.66,.26-.02,.54,.27,.82,.43,.1-.34,.12-.83,.37-1.13,.24-.29,.73-.37,1.1-.56,.49-.24,.95-.61,1.46-.7,.48-.08,1,.12,1.77,.25,.51-.29,1.27-.74,1.97-1.14,.68,.37,1.27,.69,1.93,1.05-.16,.35-.34,.77-.53,1.18-.31,.12-.62,.25-.93,.37l.17,.29c.25-.23,.5-.45,.74-.68,.42-.17,.83-.34,1.24-.51,.61,.36,.59,.77,.2,1.24-.45-.05-.89-.09-1.06,.51,.35-.18,.7-.36,1.06-.54Zm30.78,61.33c-.05,.28-.1,.55-.21,1.1,.63-.51,.64-.84,.34-1.23-.03-.28-.06-.55-.09-.83-.16,.06-.38,.07-.45,.18-.28,.45,.06,.63,.41,.78Zm-47.15-9.8c-.33,.22-.66,.45-1.16,.78-.15-1.63,.55-2.69,1.54-3.58,.66-.6,1.41-1.09,2.11-1.64,.51-.4,1.04-.79,1.18-1.66-.51-.05-.96-.07-1.41-.13-1.81-.26-3.63-.47-5.42-.83-1.95-.39-3.39-1.53-4.3-3.33-.13-.26-.35-.48-.64-.86-.15,.44-.29,.69-.32,.95-.19,1.49-.37,2.98-.51,4.48-.04,.46,.07,.93,.11,1.4,.04,.37,.07,.74,.12,1.11,.15,1.06,.28,2.11,.46,3.16,.11,.65,.27,1.29,.43,1.99h.42c.02,.27,.04,.53,.07,.83,.56-.32,1-.58,1.56-.9v1.2c1.36,.03,2.92-.74,3.55,1.06,.59-1.04,1.17-2.03,1.73-3.03,.18-.33,.3-.68,.45-1.03,.52-.51,1.03-1.02,1.55-1.53-1.07,.03-1.24,.84-1.53,1.55Zm22.8-21.21c-.19,0-.38,.02-.56,0-1.19-.14-1.25-.38-.69-1.4,.75-1.35,1.56-2.51,3.29-2.54,.13,0,.26-.14,.39-.15,.59-.05,1.18-.13,1.76-.09,.46,.03,.9,.28,1.36,.34,2.07,.23,3.87,1.09,5.55,2.26,.46,.32,.97,.58,1.69,1-.73,.17-1.16,.27-1.59,.38,2.46,.39,4.81,1.16,7.31,1.52,0-.49,.02-.77,0-1.04-.24-2.52-.39-5.06-.78-7.56-.27-1.74-.29-3.57-1.37-5.11-1.07-1.53-2.1-3.09-3.15-4.64-.05-.08-.12-.14-.19-.21-2.11-2.16-4.5-3.95-7.24-5.26-1.44-.69-2.87-1.39-4.33-2.03-.5-.22-1.07-.3-1.62-.4-.64-.12-1.3-.14-1.93-.29-1.68-.39-3.3-1.12-5.08-1.05-.71,.03-1.41,.07-1.91-.61-.11-.15-.42-.26-.63-.24-1.17,.09-2.38,.06-3.48,.39-.86,.25-1.72,.83-2.32,1.5-.54,.59-1.02,1.19-1.72,1.61-1.01,.6-2,1.23-2.98,1.87-.43,.28-.9,.56-1.18,.96-1.41,1.99-2.77,4.01-4.12,6.03-.2,.3-.35,.67-.43,1.03-.35,1.69-.66,3.4-1.01,5.09-.1,.5-.27,.99-.45,1.48-.36,.97-.73,1.93-1.12,2.88-.24,.58-.52,1.13-.82,1.76,.48,0,.95,0,1.41,0,2.02,0,4.05-.14,6.04,.04,2.52,.23,5.03,.65,7.51,1.16,1.84,.37,3.61,1.06,5.43,1.51,2.98,.73,5.96,.54,8.92-.19h.92c0-.06-.01-.13-.02-.19-.3,.07-.59,.14-.89,.21Zm6.07,.43c-1.86,.24-3.74,.36-5.56,.76-2.15,.47-3.22,1.96-3.29,4.16-.06,1.91,.32,3.73,1.11,5.47,1.1,2.4,2.9,4,5.42,4.78,2.41,.74,4.87,.97,7.38,.74,2.38-.22,3.99-1.46,4.92-3.65,.84-1.97,1.27-4.03,1.31-6.16,.05-2.52-.86-3.84-3.24-4.67-2.59-.9-5.29-1.25-8.05-1.43Zm-26.83,13.78c.66-.04,1.31-.05,1.97-.12,1.82-.18,3.49-.74,4.88-1.96,2.15-1.88,3.32-4.3,3.68-7.08,.32-2.43-.74-4.08-3.03-4.95-3.29-1.25-6.71-1.77-10.21-1.65-1.16,.04-2.34,.2-3.48,.45-1.61,.35-2.62,1.43-3.01,3.02-.69,2.86-.53,5.69,.52,8.44,.58,1.53,1.66,2.57,3.26,3.06,1.77,.54,3.57,.79,5.41,.78Zm19.76,5.84c.29,.06,.77,.03,1.1,.24,1.07,.67,2,.1,2.93-.25,.66-.25,.89-.86,.55-1.37-.69-1.05-1.36-2.16-2.24-3.03-1.06-1.05-2.32-1.9-3.52-2.78-.49-.36-.7-.8-.86-1.37-.58-2.08-1.22-4.13-1.86-6.19-.23-.72-.7-1.22-1.51-1.29-.8-.08-1.34,.35-1.72,1-.22,.36-.38,.75-.6,1.11-.64,1.04-1.28,2.07-1.95,3.09-.38,.59-.93,1.1-1.2,1.73-.67,1.54-1.93,2.51-3.36,3.02-1.64,.58-2.42,2-3.61,3-.55,.46-.42,.93,.16,1.42,.6,.51,1.21,1.01,1.78,1.49,.8-.21,1.6-.42,2.21-.58,.76-.65,1.4-1.2,2.08-1.78-.16-.26-.26-.47-.41-.64-.43-.52-.46-1.04,.04-1.49,.51-.47,1.09-.33,1.52,.1,.42,.42,.8,.92,1.09,1.44,.68,1.23,1.69,1.46,2.73,.54,.25-.22,.44-.49,.7-.7,.99-.79,2.08-1.28,3.39-1.01,1.1,.23,1.78,1.04,1.86,2.16,.02,.26,.06,.53,.14,.77,.16,.44,.35,.87,.57,1.38Zm9.58,7.28c.63-.17,1.3-.15,1.56-.46,.79-.97,1.86-.62,2.8-.81,.22-.04,.47,.05,.7,0,.86-.15,1.59-.46,1.96-1.38,.63-1.61,1.33-3.19,2.02-4.78,.2-.47,.47-.92,.69-1.39,.25-.55,.62-1.1,.7-1.68,.26-1.85,.48-3.72,.59-5.59,.06-.96-.26-1.9-.75-2.81-.34,.56-.49,1.14-.72,1.68-.6,1.37-1.14,2.79-1.9,4.07-.96,1.62-2.5,2.48-4.39,2.73-2.16,.28-4.31,.21-6.45-.16-.58-.1-1.16-.16-1.87-.26,.08,1.16,.77,1.67,1.37,2.24,1.95,1.86,3.58,3.86,3.4,6.8-.03,.53,.17,1.07,.3,1.77Zm-24.47,4.1c.75-1.16,1.8-1.43,3.06-1.41,1.73,.02,3.47,0,5.19-.19,1.5-.16,2.96-.51,4.32,.49,.15,.11,.5-.07,.75-.11-.07-.29-.06-.77-.22-.84-.63-.27-1.3-.53-1.98-.58-1.19-.09-2.29-.35-3.36-.92-.55-.29-1.26-.49-1.87-.43-1.57,.16-3.09-.03-4.62-.24-.37-.05-.75-.05-1.12-.05-.78,0-1.35,.35-1.66,1.08-.31,.74-.12,1.36,.42,1.93,.34,.37,.65,.77,1.09,1.28Zm37.57-8.55c-.47,1.13-.89,2.51-.99,3.96-.02,.35,.02,.96,.18,1.01,.34,.11,.87,.07,1.14-.14,1.07-.82,2.13-1.67,3.07-2.64,.46-.48,.74-1.21,.88-1.88,.23-1.05,.29-2.13,.39-3.2,.09-.91-.4-1.53-1.24-2.37-.07,.97-.15,1.6-.16,2.24-.01,.94-.24,1.84-1.04,2.34-.59,.36-1.35,.44-2.23,.7Zm-13.38-23.25c-2.04-.89-4.09-.84-4.93,0h4.93Zm-42.18,8.66c-.51,.64-.88,1.18-.83,2.02,1.13-.76,1.15-.8,.83-2.02Zm.56-7.61c.1,0,.19,0,.29,0,.1-.44,.19-.88,.33-1.51-.48,.14-.75,.22-1.1,.32,.19,.46,.34,.82,.48,1.18Zm68.94,27.01c-.11,.06-.23,.11-.34,.17,.16,.43,.33,.86,.49,1.28,.32-.61,.49-1.16-.15-1.45Zm-50.02,65.85c-.05,.14-.09,.28-.14,.41,.3,.06,.59,.13,.89,.19,.03-.09,.06-.18,.09-.27l-.84-.34Zm1.88-10.98c-.25-.42-.52-.72-1.11-.14,.51,.07,.81,.11,1.11,.14Zm.25-3.61c.02-.12,.04-.24,.07-.37-.3-.06-.59-.12-.89-.17-.02,.11-.04,.21-.07,.32,.3,.07,.59,.15,.89,.22Zm14.62-33.92c.05,.13,.11,.27,.16,.4,.35-.22,.7-.43,1.04-.65-.05-.09-.1-.18-.15-.26-.35,.17-.7,.34-1.05,.51Zm-16.3,44.65c-.03,.12-.05,.23-.08,.35,.29,.06,.58,.11,.88,.17,.02-.1,.04-.2,.07-.3-.29-.08-.58-.15-.87-.23Zm.32,2.27c-.12-.14-.21-.32-.27-.31-.14,.02-.25,.14-.38,.22,.09,.09,.17,.22,.27,.24,.09,.02,.22-.08,.38-.15Zm1.12-11.35c-.11-.13-.18-.28-.27-.3-.1-.02-.23,.07-.35,.12,.08,.13,.14,.28,.25,.36,.05,.03,.21-.1,.37-.18Zm1.7,1.27c-.01-.12-.03-.25-.04-.37-.26,.04-.52,.08-.79,.12,0,.08,.02,.16,.03,.25h.8Zm-.83,1.45c-.04,.1-.09,.21-.13,.31,.19,.07,.37,.16,.57,.21,.02,0,.09-.2,.14-.31l-.57-.2Zm-.33,1.87l-.06,.38c.3,.05,.6,.1,.9,.16,.02-.11,.04-.21,.06-.32-.3-.07-.6-.15-.9-.22Zm-1.57,1.26c.12-.11,.27-.19,.28-.28,.01-.09-.11-.2-.18-.31-.12,.09-.24,.18-.36,.26,.08,.1,.15,.19,.25,.32Zm.78,13c.11-.15,.19-.24,.24-.35,.01-.03-.13-.16-.18-.15-.12,.03-.22,.12-.32,.18,.07,.09,.15,.18,.26,.32Zm46.71-81.71c-.06,.11-.13,.22-.19,.34l.77,.42c.05-.09,.1-.18,.15-.26-.24-.17-.49-.33-.73-.5Zm-47.29,66.86c.19-.24,.24-.3,.29-.37-.09-.07-.18-.14-.28-.19-.02,0-.14,.12-.14,.18,0,.12,.07,.23,.12,.38Zm-.34,3.17c-.02,.08-.05,.16-.07,.24,.22,.06,.44,.12,.66,.19,.02-.08,.04-.15,.07-.23-.22-.07-.44-.14-.66-.21Zm1.8,5.42c-.07-.05-.13-.1-.2-.16-.05,.09-.11,.19-.16,.28,.08,.03,.17,.09,.23,.08,.06-.02,.08-.13,.12-.2Zm-1.79,16.33c-.16-.15-.25-.23-.34-.32-.08,.08-.17,.16-.22,.26-.02,.03,.1,.18,.16,.18,.11,0,.21-.06,.39-.13Zm31.74-133.77c0-.05,0-.1,0-.15h-.83c0,.05,0,.1,0,.15h.83Zm-29.81,111.76c.11,.06,.22,.13,.33,.19l.16-.31c-.12-.05-.23-.11-.35-.13-.02,0-.07,.14-.13,.25Zm.19,1.81c-.05-.07-.08-.18-.14-.2-.06-.02-.15,.05-.23,.08,.06,.09,.12,.18,.18,.28,.06-.05,.12-.11,.19-.17Zm-2.44,6.81c.02-.07,.05-.14,.07-.2-.2-.08-.41-.15-.61-.23-.03,.07-.05,.14-.08,.22l.62,.21Zm1.35,1.23c.06-.04,.13-.09,.19-.13-.05-.06-.09-.16-.15-.17-.05,0-.12,.08-.19,.12,.05,.06,.1,.12,.15,.18Zm1.95-17.32c-.03-.06-.06-.13-.11-.18,0-.01-.1,.01-.1,.03,0,.07,0,.14,0,.21,.07-.02,.13-.04,.2-.06Zm-5.26-57.67c-.09-.02-.17-.03-.26-.05l-.03,.63,.17,.02c.04-.2,.08-.4,.12-.6Zm4.36,68.84c-.06-.05-.12-.14-.18-.14-.06,0-.13,.09-.19,.13,.08,.07,.16,.14,.24,.21,.04-.07,.09-.13,.13-.2Zm-20.68-93.41l.07,.19c.26-.1,.52-.2,.78-.3-.02-.06-.05-.12-.07-.18-.26,.1-.52,.2-.78,.3Zm16.1,112.15c-.07-.09-.12-.14-.16-.2-.09,.08-.18,.15-.25,.25-.01,.02,.11,.17,.12,.16,.1-.06,.19-.13,.29-.2Zm5.65-31.85c-.07-.02-.14-.04-.21-.06,0,0-.02,.07-.04,.11,.07,.02,.14,.04,.21,.06,0,0,.02-.07,.04-.11Zm-7.77-56.67l-.2-.07c-.03,.14-.07,.28-.09,.43,0,0,.11,.03,.11,.03,.06-.13,.12-.26,.18-.39Zm-16.06-24.46c-.03-.06-.07-.11-.1-.17-.03,.03-.09,.05-.09,.08,0,.07,0,.15,.01,.22,.06-.04,.12-.09,.18-.13Zm21.66,80.02l-.23-.07s-.02,.11,0,.11c.07,.03,.15,.05,.23,.07,0-.04,0-.08,0-.11Zm-2.1,20.73c-.03-.06-.06-.13-.09-.19-.03,.03-.1,.06-.1,.08,.02,.07,.06,.13,.09,.19,.03-.03,.06-.06,.1-.09Zm-1.36,10.21s.02-.08,.02-.12c-.06,.02-.12,.03-.18,.05,.02,.04,.02,.09,.05,.11,.03,.01,.07-.02,.11-.03Z"/></g></svg>