<?xml version="1.0" encoding="utf-8"?>
<!-- Generator: Adobe Illustrator 27.0.0, SVG Export Plug-In . SVG Version: 6.00 Build 0)  -->
<svg version="1.1" id="Layer_1" xmlns="http://www.w3.org/2000/svg" xmlns:xlink="http://www.w3.org/1999/xlink" x="0px" y="0px"
	 viewBox="0 0 550.4 178.1" style="enable-background:new 0 0 550.4 178.1;" xml:space="preserve">
<style type="text/css">
	.st0{fill:#FFFFFF;}
</style>
<g>
	<g id="Layer_2_00000126284573943975485240000008339395370976385969_">
		<g id="Layer_1-2">
			<g>
				<path d="M404,160.9c0-0.1-0.1-0.3-0.1-0.5c-1.1-5.8-2.2-11.7-3.3-17.5c-1.5-7.7-2.3-15.5-1.2-23.3c0.2-1.3-0.3-2.3-1.3-3.2
					c-2.8-2.5-6.4-3.9-8.9-6.8c-0.1-0.2-0.4-0.3-0.7-0.3c-1.5-0.1-1.9-1.1-2.1-2.3c-0.3-1.2-0.5-2.4-1.1-3.5l0,0.1
					c-0.5-3-2.1-5.4-3.7-7.9c-0.4-0.6-1-1.1-0.8-1.9c0.4-1.9-0.9-3.2-1.8-4.6c-0.2-0.3-0.5-0.5-0.8-0.5c-0.8,0-1.7,0.3-2.2-0.5
					c-0.5-0.8,0.7-1.4,0.4-2.3c0-0.1,0.1-0.3,0.2-0.4c0.7-0.1,0.7,1.1,1.5,0.8c0-0.6-0.2-1.1-0.5-1.4c-1-1.2-1.4-2.5-1.3-4
					c0.1-0.9,0.2-1.8,0.4-2.7c0.7-3.5,2.4-7,0.1-10.6c-0.1-0.1-0.1-0.4,0-0.4c1.3-1.3,0.6-2.3-0.3-3.4c-0.3-0.3-0.2-0.8,0-1.2
					c0.5-1,0.5-2.3,1.1-3.2c0.8-1.1,1-2.1,0.6-3.4c-0.3-1.3-0.5-2.5-1.8-3.3c-0.5-0.3-0.7-0.7-0.2-1.2c1.1-1.1,0.5-2.1-0.1-3
					c-1.1-1.5-2-3.1-3.6-4.2c-0.8-0.6-1.7-1.4-2-2.4c-0.7-1.9-2.2-3.2-3.5-4.6c-1-1.1-2.4-1.6-3.9-1.7c-1.2,0-2.5,0.2-3.1-1.3
					c-0.1-0.2-0.7-0.3-1.1-0.4c-2.1-0.4-4.2-0.2-6.6,0.3c0.4,0.3,0.6,0.5,0.8,0.6c2,1.1,3.8,3.2,6.5,1.3c0.3-0.2,0.8,0,1.2,0.2
					c0.5,0.2,0.8,0.6,0.8,1.1c0,0.5-0.4,0.8-0.8,0.8c-1.3,0-2.7,0.8-3.9,0.2c-1.5-0.6-3.1-1-4.5-1.8c-1.1-0.6-2.7-1.3-3.6-1
					c-1.8,0.8-3.2,0.1-4.7-0.4c-0.9-0.3-1.8-0.7-2.8,0.1c0.9,1.1,2,1.6,3.3,1.7c0.6,0,1.5,0,1.7,0.7c0.5,1.3,1.2,2.5,2.4,3.2
					c0.3,0.2,0.2,0.8,0,1.1c-0.3,0.3-0.6,0.2-0.9,0c-1.5-1-3.1-1.7-5-1.3c-0.6,0.1-1.1-0.2-1.6-0.5c-1.5-0.8-3-1.8-4.5-2.4
					c-1.6-0.7-2.7-1.4-3.4-3c-0.8-1.7-2.1-2.8-4.3-2c-0.6,0.2-1.5,0.1-2.2,0c-1.3-0.2-2.5-0.2-3.8,0.4c-1.1,0.5-2.3,0.5-3.5-0.1
					c-1-0.5-2.1-0.6-3.3-0.3c0.2,0.8,1.1,1.2,0.4,1.9c-0.6,0.6-1.3,0.7-2,0.4c-0.5-0.2-1-0.6-1.4-0.9c-0.6-0.4-1.1-0.9-1.8-1.3
					c-1.6-0.9-3.2-0.4-3.9,1.2c-0.3,0.6-0.6,1-1.2,0.9c-2-0.3-4.1,1.2-6.1-0.1c-0.2-0.1-0.5,0-0.7,0.1c-1.8,0.8-3.1,0.5-4-1.4
					c-0.2-0.4-0.7-0.4-1.1-0.3c-0.5,0.2-0.5,0.5-0.4,1c0.1,0.7,0.4,1.1,1,1.5c1,0.7,0.9,1.9,0.2,2.8c-0.8,1-1.8,1.4-2.7,0.6
					c-1.8-1.5-3.7-1.6-5.7-0.8c-0.8,0.3-1.4,0.1-2.1-0.3c-0.3-0.2-0.6-0.4-0.5-0.7c0-0.4,0.3-0.5,0.7-0.6c1.4-0.3,2.7-0.6,4.1-0.1
					c1.1,0.4,2.2,0.3,3.4,0.3c0.3,0,0.7-0.1,0.7-0.5c0-0.4-0.4-0.6-0.7-0.5c-0.9,0.3-1.7,0.4-2-0.8c0-0.1-0.5-0.2-0.7-0.1
					c-1.4,0.9-2.6,0.1-4-0.2c-1-0.2-2.1-1-3-0.2c-1.4,1.2-2.8,1.5-4.5,1c-0.8-0.2-1.2,0.2-1.1,1.1c0,0.4,0.4,0.8-0.2,1.1
					c-1.3-0.8-3.1-0.5-4.4-1.7c-0.4-0.4-1.1-0.4-1.6-0.2c-0.5,0.2-1,0.5-0.6,1.1c1,1.7-0.4,2-1.5,2.9c-0.5-2.7-2.7-2.4-4.5-2.7
					c0.2-1,1.6-0.6,1.4-1.6c-0.2-1-0.9-1.4-1.9-1.5c-1-0.2-2-0.7-2.9-1.2c-1.3-0.7-2.6-1.4-4.2-0.8c-0.4,0.2-1,0-1.4-0.2
					c-1.1-0.5-2.4-0.6-3.5-1c-1.1-0.3-2.4-0.4-3.1-1.7c0.4-0.2,0.6-0.3,0.8-0.3c1.9-0.7,4-0.8,6-1.2c1.1-0.2,1.3-0.9,0.5-1.7
					c-1-1-2.2-1.7-3.7-1.8c-5.2-0.1-10.1,0.8-14.8,3.3c-3.6,2-6.9,4.4-10.4,6.3c-1,0.5-1.9,1.3-2.8,2c-5.5,4.6-11.4,8.7-17.1,13.1
					c-7.2,5.5-15,10.1-22.6,14.9c-5.6,3.5-11.3,6.8-17,10.1c-0.6,0.4-1.3,0.9-2.6,0.8c2-3,4.1-5.4,6.4-7.7c3.9-3.9,7.3-8.1,9.3-13.3
					c2-5.2,2.7-10.6,2.2-16.1c-0.4-6,0.3-11.7,2.8-17.2c0.2-0.4,0.3-0.9,0.4-1.4c0.1-1.4-1-2.3-2.4-2c-0.4,0.1-0.7,0.3-1.1,0.5
					c-1.7,0.9-3.3,0.6-4.7-0.7c-1-0.9-2-1.7-2.9-2.6c-0.8-0.6-1.6-1.1-2.6-1.3c-0.9-0.1-1.8,0.1-2.4,0.9c-0.5,0.8-0.4,1.6,0.1,2.3
					c0.8,1.2,1.6,2.3,2.7,3.1c0.7,0.5,1.2,1.1,1.3,2c0.5,2.9,1.6,5.6,1.8,8.6c0.2,2.7,0.6,5.3,0.9,8c0.8,7.2-0.3,13.8-5.2,19.5
					c-4.1,4.8-8.1,9.8-12.3,14.5c-1.8,2-3.5,4.2-5.9,5.7c-2,1.2-1.9,1.7-0.6,3.7c0.1,0.2,0.2,0.4,0,0.7c-1.7,0.3-3.4-0.1-5.1-0.2
					c-2.6-0.2-2.9-0.6-3.2-3.3c0-0.2-0.1-0.5-0.1-0.7c-0.3-1.1-1-1.2-1.8-0.4c-0.6,0.7-1.1,1.4-1.6,2.2c-0.6,0.9-1.3,1.5-2.4,0.5
					c-0.6-0.6-1.3-0.5-2.1-0.3c-0.5,0.1-1.1,0.4-1.4,0c-1.3-1.6-3.3-1.6-4.9-2.4c-1.9-1-2-1.6-0.9-3.4c0.5-0.9,1.1-1,2-0.9
					c0.7,0,1.4,0.6,2,0.2c0.1-0.1,0.1-0.2,0.1-0.3c-0.1-2.1-1-4.4,1.2-6.1c0.1-0.1,0.1-0.7,0-0.9c-0.2-0.4-0.6-0.4-1-0.3
					c-0.8,0.2-1.4,0.5-1.7,1.2s-0.5,1.5-0.6,2.3c-0.6,2.6-3.1,3.7-5.5,2.5c-0.7-0.4-1.4-0.8-2.2-1.1c-2.2-0.9-3.5-2.5-4-4.8
					c-0.3-1.3-0.7-2.5-1.1-3.8c-0.2-0.7-0.5-1.2-1.3-1.3c-0.7,0-1.3,0.4-1.6,0.9c-0.6,1-0.7,2,0.3,2.9c0.7,0.6,1.3,1.2,1.4,2.2
					c0.1,1.2,0.3,2.2,0.8,3.3c0.2,0.4,0.4,1-0.2,1.3c-0.6,0.3-1.2-0.1-1.4-0.6c-0.4-1-0.6-2-0.9-3c-0.2-0.8-0.3-1.7-1.5-1.6
					c-1,0.1-1.6,0.8-1.8,1.8c-0.3,2.3,0.2,4.4,2.1,6c1.8,1.5,3.8,2.1,6.1,1c0.7-0.4,1.5-0.8,2.3-0.5c0.7,0.2,1.4,0.4,1.4,1.4
					c0,1-0.2,1.8-1.3,2.1c-0.7,0.2-1.4,0.2-2.2,0c-0.5-0.2-1.1-0.4-1.6-0.5c-0.7-0.1-1.3-0.2-1.7,0.6c-0.3,0.6-0.3,1.3,0.2,1.8
					c0.3,0.3,0.6,0.6,1,0.7c0.7,0.2,1.1,0.7,1,1.4c-0.1,1.6,0.3,3.1,0.6,4.6c0.2,1.6,0.2,1.6-1.6,1.7c-1.9,0-2.5,0.7-2.6,2.7
					c0,0.4,0.1,0.8-0.3,1.1c-0.6-0.1-0.8-0.5-0.8-1c0-1.1,0-2.1,0.5-3.1c0.5-1.1,0.2-1.4-0.9-1.4c-3.8,0-7.4,1-10.7,2.8
					c-6.9,3.7-14.4,4.9-22.1,5.7c-5.8,0.6-11.7-0.6-17.5-0.4c-0.3,0-0.6-0.1-0.9-0.2c1.9-0.9,2.4-2.8,3.1-4.4
					c0.9-2.1,0.5-2.6-1.6-2.9c-0.3-0.1-0.7-0.1-1-0.1c-0.5-0.1-0.8-0.5-0.8-1c0-0.5,0.4-0.7,0.8-0.8c1.8-0.5,3.2-1.6,4.8-2.4
					c5.2-2.8,10.1-6.3,15.8-8.2c1.7-0.6,3.2-1.5,4.8-2.4c0.9-0.5,1.6-1.1,1.7-2.2c0.1-0.7-0.3-1.3-1-1.1c-2.3,0.5-5,0.4-6.3,3
					c-0.2,0.4-0.4,0.9-1.1,0.8c-0.4-0.9,0.3-1.5,0.7-2.2c1.7-3,3.1-6.1,3.5-9.6c0.4-3.2,0.1-6.3-0.2-9.5c-0.3-4.6-1.4-9.2-1-13.8
					c0.2-2.5,0.6-4.8,2.1-6.9c2.4-3.5,4.1-7.4,5.7-11.3c1.3-3.4,1.6-6.7,0.9-10.2c-0.1-0.3-0.2-0.6-0.4-0.8c-1.6-1-2.7-2.3-2.9-4.3
					c-0.1-0.6-0.8-1.2-1.5-1.1C88,3.2,88,4,88,4.6c0,0.7,0.1,1.5,0.2,2.2c0.4,1.5,0.5,3.1,0.4,4.6c-0.2,4.8-2.1,9-4.3,13.1
					c-0.2,0.3-0.4,0.5-0.6,0.8c-1.3,1.3-2.4,1.2-3.4-0.3c-0.9-1.4-1.7-2.8-2.5-4.2c-1.5-2.8-2.2-5.6-1.6-8.9
					c0.5-2.8,0.1-5.7-0.2-8.5C76,2.3,75.8,1,74.5,1c-1.3,0-1.5,1.3-1.7,2.3c-0.3,1.2-0.3,2.4-0.4,3.6c-0.1,1.1-0.4,2.3-1.1,3.2
					c-0.9,1.3-2.4,1.2-3.1-0.2c-0.4-0.9-0.7-2-1-3c-0.2-0.8-0.4-1.6-0.9-2.2C66,4.2,65.6,4,65.1,4.1c-0.6,0-0.8,0.6-0.9,1
					c-0.1,0.7-0.2,1.5-0.3,2.2c-0.6,2.9-1.8,3.7-4.7,3.1c-0.5-0.1-0.9-0.3-1.4-0.4c-2.2-0.5-4.5-0.7-6.8-0.6c-1.3,0-2.4,0.4-3.1,1.6
					c-0.7,1.2-0.5,2.1,0.8,2.5c3,0.9,5.8,2.2,8.8,3c3.1,0.8,6.1,1.9,8.7,3.8c3.5,2.6,6.5,5.6,8.6,9.5c0.8,1.5,1.4,2.9,1.6,4.6
					c0.2,2,0.6,4,0.9,6c0.7,3.9,1.5,7.8,2.3,11.8c0.6,3.4,0.4,6.8-0.5,10.2c-1.4,5.6-5.4,9.1-10.2,11.8c-4.9,2.8-9.8,5.5-14.7,8.3
					c-1.3,0.7-2.4,1.5-2.3,3.4c0,1.5-1.3,2-2.6,1.3c-0.4-0.2-0.8-0.6-1.2-0.9c-1.3-0.9-4.4-1.8-6.1-1.8c0.4,0.8,0.7,1.7,1.2,2.4
					c1,1.4,1.2,3,1.3,4.6c0.1,0.7,0,1.5-0.5,1.8c-1.5,1-1.9,3.2-4.1,3.5c-0.5,0.1-0.8,0.6-0.9,1.1c-0.5,3-1.2,6.1-1.2,9.2
					c0,3.8-0.2,7.6-2.4,11c-1.2,1.7-1.4,3.8-1,5.9c0.2,1.3,0.5,2.5,0.5,3.8c0.1,1.7,0.5,3.4,1.8,4.7c0.9,0.9,1.8,1.6,2.7,2.4
					c0.3,0.3,0.6,0.5,1,0.8c0.5,0.1,0.9,0.4,1.4,0.7c0.4,0.3,0.8,0.6,1.1,0.9c0.3,0.2,0.7,0.3,1.1,0.4c0.5,0.2,1.3,0.3,1,1.1
					c0,0.1-0.1,0.2-0.2,0.3c4.2,4.6,4.9,10.8,3.8,17.3c-0.1,0.6-0.2,1.2-0.3,1.8c1-0.5,2.8,0.2,3-1.6c0-0.2,0.3-0.4,0.5-0.5
					c0.4-0.2,0.9-0.6,1.3-0.3c0.6,0.4,0.3,1-0.1,1.5c-0.3,0.3-0.7,0.5-0.4,1c1.2,0.8,2.5,0.1,3.8,0.4c2.5,0.5,2.7,0.4,4.1-1.8
					c2.1-3.2,4.7-5.9,8.6-6.8c1-0.2,2-0.6,2.6-1.3c1.6-1.8,3.4-1,5.4-0.5c-1.6,1.8-1.9,4-3.5,5.5c-0.5,0.5-0.7,1.3-0.9,2
					c-0.5,1.6,0.6,3.4,2.3,3.6c1.6,0.2,3.1-0.1,4.5-0.9c1.1-0.7,2.4-1.3,3.6-1.3c2.8-0.1,5.6-0.5,8.5-0.2c2.8,0.3,5.6,0.7,8.4,0.1
					c-0.1-0.5-1-0.9-0.1-1.2c0.6-0.2,1.3-0.2,1.9-0.2c0.6,0,1.2,0.1,1.4-0.7c0.1-0.4,0.1-0.9,0.7-0.6c0.4,0.1,0.6,0.5,0.7,1
					c0.4,1.7,0.9,2.1,2.4,1.4c1.3-0.6,2.4-1.2,3.4-2.4c0.5,1.8,1.1,2.2,2.1,1.1c0.9-1,1.5-0.6,2.2-0.1c0.3,0.2,0.5,0.6,0.7,0.8
					c1.6-0.8,1.9-2.3,2.5-3.9c1.2,2.6,1.9,2.7,4.3,1c0.8,0.5,0.9,1.5,1.6,2.1c0.5-0.8,1.2-1.5,2.1-1c0.7,0.4,1,1.2,0.4,2.1
					c-0.3,0.5-0.1,1,0.4,1.2c0.7,0.3,1.1,0.8,1.7,1.3c0.3-1.6,0.4-1.4,1.1-2.1c1.2-1.1,3.5-0.3,4-2.4c0-0.2,0.4-0.1,0.6,0.1
					c0.2,0.3,0.4,0.8,0.9,0.3c0.2-0.3,0.1-0.6-0.1-0.9c-0.2-0.4-1-0.4-0.7-1.1c0.3-0.2,0.8-0.2,0.9,0c1.3,1.4,2.8,1,4.4,0.6
					c0.4-0.1,0.8-0.3,1.2-0.4c0.3-0.1,0.9-0.1,0.9,0.2c-0.1,1.4,1.1,1.2,1.8,1.5c0.5,0.2,0.8,0.6,0.7,1.1c0,0.6-0.4,1.1-0.1,1.6
					c2-1,3.1-0.9,4.1,0.6c0.4,0.4,1,0.9,1.5,0.6c1.8-1.1,3.8-0.2,5.7-0.7c2.1-0.5,4-0.1,5.9,1.1c2.7,1.6,4.9,0.6,6.3-2.2
					c0.1-0.3,0.1-0.6,0.6-0.7c1.3,2,3.1,2.6,5.3,1.4c0.9-0.5,1.8-0.2,2.4,0.6c0.8,1.1,2.2,1,3.2,1.7c0.3,0.2,0.6,0,0.7-0.4
					c0.1-0.4-0.1-0.9,0.5-0.9c0.4,0,0.6,0.4,0.8,0.8c0.1,0.4,0,0.8,0.6,1c0.6-0.9,0-2.2,1.1-3c0.1,1.1,0.3,2,0.4,3
					c0.1,0.7,0.3,1.3,1,1.6c1.1,0.3,1.9,0.9,2,2.1c0,0.3,0.4,0.5,0.7,0.5c0.9,0.1,1.8,0.2,2.7,0.1c1.1-0.1,2.1-0.6,2.6-2
					c-1.9,0.1-3.5,0-5-0.5c-0.4-0.1-0.9-0.1-1-0.5c-0.2-0.6,0.3-0.9,0.8-1.1c1.9-0.9,3.9-1.6,6-2c0.4-0.1,0.6-0.2,0.8,0.4
					c0.4,1,1.9,1.6,2.7,1.2c1.1-0.4,0.7-1.3,0.6-2.1c0-1.1-0.1-2.3,0.4-3.3c1.1-2.3,2.2-4.7,3.3-7c0.2-0.4,0.4-0.8,0.9-0.6
					c0.4,0.2,0.5,0.7,0.5,1.1c-0.1,1.3-0.7,2.3-1.3,3.4c-1.4,2.8-0.4,6.6,2.2,8.2c3,1.8,5.5,1.6,8.3-0.6c0.2-0.1,0.4-0.3,0.6-0.5
					c0.6-0.6,1.1-0.8,2-0.2c0.7,0.5,1.7,1.1,2.7,0.5c1.2-0.8,2.7-0.8,4-1.5c0.2-1.6-0.2-3.1-1.6-4c-0.3-0.2-0.5-0.4-0.7-0.7
					c-0.5-0.6-0.3-1.1,0.4-1.3c2-0.7,4.3,0.2,5.4,2.2c0.9,1.7,1.2,1.8,2.6,0.4c0.2-0.2,0.4-0.5,0.5-0.7c0.8,0.3,2,0,2.5,0.7
					c1,1.4,2.4,1.4,3.9,0.9c-0.4,1.1-0.7,2-1,2.8c-0.3,0.8-0.1,1.3,0.8,1.2c1.1-0.1,2.1,0.2,3.1,0.6c0.7,0.3,1.4,0.2,2.1-0.1
					c2.1-0.9,2.8-0.7,3.9,1.4c0.3,0.6,0.7,0.9,1.3,0.7c2.1-0.7,4,1.3,6.1,0.3c0.2-0.1,0.7,0.3,1,0.6c0.6,0.7,1.2,0.8,1.9,0.2
					c1-1,2.2-1,3.4-0.5c0.4,0.2,0.9,0.5,1.5-0.1c-0.5-1.2-1.7-1-2.6-1.2c-1.3-0.3-2.5-0.4-3.1-1.9c-0.4-1-1.5-1.2-2.6-1
					c-1.4,0.3-2.9,0.3-4.1,1.3c-0.4,0.3-0.8,0.5-1.4,0.4c-0.3,0-0.6-0.1-0.8-0.5c-0.1-0.4,0.2-0.6,0.5-0.7c1.2-0.5,2.4-1,3.7-1.3
					c1.2-0.3,1.7-1,1.9-2.2c0.2-1.8,0.4-3.6,1.1-5.2c1.4-3.2,2.4-6.6,3.2-10c0.4-1.4,0.6-2.9,1.1-4.2c2.1-5.2,3.9-10.5,5.3-16
					c0.2-0.7,0.2-1.4,1-1.8c0.5,0.3,0.3,0.6,0.3,1c-0.3,3.8-1.9,7.3-3.1,10.7c-1.5,4-2.9,7.9-3.4,12.2c-0.2,1.5-0.7,2.9-1.4,4.4
					c-1,2-1.6,4.2-2,6.5c-0.4,2.3-0.5,4.2,2.2,5c0.5,0.1,0.8,0.8,1.3,1.1c0.8,0.4,1.8,1.4,2.7,0.7c0.9-0.6,0.2-1.6-0.1-2.5
					c-0.4-1.1,0-1.6,1.1-1.2c1,0.4,2,0.3,3.1,0.6c-0.1,0.4-0.1,0.6-0.3,0.8c-0.3,0.5-0.8,0.9-0.2,1.5c0.5,0.4,0.9,0.1,1.4-0.1
					c0.4-0.2,1.1-0.5,1.2,0.1c0.2,1.5,1.5,1.4,2.4,1.6c1.7,0.4,3.1,1,3.8,2.7c1.2-0.7,1.9-2,3.3-2.1c0.4-1,1.1-1.1,2-0.6
					c0.7,0.4,1.2,0.2,1.4-0.5c-1.4-0.1-1.6-1.1-1.9-2.2c0.5-0.2,1.1-0.3,1.6-0.5c3.3-1.4,6.5-1.5,10-0.4c2,0.6,4.3,0.9,6.5,0.4
					c1.8-0.4,3.4-0.3,4.5,1.4c0.3,0.4,0.8,0.7,1.6,0.6c-0.8-0.7-1.3-1.3-1.9-1.9c-0.3-0.3-0.4-0.7,0-1.1c0.3-0.3,0.7-0.5,1.1-0.2
					c0.3,0.1,0.5,0.4,0.7,0.6c1,1.3,2,2.7,3.9,1c0.2-0.1,0.6,0,0.9,0c0.7,0.1,1.2-0.3,1.4-0.8c0.4-1.6,2-1.7,2.9-2.6
					c1.6,1.4,0.2,2.3-0.5,3.3c0.8,0.3,1.4,0,1.9-0.2c2.3-0.8,2.5-1.1,2.4-3.6c0-1,0.3-1.8,1-2.4c1.2-1.1,2.4-2.2,3.7-3.2
					c1.7-1.4,1.8-1.4,3.6,0c0.4,0.3,0.9,0.4,1.3,0.7c0.9,0.7,2.7,0.1,2.8,1.4c0.1,1-1.6,1.4-2.5,2.1c-0.1,0.1-0.3,0.2-0.4,0.3
					c-1.7,1.3-1.7,1.3-0.6,3.6c1.5-0.3,2.8-1.3,4.3-1.5c1.8-0.2,1.8-0.3,1.6,1.6c-0.1,0.8,0.1,1.4,0.4,2.1c0.2,0.4,0.7,0.3,1.1,0.3
					c0.5-0.8,1.1-1.3,2.1-0.9c1,0.4,0.7,1.3,0.4,2.1c0,0.1-0.1,0.1-0.1,0.2c-0.2,0.4-0.1,0.7,0.3,0.8c0.2,0.1,0.5,0,0.7-0.1
					c0.9-0.5,1.3-1.4,1.8-2.2c2.7-4.5,5.1-9.3,7.6-13.9c1.6-3,3.2-6,5.6-8.5c0.1,0,0.2-0.1,0.3-0.1c1.8-1.6,2.4-3.9,3.4-5.9
					c0-0.1,0-0.2,0-0.4c0.8-1.3,1.5-2.7,2.4-4c1-1.3,0.8-2.5,0.2-3.9c-0.8-1.7-2.1-3.1-3-4.8c-1.9-3.7-3.9-7.3-6-10.9
					c-0.7-1.2-1.4-2.2-1-3.6c0.4-1.3,0.8-2.7,1.2-4c0.1-0.4,0.6-0.6,1-0.4c0.4,0.2,0.6,0.5,0.6,1c0,0.3-0.1,0.7-0.3,0.9
					c-1.4,2.3-0.4,4.2,1,6c0.5,0.7,1,1.2,1.2,2.1c1,3.8,3,7,5.1,10.2c0.4,0.6,0.8,1.5,1.8,1.7c1-1.1,1.3-2.6,1.8-3.9
					c1-2.9,0.6-5.9-0.6-8.5c-1-2.2-1.4-4.4-2.4-6.9c3.1,1.1,6.2,1.6,7.5,4.8c0.2,0.4,0.6,0.5,0.9,0.8c1.5,1.5,3.6,1.9,5.2,3.1
					c2.9,2.2,5.5,4.8,8.3,7.2c1.9,1.6,3.8,3.3,5.7,5c2.2,1.8,4.6,3.4,5.9,6.1c0.9,1.8,2,3.3,3.3,4.8c1.2,1.2,1.8,3,1.3,4.5
					c-0.4,1.1-1,2.3-1.6,3.4c-0.3,0.5-0.6,0.4-1-0.1c-1-1.1-2.9-1.4-3.6-0.6c-1.7,1.8-2.8,1.8-4.5,0.2c-0.9-0.9-1.8-0.9-2.8-0.1
					c-1.7,1.4-2.1,2.3-1.4,3.4c0.5,0.7,0.7,1.4,1.1,2.2c0.2,0.4,0.5,0.9,0,1.4c-0.5,0.5-1.1,0.3-1.6,0c-0.3-0.2-0.5-0.4-0.7-0.6
					c-1-1.4-2.2-1.7-3.7-0.8c0.4,0.1,0.7,0.2,1,0.3c0.5,0.2,0.9,0.4,0.9,1c-0.1,0.7-0.6,0.9-1.2,1c-0.5,0.1-1,0.1-1.4-0.2
					c-1.5-1.2-3.5-1.9-4.5-3.6c-0.9,0.7-1.8,1.3-2.6,1.9c0.2,1,1.2,1.6,1.1,2.6c-0.8,0-1.4-1.2-2.2-0.2c-0.5,0.6-0.8,1.4-1.7,1.6
					c-0.4-0.8,0.1-1.4,0.3-2c0.2-0.7,0.9-1.4,0.1-2c-0.8-0.6-1.5-1.6-2.7-1.4c-0.8,0.1-1.2,0.3-1.1,1.2c0.1,0.8,0.6,1.6,0,2.3
					c-0.6,0.2-1-0.3-1.5-0.4c-1.6-0.4-3,0.2-3.2,1.7c-0.3,2.1-2.1,3.3-2.5,5.2c-0.1,0.5-0.7,0.9-1.1,1.3c-0.4,0.4-0.8,0.3-1.1-0.1
					c-0.2-0.3-0.2-0.6,0.1-0.9c1.2-1,1.5-2.4,2.1-3.8c0.4-0.9,0.4-1.8,0-2.6c-0.5-1-1.3-1.5-2.4-1.5c-1.2,0-1.1,1-1.1,1.8
					c-0.3,3.9-0.9,7.9,0.8,11.7c0.7,1.7,1,2.2,2.5,1.1c0.7-0.5,1.3-0.3,2-0.5c0,0.7-0.8,1.3,0,1.9c1.5,1.1,2.5-0.2,3.6-0.8
					c0.1,1.2,0.8,2,2,2.4c0.3,0.1,0.3,0.3,0.4,0.6c0.2,0.6,0.8,0.5,0.9,0.1c0.3-1.2,1.2-1.3,2-1.2c0.7,0.1,1.4,0.5,2.2,0.1
					c0.2,0.9,1.8,0.6,1.6,1c-0.4,1.4,1.1,1.7,1.1,3c0,2.4,1.2,4.5,3.3,5.9c0.9,0.6,1.8,1.3,2.7,2c0.3-0.6,0.7-1.4,1.3-1.1
					c1.3,0.9,1.2-0.4,1.8-1.1c0.7,2,1.8,3.5,3.3,4.9c0.5-2-0.9-3.3-0.9-4.9c0-1.6,0.4-3.2-0.3-4.8c-0.5-1.2-0.8-2.5-0.9-3.8
					c-0.1-1.6-0.8-2.7-2.2-3.5c0.1-0.4,0.2-0.8,0.2-1.2c0.5-2.8,1.2-3.2,4-2.3c3.3,1,6.2,2.9,9.3,4.2c1.7,0.8,3.6,1.5,4.8,3.2
					c0.3,0.5,0.8,0.4,1.3,0.2c1.4-0.3,1-1.8,1.7-2.8c0.6,0.7,0.9,1.4,1,2.1c0.3,1.1,0.9,1.5,1.9,0.8c0.4-0.3,0.8-0.6,1.2-0.1
					c0.5,0.5,0.7,0.5,1-0.2c0.4-0.9,0.8-1.7,0.2-2.7c0.4,0.1,0.6,0,0.7,0.1c0.7,0.3,1.4,1.2,2.2,0.8
					C404.7,162.8,403.9,161.7,404,160.9L404,160.9z M215.1,138.6c0.2,0.5,0.5,1,0.8,1.6C215.6,139.6,215.3,139.1,215.1,138.6z
					 M222.9,147.6c-1.4-1.5-3.1-2.9-4.6-4.4c1.1,0.8,2.6,0.9,3.3,2.1c1.5,2.4,3.5,4.4,5,6.9C225.5,150.5,224.2,149,222.9,147.6z"/>
				<path d="M62.9,94.8C62.9,94.8,62.8,94.8,62.9,94.8c0,0,0-0.1,0-0.2c0,0,0,0,0,0C63,94.7,63,94.8,62.9,94.8L62.9,94.8z"/>
				<path d="M214.9,138.1c0,0.1,0.1,0.2,0.1,0.3c0-0.1-0.1-0.1-0.1-0.2C214.9,138.2,214.9,138.1,214.9,138.1z"/>
				<path d="M432.2,148.2c0.6-1.5,1.4-2.9,1.7-4.6c0.2-1.3,1.1-2.4,2.1-3.2c2.5-1.9,5-3.9,8.4-4c0.6,0,1.3,0,1.9-0.4
					c0.1-2.2,0.7-4.5,0.1-6.7c-0.1-0.4,0.2-1.1,0.5-0.8c1.5,1.1,2-1.2,3.2-0.9c0.4,0.1,0.9-0.4,1.4-0.5c0.6-0.1,1.4,0.2,1.6-0.7
					s-0.4-1.4-0.9-1.9c-0.8-0.8-1.8-1.1-2.9-0.6c-2.6,1.1-5.3,2.1-8,3.1c-0.9,0.4-1.7,1-2.4,1.7c-3.2,3.4-6.3,2.5-10.3,0
					c-0.5-0.3-0.8-0.8-1.3-1.1c-1.8-1.6-2.3-3.5-1.5-5.7c0.2-0.5,0.5-0.9,0.4-1.6c-1.1-0.3-2-1.1-2.9-1.9c-0.6-0.5-0.9-1.6-1.8-1.4
					c-1.2,0.2-2.6,0.1-3.5,1c-1.4,1.4-3.3,2.1-4.9,3.1c-2.2,1.4-4.3,2.9-6,4.9c-1.2,1.5-2.8,2.5-4.4,3.5c-1.3,0.7-1.6,0.5-1.9-0.9
					c-0.5-2.5-0.2-5.1,0.2-7.5c0.5-3.2,0.2-5.8-3.1-7.4c-1-0.5-1-1.2-0.6-2.2c0.8-2.4,2.2-4.5,3.5-6.7c0.6-1,0.4-1.8-0.6-2.5
					c-0.2-0.1-0.5-0.2-0.6-0.4c-0.1-0.2-0.2-0.5-0.1-0.7c0-0.3,0.3-0.4,0.6-0.3c0.3,0.1,0.6,0.3,0.9,0.3c0.9,0.2,1.2-0.2,0.9-1.1
					c0-0.1-0.1-0.2-0.1-0.2c-1.2-2.9-3.3-3.6-6.1-2c-0.8,0.4-1.5,0.9-2.2,1.5c-0.9,0.8-2,1.1-3.1,1.2c-1.9,0.2-3.1-0.9-3-2.8
					c0-0.8,0.2-1.6,0.6-2.4c0.6-1.2,0.3-2.2-0.7-3c-2-1.5-3.4-3.4-4.7-5.5c-0.4-0.6-0.6-1.2-0.7-1.8c-0.3-1.9-0.3-1.9-1.6-4.1
					c-0.5-0.8-0.4-1.9,0.3-2.5c0.7-0.6,0.9-1.1,0.9-1.9c-0.1-1.1,0.3-2,1.4-2.3c1.2-0.4,1.7,0.7,2.2,1.5c1.8,2.8,4,5.4,6.7,7.4
					c2.2,1.6,4.4,3.5,7.4,3.3c3.7-0.3,7.5-0.6,10.9-2.4c1.7-0.9,3.6-1.6,5.6-1.7c1.4-0.1,2.7-0.8,4-1.2c1.1-0.4,1.1-1.2,0.3-2
					c-1.8-1.8-4-1.6-6.2-1.3c-0.8,0.1-0.9,0.8-1.1,1.4c-0.3,1.2-0.9,2.3-2.1,2.8c-0.4,0.2-1.1,0.5-1.4,0.3c-1.3-0.9-2.3-0.2-3.5,0.2
					c-0.9,0.4-1.9,0.4-2.9,0.3c-2.3-0.1-4.5-0.3-6.8,0.1c-1.2,0.2-2.1-0.5-2.9-1.1c-1.1-0.8-2.1-1.8-3.3-2.9
					c5.9-0.8,11.6-0.3,17.1-1.6c0.1-1.2-0.6-1.2-1-1.5c-0.8-0.6-1.6-1.2-2.3-1.8c-0.3-0.3-0.5-0.7-0.2-1.1s0.6-0.5,1-0.4
					c0.6,0.1,1.3,0.2,1.9,0.4c2.2,0.9,4.6,1.1,6.9,1.3c3.8,0.2,6-1.4,7.1-5c1.1-3.7,3-7.2,3.6-11.2c0.1-0.7,0.4-1.4,1.2-1.3
					c0.9,0.1,1.3,1.1,1.2,1.9c-0.1,2.6-0.1,5.2-1.1,7.7c-0.8,2.2-1.6,4.4-2.4,6.6c-0.4,1.1-0.4,2.2,0.1,3.3c0.6,1.4,1.4,2.6,2.1,3.8
					c0.2,0.4,0.5,0.9,1.1,0.8c0.7-0.2,0.8-0.8,0.8-1.3c0-0.5-0.1-1-0.3-1.4c-0.5-1.7-0.5-2,1-2.9c3.3-2,6.7-3.7,9.9-5.8
					c5.2-3.4,10.7-6.6,15.1-11.1c0.8-0.8,1-1.3,0.2-2.4c-2.6-3.7-5-7.6-7.8-11.2c-0.1-0.2-0.2-0.4-0.3-0.7c-0.4-1-0.7-1.9,0.4-2.6
					c0.9-0.6,1.8-0.2,2.4,0.5c1,1.2,2.2,2.3,2.9,3.6c1.3,2.5,3.3,4.6,4.9,6.9c1.1,1.6,2,3.2,2.5,5c0.9,3,2.4,5.9,2.3,9.2
					c0,1.1-0.2,2.1-0.7,3c-1.4,2.6-2.8,5.1-4,7.9c-0.4,1-0.9,1.9-1.1,3c-0.3,1.6-1.5,2.3-3,2.5c-1.1,0.2-1.5-0.3-1.2-1.3
					c0.6-1.9,1.2-3.7,2.2-5.4c1.5-2.7,2.5-5.6,2.8-8.8c0.1-0.8,0.3-1.6-0.1-2.4c-0.8-0.3-1.4,0.1-2,0.6c-5.7,4.7-12.2,8-18.2,12.2
					c-1.1,0.7-2.2,1-3.5,0.4c-0.6-0.3-1.3-0.4-1.9-0.4c-0.9,0-1.7,0.3-1.9,1.4c3.2-0.1,3.6,0.1,4.1,2.4c1.7-2.2,3.5-2.1,5.5-0.5
					c0.7,0.5,1.6,0.7,2.5,0.9c2,0.6,4.1,1.2,6.1,1.8c1.6,0.5,3.2,0.7,4.8,0.5c1.9-0.2,3.2-1,4-3c1.8-4.2,3.7-8.3,6.1-12.2
					c1.8-2.8,3-6,4-9.2c0.8-2.6,0.5-5.1-1-7.7c-1.9,1.7-2,4.3-3.9,5.8c-2.2-2.4-2.7-4.9-1.5-7.8c0.9-2,1.1-4.1,0.2-6.2
					c-2.1-5.5-3.9-11.2-5.8-16.9c-0.6-2-1.7-3.7-3.2-5.1c-3.4-3.2-6.2-6.9-9.1-10.5c-0.5-0.6-1-1.1-1.1-1.9
					c-0.1-0.8-0.2-1.7,0.6-2.2c0.7-0.5,1.4-0.3,2.1,0.1c0.5,0.3,1,0.6,1.4,1c3.1,2.9,6.1,5.9,8.9,9c0.1,0.1,0.2,0.3,0.3,0.4
					c2.6,3.1,5.5,2.7,7.1-1c0.9-1.9,1.4-3.9,0.9-5.9c-0.1-0.4-0.1-0.8-0.2-1.2c0-0.8-0.7-1.8,0.3-2.2c1.2-0.4,1.7,0.7,2,1.6
					c0.5,1.3,1.2,2.2,2.8,2.4c1.1,0.1,1.3,0.9,1,1.8c-1,3-1.7,6.1-4.2,8.4c-2.1,2-3.1,4.3-2.2,7.3c0.1,0.5,0,1,0,1.5
					c0.1,1.1,0.4,2.2,0.4,3.4c0,1.2-1.7,1.3-1.7,2.5c0.5,0.6,0.9,0.1,1.3,0c2.4-0.6,4.1,0.1,5.3,2.3c0.6,1.2,1.2,2.4,1.5,3.6
					c1.2,4.7,2.6,9.4,3,14.3c0.2,1.8,0,3.5-0.7,5.3c-1.6,4.4-3.9,8.4-6,12.6c-1.7,3.3-3.2,6.8-4.4,10.3c-0.5,1.3-0.4,2.6,0.1,3.8
					c0.1,0.3,0.3,0.6,0.6,0.7c0.5,0.1,0.7-0.3,0.9-0.7c0.1-0.3,0.1-0.9,0.7-0.7c0.4,0.2,0.5,0.6,0.4,1.1c-0.1,0.4-0.4,0.7-0.5,1.1
					c-0.2,0.7,0.1,1.1,0.8,1c1.3-0.3,2.5-0.7,3.6-1.5c2-1.5,4.3-2.6,6.7-3.5c0.5-0.2,0.9-0.4,1.4-0.5c0.3-0.1,0.7,0.1,0.8,0.4
					c0.2,0.4,0,0.9-0.4,1c-0.9,0.3-1.9,0.5-2.8,0.7c-1.1,0.3-1.8,0.7-1,2.1c0.4,0.6,0.5,1.4,0.7,2.1c0.2,0.7,1.3,1,1.1,1.8
					c-0.2,0.7-0.7,1.2-1.2,2c1.5,0.7,2.3-0.3,3.2-1c0.8-0.7,1-1.6,0.6-2.6c-0.7-2-0.5-2.4,1.2-3.6c1-0.7,2.2-1,3.4-1.2
					c6.2-1.3,12.5-2.3,18.7-3.9c3.4-0.9,6.9-1.4,9.7-3.8c0.3-0.2,0.7-0.7,1.1-0.4c1.9,1.5,3-0.1,4.1-1.2c0.6-0.6,0.8-1.6,1.7-2
					c3.7-1.9,6.5-5.6,10.9-6.3c0.3-0.1,0.6-0.2,1-0.2c0.6-0.2,1.3-0.4,1.8,0.3c0.4,0.7,0,1.2-0.4,1.7c-0.2,0.2-0.6,0.3-0.5,0.8
					c1.4-0.2,2.9-0.3,4.5-0.5c-0.3-0.9-1.3-1.4-0.7-2.5c0.9,0.2,1.8,0.5,2.4-0.9c0.4-0.8,1.8-0.4,2.5,0c1.5,1,3,1.1,4.6,0.4
					c0.8-0.3,1.5,0,2.3,0.4c1.8,1,3.5,0.6,5-0.7c0.3-0.3,0.7-0.5,0.6-1c-0.1-0.5-0.6-0.5-1-0.5c-1.8,0.1-3.5-0.7-5.3-1.2
					c0.9,0,1.9,0,2.9,0c-0.2-0.6-1.1-0.3-1.1-0.9c0-0.7,0.6-0.6,1.1-0.7c1.7-0.3,3.3-0.1,5.1-0.1c-0.2,0.9-1.3,1-1.2,1.9
					c0.1,0.1,0.2,0.3,0.3,0.3c0.6-0.1,1-0.1,1.2,0.2c0.4,0.4,0.2,1.4,0.2,1.5c-0.8,3.3,0.3,6.8,0,10.2c-0.6,7.6,0.7,37.7-2.9,46.1
					c-1,2.4-2.6,4-2.6,4c-1.9,1.9-3.5,1.7-4.7,3.1c-1.5,1.7-0.8,3.4-2.6,9.4c-1.4,4.6-2.8,9.2-4.3,13.7c-0.4,1.2-1.1,1.6-1.9,0.8
					c-1.3-1.3-3.1-1.7-4.6-2.7c-1.7-1.2-1.9-1.2-1.3-3.2c0.7-2.6,0-4.8-1.5-6.8c-0.8-1.1-1.5-1.5-2.8-1.2c-1.9,0.4-3.9,0.5-5.8,0.7
					c-0.3,0-0.7,0-1,0c-0.4-0.1-0.9-0.1-1-0.5c-0.2-0.5,0.3-0.7,0.6-0.9c0.6-0.4,1.4-0.6,1.6-1.5c-1.2-0.5-2.3,0-3.2,0.6
					c-4.4,2.8-8.3,6-9.9,11.3c-1.3,4.3-4.8,6.8-8.4,9.1c-0.4,0.3-0.9,0.5-1.3,0.1c-0.3-0.4-0.1-0.8,0.1-1.1c0.8-1.5,1.5-3.1,2.3-4.6
					c0.4-0.8,1.1-1.5,0.3-2.4c-0.2-0.2-0.2-0.4,0.1-0.6c1.8-0.9,1-2.6,1.1-3.9c0.1-0.9-0.1-1.8-0.4-2.6c-0.5-1.7-0.6-3.4,0.7-4.8
					c0.1-0.2,0.1-0.5-0.1-0.8c-0.8-0.1-1.7,0.2-2.7-0.1c-1-0.3-1.9,0.4-2.6,1.1c-1.5,1.6-2.9,3.4-3.4,5.6c-0.5,2.2-1.5,4.1-2.5,6.1
					c-0.8,1.6-1.6,3.1,0.4,4.7c-1.5-0.4-2.5-0.3-2.9,1.2c-0.1,0.4-0.6,0.5-1,0.5c-2.5-0.1-5-0.2-7.5-0.7c-0.8-0.2-1-0.5-0.9-1.4
					c0.6-3.2,1.2-6.4,1.9-9.5c0.2-1-0.3-1.7-0.2-2.6c0-0.8-0.9-0.9-1.3-0.7c-2.3,0.8-3.9-0.6-5.6-1.5c-1.4-0.8-2.7-1-4.2-0.7
					c-0.9,0.1-1.7,0.5-1.6-1.1c0-1.1-2.2-1.9-3.4-1.3c-1.9,0.9-3.8,1.9-5.7,2.9c-1.9,1-3.8,1.7-5.9,2.1c-5.9,1.3-8.9,4.2-9.1,11.2
					c0,1.6-0.1,3.1-0.1,4.6c0,0.8-0.2,1.6-0.8,1.9c-0.8,0.4-1.7,0.3-2.5,0.8c-0.3,0.2-0.5-0.3-0.6-0.6c-0.6-1.4-1.6-2.7-1.5-4.4
					c0.3-3.4,0.9-4.2,0.3-6.6C433.1,149.7,432.6,148.8,432.2,148.2L432.2,148.2z"/>
				<path d="M2,28.1c0.3-1.3,1.5-1.1,1.9-2c-0.8-1.1-1.6-2.2-2.4-3.3c-0.8-1-1.2-2.1-1.5-3.3c-0.2-1,0-1.9,1-2.6
					c0.9-0.6,1.5,0,2.2,0.4C3.6,17.6,3.9,18,4.6,18c0.2-1.6-1.2-2-2-2.7c1.3-2.2,1.4-2.2,4-0.6c0.8-1.4,1.1-3.1,2.3-4.2
					c0.3-0.3,0.4-0.7,0.7-1c0.8-0.6,1.6-1.4,2.6-0.7c1.1,0.7,0.4,1.6,0.1,2.4c-1.4,3.6-2.2,7.3-3,11c-0.3,0.2-0.6,0-0.9-0.1
					c-0.6-0.2-0.9,0-1.2,0.4c-0.3,0.5-0.2,0.9,0.2,1.4c0.5,0.6,1,1,1.7,1.3c1.3,0.6,1.6,0.4,1.7-1.6c0.9,1.6,2.3,1.9,3.8,1.9
					c1.1,0,1.8-0.5,2-1.7c1-5.7,4.3-9.9,8.8-13.3c0.3-0.2,0.5-0.4,0.8-0.5c1.2-0.7,2.3-0.6,2.9,0.2c0.7,1,0,1.7-0.5,2.4
					c-0.6,0.7-1.2,1.3-1.9,1.9c-3,2.8-5,6.2-5.6,10.3c-0.2,1.4-0.5,2.9-1,4.3c-0.8,2.6,0.9,4.1,2.3,5.8c0.5,0.6,1,0.3,1.3-0.4
					c0.7-1.4,1.6-2.6,2.5-3.9c1.2-1.7,2.9-2.6,4.8-3.1c3.5-0.9,7-1.3,10.6-1.6c1.7-0.1,3.4-0.3,5-1c0.8-0.3,1.7-0.8,2.3,0.4
					c0.4,0.9-0.2,2-1.4,2.5c-0.9,0.3-1.8,0.6-2.8,0.9c-3.7,0.9-7.3,2.1-11.1,2.8c-0.7,0.1-1.4,0.5-2,0.9c-2.7,2-4,5.1-5.5,7.9
					c-0.4,0.6,0.2,1.2,0.5,1.8c2.3,3.8,4.7,7.6,7.4,11.2c2,2.6,4,5.3,5.9,8.1c1.5,2.2,2.4,4.9,2.9,7.5c0.6,3.1,4.9,5.5,7.7,4.8
					c2.6-0.7,5.2-1.2,7.8-1.8c0.4-0.1,0.8-0.2,1.2-0.2c0.7-0.1,1.3,0.2,1.6,0.8c0.4,0.8-0.1,1.3-0.6,1.7c-0.5,0.4-1,0.8-1.6,1
					c-2.9,1.1-5.7,2.3-8.9,2.4c-1.5,0.1-2.6,0.9-3.7,1.8c-0.4,0.3-0.8,0.8-1.6,0.9c-0.4-1.1-0.8-2.2-1.2-3.3
					c-0.6-1.3-1.1-1.6-2.5-1.2c-0.2,0-0.3,0.1-0.5,0.2c-2.5,1.1-2.6,1.1-2.7-1.8c0-2.4-0.7-4.4-2.2-6.5c-1.3-1.8-2.2-4-3.3-5.9
					c-2.5-4.2-5.3-8.2-8.3-12.1c-0.9-1.1-2.7-1.1-2.9-2.3c-0.2-1.2-0.4-2.4-1-3.4c-3-4.6-5.7-9.5-10.1-13.1
					c-1.1-0.9-2.2-1.6-3.4-2.4c-0.4-0.3-0.8-0.5-1.4-0.3C4.3,28.8,3.3,28.1,2,28.1L2,28.1z"/>
				<path d="M432.1,148.1c-0.2,0.5-0.5,1.1-0.5,1.6c0.1,2.4-1.1,4.4-1.9,6.5c-0.3,0.9-0.6,1.9-1.9,1.9c-0.2,0-0.5,0.2-0.5,0.4
					c-0.6,1.8-2.2,2.2-3.6,2.9c-0.5,0.2-1.2,0.2-1.2,1c0,0.4,0.3,0.9-0.4,0.9c-0.4,0-0.5-0.3-0.6-0.7c-0.1-0.6-0.3-1.3-0.4-2.1
					c-0.8,0.4-0.7,1.5-1.5,1.8c-0.7-0.2-1.2-1.1-2.1-0.8c-0.3,0.1-0.8,0.1-0.9,0.2c-0.8,2.5-2,1-3,0.3c-0.6-0.4-1.1-0.6-1.8-0.3
					c-0.5,0.2-1.1,0.3-1.6,0.4c-2.1,0.5-3.6-0.3-4.2-2.4c-1-4-1.4-8.1-2.1-12.2c-0.4-2.1-1.1-4.1-0.9-6.2l0.2-0.1l-0.2,0.2
					c-1-1.9-1-4.1-1.2-6.1c-0.1-0.5,0-1,0.5-1.2c0.5-0.2,1.2,0.1,1.3-0.8c0.1-0.7-0.7-0.9-0.8-1.4c0.2-0.5,0.6-0.7,1-0.5
					c1.9,0.9,4.1,1.2,5.3,3.2c0.7,1.2,1.7,1.6,3.1,1.2c0.8-0.2,1.3-0.4,1.4-1.3c0.1-0.9,0.7-1.6,1.8-2.3c-0.3,2.7,2.2,3.4,3.1,5.2
					c0.1,0.3,0.7,0.3,1.1,0c0.2-0.8-0.8-1.2-0.8-2.2c2.2,0.8,4.6,0.6,5.9,3c0.2,0.4,0.5,0.6,0.7,1c0.3,0.4,0.7,0.8,1.2,0.6
					c0.6-0.2,0.8-0.6,0.8-1.3c0-1.2,0.5-1.4,1.4-0.8c1,0.6,1.3,1.6,1.5,2.7c0.3,1.9,0.7,3.8,1,5.8
					C431.5,146.7,431.7,147.5,432.1,148.1L432.1,148.1L432.1,148.1z"/>
				<path d="M409.9,68.3c1-3.2,0-6-2.5-8.3c-2.2-2.2-3.5-5.1-5.1-7.7c-2.4-3.9-5-7.6-8.6-10.5c-1.8-1.5-3.3-3.4-4.8-5.2
					c-4.3-5.5-9-10.7-14.4-15.2c-3.1-2.6-6-5.6-8.8-8.4c-2.8-2.8-3.7-6.4-4-10.2c-0.1-1.5,0.6-2.5,1.7-2.6c1-0.1,1.8,0.2,2.1,1.3
					c0.2,0.7,0.2,1.4,0.4,2.2c0.4,3,1.8,5.4,4.1,7.2c0.5,0.3,0.8,0.4,1.2,0c1.3-1.3,2.4-2.6,2.7-4.5c0.2-1.3,0.6-2.5,1-3.8
					c0.1-0.5,0.4-0.9,0.7-1.3c0.2-0.3,0.7-0.5,1.1-0.4c0.5,0.1,0.9,0.5,0.9,1c0,0.6-0.1,1.1-0.2,1.7c-0.5,2.4-0.9,4.8-1.1,7.2
					c-0.2,1.7,0,3.4,0.2,5.1c0.2,2.2,2.3,3,3.8,4.2c0.4,0.4,0.8-0.3,1-0.7c2-4.1,5.1-7.3,8.6-10.1c0.5-0.4,1.1-0.7,1.7-1
					c1-0.5,1.8,0,1.8,1.1c0,0.9-0.4,1.6-1,2.1c-2.4,2.4-4.4,5.2-6.4,8c-1.7,2.2-1.8,4.5,0,6.4c4.5,4.5,8.1,9.8,12.7,14.2
					c4,3.8,6.7,8.4,9.6,12.8c0.5,0.7,0.8,1.5,1.4,2c2.2,2.1,2.6,5,3.2,7.7c0.3,1.5-0.4,3-0.8,4.5c-0.1,0.6-0.4,1.2-0.3,1.9
					c0.1,0.8,0.3,1.5,1.3,1.3c0.6-0.1,1-0.1,1,0.6c-0.1,0.7,0.2,1.6-0.8,1.8c-0.6,0.1-1.3,0.1-1.9,0c-1.6-0.2-1.7-0.4-1.5-2.1
					C409.7,69.8,409.8,69.1,409.9,68.3L409.9,68.3z"/>
				<path d="M155.9,68.3c0.3,0.1,0.6,0,0.8-0.3c2.2-2.2,4.8-4.2,6.5-6.9c0.1-0.2,0.3-0.4,0.4-0.6c0.7-0.7,1.8-0.8,2.4-0.2
					c0.6,0.8,0.5,1.5-0.1,2.2c-3.1,2.9-5.3,6.6-8.5,9.4c-0.5,0.4-0.9,0.9-1.3,1.4c-1.5,2.3-4.1,3.4-6,5.3c-0.5,0.5-1.2,0.1-1.7-0.2
					c0.2-0.9,1.2-0.8,1.6-1.4c0.4-0.5,0.6-1.2,0-1.4c-1.7-0.5-0.9-1.6-0.5-2.2c0.6-1.2,1-2.4,1.5-3.6c2.6-6.6,3.9-13.5,4-20.5
					c0.1-4.9-1.2-9.7-3-14.3c-1.5-3.9-3.2-7.6-6-10.8c-0.6-0.7-1-1.6-0.3-2.5c0.6-0.8,1.6-1.4,2.6-1c1.9,0.7,3.6,0.5,5.5,0
					c1.5-0.5,2.2,0.1,2.5,1.7c0.2,1.1,0.2,2.3,0.3,3.4c0.1,0.8,0.3,1.6,0.6,2.3c0.8,1.5,2.1,1.9,3.7,1.8c2-0.1,2.5,0.6,1.3,2
					c-2.5,3-2.2,6.5-1.6,9.8c1.1,6.1,0.2,11.8-1.7,17.5c-0.9,2.8-1.3,5.7-3,8.2C155.6,67.8,155.6,68.1,155.9,68.3L155.9,68.3z"/>
				<path d="M345.3,139.8c-0.7,1.8-1.2,3.4-0.2,5c0.4,0.6,0,1.3-0.1,1.9c-0.6,1.9-0.5,3.8-0.3,5.8c0.3,3,0.7,6.1,0.2,9.1
					c-0.9,0-1-0.6-1-1.2c0-1.1-0.9-1.1-1.5-1.1c-0.9-0.1-0.3,0.7-0.5,1c-1,1.6-2.7,3.4-4.6,2.8c-2.4-0.8-3.5-2.8-2.4-5.2
					c1.4-3.2,3-6.3,4.7-9.4c1.5-2.8,3.4-5.3,4.8-8.2C344.4,140,344.5,139.7,345.3,139.8L345.3,139.8z"/>
				<path d="M183.9,42.5c1.8,3.7,3.3,6.9,4.5,10.3c0.6,1.6,1.5,3.1,2.4,4.5c0.5,0.8,0.4,1.3-0.5,1.7c-0.4,0.2-0.8,0.5-1.2,0.8
					c-1,0.7-1.7,0.3-2.2-0.6c-1.3-2.6-2.7-5.2-3.6-8c-0.1-0.5-0.3-1-0.1-1.4C183.8,47.6,183.5,45.3,183.9,42.5z"/>
				<path d="M425.8,55c-2.1-0.3-2.8,1-3.4,2.5c-0.6,1.9-2.5,2.7-3.8,4c-0.5,0.6-1.5,0-1.6-0.8c-0.1-0.6-0.1-1.5,0.5-1.8
					c1.5-0.6,1.9-2.1,3-3.1c0.8-0.8,1.6-1.3,2.5-1.8C424.2,53.2,424.9,53.7,425.8,55L425.8,55z"/>
				<path d="M350.2,128.9c0.3,0,0.9,0,0.8,0.2c-1.4,2.8-1.9,6.1-4.3,8.4c-0.2,0.2-0.4,0.2-0.8,0c-0.2-0.8,0.5-1.4,0.6-2.2l-0.1,0.1
					C347.6,133.1,348.9,131,350.2,128.9L350.2,128.9L350.2,128.9z"/>
				<path d="M176.7,14.1c0.5-0.7,1-0.8,1.4-0.9c0.8-0.3,1.5-0.2,1.9,0.6c0.4,0.8,0.1,1.6-0.3,2.3c-0.3,0.5-0.8,0.2-1,0
					C178,15.4,177.4,14.7,176.7,14.1L176.7,14.1z"/>
				<path d="M187,20.4c-0.4-0.8,0.1-1.5-0.1-2.2c-0.1-0.4-0.4-1,0.2-1.3c0.5-0.3,0.9,0,1.3,0.4c0.5,0.4,0.6,1,0.3,1.5
					C188.3,19.4,187.8,20,187,20.4L187,20.4z"/>
				<path d="M133.1,77.7c-1.4,0.1-2.2-0.2-3-0.6c-0.4-0.2-0.9-0.6-0.6-1.1c0.3-0.4,0.9-0.4,1.3-0.2
					C131.6,76.2,132.2,76.8,133.1,77.7z"/>
				<path d="M373.7,138.6c0.6-0.4,1.2-0.8,1.8-1.1c0.4-0.2,0.8,0.1,1,0.5c0.3,0.6-0.2,0.7-0.6,0.7c-0.7,0.1-1.4,0.2-2.1,0.3
					C373.8,138.9,373.7,138.8,373.7,138.6L373.7,138.6z"/>
				<path d="M368.4,141.4c-0.2,0.3-0.4,0.5-0.8,0.4c-0.3,0-0.4-0.2-0.4-0.5c0.1-0.3,0.4-0.5,0.8-0.4
					C368.3,140.9,368.5,141.1,368.4,141.4L368.4,141.4z"/>
				<path d="M273.1,160.3c0.5,0.3,1.2,0.4,1.4,1.3C273.4,161.6,273.3,160.9,273.1,160.3L273.1,160.3z"/>
				<path d="M274.4,34.4c0.2,0.1,0.4,0.2,0.4,0.5c0,0.3-0.2,0.4-0.5,0.4c-0.2,0-0.4-0.2-0.4-0.5C274,34.5,274.2,34.4,274.4,34.4
					L274.4,34.4z"/>
				<path d="M328.1,157.9L328,158c0.4-0.2,0.8-0.4,1,0.1c0.2,0.3-0.1,0.6-0.4,0.6C328,158.7,328,158.3,328.1,157.9L328.1,157.9z"/>
				<path d="M276.6,159.2c0.5-0.1,0.9-0.8,1.5-0.2C277.6,159.5,277,159.2,276.6,159.2L276.6,159.2L276.6,159.2z"/>
				<path d="M371.7,142.1c0,0-0.1-0.1-0.1-0.1c0-0.2,0.1-0.3,0.3-0.3c0,0,0.1,0.1,0.1,0.1C372,142,371.9,142.1,371.7,142.1
					L371.7,142.1z"/>
				<path d="M372,175.4c0.2,0,0.5,0,0.7,0c0.2,0,0.5,0.1,0.5,0.4c0,0.1-0.1,0.2-0.1,0.2c-0.1,0-0.3-0.1-0.4-0.2
					C372.5,175.6,372.3,175.4,372,175.4C372,175.3,372,175.4,372,175.4z"/>
				<path class="st0" d="M135.4,135c1.7-3.4,4.3-5.9,7.5-7.7c4.2-2.4,7.9-5.3,11.5-8.6c4.4-3.9,9-7.5,14.2-10.2
					c0.6-0.3,1.2-0.5,1.8-0.7c3.3-1.1,6.9-1.6,9.7-3.7c2.4-1.8,5-2.5,7.8-3c0.6-0.1,1.3-0.3,1.7,0c1.7,1.5,4.1,1.3,6,2.5
					c1.7,1,3.7,0.3,5.2-0.7c1.3-0.8,2.2-0.9,3.6-0.3c2.4,1.1,3.8-0.6,5.3-1.9c0.4-0.4,0.5-1.2,1.2-1c0.8,0.2,1.8,0.2,2.5,0.9
					c0.7,0.7,0.6,1.5-0.1,2.2c-1,0.9-2.1,1.5-3.4,1.7c-1.4,0.2-2.1,0.8-2.4,2.3c-0.3,2-2.3,3.4-4.3,3c-2.3-0.5-4.6-0.2-6.8-0.1
					c-0.8,0-1.6,0.1-2.4,0c-2.3-0.1-2.5-0.5-1.4-2.6c0.2-0.4,0.4-0.7,0.6-1.1c0.6-1.4,0.4-1.8-0.7-2.4c-1.4-0.7-1.8-0.6-2.6,0.6
					c-1.1,1.8-2.2,3.4-4.2,4.2c-1.2,0.5-2.3,0.6-3.2-0.8c-0.8-1.4-2-0.8-3-0.3c-1.1,0.5-2,1.4-3.2,0.2c-0.2-0.2-0.7-0.2-0.9,0
					c-1.1,0.5-2.1,1.2-3.4,1c-0.4,1.2-1.7,1.3-2.6,1.8c-0.6,0.3-1.5,0.2-1,1.4c0.1,0.3-0.3,0.4-0.6,0.5c-2.9,0.7-5.2,2.1-7.4,4.2
					c-1.1,1.1-2,1.7-1.4,3.3c0.1,0.4-0.4,0.7-0.8,0.6c-1.4-0.4-2.3,0.6-3.2,1.3c-3.5,2.3-7,4.6-10.9,6.1c-1.8,0.6-3,1.7-4,3.4
					C139,133,137.5,134.4,135.4,135L135.4,135z"/>
				<path class="st0" d="M60.7,140.9c0.1-0.1,0.3-0.1,0.4-0.2c1.2-0.6,1.8-0.4,1.6,0.8c-0.4,1.9-0.5,3.9-1.6,5.6
					c-0.7,1.1-1.3,2.2-0.5,3.8c-1.6-0.1-2.9-0.4-4.3,0c-1.2,0.4-2.4-0.8-3.7-0.8c-0.3,0-0.5-0.6-0.4-1c0.1-0.5,0.5-0.9,1.1-0.8
					c0.9,0.1,1.8,0.4,2.7,0.4c2.7,0.1,4-1.1,4.4-4.1c-1.2-0.1-2.2,0.5-3.2,0.9c-0.8,0.3-1.5,0.6-2.3,0.7c-0.5,0.1-1.2,0.5-1.5-0.3
					c-0.2-0.7-0.1-1.5,0.8-1.8c0.3-0.1,0.8,0.1,1.1-0.6c-1-0.1-1.7-0.5-2.3-1.4c-0.9-1.3-2.1-2.4-3.9-2.7c-0.7-0.1-1.3-0.4-1.6-1.3
					c-0.6-1.8-0.7-1.8-2.8-1.5c0.5-3.1-1.9-4.7-3.7-6.6c-1.1-1.2-2.4-2.2-3.7-3.2c-0.4-0.3-0.7-0.8-0.3-1.3c0.3-0.4,0.8-0.2,1.1,0
					c1,0.6,2.1,0.9,3.3,0.8c0.5-0.1,1.1,0,1.4,0.4c0.7,1,1.4,1.2,2.4,0.4c0.5-0.4,1.1,0.2,1.4,0.6c0.8,1.2,1.6,2.6,1.5,4
					c-0.1,1.1,0.4,1.2,1.1,1.4c0.8,0.1,1.5,0,2.2-0.3c0.4-0.2,0.9-0.1,1,0.3c0.2,0.6-0.3,0.8-0.8,1c-0.3,0.1-0.6,0.1-1,0.1
					c-0.5,0.1-1,0.1-1.2,0.6c-0.2,0.6,0.3,0.9,0.7,1.1c0.1,0,0.2,0.1,0.2,0.1c0,2.2,2.3,2.7,3.1,4.3c0.5,1.1,1.3,1.7,2.5,2.1
					C58.7,143.4,59,143.4,60.7,140.9L60.7,140.9L60.7,140.9z"/>
				<path class="st0" d="M227.2,152.9c-0.8-0.3-1.4-0.7-2-1.3c-3.1-3.2-6.3-6.3-9.5-9.4c-0.4-0.4-0.7-0.9-0.9-1.4
					c-1.8-5.2-3.9-10.4-5.2-15.7c-0.4-1.9-1-3.6-0.2-5.4c0.5-1.4,1.3-2.6,2.6-3.4c0.4,0.8,0.1,1.5-0.2,1.9c-1,1.3-0.9,2.7-0.7,4.2
					c0.9,6,2.8,11.7,5.6,17.1c0.5,0.9,1.2,1.7,1.9,2.6c0.4,0.4,0.9,1,1.4,0.9c1.6-0.4,2.2,0.8,2.8,1.8c1.2,2,2.9,3.7,3.9,5.9
					C227,151.2,227.4,152,227.2,152.9L227.2,152.9L227.2,152.9z"/>
				<path class="st0" d="M138.6,86.2c-2.1,2.4-4.9,3.3-7.6,4.1c-1.7,0.5-3.1-0.1-4.2-1.7c-1.1-1.5-1.4-3.2-2-4.9
					c-0.2-0.6,0.2-1,0.8-0.8c4.1,1.5,8.6,1.7,12.8,2.9C138.4,85.8,138.4,85.9,138.6,86.2z"/>
				<path class="st0" d="M206.9,147.1c1.2,0.6,2.3,1.5,2.9,2.8c0.2,0.4,0.4,0.8,0.1,1.2c-0.3,0.5-0.9,0.4-1.3,0.3
					c-1.5-0.5-2.7-1.1-2.9-2.9c-0.1-0.9-0.1-1.8-0.3-2.7c-0.2-0.9-0.5-1.7-1.6-0.8c-0.4,0.3-0.9,0.6-1.3,0.3c-0.7-0.4-0.1-1-0.1-1.5
					c0-0.2,0.1-0.3,0.1-0.5c0.9-3.5,1-3.5,4.1-1.8c1,0.5,1.5,2.6,1,4.2C207.6,146.1,206.9,146.3,206.9,147.1L206.9,147.1z"/>
				<path class="st0" d="M168.2,82c-0.9-0.6-0.2-1.3-0.6-1.8c-0.9-0.1-1.7,0.3-2.5,0.5c-0.4,0.1-0.6,0-0.8-0.4
					c-0.1-0.4,0-0.7,0.3-0.8c1.5-0.4,3-1,4.5-0.6c0.9,0.2,1.7,0.6,2.6,0.6c0.7,0.1,1,0.5,1.1,1.1c0.1,0.3,0.1,0.7-0.1,0.9
					c-0.3,0.4-0.8,0.3-1.1,0.1C170.4,80.4,169.3,81.1,168.2,82L168.2,82z"/>
				<path class="st0" d="M60.7,140.8c-0.2,0.1-0.5,0.2-0.7,0.2c-1.5-0.9-3.2-1.6-4.4-2.8c-0.5-0.5-1.2-1.1-0.5-1.9
					c0.7-0.8,1.4-0.4,2.1,0.1C58.9,137.5,60.2,138.9,60.7,140.8L60.7,140.8L60.7,140.8z"/>
				<path class="st0" d="M67.9,143.6c0.1-0.3,0.1-0.7,0.3-1c0.3-0.5,0.9-0.8,1.1-0.2c0.4,1,1.1,0.9,1.9,0.8c0.3,0,0.6,0.1,0.7,0.5
					c0.1,0.4-0.2,0.6-0.4,0.8c-0.5,0.3-1,0.6-1.5,0.8c-0.6,0.2-0.8,1.5-1.7,0.8C67.7,145.5,67.9,144.5,67.9,143.6L67.9,143.6z"/>
				<path class="st0" d="M225.4,109.1c1.3-1.4,2.6-2.2,4.4-2.7C229.2,108.4,228.7,108.7,225.4,109.1z"/>
				<path class="st0" d="M120.5,125.6c0.3,1.6,0.9,2.9,1,4.5C119.5,128.9,119.2,127.6,120.5,125.6z"/>
				<path class="st0" d="M141.1,92c-0.1,1.3-0.2,2.3-1.5,2.4c-0.3,0-0.7-0.1-0.7-0.5C138.9,92.7,140,92.6,141.1,92z"/>
				<path class="st0" d="M126.3,133.2c1.4,0.2,2.2,0.5,2.4,1.5c0.1,0.2-0.2,0.5-0.4,0.5C127.3,135.1,126.9,134.3,126.3,133.2z"/>
				<path class="st0" d="M124.2,73.9c1.5-1,1.6-1,3.1,1.2C126.1,74.6,125.3,74,124.2,73.9z"/>
				<path class="st0" d="M166.8,66.4c0-0.6,0.4-0.8,0.9-1c0.5-0.2,1.2-0.2,1.4,0.5c0.2,0.9-0.6,0.7-1.1,0.7
					C167.5,66.7,167.1,66.8,166.8,66.4L166.8,66.4z"/>
				<path class="st0" d="M59.7,98.5c-0.4,0.9-1.2,1.5-1.1,2.6C58.3,100.2,58.7,99.3,59.7,98.5z"/>
				<path class="st0" d="M62.8,94.6c0.3,1.3,0.1,2.3-1.5,2.8C61.2,96,62.5,95.7,62.8,94.6C62.8,94.7,62.8,94.6,62.8,94.6z"/>
				<path d="M185.2,103.1c1.1,0,1.7,1.2,2.9,1.1c0.2,0,0.3,0.3,0.3,0.6c-0.1,1.5-2.1,3-3.5,2.6c-0.8-0.2-1.2-0.7-0.4-1.4
					c0.6-0.6,1.5-1.1-0.1-1.5c-0.4-0.1-0.3-0.5-0.2-0.8C184.3,103.1,184.7,103,185.2,103.1L185.2,103.1z"/>
			</g>
		</g>
	</g>
</g>
</svg>
