<?xml version="1.0" encoding="UTF-8"?><svg xmlns="http://www.w3.org/2000/svg" viewBox="0 0 550.4 178.11"><defs><style>.cls-1,.cls-2{fill:#fff;}.cls-3,.cls-2{mix-blend-mode:lighten;}.cls-4{isolation:isolate;}</style></defs><g class="cls-4"><g id="Layer_2"><g id="Layer_1-2"><g><path class="cls-3" d="M403.99,160.92c.02-.15-.06-.32-.09-.48-1.11-5.84-2.17-11.69-3.33-17.51-1.53-7.71-2.27-15.46-1.23-23.3,.18-1.34-.27-2.34-1.28-3.23-2.8-2.48-6.39-3.94-8.93-6.77-.15-.16-.43-.28-.66-.29-1.46-.08-1.85-1.13-2.12-2.29-.28-1.19-.52-2.39-1.14-3.47l.02,.05c-.49-2.97-2.14-5.4-3.7-7.87-.39-.61-1-1.06-.82-1.93,.4-1.91-.87-3.18-1.81-4.57-.19-.28-.46-.48-.8-.49-.79-.02-1.74,.34-2.24-.52-.47-.79,.67-1.44,.43-2.3-.03-.11,.13-.27,.2-.4,.69-.12,.72,1.09,1.52,.84-.02-.59-.21-1.05-.54-1.42-1.02-1.16-1.38-2.48-1.26-4.03,.07-.9,.18-1.76,.36-2.65,.72-3.51,2.41-7.03,.13-10.58-.07-.11-.1-.38-.02-.45,1.27-1.26,.56-2.34-.27-3.44-.26-.34-.21-.82-.02-1.18,.55-1.02,.52-2.32,1.15-3.18,.82-1.12,.97-2.06,.62-3.36-.34-1.27-.46-2.54-1.77-3.27-.47-.26-.68-.74-.2-1.2,1.12-1.08,.53-2.06-.15-3.03-1.07-1.53-2.01-3.13-3.64-4.22-.84-.56-1.68-1.36-2.04-2.38-.67-1.93-2.17-3.22-3.5-4.63-1.04-1.1-2.38-1.63-3.93-1.68-1.17-.03-2.49,.22-3.12-1.29-.1-.24-.71-.3-1.1-.38-2.14-.42-4.23-.17-6.56,.28,.43,.32,.61,.48,.81,.6,2,1.14,3.8,3.2,6.45,1.33,.33-.24,.8-.03,1.17,.15,.46,.23,.81,.56,.76,1.13-.04,.46-.41,.85-.77,.85-1.33,0-2.69,.78-3.93,.24-1.49-.64-3.08-1.01-4.54-1.78-1.12-.59-2.72-1.34-3.65-.95-1.8,.76-3.17,.1-4.68-.38-.9-.29-1.77-.67-2.75,.08,.92,1.11,1.97,1.6,3.26,1.69,.64,.04,1.49,.03,1.73,.68,.5,1.34,1.17,2.45,2.39,3.25,.33,.21,.25,.77-.02,1.11-.26,.33-.6,.16-.87-.01-1.55-.95-3.14-1.69-5.05-1.3-.56,.11-1.09-.24-1.6-.52-1.47-.84-2.97-1.77-4.47-2.39-1.62-.67-2.66-1.38-3.42-2.98-.79-1.67-2.13-2.81-4.31-1.99-.64,.24-1.46,.11-2.18,.02-1.3-.15-2.51-.24-3.8,.36-1.07,.5-2.31,.54-3.53-.1-.97-.51-2.12-.58-3.3-.33,.23,.75,1.07,1.18,.42,1.89-.57,.62-1.28,.72-2.01,.4-.51-.23-.97-.59-1.44-.91-.6-.42-1.15-.94-1.78-1.28-1.64-.9-3.19-.43-3.94,1.25-.28,.63-.61,1-1.24,.9-2.04-.33-4.1,1.19-6.13-.08-.16-.1-.49-.02-.7,.08-1.75,.75-3.12,.48-3.98-1.39-.2-.43-.67-.41-1.08-.26-.48,.17-.51,.51-.44,.97,.1,.68,.39,1.06,1,1.48,.96,.66,.92,1.87,.2,2.8-.79,1.02-1.81,1.36-2.73,.57-1.79-1.54-3.67-1.57-5.7-.76-.78,.31-1.43,.1-2.07-.32-.27-.18-.58-.37-.54-.74,.04-.37,.33-.53,.66-.61,1.35-.33,2.71-.59,4.09-.1,1.1,.39,2.24,.35,3.38,.34,.33,0,.69-.14,.7-.53,0-.4-.37-.57-.68-.48-.92,.28-1.7,.39-2.02-.81-.02-.08-.51-.16-.67-.06-1.39,.87-2.65,.07-3.99-.18-.99-.19-2.11-.97-3.04-.16-1.37,1.2-2.8,1.46-4.51,.99-.79-.22-1.24,.23-1.15,1.09,.04,.36,.42,.77-.24,1.14-1.33-.78-3.11-.53-4.39-1.73-.43-.4-1.07-.41-1.63-.2-.48,.18-.95,.48-.59,1.07,1.03,1.68-.42,1.99-1.46,2.91-.54-2.74-2.68-2.43-4.46-2.7,.17-.95,1.6-.58,1.41-1.58-.19-.99-.93-1.37-1.93-1.55-1.03-.19-1.99-.66-2.94-1.15-1.28-.65-2.58-1.42-4.16-.75-.39,.16-1,.04-1.42-.16-1.13-.52-2.35-.65-3.51-1-1.07-.32-2.42-.38-3.08-1.73,.36-.16,.56-.26,.78-.34,1.93-.72,3.98-.8,5.98-1.17,1.15-.22,1.34-.87,.51-1.67-1.02-.97-2.21-1.71-3.67-1.75-5.21-.14-10.15,.76-14.81,3.33-3.57,1.97-6.86,4.38-10.43,6.34-.99,.54-1.89,1.28-2.76,2.01-5.5,4.6-11.38,8.7-17.07,13.06-7.18,5.5-14.99,10.07-22.63,14.88-5.58,3.51-11.33,6.75-17.02,10.07-.65,.38-1.32,.89-2.55,.85,1.97-2.96,4.11-5.37,6.37-7.66,3.87-3.92,7.33-8.12,9.33-13.3,2-5.17,2.67-10.58,2.25-16.09-.45-5.96,.32-11.69,2.77-17.17,.19-.44,.34-.93,.36-1.4,.06-1.43-1-2.3-2.38-1.96-.39,.09-.74,.33-1.1,.51-1.74,.87-3.29,.6-4.72-.71-.96-.88-1.96-1.72-2.95-2.57-.75-.65-1.61-1.14-2.6-1.28-.92-.13-1.83,.07-2.36,.94-.46,.76-.41,1.56,.08,2.31,.76,1.16,1.59,2.27,2.7,3.14,.66,.52,1.18,1.12,1.32,1.99,.48,2.89,1.58,5.64,1.82,8.59,.22,2.68,.62,5.34,.92,8,.82,7.16-.26,13.78-5.16,19.45-4.15,4.8-8.09,9.79-12.33,14.51-1.82,2.03-3.52,4.23-5.95,5.73-1.97,1.22-1.86,1.69-.62,3.66,.13,.21,.19,.45-.01,.68-1.7,.28-3.4-.08-5.09-.24-2.58-.24-2.86-.62-3.22-3.29-.03-.24-.06-.49-.13-.72-.32-1.07-.97-1.24-1.75-.38-.6,.66-1.08,1.43-1.61,2.15-.64,.87-1.31,1.54-2.35,.48-.6-.61-1.31-.53-2.05-.33-.47,.12-1.11,.37-1.41,0-1.28-1.62-3.34-1.55-4.95-2.44-1.88-1.04-2-1.59-.91-3.44,.51-.87,1.15-.98,2.03-.94,.69,.03,1.36,.64,2.04,.17,.06-.13,.12-.21,.12-.28-.13-2.13-1.04-4.4,1.18-6.09,.15-.12,.12-.65,0-.91-.18-.43-.6-.44-1.04-.35-.76,.15-1.39,.46-1.71,1.21-.32,.75-.47,1.54-.65,2.34-.56,2.6-3.08,3.7-5.47,2.49-.73-.37-1.42-.82-2.17-1.13-2.2-.92-3.5-2.54-4.04-4.84-.3-1.27-.74-2.5-1.09-3.76-.19-.68-.52-1.23-1.29-1.27-.71-.04-1.26,.36-1.61,.94-.61,1.01-.65,1.99,.28,2.87,.65,.62,1.32,1.25,1.39,2.23,.08,1.15,.34,2.23,.85,3.28,.2,.4,.4,1.01-.16,1.31-.62,.33-1.17-.05-1.39-.6-.39-.98-.64-2.01-.95-3.02-.23-.77-.33-1.72-1.46-1.62-1.03,.09-1.63,.79-1.75,1.76-.28,2.31,.22,4.42,2.07,5.96,1.8,1.5,3.84,2.12,6.11,.97,.73-.37,1.46-.77,2.32-.48,.69,.23,1.43,.44,1.44,1.4,0,.97-.19,1.77-1.26,2.1-.73,.22-1.43,.24-2.15-.02-.53-.19-1.07-.39-1.63-.5-.65-.13-1.34-.15-1.67,.61-.27,.63-.27,1.3,.2,1.84,.26,.3,.61,.57,.97,.7,.72,.25,1.06,.65,1.03,1.43-.06,1.56,.35,3.07,.57,4.6,.24,1.64,.22,1.64-1.58,1.67-1.86,.03-2.51,.71-2.58,2.67-.01,.39,.12,.82-.31,1.1-.62-.06-.81-.53-.81-1.02,0-1.05,.03-2.09,.51-3.1,.5-1.05,.19-1.44-.95-1.42-3.81,.04-7.37,1-10.73,2.82-6.87,3.73-14.44,4.95-22.07,5.73-5.83,.6-11.67-.6-17.53-.42-.29,0-.59-.14-.88-.23,1.9-.86,2.37-2.75,3.08-4.42,.88-2.05,.54-2.56-1.63-2.94-.32-.06-.65-.06-.97-.13-.54-.12-.83-.49-.84-1.04,0-.5,.38-.7,.78-.8,1.77-.47,3.19-1.59,4.76-2.44,5.22-2.81,10.12-6.26,15.82-8.17,1.68-.57,3.24-1.53,4.82-2.37,.88-.47,1.62-1.11,1.7-2.23,.05-.69-.33-1.26-.96-1.11-2.31,.54-4.99,.37-6.33,3.02-.2,.39-.41,.94-1.12,.8-.38-.9,.31-1.51,.68-2.17,1.7-3,3.06-6.09,3.5-9.57,.4-3.19,.08-6.34-.15-9.5-.33-4.61-1.38-9.17-.96-13.85,.22-2.47,.64-4.84,2.05-6.94,2.37-3.53,4.1-7.37,5.67-11.32,1.35-3.38,1.63-6.73,.89-10.24-.07-.34-.18-.64-.45-.82-1.56-1.02-2.68-2.29-2.91-4.27-.07-.57-.79-1.15-1.46-1.09-.86,.08-.79,.94-.8,1.55,0,.72,.08,1.47,.25,2.17,.37,1.52,.46,3.05,.4,4.61-.16,4.79-2.14,8.98-4.29,13.12-.15,.28-.37,.54-.59,.77-1.27,1.29-2.37,1.21-3.36-.33-.88-1.37-1.73-2.77-2.48-4.21-1.46-2.79-2.19-5.65-1.6-8.91,.51-2.79,.12-5.69-.21-8.52-.12-1.05-.31-2.37-1.63-2.38-1.29-.01-1.52,1.33-1.74,2.33-.26,1.19-.3,2.42-.43,3.64-.13,1.15-.41,2.27-1.09,3.21-.93,1.31-2.4,1.21-3.06-.22-.44-.95-.7-1.99-.97-3.01-.22-.79-.44-1.57-.9-2.25-.29-.44-.75-.64-1.26-.6-.61,.04-.76,.56-.86,1.03-.14,.72-.2,1.46-.35,2.17-.64,2.92-1.79,3.68-4.68,3.09-.48-.1-.94-.26-1.42-.36-2.24-.5-4.51-.68-6.8-.61-1.26,.04-2.41,.39-3.13,1.57-.71,1.17-.55,2.1,.77,2.49,2.97,.89,5.78,2.23,8.79,2.99,3.09,.78,6.07,1.86,8.66,3.81,3.48,2.62,6.53,5.61,8.61,9.51,.78,1.46,1.4,2.91,1.6,4.56,.24,2.02,.58,4.03,.95,6.03,.73,3.92,1.54,7.83,2.28,11.75,.64,3.43,.36,6.85-.49,10.18-1.43,5.61-5.44,9.09-10.25,11.82-4.89,2.77-9.79,5.52-14.68,8.3-1.3,.74-2.36,1.52-2.3,3.37,.05,1.5-1.28,2.03-2.61,1.27-.42-.24-.77-.6-1.17-.88-1.28-.89-4.44-1.8-6.11-1.75,.41,.81,.74,1.65,1.23,2.38,.97,1.42,1.17,3.01,1.31,4.64,.06,.69,.03,1.47-.5,1.81-1.54,.97-1.94,3.23-4.11,3.46-.52,.05-.79,.6-.87,1.09-.51,3.04-1.18,6.05-1.2,9.16-.02,3.82-.16,7.61-2.4,11.01-1.15,1.74-1.37,3.82-.99,5.89,.23,1.28,.48,2.53,.54,3.85,.08,1.71,.53,3.41,1.82,4.68,.87,.85,1.79,1.65,2.72,2.44,.32,.27,.64,.52,.97,.77,.47,.13,.94,.35,1.4,.67,.39,.27,.76,.56,1.12,.85,.35,.16,.71,.31,1.09,.44,.49,.16,1.29,.29,1.04,1.06-.05,.15-.12,.24-.21,.31,4.22,4.64,4.91,10.75,3.76,17.3-.11,.61-.21,1.22-.3,1.82,1.05-.51,2.75,.2,3.05-1.63,.03-.19,.3-.39,.51-.5,.42-.23,.92-.62,1.35-.28,.57,.45,.29,1.01-.13,1.47-.26,.28-.68,.5-.4,.98,1.21,.8,2.55,.15,3.8,.41,2.49,.52,2.7,.38,4.12-1.81,2.09-3.21,4.66-5.85,8.56-6.8,.96-.23,1.98-.58,2.61-1.27,1.64-1.81,3.36-1.03,5.43-.52-1.64,1.76-1.88,4.02-3.49,5.52-.49,.46-.7,1.28-.91,1.98-.49,1.62,.64,3.35,2.33,3.55,1.58,.19,3.12-.09,4.48-.88,1.14-.66,2.37-1.29,3.6-1.34,2.82-.11,5.63-.48,8.5-.18,2.76,.3,5.6,.72,8.42,.08-.12-.51-1.01-.89-.12-1.23,.58-.23,1.28-.18,1.92-.22,.57-.04,1.19,.07,1.4-.66,.11-.39,.13-.88,.72-.65,.39,.15,.58,.54,.67,.96,.36,1.7,.91,2.05,2.45,1.37,1.26-.55,2.44-1.24,3.4-2.41,.46,1.82,1.1,2.19,2.1,1.07,.92-1.03,1.49-.64,2.22-.07,.29,.23,.51,.56,.71,.79,1.57-.76,1.87-2.33,2.49-3.88,1.17,2.55,1.88,2.67,4.31,1.03,.78,.51,.9,1.52,1.58,2.1,.48-.79,1.17-1.48,2.07-1.02,.71,.36,1.03,1.22,.38,2.09-.35,.48-.14,.98,.38,1.21,.65,.28,1.11,.84,1.71,1.27,.31-1.56,.45-1.42,1.11-2.07,1.16-1.12,3.48-.29,3.99-2.44,.04-.19,.43-.11,.59,.11,.23,.3,.41,.82,.86,.28,.22-.27,.05-.6-.14-.9-.24-.36-.98-.4-.72-1.08,.31-.23,.75-.24,.93-.04,1.31,1.43,2.84,1.04,4.38,.62,.39-.11,.77-.28,1.17-.35,.31-.06,.88-.05,.87,.2-.07,1.39,1.07,1.18,1.82,1.48,.51,.21,.76,.56,.74,1.12-.03,.55-.41,1.08-.12,1.65,1.96-1.03,3.08-.86,4.09,.63,.44,.36,.97,.87,1.51,.56,1.82-1.07,3.83-.25,5.69-.7,2.14-.51,3.97-.09,5.93,1.05,2.71,1.58,4.92,.62,6.32-2.24,.13-.27,.07-.65,.64-.72,1.29,2.02,3.05,2.65,5.33,1.41,.91-.49,1.77-.17,2.38,.62,.82,1.06,2.21,.98,3.2,1.68,.31,.22,.61,.01,.69-.39,.07-.36-.12-.91,.48-.92,.45,0,.64,.43,.77,.83,.12,.36,.03,.84,.62,.96,.57-.88,.02-2.16,1.05-3.01,.15,1.08,.28,2.04,.4,3,.09,.68,.27,1.32,.99,1.55,1.09,.34,1.91,.85,1.97,2.15,.01,.34,.4,.49,.74,.51,.89,.06,1.79,.21,2.66,.13,1.12-.1,2.08-.58,2.64-1.97-1.89,.1-3.47-.02-5.02-.52-.38-.13-.85-.08-.98-.53-.17-.61,.33-.91,.75-1.1,1.93-.85,3.89-1.63,5.98-2.03,.36-.07,.59-.19,.82,.43,.37,1.01,1.88,1.57,2.72,1.24,1.05-.42,.66-1.34,.64-2.11-.04-1.14-.08-2.26,.44-3.34,1.12-2.33,2.19-4.68,3.29-7.02,.17-.37,.4-.79,.88-.62,.44,.16,.48,.66,.46,1.05-.06,1.26-.73,2.3-1.28,3.39-1.41,2.78-.36,6.61,2.2,8.18,2.97,1.82,5.49,1.65,8.3-.58,.19-.15,.4-.29,.57-.46,.63-.65,1.11-.83,2.04-.19,.67,.47,1.73,1.13,2.71,.52,1.24-.78,2.74-.79,3.99-1.5,.16-1.63-.21-3.05-1.65-4.04-.26-.18-.47-.45-.68-.7-.51-.6-.34-1.05,.36-1.3,2-.71,4.28,.25,5.36,2.23,.93,1.71,1.24,1.76,2.64,.4,.21-.2,.35-.48,.52-.72,.82,.31,1.99,.02,2.48,.71,1.04,1.43,2.35,1.38,3.92,.89-.4,1.14-.7,1.98-.99,2.82-.27,.78-.15,1.32,.82,1.25,1.09-.08,2.09,.22,3.09,.58,.71,.26,1.45,.16,2.15-.13,2.14-.89,2.79-.71,3.87,1.37,.33,.63,.66,.9,1.31,.67,2.07-.72,4.03,1.27,6.14,.26,.19-.09,.73,.33,.98,.62,.6,.73,1.21,.78,1.86,.16,1.03-.98,2.16-.98,3.39-.47,.43,.18,.89,.47,1.47-.07-.51-1.19-1.71-.99-2.64-1.19-1.29-.27-2.5-.39-3.14-1.89-.41-.97-1.53-1.18-2.55-.98-1.43,.27-2.93,.32-4.14,1.31-.38,.31-.84,.5-1.36,.44-.34-.04-.64-.15-.77-.49-.15-.41,.17-.62,.46-.73,1.21-.47,2.42-.97,3.66-1.33,1.17-.34,1.74-1.01,1.89-2.22,.22-1.77,.42-3.57,1.12-5.24,1.37-3.23,2.36-6.58,3.22-9.98,.36-1.42,.6-2.89,1.15-4.24,2.11-5.21,3.89-10.52,5.26-15.98,.16-.65,.23-1.43,.96-1.75,.46,.31,.34,.64,.31,.96-.29,3.79-1.86,7.26-3.15,10.72-1.5,3.99-2.89,7.92-3.43,12.16-.19,1.53-.72,2.95-1.41,4.38-.98,2.03-1.62,4.22-2.03,6.49-.41,2.28-.54,4.2,2.25,4.99,.49,.14,.8,.83,1.28,1.09,.83,.44,1.75,1.35,2.66,.66,.85-.64,.16-1.63-.11-2.46-.37-1.13,.02-1.6,1.14-1.19,.98,.36,2.05,.29,3.07,.63-.11,.36-.14,.6-.26,.8-.3,.48-.76,.95-.17,1.5,.46,.43,.9,.11,1.35-.1,.44-.21,1.14-.49,1.24,.11,.25,1.51,1.54,1.39,2.43,1.59,1.66,.38,3.06,.97,3.84,2.68,1.22-.72,1.9-2.03,3.3-2.11,.44-.97,1.11-1.12,2.02-.58,.66,.39,1.16,.25,1.4-.51-1.38-.11-1.65-1.15-1.85-2.24,.52-.16,1.06-.29,1.57-.51,3.28-1.41,6.53-1.48,10-.42,2.04,.62,4.32,.89,6.51,.41,1.81-.4,3.39-.31,4.54,1.38,.29,.43,.75,.73,1.57,.58-.76-.74-1.34-1.29-1.91-1.87-.32-.33-.4-.73-.05-1.07,.29-.29,.7-.48,1.11-.25,.28,.15,.53,.38,.73,.63,1.05,1.34,2.05,2.71,3.89,.97,.16-.15,.62,0,.93,.04,.67,.1,1.22-.26,1.35-.79,.4-1.63,1.98-1.71,2.92-2.59,1.57,1.4,.22,2.34-.55,3.33,.83,.26,1.37-.03,1.89-.2,2.32-.78,2.51-1.06,2.43-3.6-.03-.99,.34-1.75,1.04-2.37,1.21-1.09,2.41-2.18,3.67-3.2,1.73-1.41,1.75-1.38,3.64-.01,.39,.28,.93,.36,1.3,.66,.88,.71,2.74,.13,2.82,1.37,.06,1-1.61,1.39-2.45,2.11-.12,.11-.26,.19-.39,.29-1.68,1.31-1.69,1.34-.61,3.6,1.5-.32,2.77-1.31,4.34-1.5,1.82-.22,1.83-.27,1.65,1.62-.07,.76,.15,1.45,.43,2.1,.17,.38,.68,.3,1.08,.28,.47-.83,1.15-1.34,2.12-.92,1,.44,.74,1.3,.44,2.09-.03,.08-.08,.14-.12,.21-.17,.35-.08,.66,.26,.79,.19,.07,.49,.03,.68-.07,.91-.49,1.32-1.42,1.82-2.25,2.74-4.52,5.07-9.27,7.57-13.93,1.62-3.01,3.21-6.04,5.6-8.54,.11-.03,.22-.06,.33-.1,1.82-1.58,2.35-3.91,3.4-5.93,0-.12-.02-.23-.02-.35,.79-1.33,1.5-2.72,2.41-3.97,.95-1.31,.82-2.48,.18-3.87-.8-1.72-2.08-3.11-2.95-4.78-1.91-3.68-3.91-7.33-6-10.91-.68-1.16-1.43-2.18-1.01-3.59,.39-1.32,.75-2.66,1.2-3.96,.14-.4,.6-.55,1.04-.37,.42,.17,.62,.53,.56,.98-.04,.32-.12,.66-.29,.93-1.4,2.3-.4,4.21,.99,6.02,.5,.65,1.02,1.25,1.23,2.07,.98,3.77,2.97,7.03,5.12,10.21,.43,.64,.75,1.47,1.75,1.65,1.02-1.11,1.29-2.59,1.77-3.94,1.05-2.92,.61-5.88-.65-8.53-1.02-2.16-1.41-4.44-2.43-6.91,3.15,1.07,6.17,1.63,7.51,4.85,.17,.42,.64,.49,.9,.76,1.45,1.54,3.6,1.86,5.24,3.08,2.93,2.19,5.49,4.8,8.26,7.18,1.91,1.64,3.77,3.35,5.69,4.98,2.16,1.82,4.64,3.4,5.91,6.08,.85,1.78,1.97,3.34,3.31,4.78,1.16,1.25,1.84,2.98,1.33,4.5-.38,1.13-.96,2.34-1.59,3.43-.3,.51-.59,.42-1.05-.13-.97-1.15-2.9-1.37-3.61-.63-1.68,1.75-2.82,1.8-4.52,.21-.94-.88-1.82-.91-2.77-.12-1.67,1.39-2.1,2.32-1.36,3.37,.49,.69,.74,1.44,1.06,2.18,.19,.44,.47,.94,.05,1.36-.49,.47-1.07,.28-1.58-.02-.28-.16-.55-.38-.73-.63-.98-1.38-2.18-1.67-3.7-.8,.36,.11,.67,.19,.97,.3,.48,.17,.92,.43,.88,1.02-.06,.71-.65,.87-1.2,1.03-.49,.14-1.02,.12-1.41-.19-1.55-1.21-3.51-1.92-4.52-3.65-.94,.69-1.78,1.29-2.6,1.89,.17,.97,1.22,1.55,1.06,2.65-.78-.01-1.42-1.18-2.21-.22-.49,.59-.76,1.41-1.66,1.59-.37-.82,.12-1.36,.31-1.96,.21-.66,.92-1.41,.14-1.99-.81-.6-1.49-1.57-2.74-1.38-.75,.11-1.18,.34-1.08,1.25,.08,.75,.57,1.57-.03,2.26-.64,.2-1-.26-1.46-.37-1.56-.36-3,.17-3.2,1.71-.28,2.07-2.07,3.28-2.48,5.23-.1,.49-.68,.89-1.08,1.29-.35,.35-.75,.29-1.06-.07-.25-.29-.22-.63,.07-.85,1.25-.96,1.55-2.45,2.14-3.78,.38-.86,.37-1.77-.03-2.61-.46-.97-1.32-1.47-2.37-1.46-1.2,0-1.06,1.03-1.12,1.8-.3,3.95-.87,7.88,.78,11.74,.73,1.71,1.05,2.17,2.54,1.11,.73-.52,1.3-.3,2.02-.51,.04,.72-.77,1.28,.04,1.88,1.46,1.08,2.48-.21,3.64-.78q.22,1.82,1.99,2.43c.27,.09,.29,.34,.38,.56,.22,.56,.78,.54,.89,.13,.3-1.16,1.18-1.28,2.05-1.21,.73,.05,1.42,.49,2.18,.13,.22,.95,1.77,.63,1.65,1.02-.43,1.36,1.15,1.7,1.13,3-.05,2.43,1.2,4.5,3.27,5.95,.92,.65,1.81,1.33,2.72,2,.29-.59,.73-1.45,1.3-1.05,1.33,.93,1.23-.41,1.82-1.1,.66,2.01,1.8,3.47,3.26,4.94,.53-1.96-.9-3.32-.85-4.9,.05-1.61,.4-3.22-.27-4.78-.52-1.2-.82-2.46-.92-3.76-.12-1.57-.84-2.71-2.18-3.47,.08-.39,.17-.77,.24-1.16,.45-2.78,1.25-3.19,3.95-2.33,3.29,1.04,6.2,2.87,9.34,4.23,1.74,.76,3.65,1.48,4.78,3.24,.32,.5,.76,.37,1.28,.25,1.42-.31,1.03-1.79,1.73-2.76,.62,.72,.86,1.41,1.05,2.09,.31,1.12,.9,1.52,1.92,.79,.42-.3,.79-.62,1.23-.08,.45,.54,.71,.47,1-.18,.39-.88,.76-1.73,.22-2.74,.39,.05,.57,.03,.7,.1,.71,.34,1.44,1.23,2.18,.77,.92-.57,.12-1.65,.2-2.5Zm-188.89-22.37c.25,.53,.51,1.04,.81,1.55-.3-.49-.57-1-.81-1.55Zm7.79,9.05c-1.44-1.54-3.09-2.92-4.56-4.44,1.11,.78,2.61,.92,3.32,2.09,1.49,2.41,3.52,4.43,4.98,6.85-1.13-1.59-2.4-3.06-3.74-4.5Z"/><path d="M62.86,94.84s-.04,0-.05,0c.02-.03,.04-.08,.03-.16,.01,0,.02-.01,.04-.02,.15,.05,.16,.19-.01,.18Z"/><path d="M214.9,138.09c.04,.09,.08,.18,.12,.27-.02-.06-.05-.1-.08-.16-.01-.04-.03-.08-.04-.11Z"/><path d="M432.16,148.18c.63-1.49,1.44-2.9,1.7-4.56,.21-1.32,1.12-2.45,2.1-3.21,2.48-1.94,5.01-3.9,8.41-4,.63-.02,1.31,.01,1.91-.41,.08-2.23,.69-4.47,.07-6.73-.1-.38,.18-1.08,.53-.82,1.53,1.13,1.97-1.2,3.24-.9,.39,.09,.88-.41,1.35-.48,.63-.09,1.36,.15,1.61-.72,.25-.87-.38-1.39-.9-1.86-.83-.75-1.79-1.06-2.93-.6-2.64,1.05-5.31,2.05-7.96,3.1-.92,.37-1.68,.99-2.36,1.71-3.19,3.35-6.3,2.52-10.32,.04-.48-.29-.84-.77-1.26-1.14-1.77-1.58-2.29-3.49-1.5-5.74,.16-.46,.48-.86,.39-1.55-1.12-.3-1.98-1.14-2.89-1.94-.58-.51-.85-1.58-1.82-1.44-1.19,.17-2.57,.07-3.47,.97-1.42,1.43-3.27,2.1-4.92,3.13-2.21,1.38-4.33,2.88-6.01,4.94-1.19,1.46-2.77,2.53-4.4,3.46-1.29,.74-1.65,.51-1.93-.95-.48-2.53-.19-5.06,.24-7.54,.55-3.21,.18-5.83-3.09-7.36-.99-.46-1-1.23-.65-2.25,.82-2.43,2.21-4.53,3.55-6.66q.95-1.5-.61-2.48c-.2-.13-.45-.24-.58-.42-.12-.18-.17-.46-.13-.67,.05-.26,.32-.36,.57-.29,.31,.09,.59,.29,.91,.35,.9,.18,1.18-.19,.87-1.07-.03-.08-.07-.15-.1-.22q-1.84-4.39-6.09-2c-.78,.44-1.54,.92-2.23,1.49-.93,.76-1.97,1.11-3.13,1.22-1.89,.17-3.07-.91-3.04-2.82,.01-.83,.19-1.62,.57-2.36,.62-1.21,.34-2.21-.72-3-1.99-1.49-3.43-3.43-4.69-5.54-.35-.58-.58-1.15-.67-1.8-.26-1.88-.29-1.87-1.62-4.07-.51-.84-.42-1.87,.28-2.46,.66-.55,.9-1.08,.86-1.86-.06-1.08,.29-1.99,1.38-2.32,1.25-.37,1.72,.71,2.23,1.49,1.83,2.83,3.97,5.4,6.68,7.39,2.21,1.62,4.41,3.48,7.43,3.26,3.74-.27,7.47-.55,10.89-2.39,1.73-.93,3.59-1.55,5.58-1.69,1.41-.1,2.66-.75,3.96-1.2,1.12-.38,1.13-1.2,.28-2.03-1.8-1.75-3.98-1.58-6.18-1.29-.82,.11-.91,.81-1.06,1.45-.29,1.24-.86,2.3-2.09,2.84-.44,.19-1.1,.51-1.37,.33-1.26-.86-2.33-.23-3.45,.21-.94,.37-1.93,.36-2.89,.33-2.28-.07-4.55-.27-6.82,.1-1.17,.19-2.06-.51-2.89-1.11-1.11-.79-2.08-1.78-3.33-2.88,5.86-.83,11.61-.33,17.07-1.6,.1-1.17-.64-1.18-1.05-1.5-.78-.59-1.57-1.16-2.3-1.8-.3-.26-.46-.68-.24-1.11,.22-.43,.65-.49,1.05-.42,.64,.1,1.31,.19,1.9,.44,2.22,.94,4.59,1.14,6.94,1.28,3.79,.22,6.02-1.37,7.08-5,1.1-3.74,3-7.23,3.56-11.15,.09-.65,.43-1.41,1.19-1.3,.94,.14,1.28,1.06,1.25,1.87-.08,2.6-.15,5.21-1.09,7.7-.83,2.21-1.63,4.43-2.44,6.64-.41,1.12-.37,2.18,.11,3.31,.57,1.37,1.4,2.57,2.11,3.85,.24,.43,.55,.88,1.12,.75,.68-.15,.83-.77,.82-1.34,0-.48-.15-.96-.29-1.43-.51-1.7-.48-2.01,1.05-2.93,3.28-1.97,6.69-3.73,9.89-5.81,5.25-3.41,10.67-6.6,15.1-11.12,.8-.82,.96-1.28,.18-2.4-2.61-3.73-5.01-7.61-7.82-11.21-.15-.19-.25-.42-.34-.65-.4-.95-.67-1.91,.4-2.61,.93-.6,1.78-.18,2.4,.51,1.03,1.15,2.18,2.28,2.88,3.62,1.34,2.55,3.29,4.62,4.92,6.94,1.1,1.56,1.96,3.2,2.51,4.99,.93,3.02,2.36,5.9,2.33,9.19,0,1.11-.17,2.07-.67,3.03-1.37,2.59-2.83,5.14-3.95,7.86-.4,.98-.91,1.9-1.14,2.96-.32,1.56-1.51,2.27-2.95,2.54-1.1,.21-1.53-.27-1.21-1.35,.56-1.87,1.21-3.71,2.17-5.43,1.53-2.73,2.54-5.64,2.79-8.78,.06-.8,.3-1.6-.08-2.42-.8-.26-1.44,.14-1.99,.59-5.67,4.68-12.22,8.04-18.25,12.18-1.07,.74-2.2,.96-3.46,.39-.58-.26-1.26-.37-1.9-.38-.94-.02-1.71,.34-1.91,1.45,3.23-.09,3.56,.09,4.15,2.4,1.7-2.23,3.51-2.07,5.49-.53,.67,.52,1.65,.65,2.51,.91,2.03,.61,4.06,1.19,6.09,1.8,1.58,.47,3.21,.66,4.83,.52,1.89-.17,3.23-1.03,4.05-2.98,1.77-4.2,3.68-8.34,6.13-12.21,1.79-2.83,2.96-5.98,3.98-9.16,.83-2.6,.46-5.11-.99-7.71-1.89,1.67-2.04,4.33-3.87,5.82-2.24-2.43-2.74-4.88-1.5-7.84,.86-2.04,1.06-4.06,.24-6.17-2.14-5.55-3.88-11.23-5.76-16.87-.65-1.96-1.71-3.67-3.22-5.12-3.36-3.23-6.17-6.93-9.1-10.54-.46-.56-.95-1.14-1.07-1.9-.12-.82-.24-1.67,.56-2.22,.68-.47,1.42-.29,2.08,.08,.49,.28,.99,.59,1.39,.98,3.08,2.91,6.08,5.89,8.94,9.02,.11,.12,.2,.26,.31,.38,2.61,3.07,5.47,2.71,7.15-.97,.85-1.87,1.35-3.85,.87-5.95-.09-.4-.15-.81-.16-1.21-.01-.75-.72-1.81,.28-2.17,1.19-.42,1.69,.73,2.05,1.63,.52,1.31,1.23,2.24,2.77,2.39,1.07,.1,1.27,.9,.96,1.82-.99,3-1.72,6.11-4.21,8.4-2.11,1.95-3.12,4.34-2.18,7.29,.14,.45,0,.97,.05,1.46,.13,1.13,.4,2.25,.44,3.39,.04,1.17-1.66,1.3-1.68,2.51,.46,.61,.88,.07,1.3-.03,2.38-.59,4.14,.14,5.28,2.35,.59,1.15,1.16,2.36,1.49,3.6,1.25,4.72,2.57,9.43,3.05,14.32,.18,1.83-.03,3.55-.66,5.27-1.6,4.38-3.89,8.43-5.98,12.57-1.69,3.35-3.21,6.77-4.43,10.32-.45,1.31-.39,2.55,.07,3.82,.11,.32,.28,.61,.62,.68,.51,.1,.71-.27,.86-.67,.13-.34,.08-.93,.67-.74,.44,.15,.48,.64,.35,1.05-.13,.38-.38,.72-.5,1.11-.24,.74,.07,1.14,.84,.98,1.28-.26,2.49-.67,3.58-1.48,2.03-1.52,4.32-2.59,6.68-3.51,.45-.18,.91-.36,1.39-.47,.33-.07,.68,.07,.81,.4,.17,.43,.03,.86-.41,1-.93,.29-1.88,.48-2.82,.74-1.08,.3-1.83,.73-.98,2.05,.38,.59,.47,1.37,.7,2.07,.22,.69,1.31,.96,1.08,1.8-.19,.67-.71,1.24-1.19,2.03,1.48,.69,2.32-.26,3.19-1.01,.82-.71,1.03-1.56,.65-2.63-.72-2.03-.53-2.39,1.18-3.6,1.04-.74,2.2-1.01,3.4-1.25,6.22-1.26,12.5-2.29,18.66-3.86,3.37-.86,6.87-1.45,9.7-3.75,.29-.24,.67-.68,1.06-.38,1.91,1.46,2.95-.06,4.1-1.16,.63-.61,.83-1.57,1.71-2.02,3.73-1.9,6.45-5.56,10.87-6.28,.32-.05,.63-.15,.95-.24,.64-.17,1.33-.41,1.77,.28,.43,.67,.02,1.23-.44,1.73-.19,.21-.61,.27-.47,.83,1.42-.16,2.86-.31,4.47-.49-.27-.86-1.31-1.37-.74-2.46,.87,.17,1.8,.52,2.41-.89,.36-.81,1.76-.43,2.46,.03,1.52,1,3.01,1.05,4.63,.43,.85-.33,1.55,0,2.3,.41,1.8,.97,3.46,.57,4.96-.74,.31-.27,.66-.53,.58-.99-.1-.53-.59-.53-.97-.52-1.83,.06-3.48-.74-5.26-1.24,.94,0,1.89-.02,2.87-.03-.21-.64-1.1-.35-1.08-.95,.01-.65,.64-.6,1.1-.69,1.68-.35,3.35-.05,5.07-.08-.18,.9-1.29,.99-1.21,1.88,.11,.1,.23,.31,.32,.3,.63-.11,1-.05,1.21,.15,.36,.36,.17,1.44,.15,1.51-.75,3.31,.28,6.8,.01,10.18-.6,7.56,.67,37.68-2.9,46.05-1.04,2.45-2.59,3.97-2.59,3.97-1.89,1.86-3.53,1.66-4.72,3.06-1.47,1.73-.83,3.37-2.64,9.41-1.38,4.59-2.82,9.17-4.26,13.74-.39,1.23-1.08,1.6-1.89,.81-1.34-1.29-3.13-1.68-4.58-2.73-1.66-1.21-1.87-1.19-1.3-3.17,.74-2.62-.01-4.75-1.51-6.84-.76-1.07-1.49-1.47-2.85-1.19-1.91,.39-3.87,.49-5.82,.7-.32,.03-.65,.02-.97-.02-.4-.05-.86-.06-1.02-.51-.18-.51,.27-.69,.59-.93,.56-.42,1.38-.56,1.6-1.54-1.21-.48-2.26-.02-3.2,.57-4.43,2.77-8.3,6.01-9.93,11.29-1.34,4.32-4.81,6.79-8.37,9.14-.4,.26-.9,.53-1.33,.08-.34-.36-.08-.79,.09-1.14,.75-1.54,1.51-3.07,2.31-4.58,.42-.79,1.11-1.5,.26-2.4-.2-.21-.23-.43,.06-.56,1.84-.87,1-2.56,1.14-3.91,.09-.86-.13-1.79-.35-2.65-.46-1.73-.57-3.36,.74-4.81,.15-.17,.14-.46-.15-.83-.79-.09-1.73,.23-2.69-.06-1.02-.31-1.94,.37-2.58,1.07-1.48,1.63-2.87,3.39-3.35,5.59-.47,2.19-1.51,4.12-2.46,6.08-.78,1.61-1.6,3.07,.35,4.72-1.48-.42-2.47-.27-2.85,1.19-.11,.43-.62,.53-1.03,.51-2.52-.15-5.05-.19-7.53-.71-.8-.17-1.03-.51-.86-1.36,.65-3.17,1.17-6.37,1.86-9.53,.21-.96-.28-1.74-.25-2.64,.03-.79-.86-.88-1.28-.73-2.26,.82-3.94-.56-5.64-1.5-1.39-.77-2.71-.97-4.2-.74-.87,.13-1.69,.52-1.65-1.14,.03-1.11-2.2-1.88-3.38-1.32-1.91,.9-3.79,1.89-5.67,2.87-1.88,.99-3.84,1.68-5.94,2.15-5.87,1.31-8.92,4.17-9.08,11.16-.03,1.55-.06,3.1-.11,4.64-.03,.75-.17,1.56-.84,1.94-.75,.42-1.71,.31-2.49,.81-.26,.17-.5-.33-.62-.61-.62-1.43-1.59-2.71-1.46-4.44,.26-3.41,.88-4.19,.33-6.57-.28-1.22-.81-2.13-1.18-2.68Z"/><path d="M2.05,28.1c.33-1.29,1.53-1.09,1.91-2.02-.78-1.06-1.57-2.19-2.4-3.28-.76-1-1.19-2.14-1.48-3.33-.25-1.04,.05-1.94,.95-2.58,.87-.62,1.53-.05,2.2,.41,.38,.27,.68,.69,1.34,.74,.17-1.61-1.19-1.98-2.03-2.69,1.26-2.19,1.38-2.21,4.01-.65,.8-1.38,1.07-3.06,2.26-4.23,.29-.28,.42-.72,.73-.96,.76-.59,1.55-1.39,2.6-.69,1.05,.7,.4,1.59,.08,2.39-1.42,3.56-2.2,7.29-2.98,11.04-.32,.23-.6,.02-.89-.11-.55-.25-.93-.03-1.23,.43-.32,.5-.16,.94,.15,1.35,.46,.58,1.02,1.05,1.71,1.34,1.3,.56,1.58,.36,1.72-1.58,.95,1.58,2.32,1.89,3.81,1.93,1.14,.02,1.81-.47,2.01-1.66,.99-5.71,4.31-9.91,8.78-13.33,.26-.2,.53-.38,.82-.54,1.25-.68,2.3-.63,2.88,.19,.67,.96,0,1.72-.55,2.39-.56,.69-1.25,1.28-1.9,1.9-2.97,2.84-4.99,6.19-5.65,10.3-.23,1.44-.54,2.89-.96,4.29-.77,2.57,.92,4.13,2.29,5.81,.49,.6,1,.27,1.32-.36,.7-1.39,1.62-2.62,2.52-3.87,1.24-1.71,2.87-2.58,4.83-3.06,3.49-.85,7.04-1.33,10.62-1.6,1.72-.13,3.4-.34,5.01-.98,.85-.34,1.74-.77,2.27,.43,.41,.93-.2,2-1.39,2.45-.91,.34-1.85,.65-2.8,.88-3.72,.88-7.34,2.15-11.12,2.79-.74,.13-1.36,.49-1.96,.94-2.71,2.04-3.95,5.1-5.52,7.92-.35,.64,.22,1.23,.54,1.78,2.28,3.85,4.68,7.61,7.42,11.16,2.04,2.64,4.01,5.35,5.88,8.11,1.52,2.25,2.4,4.86,2.91,7.47,.59,3.05,4.93,5.48,7.73,4.78,2.61-.65,5.23-1.22,7.85-1.83,.4-.09,.79-.2,1.19-.24,.71-.07,1.29,.2,1.63,.85,.4,.75-.08,1.26-.59,1.67-.5,.41-1.04,.82-1.64,1.04-2.88,1.11-5.73,2.34-8.89,2.44-1.49,.05-2.56,.95-3.66,1.79-.44,.34-.78,.85-1.57,.93-.41-1.09-.79-2.22-1.24-3.31-.56-1.34-1.09-1.58-2.45-1.19-.16,.04-.31,.1-.46,.17-2.53,1.05-2.61,1.05-2.67-1.79-.05-2.44-.72-4.45-2.23-6.5-1.3-1.77-2.15-3.97-3.32-5.92-2.52-4.2-5.29-8.21-8.3-12.07-.86-1.1-2.69-1.13-2.86-2.27-.18-1.24-.36-2.38-1.04-3.4-3.04-4.61-5.69-9.52-10.07-13.09-1.07-.87-2.24-1.62-3.36-2.43-.42-.31-.84-.46-1.36-.26-1.18,.44-2.19-.32-3.42-.33Z"/><path d="M432.12,148.1c-.17,.54-.51,1.08-.49,1.61,.1,2.39-1.12,4.37-1.94,6.46-.34,.86-.62,1.92-1.9,1.95-.18,0-.47,.23-.53,.42-.58,1.77-2.16,2.25-3.63,2.87-.51,.21-1.16,.21-1.19,.99-.02,.35,.28,.89-.44,.85-.36-.02-.55-.34-.62-.67-.15-.63-.27-1.26-.44-2.09-.76,.44-.7,1.48-1.5,1.8-.68-.25-1.17-1.12-2.11-.82-.3,.1-.84,.07-.89,.23-.78,2.47-2.03,1.01-3.02,.3-.62-.44-1.07-.57-1.76-.28-.52,.22-1.1,.28-1.65,.42-2.09,.53-3.63-.34-4.19-2.45-1.05-4.01-1.41-8.14-2.1-12.22-.35-2.07-1.12-4.09-.88-6.24l.22-.12-.16,.18c-1.01-1.93-.95-4.07-1.25-6.15-.07-.5,0-.98,.54-1.22,.47-.21,1.23,.08,1.34-.75,.09-.66-.68-.87-.8-1.43,.17-.47,.64-.68,.96-.53,1.85,.91,4.09,1.16,5.3,3.16,.71,1.18,1.69,1.59,3.1,1.22,.81-.21,1.29-.42,1.43-1.33,.14-.89,.73-1.56,1.8-2.26-.32,2.73,2.18,3.43,3.11,5.19,.15,.28,.73,.29,1.12,0,.24-.83-.8-1.17-.77-2.22,2.18,.75,4.64,.62,5.94,3.03,.19,.35,.5,.64,.73,.97,.3,.42,.66,.76,1.21,.57,.59-.21,.79-.61,.82-1.3,.05-1.17,.52-1.36,1.41-.79,.98,.63,1.3,1.62,1.48,2.68,.33,1.92,.66,3.83,.99,5.75,.14,.8,.33,1.59,.78,2.3,0,0-.03-.07-.03-.07Z"/><path d="M409.85,68.27c.98-3.25-.03-5.95-2.45-8.33-2.23-2.19-3.49-5.08-5.14-7.69-2.44-3.86-5.01-7.61-8.6-10.55-1.83-1.5-3.33-3.36-4.78-5.22-4.34-5.52-9.05-10.66-14.41-15.22-3.09-2.63-5.95-5.55-8.8-8.44-2.77-2.81-3.73-6.43-4.02-10.24-.11-1.52,.61-2.49,1.69-2.56,.95-.07,1.82,.16,2.07,1.27,.16,.71,.25,1.44,.35,2.16,.43,2.95,1.76,5.37,4.15,7.2,.45,.34,.78,.44,1.25,0,1.32-1.26,2.42-2.58,2.66-4.51,.16-1.28,.64-2.52,1.03-3.77,.14-.45,.4-.89,.69-1.27,.25-.34,.66-.47,1.09-.35,.52,.15,.87,.49,.86,1.04-.01,.57-.11,1.13-.21,1.69-.45,2.4-.85,4.8-1.09,7.24-.17,1.73,0,3.42,.18,5.11,.23,2.22,2.29,3.02,3.77,4.21,.43,.35,.81-.26,1.04-.72,2.04-4.09,5.1-7.32,8.63-10.14,.5-.4,1.07-.74,1.66-1.02,.99-.48,1.76,.01,1.77,1.1,0,.87-.43,1.56-1.02,2.15-2.42,2.43-4.39,5.22-6.44,7.96-1.67,2.22-1.83,4.52,.02,6.35,4.52,4.47,8.06,9.81,12.67,14.17,3.96,3.75,6.69,8.36,9.63,12.84,.45,.68,.78,1.47,1.35,2.03,2.19,2.12,2.62,4.96,3.22,7.71,.34,1.53-.4,3.03-.76,4.52-.15,.63-.44,1.22-.33,1.9,.13,.76,.28,1.53,1.33,1.31,.58-.12,1.01-.12,.95,.61-.06,.69,.17,1.61-.82,1.81-.62,.13-1.3,.07-1.94-.01-1.58-.22-1.72-.44-1.52-2.07,.09-.73,.19-1.45,.29-2.25Z"/><path d="M155.9,68.3c.26,.12,.57-.04,.8-.26,2.23-2.24,4.79-4.17,6.52-6.89,.13-.21,.26-.42,.43-.59,.73-.73,1.82-.83,2.38-.18,.64,.75,.54,1.55-.14,2.18-3.1,2.9-5.29,6.62-8.52,9.4-.49,.42-.95,.9-1.31,1.44-1.53,2.28-4.1,3.38-5.97,5.27-.53,.53-1.18,.13-1.73-.22,.23-.89,1.19-.83,1.65-1.38,.42-.5,.63-1.25-.01-1.43-1.7-.47-.89-1.59-.54-2.23,.64-1.16,1.03-2.39,1.5-3.6,2.56-6.6,3.86-13.51,4-20.52,.1-4.89-1.24-9.67-3.04-14.26-1.52-3.89-3.25-7.63-5.99-10.84-.6-.71-1-1.57-.33-2.45,.64-.83,1.55-1.35,2.57-.95,1.86,.74,3.64,.53,5.49-.01,1.53-.45,2.25,.07,2.51,1.72,.18,1.12,.19,2.27,.32,3.4,.1,.81,.28,1.6,.65,2.34,.76,1.53,2.05,1.92,3.66,1.84,1.98-.09,2.49,.56,1.31,1.98-2.52,3.01-2.22,6.5-1.65,9.8,1.06,6.07,.24,11.84-1.73,17.54-.95,2.75-1.29,5.73-3.03,8.2-.13,.18-.14,.47,.18,.7Z"/><path d="M345.27,139.75c-.71,1.75-1.21,3.36-.2,5.02,.36,.6,.05,1.26-.14,1.89-.56,1.9-.5,3.79-.32,5.77,.27,3.01,.66,6.05,.23,9.12-.91,0-.99-.61-.98-1.17,.03-1.15-.86-1.05-1.52-1.12-.88-.09-.32,.69-.51,1.01-.99,1.58-2.74,3.35-4.6,2.76-2.36-.75-3.46-2.81-2.42-5.17,1.41-3.19,3.03-6.28,4.66-9.37,1.47-2.79,3.44-5.3,4.76-8.19,.13-.28,.29-.6,1.03-.55Z"/><path d="M183.92,42.5c1.82,3.68,3.32,6.9,4.53,10.26,.57,1.59,1.52,3.06,2.37,4.54,.47,.82,.4,1.33-.49,1.74-.44,.2-.83,.51-1.24,.78-.97,.65-1.74,.34-2.22-.6-1.34-2.6-2.74-5.18-3.65-7.98-.15-.45-.29-1.01-.15-1.43,.7-2.2,.45-4.51,.85-7.31Z"/><path d="M425.75,54.97c-2.07-.29-2.83,.97-3.35,2.49-.65,1.9-2.5,2.68-3.79,3.98-.55,.56-1.52,.03-1.59-.8-.06-.64-.07-1.55,.49-1.78,1.51-.6,1.94-2.1,2.96-3.09,.76-.75,1.63-1.29,2.54-1.83,1.23-.72,1.94-.28,2.74,1.02Z"/><path d="M350.16,128.92c.31-.04,.9-.04,.76,.25-1.41,2.8-1.89,6.07-4.3,8.35-.17,.16-.42,.23-.75-.02-.22-.78,.52-1.42,.58-2.2,0,0-.07,.06-.07,.06,1.21-2.21,2.54-4.35,3.85-6.5l-.07,.07Z"/><path d="M176.69,14.05c.47-.66,.97-.77,1.42-.93,.76-.27,1.51-.16,1.88,.61,.39,.79,.08,1.61-.34,2.3-.27,.45-.75,.23-1.04-.04-.65-.59-1.24-1.24-1.92-1.94Z"/><path d="M187.04,20.35c-.43-.81,.06-1.52-.11-2.22-.11-.44-.39-.97,.21-1.28,.51-.27,.94,.03,1.3,.35,.48,.42,.62,.95,.29,1.52-.4,.69-.89,1.31-1.69,1.62Z"/><path d="M133.14,77.66c-1.44,.12-2.24-.24-3.02-.64-.42-.21-.91-.59-.56-1.12,.28-.43,.91-.44,1.31-.16,.7,.49,1.32,1.1,2.27,1.92Z"/><path d="M373.7,138.64c.59-.37,1.16-.8,1.79-1.09,.39-.18,.79,.1,.98,.47,.3,.57-.19,.68-.57,.74-.69,.12-1.39,.18-2.08,.26-.04-.13-.08-.26-.12-.38Z"/><path d="M368.42,141.35c-.16,.33-.43,.47-.78,.42-.27-.04-.44-.25-.36-.52,.11-.34,.4-.49,.76-.43,.27,.05,.41,.23,.38,.52Z"/><path d="M273.06,160.29c.48,.34,1.25,.37,1.35,1.33-1.02,0-1.15-.69-1.28-1.38,0,0-.07,.05-.07,.05Z"/><path d="M274.42,34.4c.25,.07,.4,.24,.38,.49-.02,.27-.2,.42-.47,.37-.24-.05-.41-.24-.4-.49,.02-.26,.22-.38,.48-.37Z"/><path d="M328.11,157.91s-.1,.1-.1,.1c.35-.16,.75-.38,.99,.07,.16,.3-.08,.64-.42,.65-.55,0-.55-.41-.47-.82Z"/><path d="M276.56,159.17c.5-.07,.9-.8,1.53-.22-.49,.58-1.05,.27-1.58,.17,0,0,.04,.04,.04,.04Z"/><path d="M371.68,142.13s-.13-.09-.14-.15c-.02-.18,.08-.29,.26-.27,.05,0,.12,.09,.13,.14,.03,.19-.07,.28-.26,.28Z"/><path d="M371.98,175.36c.24-.01,.48-.04,.73-.03,.24,0,.49,.06,.53,.36,0,.05-.1,.17-.14,.16-.15-.03-.3-.08-.43-.16-.21-.11-.41-.24-.63-.36-.01,0-.06,.03-.06,.03Z"/><path class="cls-1" d="M135.4,135.02c1.74-3.35,4.29-5.87,7.53-7.72,4.18-2.39,7.95-5.32,11.53-8.55,4.35-3.93,9-7.49,14.22-10.24,.59-.31,1.2-.46,1.82-.66,3.31-1.05,6.91-1.59,9.71-3.65,2.43-1.8,5.04-2.48,7.84-3.01,.57-.11,1.26-.31,1.66,.03,1.74,1.48,4.11,1.34,6.02,2.47,1.71,1,3.71,.29,5.23-.67,1.28-.8,2.24-.95,3.56-.32,2.35,1.12,3.81-.57,5.3-1.94,.39-.36,.49-1.19,1.2-.98,.83,.25,1.81,.15,2.47,.9,.66,.74,.64,1.46-.05,2.15-.96,.95-2.11,1.5-3.45,1.7-1.36,.2-2.12,.84-2.35,2.34-.32,2.01-2.33,3.43-4.27,3.02-2.29-.48-4.55-.16-6.81-.06-.81,.04-1.62,.06-2.43,.03-2.28-.1-2.52-.51-1.45-2.62,.18-.36,.44-.69,.6-1.06,.57-1.38,.45-1.77-.72-2.37-1.38-.71-1.81-.62-2.57,.63-1.07,1.76-2.18,3.45-4.24,4.21-1.24,.46-2.34,.63-3.16-.77-.83-1.42-2-.75-3-.27-1.07,.51-2.03,1.36-3.21,.21-.17-.17-.67-.16-.94-.04-1.1,.48-2.11,1.24-3.43,.96-.42,1.21-1.69,1.29-2.59,1.83-.59,.35-1.49,.25-1,1.39,.15,.34-.27,.45-.61,.53-2.87,.72-5.25,2.14-7.44,4.21-1.12,1.06-1.97,1.67-1.45,3.28,.14,.44-.42,.72-.83,.62-1.4-.37-2.26,.61-3.23,1.26-3.47,2.32-6.96,4.6-10.9,6.05-1.75,.65-3.02,1.68-3.96,3.37-.99,1.77-2.52,3.13-4.61,3.73Z"/><path class="cls-1" d="M60.66,140.89c.14-.07,.29-.15,.44-.22,1.21-.6,1.78-.35,1.56,.79-.37,1.9-.47,3.9-1.6,5.59-.73,1.08-1.3,2.21-.51,3.76-1.63-.12-2.93-.43-4.31,.02-1.21,.4-2.37-.78-3.69-.81-.34,0-.49-.63-.38-1.04,.14-.52,.51-.85,1.08-.77,.89,.13,1.76,.4,2.65,.45,2.73,.14,4.02-1.06,4.39-4.06-1.2-.13-2.18,.53-3.19,.94-.76,.32-1.53,.55-2.32,.7-.52,.1-1.22,.5-1.48-.27-.24-.72-.11-1.46,.75-1.82,.35-.15,.85,.11,1.12-.58-1.02-.06-1.69-.49-2.33-1.36-.94-1.28-2.14-2.44-3.9-2.73-.69-.11-1.3-.39-1.6-1.28-.62-1.81-.71-1.78-2.84-1.52,.47-3.14-1.93-4.73-3.67-6.64-1.09-1.2-2.44-2.15-3.65-3.24-.36-.33-.7-.77-.3-1.26,.31-.38,.76-.2,1.12,0,1.03,.55,2.09,.88,3.27,.75,.48-.05,1.07,0,1.36,.41,.71,.97,1.39,1.15,2.43,.4,.52-.38,1.11,.15,1.43,.63,.8,1.22,1.62,2.56,1.47,4.01-.12,1.14,.36,1.24,1.13,1.38,.75,.14,1.45-.01,2.15-.28,.41-.16,.89-.14,1.04,.31,.2,.63-.33,.84-.81,.97-.31,.09-.64,.1-.97,.13-.49,.05-1.02,.08-1.2,.64-.21,.63,.3,.85,.74,1.07,.07,.04,.2,.08,.2,.12-.01,2.2,2.3,2.72,3.1,4.32,.54,1.07,1.28,1.69,2.49,2.09,2.89,.95,3.18,.95,4.88-1.64,0,0-.05,.05-.05,.05Z"/><path class="cls-1" d="M227.19,152.89c-.75-.32-1.44-.68-2.04-1.28-3.13-3.16-6.29-6.27-9.46-9.39-.42-.41-.7-.88-.89-1.43-1.81-5.21-3.86-10.35-5.16-15.74-.45-1.86-.97-3.59-.25-5.45,.53-1.38,1.27-2.58,2.64-3.41,.45,.79,.14,1.47-.19,1.89-1.01,1.29-.95,2.67-.73,4.15,.88,6,2.8,11.66,5.57,17.05,.49,.95,1.21,1.73,1.87,2.56,.36,.45,.86,1.01,1.38,.89,1.61-.37,2.25,.81,2.83,1.78,1.21,2.02,2.94,3.69,3.89,5.88,.36,.84,.77,1.62,.46,2.56,0,0,.07-.05,.07-.05Z"/><path class="cls-2" d="M138.6,86.17c-2.07,2.41-4.86,3.32-7.65,4.11-1.69,.48-3.12-.14-4.22-1.65-1.09-1.5-1.4-3.25-1.97-4.93-.19-.57,.2-1.04,.78-.82,4.13,1.52,8.56,1.7,12.76,2.93,.06,.02,.1,.11,.3,.36Z"/><path class="cls-1" d="M206.95,147.05c1.25,.6,2.27,1.5,2.93,2.76,.19,.36,.35,.78,.09,1.16-.33,.5-.85,.4-1.32,.26-1.47-.46-2.71-1.14-2.85-2.92-.07-.89-.15-1.78-.32-2.66-.17-.91-.48-1.68-1.59-.77-.39,.31-.88,.6-1.34,.32-.69-.42-.15-1.01-.07-1.53,.02-.16,.09-.31,.13-.47,.9-3.48,1.02-3.53,4.12-1.84,1,.54,1.48,2.65,1.02,4.18-.17,.55-.82,.81-.8,1.51Z"/><path class="cls-1" d="M168.2,81.98c-.85-.58-.17-1.26-.62-1.77-.86-.13-1.67,.29-2.51,.47-.36,.08-.63-.04-.76-.4-.12-.36,.04-.74,.33-.81,1.47-.38,2.97-.97,4.47-.61,.85,.2,1.67,.55,2.56,.63,.66,.06,1,.51,1.1,1.11,.05,.3,.11,.71-.05,.92-.27,.39-.77,.32-1.08,.05-1.28-1.14-2.37-.44-3.46,.41Z"/><path class="cls-1" d="M60.72,140.84c-.23,.06-.54,.25-.68,.17-1.5-.89-3.15-1.55-4.39-2.83-.5-.51-1.16-1.12-.52-1.85,.66-.76,1.38-.37,2.12,.12,1.66,1.1,2.94,2.44,3.41,4.43,0,0,.06-.05,.06-.05Z"/><path class="cls-1" d="M67.91,143.62c.08-.26,.14-.67,.32-1.02,.26-.49,.88-.8,1.11-.25,.44,1.03,1.14,.86,1.93,.79,.32-.03,.64,.14,.73,.5,.09,.37-.17,.62-.44,.78-.48,.29-.97,.59-1.49,.78-.61,.23-.84,1.51-1.72,.83-.7-.53-.45-1.49-.45-2.42Z"/><path class="cls-1" d="M225.43,109.14c1.31-1.37,2.64-2.24,4.36-2.66-.62,1.96-1.11,2.26-4.36,2.66Z"/><path class="cls-1" d="M120.49,125.59c.32,1.6,.92,2.95,.99,4.54-2-1.24-2.32-2.56-.99-4.54Z"/><path class="cls-1" d="M141.05,91.99c-.14,1.35-.2,2.33-1.48,2.39-.32,.02-.71-.13-.7-.49,.04-1.24,1.14-1.28,2.18-1.9Z"/><path class="cls-1" d="M126.29,133.17c1.38,.23,2.19,.49,2.42,1.52,.06,.24-.17,.5-.41,.47-.99-.11-1.44-.82-2.01-1.99Z"/><path class="cls-1" d="M124.24,73.86c1.52-.99,1.55-.98,3.07,1.2-1.24-.42-2.04-1.09-3.07-1.2Z"/><path class="cls-1" d="M166.79,66.43c-.01-.58,.42-.84,.85-.99,.54-.18,1.22-.23,1.36,.46,.18,.9-.64,.67-1.12,.73-.37,.04-.78,.18-1.09-.2Z"/><path class="cls-1" d="M59.72,98.54c-.4,.9-1.24,1.52-1.13,2.64q-.47-1.46,1.13-2.64Z"/><path class="cls-1" d="M62.81,94.64c.33,1.32,.06,2.31-1.45,2.76-.16-1.37,1.19-1.73,1.48-2.71,0-.01-.03-.05-.03-.05Z"/><path d="M185.22,103.05c1.12-.02,1.72,1.24,2.88,1.11,.21-.02,.3,.32,.28,.58-.1,1.52-2.05,3.01-3.51,2.64-.77-.2-1.17-.67-.45-1.36,.62-.59,1.51-1.07-.1-1.5-.38-.1-.29-.49-.2-.82,.17-.58,.56-.75,1.1-.65Z"/></g></g></g></g></svg>