<?xml version="1.0" encoding="UTF-8"?><svg id="Layer_2" xmlns="http://www.w3.org/2000/svg" xmlns:xlink="http://www.w3.org/1999/xlink" viewBox="0 0 1920 88.24"><defs><style>.cls-1,.cls-2,.cls-3{fill:#fff;}.cls-4{letter-spacing:-.02em;}.cls-5{letter-spacing:0em;}.cls-6{fill:none;stroke-width:2px;}.cls-6,.cls-3{stroke:#fff;stroke-miterlimit:10;}.cls-2{font-family:ReemKufi-Bold, 'Reem Kufi';font-size:24px;font-weight:700;}.cls-7{letter-spacing:-.03em;}.cls-8{filter:url(#luminosity-noclip-2);}.cls-9{mask:url(#mask);}.cls-10{letter-spacing:-.02em;}</style><filter id="luminosity-noclip-2" x="1489.45" y="-1.38" width="78" height="78" color-interpolation-filters="sRGB" filterUnits="userSpaceOnUse"><feFlood flood-color="#fff" result="bg"/><feBlend in="SourceGraphic" in2="bg"/></filter><mask id="mask" x="1489.45" y="-1.38" width="78" height="78" maskUnits="userSpaceOnUse"><g class="cls-8"><path id="path3942" d="M1497.25-1.38h55.59c8.03,0,14.61,6.57,14.61,14.61V62.01c0,8.03-6.57,14.61-14.61,14.61h-13.28c-1.37-.31-1.37-2.96-1.37-3.9v-10.69c0-3.63-1.29-6.01-2.69-7.22,8.7-.98,17.82-4.25,17.82-19.15,0-4.33-1.48-7.8-4.02-10.57,.39-.98,1.76-5.03-.39-10.3,0,0-3.28-1.05-10.73,3.98-3.08-.86-6.44-1.29-9.75-1.29s-6.67,.43-9.75,1.29c-7.45-5.03-10.73-3.98-10.73-3.98-2.15,5.27-.78,9.32-.39,10.3-2.54,2.77-4.02,6.24-4.02,10.57,0,14.86,9.09,18.21,17.75,19.19-1.09,.98-2.11,2.69-2.46,5.23-2.22,.94-7.96,2.69-11.35-3.24,0,0-2.07-3.74-5.97-4.02,0,0-3.82-.08-.39,2.34,0,0,2.65,1.21,4.45,5.73,0,0,2.3,7.57,13.1,5.23v6.59c0,.94,0,3.59-1.4,3.9h-13.24c-8.03,0-14.61-6.57-14.61-14.61V6.42c0-4.29,3.51-7.8,7.8-7.8h0Z"/></g></mask></defs><g id="Layer_1-2"><rect id="Rectangle" width="1920" height="88.24"/><g id="Phone"><path class="cls-1" d="M315.27,51.4c-1.25-1.3-2.75-1.99-4.34-1.99s-3.1,.68-4.4,1.98l-4.06,4.05c-.33-.18-.67-.35-.99-.51-.46-.23-.9-.45-1.27-.68-3.8-2.42-7.26-5.56-10.58-9.64-1.61-2.03-2.69-3.74-3.47-5.48,1.05-.96,2.03-1.97,2.98-2.93,.36-.36,.72-.73,1.08-1.09,2.7-2.7,2.7-6.19,0-8.89l-3.51-3.51c-.4-.4-.81-.81-1.2-1.22-.77-.8-1.58-1.62-2.42-2.39-1.25-1.23-2.74-1.89-4.31-1.89s-3.08,.66-4.37,1.89l-.03,.03-4.37,4.41c-1.65,1.65-2.58,3.65-2.79,5.98-.31,3.75,.8,7.25,1.65,9.54,2.08,5.62,5.19,10.82,9.83,16.4,5.63,6.72,12.4,12.03,20.14,15.77,2.96,1.4,6.9,3.06,11.31,3.34,.27,.01,.55,.03,.81,.03,2.97,0,5.46-1.07,7.42-3.19,.01-.03,.04-.04,.05-.06,.67-.81,1.44-1.54,2.25-2.33,.55-.53,1.12-1.08,1.67-1.66,1.27-1.32,1.94-2.87,1.94-4.45s-.68-3.12-1.98-4.41l-7.06-7.08Zm4.6,13.53s-.01,.01,0,0c-.5,.54-1.02,1.03-1.57,1.57-.84,.8-1.68,1.63-2.48,2.57-1.3,1.39-2.83,2.04-4.83,2.04-.19,0-.4,0-.59-.01-3.82-.24-7.36-1.74-10.02-3.01-7.27-3.52-13.66-8.52-18.97-14.86-4.38-5.28-7.31-10.17-9.25-15.41-1.2-3.2-1.63-5.69-1.44-8.05,.13-1.5,.71-2.75,1.77-3.82l4.38-4.38c.63-.59,1.3-.91,1.95-.91,.81,0,1.47,.49,1.88,.9,.01,.01,.03,.03,.04,.04,.78,.73,1.53,1.49,2.31,2.3,.4,.41,.81,.82,1.22,1.25l3.51,3.51c1.36,1.36,1.36,2.62,0,3.98-.37,.37-.73,.75-1.11,1.11-1.08,1.11-2.11,2.13-3.23,3.14-.03,.03-.05,.04-.06,.06-1.11,1.11-.9,2.18-.67,2.92,.01,.04,.03,.08,.04,.12,.91,2.21,2.2,4.29,4.15,6.77h.01c3.55,4.38,7.29,7.79,11.41,10.4,.53,.33,1.07,.6,1.58,.86,.46,.23,.9,.45,1.27,.68,.05,.03,.1,.06,.15,.09,.44,.22,.85,.32,1.27,.32,1.07,0,1.74-.67,1.95-.89l4.4-4.4c.44-.44,1.13-.96,1.94-.96s1.45,.5,1.85,.94l.03,.03,7.08,7.08c1.32,1.31,1.32,2.66,.01,4.02Z"/><path class="cls-1" d="M300.05,28.16c3.37,.57,6.43,2.16,8.87,4.6,2.44,2.44,4.02,5.5,4.6,8.87,.14,.85,.87,1.44,1.71,1.44,.1,0,.19-.01,.3-.03,.95-.15,1.58-1.05,1.43-2-.69-4.07-2.62-7.79-5.56-10.73s-6.66-4.87-10.73-5.56c-.95-.15-1.84,.48-2,1.41s.45,1.85,1.4,2Z"/><path class="cls-1" d="M327.97,40.54c-1.14-6.71-4.31-12.81-9.16-17.67-4.86-4.86-10.96-8.02-17.67-9.16-.94-.17-1.83,.48-1.99,1.41-.15,.95,.48,1.84,1.43,2,5.99,1.02,11.45,3.86,15.8,8.19,4.34,4.34,7.17,9.81,8.19,15.8,.14,.85,.87,1.44,1.71,1.44,.1,0,.19-.01,.3-.03,.94-.14,1.58-1.04,1.41-1.98Z"/></g><path id="Email" class="cls-6" d="M739.29,17.62h-62.93c-5.61,0-10.17,4.56-10.17,10.17V63.99c0,5.61,4.56,10.17,10.17,10.17h62.93c5.61,0,10.17-4.56,10.17-10.17V27.79c0-5.61-4.56-10.17-10.17-10.17Zm-4.97,6.64l-26.5,17.07-26.5-17.07h52.99Zm4.97,43.26h-62.93c-1.95,0-3.54-1.59-3.54-3.54V27.98l32.96,21.19s.09,.05,.14,.07c.05,.03,.1,.05,.14,.08,.26,.13,.52,.24,.79,.31,.03,0,.06,.01,.08,.02,.3,.07,.59,.11,.89,.11h0c.3,0,.6-.04,.89-.11,.03,0,.06,0,.08-.02,.27-.07,.53-.18,.79-.31,.05-.02,.1-.05,.14-.08,.05-.03,.09-.04,.14-.07l32.96-21.19V63.99c0,1.95-1.59,3.54-3.54,3.54Z"/><g id="Pin"><path class="cls-3" d="M1118.06,12.84c-11.76,0-21.32,9.57-21.32,21.32,0,14.31,19.55,37.7,20.38,38.69,.23,.28,.57,.44,.94,.44h0c.36,0,.7-.16,.93-.43,.83-.97,20.39-23.98,20.39-38.7,0-11.76-9.57-21.32-21.32-21.32Zm0,57.29c-3.93-4.88-18.87-24.24-18.87-35.96,0-10.4,8.46-18.86,18.86-18.86s18.86,8.46,18.86,18.86c0,12.05-14.92,31.14-18.86,35.96Z"/><path class="cls-3" d="M1118.06,24.7c-5,0-9.07,4.07-9.07,9.07s4.07,9.07,9.07,9.07,9.07-4.07,9.07-9.07-4.07-9.07-9.07-9.07Zm0,15.67c-3.64,0-6.61-2.96-6.61-6.61s2.96-6.61,6.61-6.61,6.61,2.96,6.61,6.61-2.96,6.61-6.61,6.61Z"/></g><g class="cls-9"><path id="GitIcon" class="cls-1" d="M1545.26,75.53c0-2.3,1.06-5.56,2.93-7.07,1.58-1.28,3.12-2.58,4.75-3.8,1.66-1.24,3.53-2.06,5.5-2.73,.19-.07,.39-.11,.58-.15V9.77h-61.47v54.6c1.99-.12,4.23,.27,5.72,1.32,3.76,2.65,7.66,5.97,8.76,10.67h33.26c-.03-.28-.04-.56-.04-.84Z"/></g><text class="cls-2" transform="translate(357.48 51.92)"><tspan x="0" y="0">076 -70 39 </tspan><tspan class="cls-7" x="110.21" y="0">3</tspan><tspan class="cls-5" x="122.13" y="0">36</tspan></text><text class="cls-2" transform="translate(780.22 51.14)"><tspan x="0" y="0">dc91_hotmail.com</tspan></text><text class="cls-2" transform="translate(1163.48 51.17)"><tspan x="0" y="0">Malmö, </tspan><tspan class="cls-4" x="86.76" y="0">S</tspan><tspan class="cls-10" x="100.27" y="0">w</tspan><tspan x="116.33" y="0">eden</tspan></text><text class="cls-2" transform="translate(1576.66 52.51)"><tspan x="0" y="0">dc91</tspan></text></g></svg>