<?xml version="1.0" encoding="utf-8"?>
<!-- Generator: Adobe Illustrator 27.0.0, SVG Export Plug-In . SVG Version: 6.00 Build 0)  -->
<svg version="1.1"
	 id="svg3390" xmlns:svg="http://www.w3.org/2000/svg" xmlns:rdf="http://www.w3.org/1999/02/22-rdf-syntax-ns#" xmlns:dc="http://purl.org/dc/elements/1.1/" xmlns:cc="http://creativecommons.org/ns#"
	 xmlns="http://www.w3.org/2000/svg" xmlns:xlink="http://www.w3.org/1999/xlink" x="0px" y="0px" viewBox="0 0 480 480"
	 style="enable-background:new 0 0 480 480;" xml:space="preserve">
<style type="text/css">
	.st0{filter:url(#Adobe_OpacityMaskFilter);}
	.st1{mask:url(#SVGID_1_);fill:#FFFFFF;}
</style>
<defs>
	<filter id="Adobe_OpacityMaskFilter" filterUnits="userSpaceOnUse" x="99.5" y="66" width="281" height="348">
		<feFlood  style="flood-color:white;flood-opacity:1" result="back"/>
		<feBlend  in="SourceGraphic" in2="back" mode="normal"/>
	</filter>
</defs>
<mask maskUnits="userSpaceOnUse" x="99.5" y="66" width="281" height="348" id="SVGID_1_">
	<g class="st0">
		<path id="path3942" d="M90.5,15h320c22,0,40,18,40,40v320c0,22-18,40-40,40h-103c-7-1.6-7-15.2-7-20v-54.8
			c0-18.6-6.6-30.8-13.8-37c44.6-5,91.4-21.8,91.4-98.2c0-22.2-7.6-40-20.6-54.2c2-5,9-25.8-2-52.8c0,0-16.8-5.4-55,20.4
			c-15.8-4.4-33-6.6-50-6.6s-34.2,2.2-50,6.6c-38.2-25.8-55-20.4-55-20.4c-11,27-4,47.8-2,52.8c-13,14.2-20.6,32-20.6,54.2
			c0,76.2,46.6,93.4,91,98.4c-5.6,5-10.8,13.8-12.6,26.8c-11.4,4.8-40.8,13.8-58.2-16.6c0,0-10.6-19.2-30.6-20.6c0,0-19.6-0.4-2,12
			c0,0,13.6,6.2,22.8,29.4c0,0,11.8,38.8,67.2,26.8V395c0,4.8,0,18.4-7.2,20H90.5c-22,0-40-18-40-40V55C50.5,33,68.5,15,90.5,15
			L90.5,15z"/>
	</g>
</mask>
<rect x="99.5" y="66" class="st1" width="281" height="348"/>
</svg>
