<?xml version="1.0" encoding="UTF-8"?><svg id="Layer_2" xmlns="http://www.w3.org/2000/svg" viewBox="0 0 102.27 123.5"><defs><style>.cls-1{fill:#fff;}</style></defs><g id="Layer_1-2"><path class="cls-1" d="M0,79.71c7.34-1.18,11.03,2.43,13.94,7.08,4.02,6.43,9.64,10.04,17.19,10.41,6.63,.33,8.45-1.11,10.16-7.39q2.09-7.63-5.33-9.74c-16.62-4.72-24.51-15.17-24.64-32.46-.07-9.61,.31-19.06,6.9-26.95,1.45-1.73,.38-3.56-.03-5.25-.95-3.97-.95-7.85-.03-11.85,.92-4.03,3.01-4.31,6.16-2.52,3.22,1.84,6.09,4.1,8.22,7.16,1.67,2.4,3.45,2.74,6.37,1.81,11.56-3.7,23.33-3.7,34.88-.12,3.4,1.05,5.21,.4,7.16-2.14,2.24-2.93,5.05-5.3,8.38-6.98,2.82-1.42,4.66-.92,5.54,2.45,.82,3.14,1.43,6.49,.49,9.37-1.64,5.02,.59,8.45,2.49,12.81,5.51,12.63,6.15,25.94,.44,38.74-4.27,9.57-13.06,13.82-22.75,16.31-6.14,1.58-5.88,1.49-4.29,7.58,2.79,10.64,1.03,21.54,1.15,32.32,.03,2.48-2.16,3.1-4.35,3.1-7.66,0-15.33-.02-22.99,.02-3.48,.02-4.56-1.85-4.66-5.06-.11-3.44,1.5-7.73-.98-10.09-2.44-2.32-6.7-.52-10.14-.88-6.63-.7-12.31-3.33-15.96-9.03-4-6.25-6.9-13.2-13.31-18.73Z"/></g></svg>