<?xml version="1.0" encoding="UTF-8"?><svg id="Layer_2" xmlns="http://www.w3.org/2000/svg" viewBox="0 0 1920.46 37.08"><g id="Layer_1-2"><path d="M1920.46,17.61c-2.36-.45-4.57-.16-6.64,.47-3.72,1.1-6.19,.1-9.73-.5-5.13-.9-6.9-5.3-13.27-4-5.66,1.1-11.68,.5-17.35,1.1-4.42,.4-9.38-4.1-14.34,.2,0,0-.89-.2-1.24-.4-8.85-2.5-18.76-1.3-28.14-2.8,.53,.8,.53,1.1,.71,1.3,1.77,1.4,3.36,3.3,.71,4.3-3.01,1.1-3.19-1.1-4.25-2.1-.89-.9-2.48-.1-3.36-.4-4.07-1.1-9.91-.2-12.04-3.7-.89-1.6-3.01-.7-4.96,.1-6.73,2.8-15.58,3.3-21.77,.6-3.54-1.6-6.02-.3-6.73,.6-2.12,2.5-3.89,2.3-6.73,.5-2.65-1.7-6.37-1.7-9.73-1.7-13.81,0-27.08,5.2-41.24,1.3-6.9,3.3-15.58-3.2-22.3,1.3-7.26-2-17.35-.7-21.77-6.8-1.42,6.8-3.72,7.7-15.04,6.5-2.3-.2-4.6-.9-6.73,.1-6.55,3-11.5-.9-17.17-1.3-1.59-.1-2.65-2.2-5.49-1.4-3.01,.8-.88,2.3-1.42,3.5-.53,1.6-.89,4.5-4.78,3.1-3.89-1.4-6.02-.2-9.03,.2-5.31,.6-10.44,1.9-16.99,1.2,7.61-2.3,12.92-6.1,21.95-5.2,2.12,.2,5.13-.8,3.72-2.5-1.24-1.4-3.54-3.9-6.73-2.7-5.31,2.2-12.92,1-17.35,4-4.25,2.9-10.27,2.2-15.93,2.7-.71-1.6,3.19-3.2-.89-4.4-3.01-.9-5.49-.3-7.79,.9-4.96,2.6-10.62,2.9-16.64,1.7-6.37-1.2-13.1-.8-19.65-1.5-4.96-.6-12.21-.8-15.4,.8-4.96,2.4-7.96,1.3-11.5,0-6.9-2.6-14.16-4.8-22.48-5.6-5.31-.5-11.33,.1-16.11-1.1-8.67-2-17.7-1.9-26.55-2.8-2.48-.2-6.73-.6-7.43,.1-2.3,2.1-4.96,3.7-8.14,5.2-1.24,.6,.35,1.2,1.77,1.3,1.59,.1,3.72,0,3.72,1.8-4.96,0-9.73-.1-14.69,0-4.78,.1-9.56,.4-14.34,1-3.54,.4-8.85,2.2-10.62,1.3-3.54-1.7-6.73-2.3-10.97-2.2-1.06,0-1.77-.4-2.12-1-.53-.9,2.48-2.7-1.42-2.6-2.83,0-6.37,.4-7.61,2.4-.53,.8-.53,1.9-2.83,1.6-1.77-.2-2.48-1.2-2.48-2,0-5.5-3.19-3.4-7.26-1.1-7.26,4.1-21.95,6.5-27.79,4.3-3.36-1.3-6.55-1-9.91-1.5-10.09-1.4-19.12,1.9-28.85,1.3-1.95-.1-3.89-.4-5.84-.5-5.84-.2-11.86-1.5-17.52,.4-3.19,1.1-6.02,3.3-9.03-.2-.88-1-2.65-.2-3.72,.5-4.78,3.3-9.38,.9-13.98-.2-.88-.2-.71-1.4-2.48-1.2-13.27,1.4-26.73,.1-40,0-9.73-.1-20.18,3.7-29.56-.9-.53-.3-2.3-.3-2.83,0-5.31,2.2-11.68-1.1-16.99,1.1-.71,.3-2.3-.2-2.12-.9,.18-1.7,1.59-3,3.72-4.2,2.12-1.3,3.19-.8,4.07,.8,.71,1.1,2.12,.3,2.65-.4,1.24-1.4,.35-2.8-.89-4.2-1.06-1.2-2.65-1.4-4.42-.8-2.3,.7-6.55,.5-6.19,2.7,.35,2.2-.71,3.5-3.89,4.2-3.72,.8-2.12-2.5-5.31-2.4-2.83,1.1-1.06,3.6-4.07,4.7-.53-.2-.71-.3-.88-.4-1.42-1.2,.88-3.8-3.19-3.9-3.72-.1-1.59,1.9-2.3,3-.18,.3-1.24,.8-1.42,.8-4.25-1.3-7.96,1.2-11.5,.7-3.36-.5-11.33,.6-7.79-4.3,.53-.7,.89-1.6-.35-2-1.77-.5-3.01,.2-3.72,.9-2.66,2.8-6.73,3.7-12.39,3.2-1.42-.1-3.01,.2-4.42,.6-12.92,3.9-26.55,.6-39.65,.5-8.5-.1-9.2-1.7-18.94-1.1-.89,.1-1.95-.5-2.83-.6-9.91-.5-19.65-2-29.91-1-6.55,.6-12.92,1.2-20,.8-7.61-.5-17.52-.7-21.24,5.4-.89,1.4-3.72,2.2-7.26,1.6,1.77-2.9,7.61-4,8.32-7.2-1.24,.2-1.77,.2-2.12,.3-6.55,2.9-14.87-.6-22.12,2.1-2.12,.8-8.32-1.2-13.27-.8-3.01,.3-6.37-.2-9.56,.7-4.25,1.2-7.61,1.1-8.32-2.1-.35-1.3-.71-3.1-4.07-1.8-4.42,1.7-10.8,.2-14.69,2.9-1.06,.7-3.72,.9-5.66-.2-7.26-4-19.29-1.6-26.2-6.2-.88-.6-2.48,.1-2.3,1.1,.53,2.8-3.72,1.7-6.02,2.1-3.54,.7-2.65-.8-2.83-1.9-.18-1.1-1.95-1.8-3.72-1.9-2.65,0-2.12,1.3-2.3,2.3-.71,3.5-7.61,5.9-14.16,5.4-7.96-.6-16.28-1.7-23.89-.9-7.79,.9-14.16-1.1-20.89-1.7-6.19-.6-11.15-.6-16.64,.7-1.24,.3-2.12,.9-3.36,.2l-21.06-6.9h-1.06c-1.95,2.6,2.83,4.3,3.89,7.2-2.83-.8-4.42-1.9-6.9-1-1.24,.5-3.89,.3-2.3-1,2.83-2.4-1.42-3.6-1.06-5.8-6.9,2.5-3.89,6.4-6.55,9.3-2.83-3.3-10.44-4.4-13.45-3.4-9.38,2.9-11.5,.2-13.98-3.9-2.12-3.8-9.73-4.4-15.22-1.8-5.13,2.6-10.44,5.1-17.88,5.4-1.42-3.1,3.54-3.7,5.84-5.5-3.36,1.2-10.62-2.6-10.44,3,0,.6-2.48,3.5-6.02,1.1-1.77-1.2-3.72-.4-5.66,.1-13.63,3.5-27.97,3.2-42.66,3-9.03-.1-18.05-.5-27.08,0-4.96,.3-11.68,.4-13.98-3.4-1.24-2-4.25-1.5-6.19-1.8-1.95-.4-1.77,1.4-2.12,2.3-.71,1.3-1.24,2.8-4.42,1.9-6.02-1.8-13.27-1.1-19.29-4.1,1.42,3.1,2.3,5.2-4.6,3.5-2.48-.6-6.37-1.4-8.67-.3-3.36,1.6,2.65,2.4,2.12,4-.18,.2-.53,.5-.88,.8-4.96-1.6-9.91-4.8-15.58-.5-.35,.3-2.3-.1-3.54-.2-7.26-.7-14.34-.9-21.95-.3-11.68,.9-24.6,2.6-34.51-3.3-.35-.2-1.77-.2-2.12,0-4.96,4.1-12.74,1.2-19.12,2.1-3.01,.4-5.13,2.2-8.85,1.7-11.15-1.7-20.89-5.3-30.97-8.4-1.59,1.6,1.95,4.6-3.54,4.7-7.61,.1-15.04,1.6-22.83,.9-12.39-1.2-24.96-.5-37.35,.3-2.12,.1-4.25,1.7-6.37,.5-4.07-2.3-7.43-4.6-10.44,.6-.71,1.2-3.01,0-4.78-.2-3.72-.5-7.26-2.9-10.62-1.7-6.55,2.1-13.63,.1-20.18,1.5-6.73,1.5-9.73-.4-9.91-4.2,0-.1-.88-.1-1.59-.1-1.77,2-.35,6.1-7.79,4.8-7.08-1.2-15.75,1-21.77-3-.18-.1-1.06-.2-1.42-.1-6.9,2.3-14.51,.4-20.71,1-9.03,.8-20.89-2.3-27.61,3.9-.18,.1-1.42-.1-2.12-.2-12.21-1.5-24.25-3.5-36.99-2.3-2.65,.3-5.66-.1-8.14-.7-9.03-2.2-19.29,2.1-27.97-1.8-.35-.2-2.12,.7-3.36,.9-5.13,.8-10.62,2.4-15.58,1.9-6.02-.6-11.5-.7-17.35-.2-9.91,.7-19.65-1.1-29.2-2-5.49-.6-10.8-3.8-17.52-3.8-5.24,.06-10.28-1.32-15.45-1.71-.15,.29-.31,.58-.46,.87V37.08H1920.46V17.61Z"/></g></svg>