<?xml version="1.0" encoding="UTF-8"?><svg id="Layer_2" xmlns="http://www.w3.org/2000/svg" viewBox="0 0 314.92 169.66"><defs><style>.cls-1{letter-spacing:-.02em;}.cls-2{letter-spacing:-.09em;}.cls-3{fill:none;stroke:#000;stroke-miterlimit:10;stroke-width:2px;}.cls-4{letter-spacing:0em;}.cls-5{font-family:ReemKufi-Regular, 'Reem Kufi';font-size:24px;}</style></defs><g id="Layer_1-2"><text class="cls-5" transform="translate(30.26 38.78)"><tspan class="cls-2" x="0" y="0">W</tspan><tspan x="22.01" y="0">elcome to</tspan><tspan x="0" y="28.8">My Port</tspan><tspan class="cls-1" x="82.97" y="28.8">f</tspan><tspan class="cls-4" x="91.7" y="28.8">olio!</tspan></text><path class="cls-3" d="M200.91,79.92c2.32-2.26-5.66-8.9-10.85-17.39-8.52-13.94-3.23-23.74-6.25-33.25C174.6,.29,102.42,.79,63.03,1.06c-25.76,.18-38.31,2.66-48.02,12.02C4.61,23.11-.46,39.07,1.37,54.02c.52,4.28,2.1,17.16,12.07,26.77,9.89,9.53,24.58,10.42,53.56,11.8,18.22,.87,16-.69,34.07,.39,5.12,.31,17.07,.86,40.97,1.98,0,0,10.84,.5,22.57-3.15,3.14-.98,5.8-2.1,8.4-4.2,4.5-3.64,4.05-6.36,6.96-8.48,6.94-5.07,18.49,3.17,20.94,.79Z"/><path d="M286.01,163.06c-.36-.42-.72-.83-1.21-1.39,.42-.03,.7-.05,1.07-.07-.07-.39-.17-.77-.19-1.16-.05-.79,.14-1.51,.88-1.92,.52-.29,.61-.71,.66-1.27,.06-.72,.15-1.55,.55-2.1,.63-.88,1.05-1.75,1.06-2.83,0-.21,.16-.41,.28-.68-.3-.24-.59-.48-.87-.71,.39-.68,.75-1.4,1.2-2.04,.14-.2,.73-.16,.79-.33,.43-1.33,1.23-2.63,.42-4.2-.97,.94-.85,2.29-1.43,3.32-.58,1.03-1.17,2.06-1.84,3.24h.9c-.27,.38-.48,.84-.82,1.13-.75,.63-1.05,1.39-1.01,2.36,.01,.33-.2,.68-.37,1-.28,.54-.66,1.03-.9,1.58-.56,1.28-1.11,2.57-1.58,3.89-.29,.81-.43,1.68-.65,2.56,.26,.38,.55,.81,.84,1.25-.05,.07-.11,.13-.16,.2-.33-.09-.65-.18-1.15-.32-.58,1.34-1.16,2.69-1.76,4.07-.88-.34-.59-.87-.45-1.32,.56-1.79,1.09-3.59,1.71-5.37,2.75-8,5.52-15.99,8.29-23.98,.84-2.44,1.67-4.89,2.56-7.31,.37-1.03,.41-1.97-.03-2.99-.93-2.16-1.76-4.36-2.66-6.53-1.39-3.34-3.52-6.06-6.59-8.06-.76-.5-1.35-1.27-2.02-1.91l-.02,.02c1.12,.07,2.24,.12,3.37,.2,2.01,.14,4.02,.27,6.03,.44,2.1,.18,4.2,.46,6.3,.6,1.85,.13,1.94,0,2.57-1.68,1.01-2.73,2.02-5.46,3.04-8.18,.15-.39,.4-.74,.78-1.04-2.95,10.24-6.34,20.31-9.89,30.44,.24,.11,.51,.29,.81,.36,.84,.2,1.09,.06,1.37-.76,.35-1.02,.66-2.05,1.02-3.07,.08-.24,.28-.45,.65-.63,.02,.28,.12,.59,.04,.84-.32,1.08-.69,2.15-1.05,3.21-.32,.93-.24,1.75,.18,2.7,1.59,3.59,2.69,7.32,2.58,11.31-.07,2.67-.15,5.35-.26,8.02-.02,.51-.12,1.03-.26,1.52-.89,3.16-1.8,6.31-2.7,9.47-.17,.6-.31,1.21-.46,1.82-.12,0-.24-.02-.36-.03-.03-.27-.16-.58-.08-.8,.69-1.69,.69-3.6,1.48-5.23,1.58-3.29,1.64-6.8,1.73-10.32,.06-2.3,.07-4.6-.04-6.89-.12-2.51-.9-4.89-1.91-7.18-.11-.25-.27-.48-.44-.76-.69,.27-.73,.89-.89,1.38-1.09,3.25-2.14,6.51-3.21,9.77-1.55,4.73-3.07,9.47-4.66,14.19-.26,.77-.82,1.45-1.25,2.17,0,0,.03,.03,.03,.03Zm-.02-49.07c-.2-.57-.42-1.12-1.03-1.23-.08,.09-.16,.18-.24,.28,.43,.31,.86,.62,1.28,.94,.3,.36,.58,.74,.9,1.08,1.81,1.89,3.17,4.06,4.17,6.46,.62,1.47,1.23,2.94,1.86,4.4,.18,.41,.4,.8,.68,1.35,.26-.35,.45-.51,.52-.71,.74-2.07,1.47-4.15,2.2-6.23,.25-.72-.07-1.11-.72-1.43-2.27-1.11-4.52-2.27-6.77-3.42-.96-.49-1.91-.99-2.86-1.49Zm11.49,2.53c.26-.69,.37-.95,.45-1.22,.41-1.26,.29-1.56-.98-1.71-2.28-.27-4.58-.45-6.87-.66-.12-.01-.24,.09-.48,.18,.19,.17,.3,.34,.45,.38,1.66,.5,3.32,1.01,4.99,1.45,.91,.23,1.88,.25,2.44,1.58Zm-3.14,17.97c-.5,.89-1.18,1.38-1.25,2.45-.08,1.11-.53,2.26-1.64,2.92-.06,.04-.08,.16-.13,.3,.16,.26,.33,.54,.56,.91-.48,.17-.83,.29-1.22,.43,.21,.42,.37,.73,.51,1.01-.26,.29-.45,.51-.67,.76,1.08,.56,1.16,.59,1.44-.22,.89-2.65,1.72-5.32,2.56-7.99,.03-.1-.06-.25-.16-.57Z"/><path d="M8.96,105.09c.48-.04,.92-.11,1.35-.1,3.94,.09,7.89,.21,11.83,.28,6.76,.12,13.53,.2,20.29,.32,4.37,.08,8.74,.09,13.1,.35,2.58,.15,5.13-.24,7.69-.18,1.36,.03,2.72,.09,4.08,.13,10.47,.28,20.94,.62,31.41,.83,9.67,.19,19.35,.25,29.03,.33,5.12,.04,10.23,0,15.35,.03,5.45,.02,10.9,.07,16.34,.12,.48,0,1.03-.14,1.53,.45-.33,.12-.56,.28-.79,.28-.75,0-1.5,0-2.25-.09-1.55-.17-3.08-.25-4.63,.02-.66,.11-1.38-.07-2.07-.14-.6-.06-1.24-.3-1.8-.19-3.25,.69-6.54,.43-9.82,.43-6.67,0-13.34,.05-20.01,0-8.69-.06-17.38-.15-26.06-.31-7.28-.13-14.55-.37-21.82-.59-2.62-.08-5.24-.28-7.87-.37-1.17-.04-2.34,.1-3.51,.08-7.65-.14-15.3-.3-22.94-.45-1.93-.04-3.85-.02-5.78-.07-5.91-.14-11.83-.3-17.74-.46-1.27-.03-2.54-.04-3.8-.09-.38-.01-.88,.17-1.11-.62Z"/><path d="M202.24,96.74c-.92-2.03-.62-4.14-.36-6.24,.15-1.24,.91-2.04,2.02-2.51,.79-.34,1.29-.14,1.51,.69,.47,1.74,.67,3.48-.05,5.25-.46,1.12-.81,2.3-1.05,3.48-.17,.82-.48,1.37-1.28,1.67-2.02,.76-4.03,1.54-6.22,2.1,.59-.59,1.18-1.17,1.76-1.75-.37-.99-.66-1.92-.97-2.83-.35-1.01,.06-2.28,.16-3.73,1.85,1.17,3.16,2.53,4.5,3.86,.22,.39,.43,.78,.65,1.17,.08-.06,.17-.12,.25-.18-.3-.32-.61-.65-.91-.97Z"/><path d="M299.26,122.98c-.32-.53-.24-1.05-.05-1.62,2.15-6.31,4.3-12.62,6.44-18.93,1.84-5.42,3.66-10.85,5.5-16.27,.49-1.44,1.03-2.87,1.78-4.23-.39,1.24-.76,2.48-1.17,3.72-2.71,8.2-5.44,16.39-8.15,24.59-.66,2-.55,2.17,1.51,2.35,1.21,.11,2.43,.16,3.65,.27,.39,.03,.77,.16,1.1,.23,.08,.71-.3,.84-.68,.84-.8,.02-1.59,0-2.39-.04-.8-.03-1.59-.13-2.39-.15-1.68-.03-1.95,.15-2.48,1.69-.65,1.91-1.24,3.84-1.89,5.75-.21,.61-.52,1.19-.79,1.79l.02,.02Z"/><path d="M162.22,107.16c-.2-.17-.55-.31-.58-.5-.21-1.56-1.33-2.41-2.43-3.31-.5-.4-.91-.92-1.29-1.44-.12-.17-.02-.51-.02-1.13,.59,1.21,1.13,1.95,2.25,1.97,.2,0,.38,.26,.59,.35,.77,.33,1.52,.76,2.33,.92,2.07,.41,4.16,.69,6.24,1.02,2.55,.4,5.09,.84,7.65,1.19,1.29,.17,2.59,.18,4.16,.28-1.61,.51-2.92,.99-4.44,.75-3.43-.55-6.87-.99-10.31-1.49-.51-.07-1-.27-1.5-.38-1.86-.43-2.27-.15-2.68,1.8l.02-.02Z"/><path d="M239.98,134.76c-.02,.25,0,.59-.07,.9-.05,.21-.21,.57-.33,.57-.68,.02-1.39,.07-2.02-.12-.32-.1-.71-.73-.67-1.07,.1-.92,.38-1.82,.67-2.7,.17-.5,.64-.65,1.16-.58,.5,.07,.92,.31,1.01,.84,.12,.69,.16,1.39,.25,2.17Z"/><path d="M211.09,97.45c-1.78,.21-3.42,.41-5.24,.63,.53-1.2,.93-2.31,2.22-2.48,1.36-.18,2.25,.62,3.02,1.84Z"/><path d="M237.46,136.6c.73,.26,1.38,.4,1.93,.72,.57,.34,.73,.98,.52,1.6-.21,.64-.82,.6-1.3,.46-.65-.2-1.33-.45-1.85-.86-.25-.2-.3-.87-.19-1.25,.09-.29,.58-.45,.89-.67Z"/><path d="M217.81,103.83c-1.97-1.61-3.36-3.79-5.23-5.52,.86,.23,1.54,.67,2.11,1.36,.52,.64,1.19,1.16,1.79,1.73,.47,.45,.98,.87,1.4,1.36,.18,.21,.2,.55,.29,.84-.12,.08-.24,.15-.35,.23Z"/><path d="M283.22,165.97c.68,.27,1.14,.45,1.79,.71-.25,.94-.46,1.83-.74,2.7-.05,.15-.37,.31-.54,.28-.18-.03-.48-.25-.48-.41-.04-1.04-.02-2.08-.02-3.28Z"/><path d="M285.99,163.03c.39,1.33-.47,2.05-1.32,2.82-.61-.34-.43-.85-.3-1.26,.18-.57,.73-1.06-.1-1.81l.41-.02c.44,.1,.89,.19,1.33,.29,0,0-.03-.03-.03-.03Z"/><path d="M281.5,111.13c-1-.65-2-1.3-2.99-1.94,.06-.08,.11-.16,.17-.24,1.04,.59,2.07,1.19,2.81,2.21,0,0,.02-.02,.02-.02Z"/><path d="M162.19,107.18c.36,.16,.72,.32,1.33,.58-.88,.23-1.18-.03-1.31-.6,0,0-.02,.02-.02,.02Z"/><path d="M298.4,124.98c-.01,.42-.03,.84-.04,1.26-.68-.54-.17-.86,.06-1.24,0,0-.02-.02-.02-.02Z"/><path d="M299.24,122.96c-.1,.75-.21,1.49-.84,2.01,0,0,.02,.02,.02,.02,.09-.75-.08-1.61,.84-2.01,0,0-.02-.02-.02-.02Z"/><path d="M314.2,77.84c.06-.34,.12-.68,.19-1.02,.06,.02,.12,.03,.18,.05-.13,.32-.26,.64-.38,.95l.02,.02Z"/><path d="M314.18,77.82c-.19,.57-.38,1.13-.56,1.7l.02,.02c.19-.57,.37-1.13,.56-1.7,0,0-.02-.02-.02-.02Z"/><path d="M285.79,165.95c-.07,.02-.14,.04-.2,.06,0-.08-.05-.17-.02-.23,.02-.04,.13-.04,.19-.06,0,.07,.02,.15,.03,.23Z"/><path d="M313.62,79.52c-.07,.28-.14,.55-.2,.83-.06-.02-.13-.05-.19-.07,.14-.25,.27-.49,.41-.74,0,0-.02-.02-.02-.02Z"/><path d="M238.17,61.12c-.27,1.04-.7,1.47-1.8,1.44-1.35-.03-2.69-.2-4.04-.29-.93-.06-1.86-.12-2.79-.12-1.11,0-2.23,.12-3.34,.05-.48-.03-.93-.44-1.54-.76,2.25-1.38,4.45-2.02,6.81-2.11,.42-.02,.9,.07,1.24-.11,1.39-.76,2.4,.09,3.48,.71,.62,.36,1.24,.74,1.98,1.19Z"/><path d="M257.78,72.81c-2.29,1.11-8.35-.14-9.76-1.88,.39-.16,.76-.3,1.22-.48-.21-.29-.39-.53-.6-.82,.27-.68,.85-.92,1.53-1.02,3.51-.48,6.69,.43,9.65,2.28,.14,.09,.21,.27,.43,.56-.5,.09-.85,.22-1.18,.19-1.26-.11-2.52-.23-3.77-.42-.69-.11-1.35-.44-2.03-.52-.62-.07-1.26,.05-2.01,.1,.87,.99,2.02,1.06,3.08,1.31,1.06,.25,2.14,.43,3.46,.69Z"/><path d="M236.71,70.04c-2.19,.35-4.3,1.44-6.75,.84,.43-1.13,1.76-.26,2.16-1.38-.3-.14-.59-.38-.91-.4-1.54-.09-3.08-.12-4.62-.16-.44,0-.88,.04-1.38,.07-.08-.98,.63-1.24,1.04-1.76,.38,.14,.54,.76,1.12,.45,.49-.26,1.11-.28,1.58-.57,1.41-.85,2.92-.91,4.49-.72,.4,.05,.8,.04,1.4,.07-.21-.37-.31-.56-.42-.74,.07-.04,.17-.12,.21-.1,.61,.33,1.26,.62,1.81,1.04,.74,.57,.75,.97,.39,1.93-.13,.36-.09,.79-.14,1.42Zm-4.56-1.51c.07,.03,.15,.06,.22,.08,.02-.06,.04-.13,.05-.19,0,0-.09-.05-.11-.03-.06,.03-.11,.09-.16,.14Z"/><path d="M219.59,66.95c.69,1.7,.24,3.28-.45,4.85-.33-1.65-.49-3.29,.45-4.85Z"/></g><g id="Layer_5"><g><path d="M286.37,162.75c-.36-.42-.72-.83-1.21-1.39,.42-.03,.7-.05,1.07-.07-.07-.39-.17-.77-.19-1.16-.05-.79,.14-1.51,.88-1.92,.52-.29,.61-.71,.66-1.27,.06-.72,.15-1.55,.55-2.1,.63-.88,1.05-1.75,1.06-2.83,0-.21,.16-.41,.28-.68-.3-.24-.59-.48-.87-.71,.39-.68,.75-1.4,1.2-2.04,.14-.2,.73-.16,.79-.33,.43-1.33,1.23-2.63,.42-4.2-.97,.94-.85,2.29-1.43,3.32-.58,1.03-1.17,2.06-1.84,3.24h.9c-.27,.38-.48,.84-.82,1.13-.75,.63-1.05,1.39-1.01,2.36,.01,.33-.2,.68-.37,1-.28,.54-.66,1.03-.9,1.58-.56,1.28-1.11,2.57-1.58,3.89-.29,.81-.43,1.68-.65,2.56,.26,.38,.55,.81,.84,1.25-.05,.07-.11,.13-.16,.2-.33-.09-.65-.18-1.15-.32-.58,1.34-1.16,2.69-1.76,4.07-.88-.34-.59-.87-.45-1.32,.56-1.79,1.09-3.59,1.71-5.37,2.75-8,5.52-15.99,8.29-23.98,.84-2.44,1.67-4.89,2.56-7.31,.37-1.03,.41-1.97-.03-2.99-.93-2.16-1.76-4.36-2.66-6.53-1.39-3.34-3.52-6.06-6.59-8.06-.76-.5-1.35-1.27-2.02-1.91l-.02,.02c1.12,.07,2.24,.12,3.37,.2,2.01,.14,4.02,.27,6.03,.44,2.1,.18,4.2,.46,6.3,.6,1.85,.13,1.94,0,2.57-1.68,1.01-2.73,2.02-5.46,3.04-8.18,.15-.39,.4-.74,.78-1.04-2.95,10.24-6.34,20.31-9.89,30.44,.24,.11,.51,.29,.81,.36,.84,.2,1.09,.06,1.37-.76,.35-1.02,.66-2.05,1.02-3.07,.08-.24,.28-.45,.65-.63,.02,.28,.12,.59,.04,.84-.32,1.08-.69,2.15-1.05,3.21-.32,.93-.24,1.75,.18,2.7,1.59,3.59,2.69,7.32,2.58,11.31-.07,2.67-.15,5.35-.26,8.02-.02,.51-.12,1.03-.26,1.52-.89,3.16-1.8,6.31-2.7,9.47-.17,.6-.31,1.21-.46,1.82-.12,0-.24-.02-.36-.03-.03-.27-.16-.58-.08-.8,.69-1.69,.69-3.6,1.48-5.23,1.58-3.29,1.64-6.8,1.73-10.32,.06-2.3,.07-4.6-.04-6.89-.12-2.51-.9-4.89-1.91-7.18-.11-.25-.27-.48-.44-.76-.69,.27-.73,.89-.89,1.38-1.09,3.25-2.14,6.51-3.21,9.77-1.55,4.73-3.07,9.47-4.66,14.19-.26,.77-.82,1.45-1.25,2.17,0,0,.03,.03,.03,.03Zm-.02-49.07c-.2-.57-.42-1.12-1.03-1.23-.08,.09-.16,.18-.24,.28,.43,.31,.86,.62,1.28,.94,.3,.36,.58,.74,.9,1.08,1.81,1.89,3.17,4.06,4.17,6.46,.62,1.47,1.23,2.94,1.86,4.4,.18,.41,.4,.8,.68,1.35,.26-.35,.45-.51,.52-.71,.74-2.07,1.47-4.15,2.2-6.23,.25-.72-.07-1.11-.72-1.43-2.27-1.11-4.52-2.27-6.77-3.42-.96-.49-1.91-.99-2.86-1.49Zm11.49,2.53c.26-.69,.37-.95,.45-1.22,.41-1.26,.29-1.56-.98-1.71-2.28-.27-4.58-.45-6.87-.66-.12-.01-.24,.09-.48,.18,.19,.17,.3,.34,.45,.38,1.66,.5,3.32,1.01,4.99,1.45,.91,.23,1.88,.25,2.44,1.58Zm-3.14,17.97c-.5,.89-1.18,1.38-1.25,2.45-.08,1.11-.53,2.26-1.64,2.92-.06,.04-.08,.16-.13,.3,.16,.26,.33,.54,.56,.91-.48,.17-.83,.29-1.22,.43,.21,.42,.37,.73,.51,1.01-.26,.29-.45,.51-.67,.76,1.08,.56,1.16,.59,1.44-.22,.89-2.65,1.72-5.32,2.56-7.99,.03-.1-.06-.25-.16-.57Z"/><path d="M202.6,96.44c-.92-2.03-.62-4.14-.36-6.24,.15-1.24,.91-2.04,2.02-2.51,.79-.34,1.29-.14,1.51,.69,.47,1.74,.67,3.48-.05,5.25-.46,1.12-.81,2.3-1.05,3.48-.17,.82-.48,1.37-1.28,1.67-2.02,.76-4.03,1.54-6.22,2.1,.59-.59,1.18-1.17,1.76-1.75-.37-.99-.66-1.92-.97-2.83-.35-1.01,.06-2.28,.16-3.73,1.85,1.17,3.16,2.53,4.5,3.86,.22,.39,.43,.78,.65,1.17,.08-.06,.17-.12,.25-.18-.3-.32-.61-.65-.91-.97Z"/><path d="M299.62,122.67c-.32-.53-.24-1.05-.05-1.62,2.15-6.31,4.3-12.62,6.44-18.93,1.84-5.42,3.66-10.85,5.5-16.27,.49-1.44,1.03-2.87,1.78-4.23-.39,1.24-.76,2.48-1.17,3.72-2.71,8.2-5.44,16.39-8.15,24.59-.66,2-.55,2.17,1.51,2.35,1.21,.11,2.43,.16,3.65,.27,.39,.03,.77,.16,1.1,.23,.08,.71-.3,.84-.68,.84-.8,.02-1.59,0-2.39-.04-.8-.03-1.59-.13-2.39-.15-1.68-.03-1.95,.15-2.48,1.69-.65,1.91-1.24,3.84-1.89,5.75-.21,.61-.52,1.19-.79,1.79l.02,.02Z"/><path d="M240.34,134.46c-.02,.25,0,.59-.07,.9-.05,.21-.21,.57-.33,.57-.68,.02-1.39,.07-2.02-.12-.32-.1-.71-.73-.67-1.07,.1-.92,.38-1.82,.67-2.7,.17-.5,.64-.65,1.16-.58,.5,.07,.92,.31,1.01,.84,.12,.69,.16,1.39,.25,2.17Z"/><path d="M211.45,97.14c-1.78,.21-3.42,.41-5.24,.63,.53-1.2,.93-2.31,2.22-2.48,1.36-.18,2.25,.62,3.02,1.84Z"/><path d="M237.82,136.29c.73,.26,1.38,.4,1.93,.72,.57,.34,.73,.98,.52,1.6-.21,.64-.82,.6-1.3,.46-.65-.2-1.33-.45-1.85-.86-.25-.2-.3-.87-.19-1.25,.09-.29,.58-.45,.89-.67Z"/><path d="M218.17,103.52c-1.97-1.61-3.36-3.79-5.23-5.52,.86,.23,1.54,.67,2.11,1.36,.52,.64,1.19,1.16,1.79,1.73,.47,.45,.98,.87,1.4,1.36,.18,.21,.2,.55,.29,.84-.12,.08-.24,.15-.35,.23Z"/><path d="M283.58,165.67c.68,.27,1.14,.45,1.79,.71-.25,.94-.46,1.83-.74,2.7-.05,.15-.37,.31-.54,.28-.18-.03-.48-.25-.48-.41-.04-1.04-.02-2.08-.02-3.28Z"/><path d="M286.35,162.72c.39,1.33-.47,2.05-1.32,2.82-.61-.34-.43-.85-.3-1.26,.18-.57,.73-1.06-.1-1.81l.41-.02c.44,.1,.89,.19,1.33,.29,0,0-.03-.03-.03-.03Z"/><path d="M281.86,110.82c-1-.65-2-1.3-2.99-1.94,.06-.08,.11-.16,.17-.24,1.04,.59,2.07,1.19,2.81,2.21,0,0,.02-.02,.02-.02Z"/><path d="M298.76,124.67c-.01,.42-.03,.84-.04,1.26-.68-.54-.17-.86,.06-1.24,0,0-.02-.02-.02-.02Z"/><path d="M299.6,122.65c-.1,.75-.21,1.49-.84,2.01,0,0,.02,.02,.02,.02,.09-.75-.08-1.61,.84-2.01,0,0-.02-.02-.02-.02Z"/><path d="M314.56,77.53c.06-.34,.12-.68,.19-1.02,.06,.02,.12,.03,.18,.05-.13,.32-.26,.64-.38,.95l.02,.02Z"/><path d="M314.54,77.51c-.19,.57-.38,1.13-.56,1.7l.02,.02c.19-.57,.37-1.13,.56-1.7,0,0-.02-.02-.02-.02Z"/><path d="M286.15,165.64c-.07,.02-.14,.04-.2,.06,0-.08-.05-.17-.02-.23,.02-.04,.13-.04,.19-.06,0,.07,.02,.15,.03,.23Z"/><path d="M313.98,79.21c-.07,.28-.14,.55-.2,.83-.06-.02-.13-.05-.19-.07,.14-.25,.27-.49,.41-.74,0,0-.02-.02-.02-.02Z"/><path d="M238.53,60.81c-.27,1.04-.7,1.47-1.8,1.44-1.35-.03-2.69-.2-4.04-.29-.93-.06-1.86-.12-2.79-.12-1.11,0-2.23,.12-3.34,.05-.48-.03-.93-.44-1.54-.76,2.25-1.38,4.45-2.02,6.81-2.11,.42-.02,.9,.07,1.24-.11,1.39-.76,2.4,.09,3.48,.71,.62,.36,1.24,.74,1.98,1.19Z"/><path d="M258.14,72.5c-2.29,1.11-8.35-.14-9.76-1.88,.39-.16,.76-.3,1.22-.48-.21-.29-.39-.53-.6-.82,.27-.68,.85-.92,1.53-1.02,3.51-.48,6.69,.43,9.65,2.28,.14,.09,.21,.27,.43,.56-.5,.09-.85,.22-1.18,.19-1.26-.11-2.52-.23-3.77-.42-.69-.11-1.35-.44-2.03-.52-.62-.07-1.26,.05-2.01,.1,.87,.99,2.02,1.06,3.08,1.31,1.06,.25,2.14,.43,3.46,.69Z"/><path d="M237.07,69.73c-2.19,.35-4.3,1.44-6.75,.84,.43-1.13,1.76-.26,2.16-1.38-.3-.14-.59-.38-.91-.4-1.54-.09-3.08-.12-4.62-.16-.44,0-.88,.04-1.38,.07-.08-.98,.63-1.24,1.04-1.76,.38,.14,.54,.76,1.12,.45,.49-.26,1.11-.28,1.58-.57,1.41-.85,2.92-.91,4.49-.72,.4,.05,.8,.04,1.4,.07-.21-.37-.31-.56-.42-.74,.07-.04,.17-.12,.21-.1,.61,.33,1.26,.62,1.81,1.04,.74,.57,.75,.97,.39,1.93-.13,.36-.09,.79-.14,1.42Zm-4.56-1.51c.07,.03,.15,.06,.22,.08,.02-.06,.04-.13,.05-.19,0,0-.09-.05-.11-.03-.06,.03-.11,.09-.16,.14Z"/><path d="M219.95,66.65c.69,1.7,.24,3.28-.45,4.85-.33-1.65-.49-3.29,.45-4.85Z"/><g><path d="M219.24,98.34c-.23-.06-.47-.14-.7-.19-.37-.07-.65,.02-.68,.46-.02,.19-.11,.38-.31,.41-.27,.04-.27-.22-.29-.38-.03-.29-.29-.31-.45-.45-.17-.15-.33-.36-.3-.58,.03-.29,.25-.04,.38-.08,.21-.05,.24-.18,.1-.3-.64-.56-.63-1.47-1.15-2.11-.8-.98-1.37-2.14-2.28-3.03-.61-.6-1.12-1.3-1.74-1.88-.43-.41,.33-.46,.14-.75,.21-.07,.27,.12,.38,.21,.21,.17,.35,.39,.32,.69-.05,.43,.21,.58,.59,.61,.55,.04,1.1,.03,1.64,.16,.31,.07,.54-.16,.76-.32,.12-.09,.12-.29,.05-.4-.14-.22-.15,.05-.22,.09-.11,.05-.14-.03-.19-.1-.22-.31-.57-.36-.88-.33-.61,.05-1.06-.23-1.52-.54-1.02-.71-1.95-1.54-3.08-2.1-.14-.07-.29-.17-.26-.38,.16-.14,.27,.01,.36,.09,.3,.23,.44,.16,.79-.07,.64-.42,1.17-1.02,1.92-1.28,.14-.05,.25-.04,.3,.1,.07,.2-.02,.39-.16,.49-.17,.13-.44,.17-.32,.5,.17,.09,.27-.1,.4-.16,.19-.08,.37-.3,.53-.28,.59,.07,1.05-.05,1.29-.72,.24,.37-.02,.79,.44,.98,.03-.28-.12-.65,.28-.7,.35-.04,.77,.07,.92,.3,.18,.29,.33,.36,.62,.29,.1-.03,.22-.02,.26,.1,.04,.12-.04,.2-.14,.23-.2,.07-.3,.2-.31,.41,0,.52-.06,1.01-.47,1.4-.11,.11-.12,.37,0,.52,.16,.2,.28,0,.39-.1,.12-.11,.22-.05,.33,0,.09,.04,.25,.11,.28,.07,.5-.61,.94,.21,1.44,.06,.17-.05,.24,.18,.28,.34-.33,.14-.51,.86-.28,1.1,.07,.07,.14,.05,.21,0,.29-.18,.33-.85,.06-1.11,.52-.07,.73,.08,.53,.64-.19,.54,.38,.53,.63,.75,.23,.2,.48,.19,.69-.08,.07-.1,.16-.19,.26-.26,.12-.09,.26-.13,.4-.05,.1,.05,.14,.15,.11,.26-.04,.16-.16,.24-.32,.2-.26-.06-.23,.09-.16,.24,.12,.25,.2,.54,.51,.73,.1-.32-.07-.71,.26-.95,.23-.17,.36-.64,.74-.16,.15-.28,.06-.51-.05-.68-.36-.54-.15-.96,.23-1.36,.07-.07,.13-.16,.21-.22,.15-.12,.07-.47,.44-.4,.3,.06,.31,.3,.34,.58,.27-.34,.15-.6,.05-.87-.47-1.21-.44-1.26,.51-2.13,.77-.71,1.6-1.32,2.54-1.79,.55-.28,1.1-.08,1.34,.48,.02,.04,0,.1,.03,.12,.88,.67,.15,1.48,.17,2.22,0,.14,.57,1.15,.71,1.23,.22,.12,.25-.07,.29-.19,.32-.9,1.06-1.48,1.67-2.15,.14-.16,.33-.39,.56-.24,.18,.13-.03,.33-.07,.5-.08,.34-.42,.7,.1,1,.13,.07,.04,.27-.05,.39-.14,.19-.22,.4-.22,.62,0,.2-.15,.52,.18,.55,.25,.02,.35-.26,.38-.49,.06-.59,.17-1.17,.37-1.73,.02-.07,.09-.12,.13-.19,.29,.15,.23,.49,.43,.67,.14-.18,.07-.36,.02-.53-.29-1.04,.16-1.87,.78-2.64,.29-.35,.52-.34,.71,.11,.16,.39,.37,.44,.55,0,.14-.35,.28-.3,.54-.09,.61,.5,1.23,1.01,1.89,1.44,.45,.29,.97,.49,1.41-.08,.07-.09,.18-.13,.27-.09,.54,.25,.95-.34,1.47-.21,.14,.04,.26-.11,.26-.28,0-.14,0-.29,0-.43,.02-.23,.34-.48,.1-.67-.24-.19-.49,.1-.71,.21-.61,.28-1.2,.6-1.8,.91-.19,.1-.38,.16-.59,.11-.18-.05-.38-.11-.38-.34,0-.2,.19-.25,.34-.29,.16-.05,.32-.08,.47-.12,.24-.07,.49-.17,.54-.44,.06-.29-.25-.27-.4-.37-.27-.18-.27-.41-.05-.61,.21-.19,.45-.37,.7-.48,1.56-.64,3.15-.85,4.78-.29,.44,.15,.74,.42,.79,.91,.03,.35,.17,.63,.53,.75,.11,.04,.26,.08,.24,.23-.02,.17-.19,.23-.32,.23-.45-.03-.87-.03-1.31,.16-.24,.1-.39-.12-.43-.39-.05-.3-.23-.5-.55-.45-.31,.05-.5,.28-.56,.58-.06,.27-.03,.54,.31,.63,.17,.04,.3,.11,.38,.27,.24,.46,.54,.53,.99,.23,.42-.28,.97,.03,.97,.54,0,.39,.43,.58,.36,1.01-.06,.36,.03,.72-.31,1-.16,.13-.22,.37,0,.53,.18,.13,.33,.04,.46-.13,.19-.26,.44-.42,.79-.34,.06,.01,.15,.02,.17,0,.44-.73,.67-.36,.95,.14,.18,.32,.42,.23,.63-.03,.14-.17,.19-.55,.5-.42,.26,.11,0,.41,.07,.61,.02,.05,.05,.1,.1,.19,.26-.31,.23-.84,.69-.91,.48-.08,.97-.1,1.45-.09,.31,0,.43-.09,.53-.36,.25-.64,1.06-.79,1.52-.27,.33,.36,.66,.74,.85,1.19,.15,.34,.39,.48,.75,.52,.99,.11,1.52,.97,1.1,1.88-.39,.83-.34,1.61-.14,2.48,.13,.55-.01,1.19,.08,1.79,.06,.42,.04,.86,.27,1.25,.2,.34,.45,.5,.73,.06,.07-.11,.13-.26,.26-.21,.87,.33,1.25-.22,1.59-.85,.1-.18,.24-.27,.45-.23,.1,.02,.21,.08,.29,.05,.47-.22,.46-.22,.65,.26,.15,.38,.09,.94,.78,.88,.15-.01,.28,0,.37-.14,.07-.1,.17-.25,.28-.21,.74,.28,1.05-.49,1.61-.64,.17-.05,.32-.21,.49-.24,.41-.07,.89-.03,.56-.7-.06-.12,.84-.75,.99-.68,.38,.2,.52,.07,.54-.32,0-.17,.06-.37,.27-.33,.27,.04,.16,.28,.15,.45-.02,.21-.18,.52,.05,.61,.29,.11,.4-.23,.58-.42,.55-.57,.57-1.44,1.25-1.97,.32-.25,.1-.85,.18-1.29,.03-.18,0-.39,.2-.47,.41-.17,.67-.38,.43-.88-.06-.13,.04-.26,.17-.27,.64-.03,.72-.48,.77-.98,0-.07,.09-.13,.14-.2,0,0,0,0,0,0,.09,.21,.14,.71,.43,.4,.21-.23,.65-.57,.44-1.06,.03-.04,.06-.09,.09-.13,.27-.28-.02-.66,.14-.94,.47-.8,.36-1.83,1.02-2.56,.2-.22,.06-.56-.01-.83-.12-.43-.07-.82,.08-1.25,.29-.83,.39-1.71,.26-2.59-.13-.85-.21-1.7-.53-2.53-.32-.83-.37-1.71,.18-2.52,.2-.3,.1-.59-.12-.84-.67-.77-1.57-1.23-2.45-1.69-.5-.26-1.16,.18-1.38,.88-.3,.99-.53,2.01-.81,3.01-.6,2.13-1.33,4.21-2.57,6.06-1.15,1.7-2.75,2.69-4.81,2.91-3.01,.32-5.95-.08-8.85-.86-.96-.26-1.84-.78-2.72-1.25-.17-.09-.32-.37-.55-.03-.14,.22-.18-.04-.21-.1-.66-1.14-1.53-2.06-2.69-2.69-.33-.18-.41-.5-.4-.84,.02-.69-.15-1.33-.38-1.97-.55-1.56-.81-3.2-1.2-4.81-.16-.67-.41-1.3-1.14-1.45-.81-.16-1.51,.09-2.03,.81-.56,.78-1.01,1.63-1.53,2.44-.54,.83-1.27,1.47-2.05,2.08-.19-.21-.04-.34,.03-.47,.67-1.23,1.11-2.54,1.32-3.93,.08-.55,.22-1.09-.13-1.6-.05-.07-.08-.23-.04-.29,.45-.66-.12-1.06-.4-1.51-.87-1.38-2.29-1.89-3.74-2.33-3.3-.99-6.68-1.38-10.11-1.13-1.81,.13-3.53,.57-4.58,2.28-.58,.96-.81,2.07-.92,3.15-.19,1.95-.16,3.9,.22,5.85,.51,2.59,2.08,4.04,4.57,4.53,1.38,.27,2.75,.6,4.18,.56,2.42-.07,4.77-.38,6.72-2.01,.09-.07,.2-.12,.36-.21,.07,.47-.13,.75-.39,1.05-.82,.93-1.9,1.34-3.06,1.52-3.58,.55-7.08,.3-10.43-1.18-.8-.35-.98-.29-1.57,.64,.05-.39,.04-.68,.12-.96,.13-.44,.11-.87-.29-1.09-.37-.2-.82-.07-1.19,.15-.19,.12-.33,.3-.7,.33,.25-.61,.74-.9,1.21-1.11,.24-.11,.22-.17,.16-.32-.35-.87-.7-1.74-.85-2.67-.09-.57-.54-.34-.88-.33,.18-.49-.02-.75-.6-.6-.61,.15-.44-.36-.56-.56-.21-.35,.27-.13,.36-.34-.4-.3-1.34-.05-1.16-1.08,.26,.13,.48,.25,.76,.13,.47-.21,.97-.44,1.24,.5,.15-.73,.81-1.22,.09-1.8-.03-.03-.04-.12-.02-.16,.37-.76,.39-.92,.42-2.34,.02-.87,0-1.7-.52-2.46-.51-.75,.1-2.12,.98-2.31,1.04-.23,2.11-.19,3.17-.28,.89-.07,1.8-.13,2.69-.04,.99,.1,1.97,0,2.96,.04,.16,0,.35-.02,.46,.11,.46,.52,1.02,.39,1.58,.28,.2-.04,.41-.1,.6-.08,1.34,.15,2.71,.28,3.95,.77,.92,.36,1.87,.62,2.78,.99,1.5,.62,3.14,.76,4.69,1.2,.19,.05,.42,.05,.54,.24,.2,.32,.5,.3,.81,.31,1.96,.06,3.9-.36,5.86-.26,.3,.01,.6-.1,.9-.15,1.43-.25,2.89-.14,4.33-.28,2.26-.22,4.49-.01,6.72,.2,.89,.08,1.81,.27,2.7,.39,2.85,.37,5.51,1.38,8.28,2.01,.58,.13,1.1,.52,1.64,.79,.25,.12,.47,.32,.85,.29-.18-.36-.33-.66-.47-.97-.23-.47-.24-.95-.19-1.48,.09-.93,.01-1.87-.13-2.79-.14-.92-.23-1.85-.39-2.76-.1-.55,.21-1.16,.3-1.75,.05-.34,.54-.72-.04-1.04,.26-.46-.15-.96,.09-1.42,.04-.08,.2-.14,.08-.24-.57-.49-.41-1.21-.6-1.81-.09-.28-.2-.53-.45-.7-.17-.11-.37-.25-.37-.46,0-1-.8-1.55-1.26-2.28-.62-.98-1.64-1.66-2.14-2.76-.21-.45-.62-.81-.98-1.17-.75-.74-1.4-1.59-2.22-2.27-.34-.28-.77-.21-1.13-.43-.54-.34-.56-.35-.06-.74-.14-.24-.36-.18-.54-.11-.48,.2-.83,.03-1.13-.33-.4-.47-1.09-.64-1.33-1.28-.04-.1-.24-.17-.37-.18-.93-.07-1.78-.49-2.59-.86-.57-.26-1.21-.4-1.74-.77-.5-.35-1.12-.38-1.66-.6-.23-.09-.44-.02-.64,.09-.1,.05-.24,.16-.32,.02-.1-.17,.07-.24,.19-.32,.57-.32,1.02-.8,1.59-1.15-1.17,.27-1.98,1.41-3.3,1.33,.99-.41,1.3-1.53,2.21-2.01,.09-.05,.16-.13,.22-.21,.11-.16,.29-.35,.02-.52-.22-.14-.37-.03-.5,.17-.49,.77-1.1,1.41-1.83,1.95-.23,.16-.4,.22-.66,.11-.56-.23-1.16-.29-1.79-.23,.1-.28,.34-.42,.54-.48,.99-.32,1.58-1.16,2.37-1.73,.42-.31,.95-.37,1.41-.52,.82-.26,1.68-.39,2.34-1.02,.05-.05,.17-.08,.23-.05,.76,.36,1.22-.13,1.7-.59-.73,1.11-2.02,1.69-2.61,2.93,.46-.46,1.35-.19,1.59-1.02,.06-.18,.37-.29,.57-.43,.33-.23,.68-.41,.81-.86,.1-.33,.43-.38,.79-.33-.25,.73-.83,1.18-1.2,1.81,.71-.33,1.44-.52,2.16-.76,.37-.13-.23-.2-.03-.37,.2-.17,1.28-.2,1.4,.03,.14,.26,.27,.08,.39,.04,1.13-.33,2.27-.62,3.32-1.18,.14-.07,.32-.07,.48-.08,.34-.02,.72,.05,.81-.41,.23,.1,.24,.27,.18,.34-.29,.35-.55,.77-.92,.97-.55,.3-1.17,.47-1.78,.65-.39,.11-.79,.34-1.18-.1-.17-.19-.5-.05-.69,.08-.57,.41-1.15,.77-1.89,.74-.12,0-.28,.08-.31,.26,.21,.13,.49-.15,.68,.1-.03,.23-.23,.18-.37,.25-.13,.06-.4,.02-.3,.27,.09,.21,.33,.2,.47,.07,.5-.44,1.19-.39,1.75-.7,.2-.11,.49-.33,.68,.15,.07,.19,.41,.02,.47-.22,.03-.13-.05-.34,.14-.34,.58,0,1.07-.33,1.73-.43-.29,.58-.86,.68-1.26,1.14,.41-.05,.67-.19,.89-.37,1.02-.84,2.3-1.12,3.49-1.58,.18-.07,.45-.18,.57,.02,.15,.26-.18,.3-.31,.43-.04,.04-.07,.09-.14,.18,.23,.09,.44,.17,.65,.25-.04-.4,.56-.51,.42-.98-.08-.27-.05-.55,.41-.34,.28,.13,.52-.19,.79-.26,.2-.05,.44-.17,.54,.08,.11,.25-.18,.27-.33,.33-.42,.14-.38,.3-.04,.5,.13,.07,.29,.19,.25,.32-.17,.66,.52,.71,.74,1.08,.03,.04,.17,.07,.21,.04,.51-.36,1.03,.1,1.54-.1,.05,.47-.4,.47-.56,.76,.44,.15,.82,0,1.06-.29,.51-.59,1.03,.03,1.54-.08,.02,0,.09,.11,.08,.13-.26,.41,.12,.56,.39,.8-.37,.14-.65-.08-.94-.04-.17,.02-.38-.09-.47,.15-.04,.1-.05,.21,.03,.29,.13,.14,.3,.1,.46,.05,.37-.11,.74-.24,1.13-.08,.17,.07,.35-.06,.28-.2-.38-.69,.51-.58,.59-.96,0-.01,.05-.03,.05-.02,.49,.61,1.1-.19,1.65,.13,.27,.16,.67,.08,1.01,.13,.13,.02,.32,.08,.3,.25-.03,.19-.21,.17-.35,.13-.5-.16-.91,.46-1.44,.19,.27,.33,.62,.21,.95,.17,.18-.02,.43-.22,.52,.08,.07,.23-.16,.37-.35,.44-.61,.23-1.05,.62-1.21,1.27-.28-.17-.56-.18-.87-.06-.24,.09-.56,.24-.76,.07-.82-.67-1.93-.57-2.81-1.09-.55-.33-.91-.04-.95,.59-.1-.01-.21-.05-.3-.03-.71,.18-1.43,.26-2.15,.36-.85,.12-1.33,.8-1.69,1.56,.37-.29,.92-.04,1.22-.37,.73-.79,1.61-1.13,2.67-1.06,.42,.02,.48-.14,.25-.46,.5-.12,1.02-.53,1.48,.12,.04,.06,.27-.02,.41,0,.47,.04,1.06,.05,1.25,.48,.16,.37,.26,.34,.59,.39,.66,.09,1.1-.38,1.67-.49,.23,.03,.48,.04,.62-.16,.48-.74,1.34-1.13,1.73-1.95,.1-.2,.26-.31,.5-.27,.15,.03,.29,.08,.3,.25,0,.22-.12,.39-.28,.51-.11,.08-.27,.1-.39,.17-.14,.09-.45,.15-.09,.39,.15,.09,0,.22-.08,.3-.17,.19-.37,.36-.57,.55,.62,.38,.87-.57,1.47-.33-.52,.55-1.05,.98-1.81,1-.06,0-.16,0-.18,.02-.33,.66-.9,.47-1.45,.47-.37,0-.89,.07-.97,.48-.08,.41,.33,.81,.64,.95,.52,.24,.45,.53,.3,.92h0c-.39,.22-.37,.42-.06,.74,.84,.85,1.93,1.28,2.94,1.83,1.71,.94,3.43,1.86,4.94,3.1,.68,.56,1.54,.82,2.17,1.44,.13,.13,.28,.19,.29,.42,.03,.68,.43,1.12,.87,1.63,.67,.76,1.48,1.38,2.08,2.2,.2,.27,.2,.61-.03,.85-.22,.23-.45,0-.66-.12-.29-.16-.54-.43-.94-.35,.71,.35,1.24,.84,1.38,1.65,0,.06,.04,.13,.09,.15,.68,.3,.91,.85,1.13,1.54,.19,.6,.38-.16,.69-.13,.11,.29-.11,.87,.53,.97,.08,.01,.03,.19-.04,.26-.14,.15-.3,.11-.44,.02-.33-.2-.59-.51-.96-.64-.15-.05-.32-.2-.45-.04-.14,.18,.09,.27,.17,.4,.49,.82,1.23,1.37,1.94,1.99,.48,.41,.88,1.01,1.01,1.69h0c-.45,.24-.67,.56-.47,1.1,.1,.26,.05,.49-.27,.57-.32,.08-.56,.02-.64-.36-.06-.34-.23-.61-.6-.69,.09-.25,.24-.51,.11-.76-.62-1.15-.83-2.46-1.55-3.57-.29-.45-.84-1.02-.24-1.68,.07-.08-.02-.27-.13-.31-.76-.31-1.24-1.11-2.12-1.21-.13-.01-.3-.13-.38,.04-.08,.16,.09,.27,.2,.33,1.49,.76,1.85,2.29,2.51,3.62,.37,.75,.12,1.79,1.08,2.26,.09,.05,.1,.26,.16,.39,.12,.3,.25,.6,.38,.9,.44,.89,.43,1.07-.2,1.49,.72,.34,.94,1.04,1.28,1.64,.08,.13,.19,.31,.08,.46-.17,.22-.26-.05-.39-.11-.16-.07-.31-.12-.46,.01-.1,.1-.09,.23-.02,.34,.48,.8,.17,1.67,.23,2.5,.02,.38-.06,.77-.1,1.15-.04,.38-.21,.72-.52,.94-.36,.25-.36,.8-.83,.95-.03,.01-.06,.12-.05,.17,.27,.81-.14,1.4-.53,2.07-.24,.42,.17,1.1-.4,1.5,.48,.35,.08,.78,.12,1.17,.02,.21-.09,.3-.29,.29-.04-.54-.29-.9-.93-1.01,.24,.47,.38,.93,.93,1-.05,.14-.13,.28-.29,.28-.5,0-.89,.07-1.13,.63-.08,.19-.25,.25-.08,.5,.15,.23-.2,.36-.24,.57h0c-.18-.09-.34-.26-.56-.19-.16,.05-.51,.05-.13,.33,.13,.1,.06,.18-.02,.24-.15,.11-.27,.04-.37-.08-.46-.57-.93-1.13-1.37-1.72-.2-.26-.37-.53-.76-.76,.72,1.65,1.79,2.98,2.53,4.53q-.4-.09-1.11-1.09c-.19,.33-.59,.56-.14,1,.16,.16-.22,.45,.06,.72,.19-.4,.42-.32,.65-.03,.36,.47,.96,.79,.94,1.51,0,.16,.14,.27,.29,.24,.33-.06,.55,.02,.68,.35,.06,.14,.24,.13,.32,.05,.39-.4,.78-.12,1.19-.04,.46,.09,.92,.15,1.39,.22,.18,.03,.37,.02,.54,.08,.26,.08,.67,.1,.67,.42,0,.28-.4,.26-.65,.31-.15,.03-.33,0-.5,.23,1.27-.09,2.52-.29,3.39,.86-.22-.04-.45-.15-.63,.05-.09,.1-.01,.23,.07,.33,.3,.36,.81,.3,1.07-.12,.31,.12,.94,0,.45,.71-.1,.14,.28,.55,.55,.75,.42,.33,.71,.72,.73,1.28,0,.06,.06,.13,.04,.18-.47,.91,.36,1.45,.62,2.14,.11,.29,.18,.55,.21,.87,.1,1.17,.22,2.34,.99,3.35,.45,.59,.86,1.24,1.04,1.98,.14,.61-.03,.82-.64,.68-2.55-.56-5.12-1-7.71-1.32-.56-.07-1.07-.27-1.56-.53-1.46-.79-3.09-1.02-4.66-1.47-.48-.14-.93-.3-1.24-.73-.15-.22-.37-.49,.15-.42,.31,.04,.32-.29,.54-.32,.03,.03,.07,.06,.07,.09,.04,.2-.16,.39-.04,.58,.02,.03,.15,0,.22,0-.02-.31,.67-.18,.4-.7-.14-.27,.23-.27,.34-.21,.48,.24,.85,.39,1.11-.31,.09-.25,.53-.25,.86-.2-.28-.69-.01-1.75,.55-2.25-.18-.2-.36-.11-.54-.02-.13,.07-.25,.22-.36,.2-.29-.03-.57,.36-.78,.14-.18-.19,.21-.39,.24-.63,.05-.45,.06-.9-.33-1.23-.27-.23-.37-.47-.15-.8,.32-.47,.03-.85-.19-1.23-.09-.15-.25-.21-.43-.1-.55,.32-.95,1.12-.83,1.77,.11,.58-.13,.93-.67,1.04-.37,.07-.53,.13-.17,.44,.35,.3,.26,.5-.13,.66-.21,.09-.55,.11-.51,.42,.03,.24,.3,.3,.53,.33,.25,.03,.3,.11,.19,.36-.3,.65-.25,.7,.41,.7,.11,0,.22,0,.26,.1,.07,.18-.07,.27-.2,.32-1.15,.47-1.74,1.57-2.64,2.32-1.18,.99-1.72,2.35-2.15,3.77-.23,.76-.77,1.28-1.3,1.82-.18,.19-.34,.4-.49,.62-.17,.25-.17,.47,.13,.66,.54,.34,.95,.84,1.61,1.07,.38,.13,.63,.74,.86,1.17,.16,.31,.29,.47,.65,.34,.35-.14,.48,.06,.43,.35-.05,.32,.15,.65,.09,.88-.22,.77,.21,1.53-.08,2.28-.24,.62,.23,.98,.55,1.39,.07,.09,.15,.18,.19,.31-.97-.68-1.99-1.32-2.58-2.4-.39-.72-.98-1.2-1.67-1.57-.66-.36-1.08-.26-1.54,.35-.58,.79-1.16,1.58-1.69,2.4-.21,.33-.42,.43-.79,.4-2.66-.24-5.29-.67-7.92-1.17-1.85-.35-3.68-.47-5.42,.45-.07,.04-.14,.08-.3,.17,.35,.15,.61,.02,.87-.02,.24-.03,.45-.31,.76-.1-.53,.45-1.11,.73-1.75,.91-.18,.05-.56,.17-.44,.27,.24,.22,.31,.75,.8,.63,.34-.08,.64-.25,.92-.48,.54-.46,1.06-.97,1.88-.77,.09,.02,.23,.01,.3-.04,.77-.72,1.7-.35,2.57-.4,.46-.03,.93,.09,1.42,.09-.88,.24-1.75,.55-2.65,.7-3.81,.64-7.19,2.36-10.51,4.21-.57,.32-1.15,.61-1.74,.9-1.28,.62-2.25,1.6-3.14,2.68-.25,.31-.41,.59,.14,.77,.22,.07,.33,.2,.07,.44-.32,.3,0,.64,.08,.95,.03,.12,.41-.23,.4,.15-.02,.58,.32,1.04,.45,1.58,.44,1.94,.59,3.91,.85,5.87,.32,2.43,.69,4.85,1,7.27,.25,1.9,.47,3.81,.56,5.72h-3.19c-.24-2.31-.46-4.62-.72-6.92-.43-3.87-.88-7.74-1.74-11.54-.03-.14-.03-.3-.21-.33-.18-.03-.26,.12-.31,.25-.35,.87-.92,1.63-1.3,2.49-.91,2.05-1.52,4.29-3.36,5.81-.22,.18-.4,.41-.57,.64-.28,.37-.62,.73-.68,1.21-.17,1.33-.64,2.59-1.3,3.73-.6,1.03-1.09,2.09-1.57,3.17-.21,.48-.49,.95-.51,1.5h-1.47c.47-.87,.58-1.86,.23-2.72-.29-.7-.43-1.35-.31-2.06,.15-.86-.57-.62-.95-.77-.42-.16-.64,.09-.69,.52-.08,.68-.35,1.25-1.03,1.54-.23,.1-.4,.29-.51,.51-.51,.95-.94,1.94-1.27,2.97h-2.7c.21-1.14,.47-2.28,.61-3.43,.18-1.48,.3-2.96,.37-4.45,.04-1.01,.19-1.99,.5-2.94,.21-.64,.16-1.25-.06-1.86-.69-1.94-1.14-3.95-1.66-5.95-.46-1.77-.76-3.57-1.5-5.29-.81-1.9-2.11-3.34-3.65-4.59-1.42-1.16-2.93-2.2-4.39-3.3-.35-.27-.4-.74-.62-1.1-.35-.59-.78-.93-1.51-.93-.58,0-1.15-.23-1.63-.54-.63-.41-.53-1.13,.07-1.56,.3-.22,.56-.54,.77-.89,.86-1.46,1.1-1.69,2.35-2.37-.32-.35-.69-.26-1.05-.16-.19,.05-.39,.19-.53-.08-.14-.27-.09-.46,.2-.6,.26-.13,.32-.38,.2-.63-.16-.33,0-.55,.19-.77,.25-.29,.74-.38,.73-.91,0-.12,.24-.11,.38-.1,.25,.02,.49,0,.68-.19,.92,.38-.2,.4-.09,.68,.27,0,.56-.06,.7-.33,.23-.46,.64-.72,1.01-1.03,.31-.26,.61-.54,.92-.8-.56,.12-1.02,.38-1.36,.78-.32,.38-.7,.6-1.17,.71Zm-7.22-10.41c-.24-.77-.39-.83-.96-.38,.33,.13,.65,.25,.97,.38,.07,.14,.05,.53,.19,.37,.33-.36,.76-.7,.97-1.3-.62,.19-.73,.75-1.18,.94Zm44.57-5.52c.63,0,1.27,.04,1.9,0,2.31-.17,4.04-1.23,5.15-3.31,1.04-1.94,1.64-4.01,1.87-6.17,.3-2.75-.07-4.59-3.38-5.73-3.99-1.37-8.1-1.62-12.27-1.26-.85,.07-1.71,.19-2.51,.53-1.42,.6-2.4,1.57-2.68,3.16-.42,2.43-.08,4.74,.89,6.99,1.05,2.43,2.86,4.05,5.3,4.92,1.83,.65,3.75,.95,5.71,.87Zm-16.45,19c.1,.03,.21,.06,.32,.1,.64,.26,.82,.14,.7-.55-.06-.35,.04-.75-.29-1.03-.12-.1-.04-.17,.06-.23,.72-.47,1.46-.87,2.35-.83,.54,.03,1.05-.15,1.57-.22,.23-.03,.4-.19,.29-.43-.25-.51-.27-.5,.22-.89,0,.19,0,.37,0,.55,.02,.36,.22,.61,.51,.79,.32,.2,.42-.14,.58-.29,.29-.25,.62-.15,.94-.12,.24,.02,.44,.12,.52,.37,.07,.23-.11,.32-.26,.42-.16,.1-.28,.25-.06,.36,.23,.11,.54,.22,.75,.09,.21-.13,.31-.42,.23-.71-.06-.22-.13-.43-.3-.59-.33-.34-.65-.68-.68-1.19,0-.16-.12-.26-.28-.28-.55-.05-.68-.44-.74-.89-.06-.41-.2-.69-.69-.67-.3,.01-.55-.14-.75-.36-.25-.28-.58-.41-.94-.36-.82,.12-1.67-.03-2.45,.11-1.07,.19-1.93-.41-2.92-.41-.05,0-.15-.05-.15-.08-.09-.52-.57-.53-.92-.62-.62-.16-1.23-.64-1.86-.46-1.92,.55-3.82,.09-5.69-.17-.9-.12-1.32,.13-1.78,.69-.21,.25-.36,1.68-.23,1.94,.32,.64,1.17,1.24,.2,2.01-.01,.01-.01,.04-.02,.06-.14,.62-.48,1.15-.83,1.75,.14-.06,.22-.07,.28-.12,.54-.49,1.08-.96,1.81-1.18,.36-.1,.65-.41,.98-.61,.13-.08,.29-.26,.42-.07,.11,.16-.08,.3-.19,.41-.31,.29-.65,.56-.9,.91-.11,.16-.22,.34-.02,.48,.24,.17,.31-.06,.39-.22,.15-.32,.37-.59,.67-.78,.14-.09,.27-.18,.43,0,.48,.57,.54,.57,.99-.07-.11-.15-.31-.07-.44-.16-.22-.16-.26-.61-.17-.6,.54,.06,.97-.49,1.51-.25,.31,.14,.47,.07,.64-.22,.25-.42,.85-.39,1.09,.02,.09,.15,.91,.45,1.03,.38,.27-.17,.52-.45,.82-.5,.42-.07,.38,.51,.68,.66,.05,.03,.1,.06,.17,.11,.05-.1,.08-.22,.15-.27,.22-.17,.49-.83,.67,.05,.07,.35,.29,.16,.45,.02,.33-.3,.63-.4,.84,.13,.03,.07,.1,.17,.16,.17,.72,.03,.35,.37,.18,.63-.3,.44-.63,.87-1.01,1.38,.54-.08,.65-.58,1.05-.78-.05,.49-.08,.91-.28,1.41,.63-.13,.84,.23,.91,.69,.08,.57-.61,.07-.69,.56Zm41.45-14.74c.03-.98-.11-1.6-.52-2.44-.06-.13-.1-.28-.31-.18-.47,.23-.64-.1-.75-.44-.14-.43-.31-.37-.6-.14-.58,.47-.83,2.06-.41,2.82,.29,.53,.66,1.05,.01,1.6-.07,.06-.11,.18-.12,.28-.08,.71-.64,1.06-1.1,1.48-.17,.15-.35,.21-.56,.07-.2-.13-.16-.32-.08-.49,.45-.91-.12-1.3-.71-1.7-.27-.19-.63-.26-.93-.07-.32,.2-.3,.56-.22,.88,.05,.18,.16,.36-.11,.44-.5,.15-.8,.56-1.1,.93-.23,.29-.43,.41-.77,.21-.16-.1-.39-.18-.45,.09-.15,.74-.24,1.48-.49,2.19,.71,.51,.16,.91-.08,1.39-.14,.27-.06,.64-.11,.96-.14,.88,.24,1.28,1.12,1.16,.84-.12,1.6-.46,2.32-.91,.74-.47,1.45-.96,2.33-1.18,.66-.16,1.16-.64,1.65-1.11,.99-.93,1.26-2.21,1.74-3.39,.16-.41,.45-.81,.32-1.28-.11-.42-.14-.84-.08-1.18Zm-44.76,47.22c.05,.55-.09,.91-.22,1.27-.37,1.01-.5,2.02,.11,2.99,.07,.11,.06,.3,.25,.3,.17,0,.22-.16,.29-.28,.4-.69,.84-1.35,1.48-1.85,.28-.22,.39-.56,.46-.91,.12-.54,.11-1.09,.09-1.64-.03-.64-.52-1.22-1.16-1.3-.27-.03-.52-.09-.74-.25-1.17-.85-2.43-.82-3.72-.38-.28,.09-.42,.13-.38-.25,.04-.4-.21-.49-.55-.42-.69,.14-1.19,.5-1.34,1.24-.04,.21-.29,.47-.11,.62,.23,.18,.34-.18,.52-.28,.09-.05,.16-.14,.29-.03-.04,.44-.59,.66-.57,1.09,.01,.44,.39,.78,.49,1.23,.18,.86,.24,1.71,.16,2.62,1.05-.76,2.04-1.48,2.14-2.85,0-.04,.02-.08,.03-.12,.13-.37,.22-.64,.76-.36,1,.5,1.27,.4,1.71-.44Zm34.54-92.03c.2-.31,.51-.33,.75-.47,.16-.1,.46-.13,.32-.41-.1-.2-.39-.25-.54-.14-.44,.32-.97,.17-1.43,.32-.64,.2-1.34,.13-1.96,.43,.62,.04,1.22,0,1.83-.04,.14,0,.33-.09,.38,.08,.06,.21-.16,.25-.3,.31-.15,.06-.31,.09-.46,.16-.41,.17-.88,.15-1.32,.41,.29,.12,.52,.06,.72,0,1.09-.3,2.22-.31,3.33-.29,.7,.01,1.39,.21,2.09-.05,.1-.04,.22-.03,.19-.17-.01-.06-.12-.16-.16-.15-.47,.11-.85-.18-1.28-.28-.27-.06-.57,.21-.88,.03-.07-.04-.17,.04-.11,.14,.13,.21,0,.26-.16,.25-.32-.02-.65,.06-1.01-.14Zm-23.11,73.18c.43,.04,.75-.2,1.06-.4,.73-.49,1.45-.94,2.37-1.02,.57-.05,1.1-.34,1.48-.8,.32-.4,.71-.65,1.17-.84,.14-.06,.33-.07,.36-.36-.91,.04-1.68,.64-2.65,.43,.14,.3,.38,.18,.4,.45-.85,.08-1.56,.48-2.21,1.01-.65,.52-1.31,1.02-1.97,1.53Zm33.83-61.24c.1,.1,.2,.07,.3,.05,.58-.13,1.07,.17,1.57,.34,.37,.13,.26,.55,.29,.87,.02,.15,.11,.26,.26,.31,.18,.06,.33,.01,.42-.16,.09-.17,.17-.35,.41-.23,.22,.11,.38,.03,.56-.1,.24-.17,.47-.09,.66,.1,.19,.19,.36,.39,.55,.57,.12,.11,.26,.36,.44,.21,.17-.15,.04-.39-.07-.56-.09-.13-.23-.22-.36-.32-.58-.45-1.23-.69-1.97-.72-.85-.03-1.58-.53-2.4-.65-.28-.04-.58-.12-.66,.28Zm-55.32,34.95c.33-.23,.89-.08,.86-.7-.02-.37-.02-.73,.25-1.04,.12-.13,.01-.36-.13-.25-.38,.29-.45-.06-.63-.23-.09-.09-.24-.23-.37-.11-.15,.14-.02,.26,.1,.34,.22,.14,.17,.35,.14,.55-.07,.46-.13,.92-.21,1.44Zm43.93-19.76c-.11,0-.21,.04-.23,.15-.04,.2,.02,.39,.18,.49,.43,.27,.88,.51,1.32,.75,.11,.06,.24,.07,.33-.04,.07-.09,.04-.19,0-.29-.1-.25-1.34-1.07-1.6-1.06Zm-52.75,36.05c-.46,.12-.86,.56-1.26,.04-.12-.16-.24-.39-.48-.21-.23,.17-.34,.43-.24,.7,.09,.25,.33,.41,.59,.29,.28-.14,.59-.16,.87-.25,.25-.08,.51-.17,.52-.57Zm31.22-6.73c0-.47,.01-.83-.13-1.17-.14-.34-.43-.36-.71-.22-.33,.17-.27,.45-.07,.66,.25,.25,.55,.45,.91,.73Zm25.83-12.63c.04,.24-.04,.56,.32,.63,.2,.04,.61-.69,.61-1.03,0-.2-.1-.31-.3-.29-.4,.05-.73,.18-.63,.69Zm-34.04,1.6c-.6,.62-.75,1.39-1.36,1.98,.7-.07,1.22-.88,1.36-1.98Zm53.49,8.28c-.98-.59-2.04-.88-3.18-.81,1.07,.22,2.18,.33,3.18,.81Zm-61.58-7.94c-.03,.77-.03,1.42-.51,1.94,.74-.27,1-1.19,.51-1.94Zm-11.56,11.02c-.56,.19-.66,.73-.94,1.13-.09,.12-.24,.3-.03,.41,.2,.11,.35-.06,.41-.25,.14-.45,.24-.92,.56-1.3Zm17.04,1.02c-.42,.63-1.14,1-1.51,1.67,.64-.43,1.25-.9,1.51-1.67Zm3.28-8.9c-.08,.73-.44,1.4-.37,2.15,.21-.7,.52-1.39,.37-2.15Zm27.81-52.03c-.34,.54-1.16,.14-1.48,.77,.36,.11,.57-.33,.87-.21,.61,.25,.55-.21,.61-.56Zm27.33,57.66c.24,.14,.48,.18,.59-.06,.2-.46-.06-.84-.23-1.31-.38,.48,.55,1.08-.36,1.37Zm-44.51-5.56c.23-.62,.04-1.06-.23-1.49,.01,.47-.2,.97,.23,1.49Zm26.05-39c-.34-.05-.69-.11-1.03-.16-.12-.02-.26,0-.27,.17,0,.15,.11,.22,.24,.21,.35-.02,.71,.02,1.06-.23Zm-32.98,38.99c.24-.45,.31-.89-.15-1.39-.06,.54,.04,.97,.15,1.39Zm12.87,20.76c.23-.29,.42-.52,.64-.79-1,.02-1.01,.04-.64,.79Zm29.76-48.23c.32,.09,.5,.5,.88,.35,.08-.03,.03-.19-.03-.27-.23-.32-.53-.27-.85-.07Zm-38.54,28.19c-.13,.48-.04,.93,.09,1.38,.13-.47,.18-.94-.09-1.38Zm34.37-10.82c.2-.37,.1-.69-.05-1-.04-.09-.11-.19-.23-.14-.11,.05-.12,.17-.08,.26,.11,.3,.24,.59,.36,.88Zm-1.1,13.11c0-.28,.59-.44,.18-.81-.09-.08-.23-.17-.32-.06-.21,.29-.04,.57,.14,.87Zm-15.28-54.23c-.46,.08-.86,.25-1.18,.58,.53,.07,.85-.26,1.18-.58Zm-39.73,45.25c-.31,.38,.08,.54,.19,.79,.05,.11,.09,.25,.25,.14,.11-.08,.1-.22,.03-.32-.14-.19-.29-.38-.46-.6Zm55.34-.83c-.34,.21-.61,.3-.5,.66,.03,.09,.09,.25,.18,.21,.31-.14,.25-.46,.33-.87Zm11.5,6.31c0-.29,.01-.41,0-.53-.03-.18-.15-.29-.33-.31-.11-.01-.22,.01-.26,.11-.11,.27,.18,.2,.27,.3,.08,.09,.15,.19,.33,.42Zm-40.57,1.83c.09-.57-.19-1.03-.33-1.53-.03,.54,.08,1.06,.33,1.53Zm35.3-4.02c-.36,.37-.31,.68-.08,1.07,.28-.36,.17-.68,.08-1.07Zm-55.11,22.02c.56-.29,.73-.71,.97-1.07-.34,.28-.69,.54-.97,1.07Zm18.64-19.31c.29-.39,.31-.8,.1-1.22-.03,.41-.06,.82-.1,1.22Zm3.53,20.27c.45,.24,.46,.24,.9-.12-.34,0-.62-.11-.9,.12Zm-38.34-8.08c-.46,.03-.65,.21-.8,.57,.4-.02,.61-.19,.8-.57Zm32.77-14.86c-.44,.21-.64,.45-.62,.96,.33-.28,.51-.53,.62-.96Zm36.03-34.26l-1.18-.35c.32,.36,.72,.47,1.18,.35Zm5.64,33.64c-.21-.22-.41-.24-.63-.15-.03,.01-.04,.13-.02,.15,.19,.15,.39,.15,.65,0Zm-1.18,.45c.49,.28,.82,.47,1.15,.65-.23-.37-.55-.58-1.15-.65Zm-57.18,10.68q.41-.3,.53-.83c-.22,.28-.51,.44-.53,.83Zm-12.23,4.6c.38-.18,.58-.39,.75-.8-.4,.2-.63,.38-.75,.8Zm-.51,.22c-.31,.29-.62,.57-.94,.86,.43-.14,.75-.43,.94-.86Zm7.36-13.5c.28,.05,.48,.11,.57-.16,.02-.06-.03-.19-.07-.2-.23-.04-.34,.14-.5,.36Zm49.56-31.32c-.18-.26-.37-.5-.82-.48,.28,.29,.54,.41,.82,.48Zm-49.36,43.14c.31,.04,.62,.02,1.02-.19-.46-.06-.74,.03-1.02,.19Zm55.42-19.78c.02-.27,.03-.54-.21-.85-.09,.38,0,.63,.21,.85Zm1.7-4.65c.07,.35,.17,.55,.42,.71,.04-.35-.06-.54-.42-.71Zm-70.73,10.16c.23-.11,.43-.19,.48-.43,0-.02-.13-.11-.19-.1-.29,.05-.33,.24-.28,.53Zm33.66,1.8c.19-.22,.26-.46,.05-.77-.18,.27-.11,.51-.05,.77Zm-28.97,10.01s0-.19-.13-.18c-.18,.01-.28,.16-.33,.31-.05,.13,.04,.17,.16,.18,.21,.03,.3-.07,.3-.32Z"/><path d="M232.11,140.97c.39-.83,.75-1.66,1.16-2.47,.37-.72,.82-.8,1.88-.42,.58,.21,.76,.61,.64,1.33-.09,.52-.17,1.04-.25,1.56h-3.43Z"/><path d="M235.66,35.74c.12,.37,.63,.52,.52,1.05-.04,.21,.33,.18,.48,.07,.37-.25,.38-.27,.51,.11,.14,.4,.42,.69,.69,1,.25,.28,.52,.22,.73-.03,.25-.29-.08-.36-.22-.5-.47-.48-.93-.96-1.38-1.46-.1-.11-.24-.26-.09-.43,.13-.14,.31-.11,.46-.03,.51,.28,.95,.63,1.25,1.14,.29,.49,.74,.78,1.24,1.01-.3-.48-.8-.79-1.1-1.27-.18-.28-.34-.54-.44-.86-.2-.67-.01-.93,.67-.79,.27,.06,.44,.1,.63-.15,.22-.29,.36,.05,.47,.15,.32,.29,.49,.22,.58-.18,.03-.14,.08-.28,.16-.4,.1-.15,.2-.39,.4-.3,.21,.09,.02,.28,0,.43-.02,.12-.09,.27,.03,.34,.18,.1,.26-.09,.31-.2,.21-.46,.44-.81,.95-.29,.03,.03,.14,.03,.17,0,.54-.62,1.45-.14,2.01-.68,.11-.11,.33-.13,.43,.04,.11,.2-.1,.28-.22,.37-.42,.32-.84,.64-1.27,.96-.2,.15-.38,.31-.5,.53-.08,.14-.19,.32-.04,.44,.19,.16,.28-.06,.38-.17,.29-.33,.52-.54,.77,.06,.14,.35,.49,.3,.8,.14,.17-.09,.37-.13,.51,.02,.21,.21-.09,.31-.15,.46-.46,1.11-1.5,1.51-2.5,1.73-.41,.09-.93,.14-1.4,.18-.22,.02-.46,.07-.64,.18-.69,.44-1.4,.53-2.13,.19-.24,.19,.26,.49-.04,.49-.43,0-.87,.33-1.3-.01-.22-.17-.45-.36-.31-.66,.13-.28,.13-.38-.2-.44-.8-.15-1.69,.06-2.39-.56-.1-.09-.27,0-.29,.13-.03,.23-.25,.31-.36,.48,.53,.26,1.07,.22,1.62,.2,.72-.03,.92,.19,.91,.96,0,.41-.3,.57-.98,.52,.03,.59,.32,.9,.92,.93,.18,0,.38,.07,.43,.28,.05,.22-.12,.33-.26,.45-.67,.63-1.42,.93-2.34,.65-.47-.14-.96-.15-1.5-.17,.12,.42,.38,.42,.68,.38,.29-.04,.57,0,.84,.1-.21,.4-.21,.39-1.12,.59-.48,.11-.95,.24-1.45,.15-.45-.08-.84-.45-1.42-.28,.28,.23,.64,.15,.91,.49-1.34-.12-2.57-.68-3.79-.17-.14-.2-.03-.2,.04-.23,.06-.02,.11-.04,.22-.08-.32-.29-.74-.09-1.09-.32,.23-.17,.53-.28,.41-.68-.08-.25,.13-.4,.42-.37,.56,.05,1.13,.04,1.55,.52,.03,.03,.11,.03,.17,.03,.01,0,.03-.02,.1-.08-.63-.55-1.3-1.01-2.22-1.19,.27-.24,.5-.24,.7-.24,1.09,0,1.09,0,1.85-.68-.05-.18-.25-.1-.35-.19-.06-.05-.14-.11-.15-.18-.02-.14,.12-.14,.21-.17,.41-.13,.79-.3,1.23-.33,.33-.02,.67-.17,.98-.31,.95-.45,.95-.46,1.95-.4-.41-.24-.14-.99-.9-.81-.15,.04-.17-.31-.09-.33,.3-.07-.09-.7,.44-.53,.27,.09,.52,.21,.79,.32,.07-.33-.18-.42-.32-.57-.09-.1-.14-.22-.06-.33,.03-.05,.17-.12,.2-.1,.72,.56,1.38-.06,2.07-.1,.06,0,.12-.01,.18-.02,0,0,0,0,0,0Zm-1.17,3.07c-.43-.25-.72-.21-1.01-.09,.28,.09,.55,.23,1.01,.09Z"/><path d="M226.5,45.74c-.68-.02-1.23,.07-1.78,.16-.36,.06-.72,.18-1.09,.12-.12-.02-.27-.04-.24-.2,.02-.12,.15-.12,.25-.12,.83,.02,1.61-.09,2.27-.68,.12-.11,.39-.08,.59-.1,.23-.03,.59,.08,.58-.26,0-.38-.36-.19-.58-.21-.71-.04-1.42-.02-2.08-.35-.11-.05-.23-.1-.29-.32,.52,.06,1,.13,1.49,.18,.15,.02,.37,.12,.4-.12,.03-.19-.17-.26-.33-.31-.21-.06-.43-.09-.65-.17,.5-.19,1.03-.21,1.51-.05,.44,.14,.85,.14,1.25,0,1-.34,1.91,.03,2.87,.24,.68,.15,1.44,.37,2.11-.16,.2-.16,.43-.22,.73-.14-.24,.83-1.01,1.13-1.57,1.62-.56,.5-1.17,.93-1.75,1.4-.51,.41-.78,.95-1.21,1.38-.41,.41-.95,.68-1.43,1.01-.24,.16-.6,.24-.42,.68,.06,.14-.09,.25-.2,.25-.59,.02-.88,.45-1.22,.82-.11,.12-.25,.22-.39,.29-.16,.08-.37,.16-.49-.04-.11-.18,.08-.29,.18-.41,.19-.23,.58-.32,.62-.88-.62,.52-1.16,.93-1.64,1.4-.3,.29-.82,.36-1.23,.02-.35-.29-.51-.63-.09-.97,.5-.4,.7-1.06,1.25-1.44-.45-.08-.75,.07-1.02,.41-.47,.57-1.38,.69-1.96,.3,.13-.22,.35-.23,.53-.17,.41,.13,.7,.11,.78-.39,0-.05,.15-.14,.08-.18-.52-.25-.09-.71-.24-1.06-.15-.37,.51-.83,1.05-.71,.56,.13,1.02,.07,1.5-.24,.31-.2,.7-.18,1.07-.23,.25-.03,.52-.03,.78-.39Z"/><path d="M219.95,55.68c.57,.52,1.11,.22,1.6,.07,.35-.1,.25-.78-.12-1-.15-.09-.58-.08-.15-.4,.03-.02,.03-.12,0-.15-.08-.08-.18-.06-.28-.03-.27,.09-.4,.34-.6,.51-.09,.08-.23,.14-.33,.02-.09-.1,.02-.18,.07-.26,.4-.62,.86-1.11,1.69-1.07,.77,.03,1.36-.51,2.04-.77,.35-.14,.66-.38,1.2-.43-.63-.28-1.11-.49-1.63-.73,1.07-.47,1.92,.28,2.95,.36-.39,.41-.56,.83-.71,1.27-.04,.11-.12,.24-.22,.28-1.04,.38-1.92,1.21-3.13,1.1-.23-.02-.43,.03-.29,.35,.1,.24,.14,.71,.28,.69,.36-.06,.75-.19,1-.51,.41-.53,.96-.79,1.57-.96,.17,.2-.15,.29-.05,.46,.18,.08,.34-.17,.62,.04-.69,.36-.32,1.26-.95,1.68-.15,.1-.03,.26,0,.39,.13,.73,.19,1.45-.27,2.11-.24,.35-.18,.75-.15,1.13,.03,.35,0,.69-.07,1.03-.09,.47-.35,.73-.83,.73-1,0-2,0-3-.02-.12,0-.28,.03-.33-.1-.08-.18,.11-.23,.2-.33,.89-.89,1.77-1.8,2.84-2.48,.18-.11,.39-.36,.19-.56-.16-.16-.41,.05-.51,.2-.45,.68-1.33,.73-1.86,1.31-.16,.18-.52,.19-.76,.09-.36-.16-.69-.18-1.05-.03-.08-.25,.11-.33,.21-.33,.61,0,1.05-.36,1.53-.66,.3-.19,.73-.31,.47-.82-.17-.33,.49-.36,.27-.63-.18-.21-.5,.1-.76-.02-.22-.1-.61-.95-.69-1.54Z"/><path d="M252.14,60.86c.06,.01,.19,.02,.3,.07,1,.47,2.09,.48,3.14,.7,.6,.13,1.25,.2,1.78,.58,.19,.14,.41,.19,.64,.19,.21,0,.44,0,.58,.15,.58,.56,1.37,.79,1.97,1.31,.06,.05,.13,.1,.18,.16,.27,.34,.61,.76,.46,1.13-.11,.28-.63,0-.96-.01-1.21-.08-2.35-.61-3.53-.71-1.26-.11-2.49-.66-3.79-.39-.27,.06-.52-.09-.76-.18-.51-.19-1.02-.41-1.6-.32-.52,.08-.73-.43-.99-.7-.21-.22,.11-.65,.26-.94,.13-.25,.51,.01,.77-.19,.32-.25,.79-.3,1.04-.7,.09-.14,.28-.15,.51-.16Z"/><path d="M205.4,97.83c-.12-.37-.7-.52-.42-1.08,.07-.13-.06-.67-.36-.91-.13-.11-.2-.26-.22-.43-.09-1.03-.51-2.01-.6-3.02-.11-1.36-.33-2.72-.26-4.09,.05-.96,1.64-1.88,2.5-1.44,.34,.17,.41,.49,.42,.83,.07,2.41,.14,4.81-.51,7.17-.27,.98-.46,1.97-.56,2.99Z"/><path d="M206.38,100.31c-1.43,.46-2.87,.92-4.3,1.4-1.02,.34-2.03,.73-3.06,1.08-.31,.11-.64,.31-1-.03,1.28-.15,2.17-1,3.18-1.6,.59-.35,1.12-.82,1.75-1.12,.14-.07,.33-.13,.3-.34-.03-.17-.22-.15-.34-.21-.49-.29-.98-.58-1.22-1.24,.56,.07,.83,.51,1.24,.63,.15-.24-.02-.31-.12-.38-.75-.54-1.41-1.21-2.28-1.6-.34-.15-.66-.29-.21-.77,.56-.6,.34-1.28-.19-1.94,.47-.02,.6-.13,.35-.56-.25-.41-.66-.71-.76-1.23,2.32,2.54,5.08,4.72,6.63,7.92h0Z"/><path d="M229.31,59.05c.77,.1,1.46-.28,2.22-.23,.64,.05,1.27,0,1.93-.13,.79-.16,1.49,.32,2.01,.94,.32,.39,.56,.83,1.12,.95,.23,.05,.51,.28,.47,.57-.03,.27-.33,.35-.55,.42-.51,.17-1.02,.29-1.55,.05-.09-.04-.2-.08-.29-.08-1.54,.06-3.07-.49-4.6-.23-.8,.14-1.54,.26-2.3-.05-.09-.04-.22,0-.25-.12-.07-.31-.06-.31-.35-.22-.08,.03-.15,.07-.23,.09-.23,.05-.56,.18-.62-.14-.05-.28,.3-.18,.48-.2,.51-.06,.94-.42,1.48-.34,.01-.25-.34-.38-.16-.63,.16-.22,.4-.15,.62-.12,.26,.03,.52,.07,.79,.1,.16,.02,.38,.04,.41-.16,.03-.23-.21-.2-.35-.24-.09-.03-.21,0-.27-.22Z"/><path d="M222.22,66.45c.25,.08,.24-.3,.44-.17,.12,.08,.06,.26,.07,.4,.07,1.25-.36,2.41-.68,3.59-.17,.62-.59,1.11-1.03,1.57-.11,.12-.26,.24-.43,.13-.17-.11-.03-.26,.01-.38,.07-.21-.13-.29-.18-.38-.24-.48-.8-.39-1.08-.72-.19-.22-.1-.42,0-.67,.09-.24,.3-.55,.03-.79-.29-.26-.58-.06-.82,.13-.25,.2-.48,.17-.81-.1,.68-.11,.62-.89,1.23-1.1,.27-.09,0-.28-.16-.36-.62-.35-.85-1.12-.52-1.72,.52-.95,.52-.96,1.44-.4,.45,.27,.87,.62,1.44,.59,.07,0,.17,.03,.22,.08,.28,.31,.28,.32,.56-.01,.16-.19,.29-.39,.45-.58,.09-.1,.2-.27,.34-.13,.13,.12,0,.26-.09,.37-.17,.19-.43,.32-.43,.64Z"/><path d="M206.37,100.32c.15-.07,.29-.14,.44-.21,.32-.15,.29-.35,.09-.57-.05-.06-.12-.11-.18-.17-.87-.87-.82-1.23,.22-1.83,.36-.21,.71-.36,.8-.88,.08-.45,1.17-.62,1.51-.29,.15,.14,.25,.33,.51,.24,.15-.05,.25,.03,.29,.15,.16,.56,.66,.94,.82,1.51,.17,.61,.35,1.23,1.1,1.47-.39,.04-.78,.12-1.18,.13-1.33,.03-2.63,.25-3.94,.46-.16,.02-.32-.01-.48-.02,0,0,0,0,0,0Z"/><path d="M249.73,36.56c.03-.48,.25-.9,.01-1.36-.21,.23-.24,.5-.23,.74,.03,.69-.55,1.11-.72,1.71-.03,.09-.31,.41-.34-.07-.02-.23-.18-.12-.26-.06-.15,.1-.31,.22-.4,.37-.34,.55-.86,.64-1.43,.57-.34-.04-.68-.1-1.03-.07-.48,.04-.61-.28-.4-.62,.35-.58,.58-1.37,1.52-1.26,.05,0,.15-.02,.17-.06,.37-.79,1.33-.69,1.87-1.22,.59-.58,1.3-.49,2.01-.32,.16,.04,.43,.12,.42,.3-.02,.28,0,.62-.33,.81-.26,.15-.51,.32-.86,.54Z"/><path d="M287.23,79.97c.39,.02,.6,.21,.6,.62,0,.31,.02,.61,.06,.91,.06,.42,.1,.84,.64,.99,.24,.07,.43,.3,.52,.56-.04,.03-.07,.07-.1,.07-.19,0-.39-.23-.56,.01-.09,.13-.02,.28,.07,.39,.18,.22,.39,.11,.62,.09,.31-.03,.49-.61,.92-.19,.08,.08,.14-.21,.09-.33-.19-.47-.41-.92-.19-1.46,.08-.2-.1-.33-.29-.4-.17-.06-.38-.08-.47-.26-.15-.31-.58-.63-.23-.97,.3-.3,.63,.04,1.08,.27-.44,.04-.62,.2-.55,.51,.06,.28,.31,.21,.5,.23,.14,.02,.28,.05,.42,.09,.85,.26,.92,.47,.41,1.2-.18,.26-.39,.47-.06,.78,.16,.15,.21,.31-.13,.41-.17,.05-.32,.36-.39,.58-.08,.27,.17,.17,.31,.2,.92,.14,1.67,.65,2.43,1.13,.05,.03,.05,.14,.1,.29-1.5-.77-3.12-.84-4.63-1.34-.35-.12-.68-.29-.94-.56-.14-.15-.3-.26-.08-.5,.2-.22-.05-.41-.15-.59-.48-.83-.48-.82-.4-1.81,.26,.03,.46,.45,.69,.25,.25-.21-.09-.47-.14-.71-.03-.16-.08-.32-.12-.47,0,0,0,0,0,0Z"/><path d="M227.8,68.7c-.53-.06-1.05,.09-1.58,.1-.2,0-.45,0-.48-.27-.03-.27,.18-.32,.4-.36,.25-.04,.52-.01,.22-.42-.13-.19,.25-.31,.42-.25,1.16,.41,2.08-.23,3.08-.61,.7-.26,1.45-.2,2.16-.1,.39,.05,.76,.34,.25,.8-.07,.06-.13,.18-.13,.27-.02,.46-.13,.81-.71,.59-.03-.01-.1,0-.12,.02-.69,.95-1.58,.15-2.36,.25-.37,.05-.77-.07-1.16-.02Z"/><path d="M223.61,85.02c.7-.63,1.42-1.25,2.23-1.72,.78-.45,1.53-.91,2.1-1.62,.08-.09,.16-.19,.26-.25,.17-.11,.37-.27,.54-.07,.15,.17-.03,.34-.14,.48-.33,.45-.83,.79-.92,1.4,0,.03-.05,.07-.08,.09-.98,.44-1.83,1.12-2.84,1.51-.35,.14-.72,.22-1.08,.32-.03-.05-.06-.1-.08-.15Z"/><path d="M291.14,56.09c.45,.52,.81,.86,1.28,1.07,.16,.07,.46,.13,.37,.32-.27,.65,.02,.98,.74,1.16-.42,.25-.59,0-.77-.11-.42-.28-.84-.57-1.26-.86-.26-.18-.47-.41-.45-.75,.02-.31-.06-.55-.31-.74-.16-.12-.31-.32-.13-.52,.17-.19,.38-.09,.56,.02,.32,.2,.66,.3,1.03,.3,.09-.3-.31-.33-.27-.63,.45-.04,.67,.3,.89,.58,.14,.18,.23,.45,.07,.62-.14,.16-.33-.07-.49-.12-.36-.12-.7-.3-1.27-.33Z"/><path d="M271.23,34.26c-.31-.31-.65-.12-.93,.05-.24,.14-.35,.15-.45-.11-.09-.25-.15-.48,.22-.56,.41-.09,.84-.08,1.23-.33,.86-.55,1.88-.6,2.82-.92,.4-.13,.54,.17,.62,.41,.11,.32-.21,.25-.39,.3-.55,.17-1.1,.27-1.67,.3-.49,.03-.98,.14-1.18,.71-.03,.1-.11,.17-.25,.14Z"/><path d="M280.24,38.68c.12-.27,.37-.18,.51-.36-.16-.03-.3-.05-.43-.09-.1-.03-.18-.1-.17-.22,0-.11,.07-.21,.17-.23,.44-.08,.88-.16,1.29,.11,.44,.28,.9,.54,1.35,.81,.16,.09,.47,.08,.35,.38-.11,.29-.37,.65-.67,.49-.76-.43-1.59-.65-2.42-.89Z"/><path d="M294.88,86.32c.25,.19,.41,.31,.57,.44-.59,.32-.94,.16-.94-.42,0-.25-.07-.38-.26-.49-.1-.06-.23-.11-.3-.21-.14-.21-.34-.47-.19-.72,.15-.23,.41-.06,.62-.03,.55,.09,.82,.55,1.05,.94,.22,.37-.26,.37-.57,.48Z"/><path d="M220.75,58.16c-.15,.2-.34,.17-.46,.1-.54-.35-1.21-.5-1.64-1.02-.13-.15-.34-.29-.18-.52,.14-.21,.35-.34,.62-.31,.55,.06,1.06,.65,1.04,1.22-.02,.45,.42,.3,.62,.52Z"/><path d="M292.9,55.07s-.09,.05-.11,.04c-.77-.48-1.64-.77-2.45-1.18-.33-.17-.56-.53-1-.51-.1,0-.21-.06-.22-.17-.01-.17,.13-.19,.25-.19,.14,0,.32-.05,.42,.01,1.03,.63,2.35,.78,3.09,1.89,.02,.03,0,.08,.01,.12Z"/><path d="M234.44,82.19c.05,.22,.11,.4-.13,.49-.19,.07-.38,.04-.49-.12-.24-.33-.48-.65-.66-1.01-.17-.35-.07-.72,.25-.91,.32-.18,.45,.18,.58,.39,.23,.37,.64,.67,.46,1.15Z"/><path d="M214.5,101.26c0-.12,0-.25,.13-.32,.14-.07,.21,.03,.3,.12,.29,.28,.58,.56,.88,.84,.37,.35,.35,.83-.06,1.14-.13,.1-.28,.14-.37,0-.38-.55-.8-1.08-.87-1.77Z"/><path d="M217.62,70.51c.12,1.52,1.16,.44,1.89,.64-.5,.46-.87,.92-1.4,1.23-.29,.17-.47,.11-.48-.24-.01-.54,0-1.08,0-1.62Z"/><path d="M276.33,43.22c.2-.02,.4-.04,.6-.05,.08,0,.23,0,.23,.01,.06,.74,.63,.31,.95,.39,.36,.09,.73,.1,.92,.6-.71-.05-1.38,.08-2.04-.18-.36-.14-.65-.34-.66-.78,0,0,0,0,0,0Z"/><path d="M276.2,32.56c.52,.13,1.05,.27,1.57,.4-.57-.03-.84,.67-1.47,.54-.37-.07-.61-.35-.98-.4-.15-.02,.02-.34,.18-.4,.22-.09,.47-.1,.71-.14h0Z"/><path d="M222.57,52.84c-1.18,.06-2.31,.4-3.47,.47-.01-.05-.02-.1-.03-.15,.49-.13,.98-.26,1.47-.4,.39-.11,.78-.14,1.14-.4,.49-.35,.57,.3,.9,.49Z"/><path d="M288.42,50.49c-1.11-.1-1.86-.67-2.63-1.4,.45-.04,.84-.03,1.18,.1,.29,.11,.72,.22,.51,.74-.07,.17,.13,.17,.22,.22,.21,.1,.5,.01,.72,.34Z"/><path d="M291.17,59.78c.46-.05,.84,.28,1.21,.63,.18,.17,.37,.31,.56,.47,.16,.14,.18,.33,.05,.49-.16,.2-.33,.08-.46-.06-.46-.51-.91-1.02-1.36-1.53Z"/><path d="M218.21,59.25c-.07-.76-.69-1.01-1.23-1.53,.55,.02,.92,.23,1.44,.04-.44,.52,.42,.94-.21,1.49Z"/><path d="M291.31,52.89c-1.14,.32-1.5-1.11-2.52-1.08,.41-.3,.74-.15,1.02,.13,.43,.42,.82,.91,1.5,.95Z"/><path d="M293.24,81.27c-.17,.06-.38,.06-.29-.34,.04-.18-.06-.25-.21-.31-.13-.04-.33-.11-.25-.27,.1-.21,.29-.05,.42,0,.22,.1,.43,.23,.62,.37,.14,.1,.35,.22,.28,.42-.08,.27-.3,.09-.58,.12Z"/><path d="M231.29,84.61c-.36,.47-.64,.85-.93,1.22-.09,.11-.23,.19-.37,.09-.15-.1-.13-.27-.02-.37,.37-.34,.71-.74,1.33-.94Z"/><path d="M213.61,84.89c.41-.16,.76-.16,1.09,.04,.16,.09,.44,.19,.23,.45-.15,.2-.41,.25-.59,.06-.21-.22-.36-.51-.74-.55Z"/><path d="M286.35,48.61c-.6,.22-1.07,.26-1.54,.04-.1-.04-.17-.12-.16-.24,0-.1,.1-.16,.17-.12,.44,.23,.97,.07,1.54,.32Z"/><path d="M290.4,51c-.59,.02-.94-.3-1.35-.44-.09-.03-.17-.14-.11-.25,.06-.11,.18-.11,.27-.07,.41,.15,.85,.27,1.18,.76Z"/><path d="M270.42,85.9s-.06,.09-.09,.13c-.48-.03-.56,.47-.87,.67,0,0,0,0,0,0,0-.26-.18-.5-.08-.76,.14-.36,.65-.38,1.03-.05Z"/><path d="M293.45,83.18c-.16,0-.35-.01-.3-.15,.14-.35,.53-.3,.81-.43,.12-.06,.27,.05,.24,.18-.1,.43-.51,.29-.75,.4Z"/><path d="M288.75,81.37c.36,.19,.49,.56,.71,.86,.07,.1,.1,.24-.02,.33-.12,.08-.23,0-.32-.08-.36-.29-.21-.74-.36-1.1Z"/><path d="M231.71,84.19c.52-.26,1.04-.51,1.56-.77-.36,.56-.82,.92-1.48,.93-.03-.05-.05-.11-.08-.16Z"/><path d="M262.92,109.78c-.17-.06-.48,.04-.49-.22-.01-.25,.27-.26,.46-.26,.19,0,.47-.02,.49,.22,.01,.27-.27,.22-.46,.26Z"/><path d="M294.44,81.99c.01,.16-.08,.22-.22,.21-.26-.02-.47-.09-.51-.41-.03-.21,.05-.26,.22-.27,.2,0,.5,.27,.52,.46Z"/><path d="M245.09,32.08c-.29,.43-.8,.52-1.19,.78,.31-.4,.65-.75,1.19-.78Z"/><path d="M293.64,65.39c.08,.66,.33,1.13,.26,1.7-.29-.45-.4-1.02-.26-1.7Z"/><path d="M249.08,62.22c-.19,0-.21-.13-.21-.25-.02-.27,.11-.47,.36-.57,.12-.04,.21,.03,.2,.15-.02,.27-.15,.49-.35,.66Z"/><path d="M219.18,71.91c.36,.66-.26,.71-.53,1-.03-.52,0-.57,.53-1Z"/><path d="M285.61,39.94c-.35-.3-.79-.44-1.2-.62,.6-.16,.96,.13,1.2,.62Z"/><path d="M292.2,58.75c.53,.16,1.04,.36,1.35,.82-.03,.04-.06,.08-.09,.12-.42-.31-.84-.63-1.26-.94Z"/><path d="M284.68,93.35c.28-.47,.61-.72,1.03-.88-.14,.47-.33,.63-1.03,.88Z"/><path d="M219.46,60.82c-.32,.56-.69,.66-1.33,.25,.53,.03,.87-.15,1.33-.25Z"/><path d="M274.79,37.09c-.29-.05-.3-.26-.31-.46,0-.1,.03-.24,.16-.19,.19,.07,.37,.19,.41,.41,.03,.18-.14,.21-.26,.24Z"/><path d="M294.27,80.78c-.34-.12-.63-.19-.74-.48-.05-.14,.15-.17,.26-.16,.38,0,.43,.27,.47,.64Z"/><path d="M276.21,32.56c.44-.55,.98-.14,1.47-.14-.48,.22-1-.06-1.47,.13,0,0,0,0,0,0Z"/><path d="M290.33,51.8c.42,.09,.71,.13,1.03,.39-.47,.15-.77,.12-1.03-.39Z"/><path d="M292.99,62.82c.19,.26,.35,.55,.41,.87,.02,.1,.04,.23-.07,.27-.16,.06-.21-.08-.26-.19-.13-.31-.08-.64-.08-.96,0,0,0,0,0,0Z"/><path d="M254.33,87.2c.16,.01,.29,.08,.29,.25,0,.19-.15,.23-.3,.23-.13,0-.25-.04-.26-.2,0-.17,.1-.26,.26-.29Z"/><path d="M221.57,47.19c-.01,.17-.1,.26-.27,.25-.18-.01-.22-.15-.19-.3,.02-.13,.05-.31,.24-.27,.15,.03,.19,.18,.22,.32Z"/><path d="M245.2,34.36c.29-.3,.65-.46,1.12-.41-.34,.18-.69,.36-1.03,.54-.03-.04-.06-.09-.08-.13Z"/><path d="M287.68,50.72c.47,.07,.76,.2,.88,.5,.08,.22-.12,.2-.43-.11-.06-.06-.12-.11-.18-.16-.06-.05-.11-.1-.27-.24Z"/><path d="M218.52,75.58c-.15-.37,.08-.53,.32-.67,.03-.02,.14,.03,.15,.06,.07,.37-.35,.38-.47,.62Z"/><path d="M289.67,77.8c.2-.17,.3-.45,.58-.36,.1,.03,.11,.23,.04,.33-.16,.23-.37,.17-.62,.03Z"/><path d="M260.82,34.63c-.37,.29-.65,.35-1.04,.38,.28-.34,.55-.44,1.04-.38Z"/><path d="M235.66,35.75c.45-.39,.59-.09,.8,.33-.4,0-.57-.24-.8-.34,0,0,0,0,0,0Z"/><path d="M222.01,49.65c-.21,.12-.03,.51-.37,.5-.1,0-.19-.11-.17-.22,.06-.29,.3-.28,.54-.29Z"/><path d="M217.96,79.83c.18,.09,.15,.26,.15,.41,0,.1-.02,.24-.15,.2-.19-.05-.17-.24-.16-.4,0-.1,.02-.2,.16-.21Z"/><path d="M259.22,34.5c.19-.38,.36-.57,.81-.41-.24,.2-.41,.37-.81,.41Z"/><path d="M272.21,36.34c.32-.32,.56-.33,.94-.28-.29,.31-.55,.25-.94,.28Z"/><path d="M257.65,35.16c.12-.29,.28-.42,.54-.39,.02,0,.07,.07,.06,.09-.1,.22-.27,.34-.59,.3Z"/><path d="M292.36,65.54c-.27-.06-.31-.25-.29-.46,.01-.09,.11-.15,.18-.08,.15,.15,.24,.32,.11,.54Z"/><path d="M252.57,70.73c-.02,.3,.31,.45,.18,.72-.05,.11-.09,.24-.22,.28-.17,.04-.21-.08-.22-.21,0-.16-.05-.24-.22-.14-.36,.24-.77,.25-1.17,.3-.12,.01-.26,.02-.29,.17-.03,.14,.06,.24,.17,.3,.35,.23,.62,.52,.85,.87-.7-.03-2.21-.84-2.56-1.38-.09-.13-.24-.29-.14-.44,.12-.19,.3-.06,.43,.02,.34,.23,.51-.04,.64-.25,.16-.26-.11-.34-.28-.43-.3-.17-.77-.28-.73-.64,.04-.41,.54-.46,.89-.62,1.03-.46,2.1-.21,3.15-.18,.17,0,.3,.1,.42,.22,.08,.09,.22,.25,.27,.23,.69-.31,1.17,.45,1.82,.34,.02,0,.06-.01,.06,0,.29,.58,.76,.09,1.13,.19,.49,.14,.96,.31,1.44,.5,.62,.25,1.32,.25,1.92,.59,.14,.08,.34,.13,.3,.33-.03,.18-.23,.14-.36,.14-.43,0-.84,.19-1.27,.07-.07-.02-.19-.01-.23,.03-.72,.85-1.47,.16-2.17,0-.58-.14-1.13-.33-1.73-.29-.32,.02-.61-.05-.87-.24-.35-.25-.76-.36-1.19-.48Zm-1.43,.12c-.19,.07-.51-.02-.54,.33-.01,.19,.16,.22,.31,.21,.25-.02,.54-.05,.6-.33,.06-.25-.19-.19-.37-.21Z"/><path d="M245.47,74.94c-.38-.71-.67-2.48-.42-3.27,.14,1.09,.28,2.18,.41,3.28,0,0,0,0,0,0Z"/><path d="M252.39,73.32c.53-.11,1,.08,1.47,.27-.53,.13-1.02,.04-1.47-.27Z"/><path d="M245.46,74.94c.36,.45,.5,.99,.67,1.52-.35-.45-.57-.96-.66-1.52,0,0,0,0,0,0Z"/><path d="M241.12,98.93c-.14-.24-.07-.42-.03-.59,.05-.21,.16-.45,.39-.33,.24,.11,.54,.2,.65,.48,.05,.13-.11,.24-.23,.18-.33-.15-.52,.11-.79,.26Z"/></g></g></g></svg>