<?xml version="1.0" encoding="UTF-8"?><svg id="Layer_2" xmlns="http://www.w3.org/2000/svg" xmlns:xlink="http://www.w3.org/1999/xlink" viewBox="0 0 442.54 689.61"><defs><style>.cls-1{fill:url(#linear-gradient-2);}.cls-2{fill:url(#linear-gradient-17);}.cls-3{fill:url(#linear-gradient-15);}.cls-4{fill:url(#linear-gradient-18);}.cls-5{fill:url(#linear-gradient-14);}.cls-6{fill:url(#linear-gradient-20);}.cls-7{fill:url(#linear-gradient-6);}.cls-8{fill:url(#linear-gradient-11);}.cls-9{fill:url(#linear-gradient-10);}.cls-10{fill:url(#linear-gradient-16);}.cls-11{fill:url(#linear-gradient-21);}.cls-12{fill:url(#linear-gradient-25);}.cls-13{fill:url(#linear-gradient-5);}.cls-14{fill:url(#linear-gradient-7);}.cls-15{fill:url(#linear-gradient-24);}.cls-16{fill:url(#linear-gradient-9);}.cls-17{fill:url(#linear-gradient-22);}.cls-18{fill:url(#linear-gradient-3);}.cls-19{fill:url(#linear-gradient);}.cls-20{fill:url(#linear-gradient-27);}.cls-21{fill:url(#linear-gradient-23);}.cls-22{fill:url(#linear-gradient-19);}.cls-23{fill:url(#linear-gradient-4);}.cls-24{fill:url(#linear-gradient-8);}.cls-25{fill:url(#linear-gradient-12);}.cls-26{fill:url(#linear-gradient-13);}.cls-27{fill:url(#linear-gradient-26);}</style><linearGradient id="linear-gradient" x1="325.08" y1="236.35" x2="419.92" y2="236.35" gradientUnits="userSpaceOnUse"><stop offset="0" stop-color="#29abe2"/><stop offset="1" stop-color="red"/></linearGradient><linearGradient id="linear-gradient-2" x1="265.46" y1="351.77" x2="442.54" y2="351.77" xlink:href="#linear-gradient"/><linearGradient id="linear-gradient-3" x1="0" y1="433.04" x2="305.08" y2="433.04" xlink:href="#linear-gradient"/><linearGradient id="linear-gradient-4" x1="128.21" y1="46.3" x2="156.94" y2="46.3" xlink:href="#linear-gradient"/><linearGradient id="linear-gradient-5" x1="201.88" y1="48.99" x2="230.17" y2="48.99" xlink:href="#linear-gradient"/><linearGradient id="linear-gradient-6" x1="125.98" y1="141.87" x2="326.53" y2="141.87" xlink:href="#linear-gradient"/><linearGradient id="linear-gradient-7" x1="99.01" y1="51.69" x2="400.33" y2="51.69" xlink:href="#linear-gradient"/><linearGradient id="linear-gradient-8" x1="328.7" y1="127.17" x2="355.22" y2="127.17" xlink:href="#linear-gradient"/><linearGradient id="linear-gradient-9" x1="259.53" y1="55.65" x2="295.95" y2="55.65" xlink:href="#linear-gradient"/><linearGradient id="linear-gradient-10" x1="351.88" y1="53.03" x2="374.03" y2="53.03" xlink:href="#linear-gradient"/><linearGradient id="linear-gradient-11" x1="165.99" y1="47.38" x2="191.89" y2="47.38" xlink:href="#linear-gradient"/><linearGradient id="linear-gradient-12" x1="315.08" y1="56.9" x2="337.06" y2="56.9" xlink:href="#linear-gradient"/><linearGradient id="linear-gradient-13" x1="327.95" y1="224.18" x2="346" y2="224.18" xlink:href="#linear-gradient"/><linearGradient id="linear-gradient-14" x1="295.65" y1="372.2" x2="309.36" y2="372.2" xlink:href="#linear-gradient"/><linearGradient id="linear-gradient-15" x1="346.92" y1="166.87" x2="353.35" y2="166.87" xlink:href="#linear-gradient"/><linearGradient id="linear-gradient-16" x1="339.61" y1="68.06" x2="346.47" y2="68.06" xlink:href="#linear-gradient"/><linearGradient id="linear-gradient-17" x1="329.3" y1="38.46" x2="336.13" y2="38.46" xlink:href="#linear-gradient"/><linearGradient id="linear-gradient-18" x1="312.71" y1="38.21" x2="319.56" y2="38.21" xlink:href="#linear-gradient"/><linearGradient id="linear-gradient-19" x1="347.02" y1="231.3" x2="364.81" y2="231.3" xlink:href="#linear-gradient"/><linearGradient id="linear-gradient-20" x1="311.55" y1="52.97" x2="315.13" y2="52.97" xlink:href="#linear-gradient"/><linearGradient id="linear-gradient-21" x1="327.11" y1="182.47" x2="333.86" y2="182.47" xlink:href="#linear-gradient"/><linearGradient id="linear-gradient-22" x1="334.13" y1="180.71" x2="346.1" y2="180.71" xlink:href="#linear-gradient"/><linearGradient id="linear-gradient-23" x1="370.34" y1="329.2" x2="382.43" y2="329.2" xlink:href="#linear-gradient"/><linearGradient id="linear-gradient-24" x1="382.23" y1="319.75" x2="392.49" y2="319.75" xlink:href="#linear-gradient"/><linearGradient id="linear-gradient-25" x1="300.15" y1="67.36" x2="302.46" y2="67.36" xlink:href="#linear-gradient"/><linearGradient id="linear-gradient-26" x1="342.53" y1="164.07" x2="344.26" y2="164.07" xlink:href="#linear-gradient"/><linearGradient id="linear-gradient-27" x1="324.79" y1="173.46" x2="327.37" y2="173.46" xlink:href="#linear-gradient"/></defs><g id="Layer_6"><g><path class="cls-19" d="M412.7,267.34c1.02-14.67-8.5-28.59-6.41-44.18,.95-7.05-1.84-14.49,1.17-21.55,.14-.74,.43-1.5,.91-2.28,2.9-4.7,.55-11.49-2.72-17.57-2.09-1.97-4.05-4.07-5.68-6.55-5.25-7.99-19.87-11.62-27.49-6.98,.41,6.38-4.32,7.77-9.02,8.9-3.22,.77-4.99-.8-4.29-6.5-3.6,7.22-7.31,11.86-8.69,19.31,2.79-2.41,4.34-3.74,6.18-5.33,3.27,5.1,1.82,8.69-2.86,11.61,2.03,.17,3.89-.05,5.45,.55,1.63,.62,3.59,2.27,2.6,4.1-2.1,3.89-6.11,3.07-9.64,2.77-2.49-.21-4.57-1.27-4.33-4.36,.4-5.19-.47-9.85-4.71-12.89-8.17,1.62-12.27,7.79-17,12.86,5.73,6.61-5.7,13.68,1.23,19.93,5.59-2.88,.29-8.91,3.2-12.58,4.14,1.02,16.91,7.73,18.33,9.59-.89,.46-1.78,.91-2.84,1.45,1.41,2.6,2.68,4.95,4.05,7.48,5.61-5.54,10.88-3.67,23.47,7.64-1.43,1.73-.42,4.84-3.65,5.56,2.31,2.59,6.57,1.01,8.54,5.33-5.46-2.29-10.21-4.17-16.21-3.71,24.91,10.54,25.13,11.31,8.81,27.82,1.1,2.71,3.27,1.47,5.11,1.35,2.04-.13,4.56-1.32,5.81,.99,1.39,2.57-.84,4.35-2.51,5.9-3.15,2.93-6.4,5.73-7.49,10.23,4.21,.36,14.12,6.39,15.95,9.7,1.53-.53,1.9-3,4.64-2.46,1.21,3.72,2.36,7.93,6.64,13.03-.7-9.2,1.68-15.77,7.42-21.46,2.68,5.44,5.39,10.75,7.88,16.16,.71,1.56-.2,4.4,2.79,3.89,2.74-.47,2.88-2.85,2.26-5.05-3.01-10.72-7.76-20.48-6.91-32.73Z"/><path class="cls-1" d="M441.66,366.59c-2.8-4.69-5.14-9.85-11.07-11.67-7.72-2.37-15.73-4.19-23.29-.85-5.46,2.41-9.45,2.13-14.68-.62-2.86-1.5-4.58-6.97-8.96-4.29-2.17,1.33-3.41,4.14-5.15,6.22-2.59,3.11-3.37,6.28-2.42,10.51,1.09,4.85-3.26,8.79-3.98,13.32-.99,6.3-3.78,9.91-10.26,10.57-.69-.72-1.3-1.36-1.9-1.99-1.9,1.29-1.98,4.37-5.17,4.26-2.53-4.34,1.02-8.55,.67-13.61-4.2,4.03-5.45,9.67-10.71,12.9-.1-1.93-.65-3.39-.16-4.26,5.61-9.96,5.89-21.4,8.69-32.1,2.02-7.72,9.77-15.12,2.99-24.06-.22-.29-.04-1.09,.21-1.5,3.36-5.44,3.49-11.34,2.72-17.44-.27-2.14,.02-4.36,1.88-6.1,5.74,4.81,3.18,16.47,14.3,16.65,3.09,4.92,6.36,1.31,9.95,.39-2.28-3.34-11.76,3.15-7.95-5.99,1.43-3.43,6.87-5.19,12.16-8.89-5.88,1.06-9.77,1.63-13.59,2.48-4.39,.98-7.43-.79-8.87-4.68-6.11-16.53-16.21-30.58-26.3-44.81-9.63-13.59-18.28-27.92-25.67-43.37-1.43,3.94,.47,9.07-4.15,11.61,.57,1.16,1.01,2.06,1.65,3.37-5.18,.96-6.77-5.14-11.64-5.02-.14,1.52-.44,3.03-.39,4.53,.27,8.78-2.71,16.58-10.8,19.94-13.58,5.64-11.31,19.55-18.11,29.71,1.98-.74,2.82-1.05,3.72-1.38,1.56,2.42,.92,4.69-.72,6.2-6.08,5.59-6.21,13.66-8.66,20.68-1.56,4.48,.25,8.46,5.95,9.52,1.29,.24,2.68,.53,3.72,1.16,1.33,.36,2.66,.9,4.03,1.65,4.16,2.29,8.43,4.42,12.56,6.76,12.86,5.44,25.36,10.72,38.63,16.34-6.31,3.27-12.57,4.05-17.49,7.89-5.51,4.31-8.66,8.86-3.84,15.8,5.76-5.78,5.7-5.95,19.02-10.57,5.43-1.88,13.23-1.22,7.63-10.96,3.65-.04,5.6,1.04,6.33,3.98,1.1,4.5-.8,7.98-4.2,10.44-2.69,1.94-5.99,3.07-6.55,6.68,4.69,2.24,12.35-2.85,13.72,5.56,.49,3.01-2.45,6.29-6.77,6.06-.5-1.26-.86-2.19-1.37-3.46-7.62,4.52-17.27,6.36-16.19,18.62,.52,5.93-1.65,11.02-9.1,12.44-6.49,1.23-9.03,6.45-9.01,12.85,.06,15.37-.12,30.75,.35,46.11,.16,5.29,1.44,10.34,4.53,14.49,.65,.52,1.33,1.04,2.04,1.54,4.18,2.96,15.62,7.92,20.49,4.62,.1-.07,.2-.12,.3-.18,8.82-5.86,15.47-13.01,20.03-23.61,7.03-16.35,21.19-28.19,32.48-41.83,4.71-5.69,12.14-9.06,14.8-16.14,7.61-20.28,13.2-24.58,35.08-25.41,6.76-.26,11.39-6.19,8.5-11.03Z"/><path class="cls-18" d="M300.44,202.38c1.24,.84,2.28,1.24,3.18,1.33-.63-1.39-.85-2.96-.48-4.44,.42-1.69,1.11-3.26,1.71-4.89,.08-.22,.15-.45,.23-.67-.41-1.1-.56-2.25-.45-3.36-6.87-.07-13.74-.26-20.62,.65-5.52,.73-11.21,.13-16.82,.13,0-.19-.01-.38-.02-.58,3.13-.43,6.26-.87,9.4-1.3-1.45-1.2-2.74-1.26-4.03-1.19-10.77,.55-20.92,4.41-31.84,5.03-12.76,.73-25.51,.86-38.26,1.44-6.65,.3-13.89-2.09-20.17,2.66-1.02-.22-2.22-.47-3.36-.72-1.14,1.55-1.39,4.02-4.12,2.64-.37-.74-.79-1.56-1.27-2.52-1.42,.3-2.73,.57-3.82,.8-4.77-4.51-10.28-1.74-15.28-1.82-4.36-.07-6.61-.93-6.34-5.73,.25-4.44,.05-8.91,.05-13.36-.29,0-.57-.02-.86-.02-.34,2.98-.69,5.96-1.07,9.22h-9.56c-.45,4.57-1.07,8.79,2.06,12.69-1.09,1.18-2.11,2.29-3.24,3.52-1.9-2.14,.19-5.97-4.08-6.28-23.32-1.73-46.66-1.03-70-.81-15.2,.14-30.19,3.81-45.52,2.3-5.21-.52-10.58,.53-15.87,.86,24.35,1.37,48.1,9.79,73.02,5.92v-3.24c3.13,3.47,7.2,1.2,10.73,3.21-1.51,.23-2.51,.38-3.51,.54,15.76-.74,31.44-1.43,46.45,.47,2.83,7.46-2.94,8.26-7.41,10.24,6.59-.81,12.54,3.85,18.84,.23,2.45,5.4,.92,10.51,.38,15.46-.77,7.12-3.69,14.1-4.16,20.97-.48,6.98-.08,14.33-.16,21.47-.22,19.71-1.2,39.41-1.85,59.11-1.06,31.84-2.22,63.67-1.68,95.55,.31,18.21,.4,36.45-.37,54.63-.47,11.12-.62,22.27-1.58,33.43-1.59,18.45-1.15,37.06-1.68,55.61-1.07,37.6-2.2,75.2-3.36,112.8-.1,3.15,.3,5.73,4.28,5.2,3.64-.48,8.46,.42,8.55-5.51,.27-18.07,.45-36.13,.67-54.2,1.09-89.31,3.25-178.59,5.79-267.86,1.31-46.06,2.56-92.13,3.74-138.19,.09-3.7,1.48-5.68,5.18-5.54,10.35,.39,20.51-.29,31.06-6.8-1.58,8.31,2.49,7.33,6.44,7.22,4.09-.12,8.23,.82,12.3,.56,5.5-.35,11.06,1.76,18.9-.56-12.34-2.46-22.86-.63-32.42-3.14,1.01-10.07,8.74-7.54,14.56-8.71-2.64-.46-5.13-.46-7.63-.46-2.55,0-5.18,.31-7.85-2.16,13.32,1.49,26.26-2.99,38.76,2.18-.85-.43-1.71-.86-2.52-1.27,0-3.83,1.78-5.41,5.23-4.45,2.91,.81,5.66,2.15,8.53,3.12,11.24,3.81,22.64-3.79,33.95,.71-1.98-.86-3.27-2.17-4.39-4.08,2.2-.3,4.13-.57,7.32-1.01-1.77,1.31-2.37,1.76-2.98,2.21,5.23-1.37,10.14,.02,15.03,1.14-.2,.32-.49,.76-.95,1.48,2.44-.07,4.72,.94,6.43-1.52-2.2-2.91-5.54-1.39-9.79-2.83,7.5-.28,13.64-.81,18.58,2.52Z"/><path class="cls-23" d="M146.64,28.24c6.47,.37,10.41,7.15,7.86,13.43-.96,2.36-.64,3.97,.63,6.09,2.54,4.26,2.54,8.88-.78,12.7-4.7,5.4-10.91,6.09-17.42,4.07-4.71-1.46-9.85-4.8-8.48-9.54,1.94-6.68,1.95-13.08,2.28-19.78,.26-5.27,5.26-7.5,10.36-8.14,1.65-.21,3.35-.05,3.48,2.17,.11,1.92-.37,3.56-2.7,3.97-2.56,.45-5.19,1.03-5.38,4.33-.16,2.62,1.84,4,3.89,4.32,2.81,.44,6.1,.92,8.03-2.06,1.6-2.48,.04-4.22-1.84-5.95-1.82-1.67-.76-3.65,.1-5.62Z"/><path class="cls-13" d="M222.25,30.37c-3.5,4.68-8.61,7.09-10.65,13.14,8.22-.95,12.83,3.83,17,8.9,2.73,3.32,1.55,7.06-.85,10.17-4.16,5.39-13.64,6.68-19.94,2.72-6.71-4.23-7.26-10.06-3.94-16.73,2.75-5.53,3.48-12.42,9.99-15.42,2.47-1.14,5.18-1.74,8.39-2.78Z"/><path class="cls-7" d="M322.74,161.36c-4.37-27.51-8.56-53.89-12.79-80.52-8.09,2.31-3.69,8.24-5.01,11.66-42.02-1.17-83.68-2.32-125.43-3.48-1.26,3.83,.67,4.42,3.56,4.51,33.6,1.02,67.19,2.07,100.78,3.15,6.26,.2,12.51,.56,18.77,.84-.02,.32-.04,.64-.06,.96-58.86-1.4-117.72-2.8-176.57-4.19,1.64,.98,3.32,1.33,4.97,1.18,6.21-.55,8.04,2.27,7.42,8.22-.55,5.33-.26,10.77-.11,16.16,.15,5.71-1.59,12.84,8.09,11.95,.5,1.71,.88,3.01,1.85,6.29,.65-3.27,1.07-4.52,1.13-5.78,.47-10.35,1.01-20.69,1.23-31.05,.08-3.65,1.17-5,5-4.86,41.72,1.47,83.45,2.77,125.17,4.17,7.77,.26,15.53,.72,23.51,1.09,.43,7.74,.14,15,1.37,21.99,1.86,10.53,4.44,20.91,7.62,31.21,3.02,9.8,3.67,20.31,5.64,30.46,.32,1.65,.29,2.81-.23,3.59,.12,.47,.21,.95,.23,1.43,.1,1.58-.12,3.03-.46,4.44,.39,1.05,.52,2.19,.36,3.29,.46,1.22,.8,2.84,1.4,4.82,1.69-17.06-1.75-32.45,6.35-46.08-1.01,1.21-2.02,2.43-3.79,4.55Z"/><path class="cls-14" d="M179.66,4.38c1.26-1.92,3.3-2.32,5.64-2.23,51.43,1.95,102.85,3.87,154.28,5.8,16.15,.61,32.3,1.22,48.45,1.89,7.93,.33,12.54,4.22,12.28,12.49-.69,22.5-1.39,44.99-2.37,67.47-.26,5.99-4.23,9.42-10.11,9.88-5.04,.4-10.13,.08-17.18,.08,6.14,1.41,10.7-.2,15.1,1.86-5.07,2.51-27.43,2.22-29.27-.31,1.81-2.64,4.73-.76,6.95-3.07-10.33,0-20.67,.05-31-.04-2.24-.02-4.64-.36-3.85-4.4,6.39,0,12.85-.13,19.29,.03,12.87,.31,25.74,.78,38.6,1.17,4.41,.13,6.69-2.19,7.04-6.43,1.87-22.56,2.28-45.17,2.08-67.79-.05-5.43-4.21-6.44-8.69-6.61-27.67-1.08-55.33-2.3-83.01-3.27-61.26-2.15-122.52-4.22-183.79-6.24-11.17-.37-11.81,.48-12.08,11.61-.5,20.6-1.08,41.2-1.58,61.81-.14,5.78,2.29,8.45,8.55,8.56,19.88,.36,39.76,1.23,59.64,1.93,1.59,.06,3.04,.65,2.92,2.6-.13,2.04-1.78,2.14-3.29,2.09-20.6-.65-41.2-1.19-61.79-2.08-7.21-.31-12.05-6.62-11.59-14.07,.3-4.84,.6-9.54-1.47-14.29-1.4-3.23,1.14-6.39,2-9.59,2.02-7.51,1.58-15.5,.39-23.26-.3-1.93-.53-3.49,.14-5.43,1.07-3.09,1.33-6.1-.89-9.27C97.8,10.63,105.94-.09,113.34,0c20.39,.25,40.77,1.1,61.14,1.89,1.61,.06,3.16,1.48,5.17,2.49Z"/><path class="cls-24" d="M352.83,153.8c-3.89-.89-6.93-.38-10.24,1.43,0-6.81-.12-13.06,.03-19.3,.22-8.96,.45-17.93,1.04-26.87,.31-4.63-1.15-6.61-5.94-6.32-2.69,.16-5.63,.33-9.02-2.38,6.61-1.9,12.3-1.16,17.96-.73,6.86,.53,9.02,4.24,8.5,10.98-1.09,14.16-1.56,28.37-2.32,43.2Z"/><path class="cls-16" d="M259.97,56.14c0-.74-.01-1.48,0-2.22,.29-11.95,7.01-15.65,17.67-9.5,3.06,1.76,5.33-.59,7.65-1.14,6.06-1.44,8.34,1.97,9.74,6.33,1.88,5.86,.31,11.96,.19,17.95-.03,1.85-1.54,2.33-3.21,2.23-1.92-.11-2.9-1.12-2.86-3.05,.1-4.33,.28-8.66,.33-12.99,.03-2.9-.78-5.46-4.24-5.54-3.31-.07-4.19,2.4-4.31,5.15-.19,4.22-.23,8.45-.35,12.67-.05,1.97-.83,3.24-3.05,3.16-2.09-.08-3.07-1.18-3.04-3.23,.06-4.12,.15-8.24,.21-12.36,.04-3.01-.61-5.79-4.24-5.85-3.73-.06-4.2,2.9-4.3,5.8-.12,3.91-.16,7.82-.24,11.72-.05,2.31-1.11,3.51-3.55,3.38-2.44-.13-2.94-1.64-2.85-3.68,.14-2.95,.28-5.91,.43-8.86Z"/><path class="cls-9" d="M353.58,34.4c8.14,.93,2.96,8.36,6.17,12.17,4.94-3.62,9.41-1.7,12.19,2.77,4.24,6.82,.56,14.38,1.46,21.44-3.73,1.53-5.88,1.26-5.87-2.74,.01-3.69,.14-7.39,.13-11.08,0-3.17-1.02-5.87-4.68-5.94-3.53-.07-4.59,2.56-4.73,5.57-.19,4.01-.21,8.03-.34,12.04-.05,1.68-.77,2.84-2.61,2.97-1.52,.11-2.7-.34-3.22-1.93-.68-2.05,.4-32.45,1.5-35.28Z"/><path class="cls-8" d="M184.5,35.83c-5.87-3.94-14.89,1.89-18.51-6.41,5.36-.33,11.04-2.49,15.04,2.75,2.91-2,6.51-1.79,9.31-.14,3.12,1.84,.74,4.71-.28,7.02-3.47,7.83-7.12,15.57-10.48,23.44-1.56,3.66-3.97,4.18-7.45,3.01,4.18-10.02,8.3-19.91,12.38-29.68Z"/><path class="cls-25" d="M315.13,47.8c3.68-5.5,9.18-5.57,14.01-3.1,6.38,3.26,9.26,9.23,7.33,16.52-1.37,5.19-4.65,8.75-10.63,9.45-.44-2.81,.45-5.02,1.94-6.69,3.28-3.69,4.3-7.63,1.49-11.79-2.74-4.04-6.58-3.49-10.29-1.31-1.47-1.06-1.73-3.32-3.9-3.1l.04,.04Z"/><path class="cls-26" d="M343.23,228.98c.79,.47,1.58,.94,2.78,1.65-.84,2.02-1.66,3.98-2.41,5.8-7.18,2.59-10.15-.31-10.28-7.29-.05-2.84-1.45-4.95-5.36-5.62,3.95-2.61,8.08,3.82,10.65-1.82-1.79-2.88-4.71-5.59-2.77-10.69,3.5,6.06,6.38,11.39,7.39,17.98Z"/><path class="cls-5" d="M305.01,357.88c-1.1,7.26,6.03,12.73,3.98,19.91-3.05,1.01-4.2-1.27-6.16-1.99-1.54,3.35-1.76,7.52-7.17,10.73,1.95-6.37,3.4-11.11,5.3-17.28,1.06,2.16,1.66,3.38,3.07,6.25,2.86-7.24-6.49-12.58,.99-17.61Z"/><path class="cls-3" d="M353.35,171.17c-2.41,1.03-4.39,.82-5.33-1.12-1.05-2.15-1.66-4.77-.4-6.99,1.31-2.31,5.75-.67,5.7,2.04-.02,1.05-.28,2.09-.28,3.13,0,.92,.18,1.84,.31,2.93Z"/><path class="cls-10" d="M346.47,68.29c-.32,2.1-1.53,3.33-3.6,3.24-2.09-.09-3.26-1.51-3.27-3.54,0-2.03,1.08-3.48,3.28-3.39,2.25,.08,3.23,1.65,3.59,3.69Z"/><path class="cls-2" d="M332.36,35.2c1.95,.22,3.73,.95,3.77,3.31,.03,1.95-1.28,3.17-3.2,3.2-2.22,.03-3.56-1.3-3.63-3.52-.06-1.87,1.07-2.87,3.06-2.99Z"/><path class="cls-4" d="M314.34,35.16c1.92,.59,4.51-.35,5.15,2.53,.34,1.52-.52,2.63-1.9,3.23-1.66,.72-3.13,.25-4.16-1.15-1.18-1.6-.89-3.11,.91-4.62Z"/><path class="cls-22" d="M347.02,229.7c2.89-1.5,3.94-2.04,5.21-2.7,3.38,3.28,8.77,3.39,12.58,8.61-6.05-2.58-10.21-6.68-17.79-5.91Z"/><path class="cls-6" d="M315.08,47.76c-.58,3.32-1.16,6.63-1.83,10.43-2.87-4.45-2.06-7.72,1.87-10.39,0,0-.04-.04-.04-.04Z"/><path class="cls-11" d="M327.11,185.99c.23-3.8,2.95-4.94,6.75-7.04-2.92,3.05-4.84,5.04-6.75,7.04Z"/><path class="cls-17" d="M334.13,182.09c4.59-2.5,7.78-3.35,11.98-2.33-3.91,.76-7.15,1.39-11.98,2.33Z"/><path class="cls-21" d="M370.34,329.73c5.16-1.76,7.82-1.02,12.09,0h-12.09Z"/><path class="cls-15" d="M392.49,320.69c-3.36-.93-6.78-1.4-10.27-1.27,3.6-1.04,7.05-.86,10.27,1.27Z"/><path class="cls-12" d="M302.13,69.61c-2.24-1.42-2.59-2.71-1.03-4.5,1.8,1.09,1.41,2.54,1.03,4.5Z"/><path class="cls-27" d="M343.06,161.48c1.39,1.81,1.61,3.17,.48,5.18-1.28-1.68-1.23-3.08-.48-5.18Z"/><path class="cls-20" d="M327.37,170.92c0,2.57-.69,3.85-2.54,5.07-.3-2.4,.96-3.37,2.54-5.07Z"/></g></g></svg>