<?xml version="1.0" encoding="UTF-8"?><svg id="Layer_2" xmlns="http://www.w3.org/2000/svg" viewBox="0 0 172.15 7.22"><g id="Layer_1-2"><path d="M0,4.31c.48-.04,.92-.11,1.35-.1,3.94,.09,7.89,.21,11.83,.28,6.76,.12,13.53,.2,20.29,.32,4.37,.08,8.74,.09,13.1,.35,2.58,.15,5.13-.24,7.69-.18,1.36,.03,2.72,.09,4.08,.13,10.47,.28,20.94,.62,31.41,.83,9.67,.19,19.35,.25,29.03,.33,5.12,.04,10.23,0,15.35,.03,5.45,.02,10.9,.07,16.34,.12,.48,0,1.03-.14,1.53,.45-.33,.12-.56,.28-.79,.28-.75,0-1.5,0-2.25-.09-1.55-.17-3.08-.25-4.63,.02-.66,.11-1.38-.07-2.07-.14-.6-.06-1.24-.3-1.8-.19-3.25,.69-6.54,.43-9.82,.43-6.67,0-13.34,.05-20.01,0-8.69-.06-17.38-.15-26.06-.31-7.28-.13-14.55-.37-21.82-.59-2.62-.08-5.24-.28-7.87-.37-1.17-.04-2.34,.1-3.51,.08-7.65-.14-15.3-.3-22.94-.45-1.93-.04-3.85-.02-5.78-.07-5.91-.14-11.83-.3-17.74-.46-1.27-.03-2.54-.04-3.8-.09-.38-.01-.88,.17-1.11-.62Z"/><path d="M153.25,6.38c-.2-.17-.55-.31-.58-.5-.21-1.56-1.33-2.41-2.43-3.31-.5-.4-.91-.92-1.29-1.44-.12-.17-.02-.51-.02-1.13,.59,1.21,1.13,1.95,2.25,1.97,.2,0,.38,.26,.59,.35,.77,.33,1.52,.76,2.33,.92,2.07,.41,4.16,.69,6.24,1.02,2.55,.4,5.09,.84,7.65,1.19,1.29,.17,2.59,.18,4.16,.28-1.61,.51-2.92,.99-4.44,.75-3.43-.55-6.87-.99-10.31-1.49-.51-.07-1-.27-1.5-.38-1.86-.43-2.27-.15-2.68,1.8l.02-.02Z"/><path d="M153.23,6.4c.36,.16,.72,.32,1.33,.58-.88,.23-1.18-.03-1.31-.6,0,0-.02,.02-.02,.02Z"/></g></svg>