<?xml version="1.0" encoding="utf-8"?>
<!-- Generator: Adobe Illustrator 27.0.0, SVG Export Plug-In . SVG Version: 6.00 Build 0)  -->
<svg version="1.1" id="Capa_1" xmlns="http://www.w3.org/2000/svg" xmlns:xlink="http://www.w3.org/1999/xlink" x="0px" y="0px"
	 viewBox="0 0 800 800" style="enable-background:new 0 0 800 800;" xml:space="preserve">
<style type="text/css">
	.st0{fill:#FFFFFF;}
</style>
<path class="st0" d="M400,0C244.4,0,117.8,126.6,117.8,282.2c0,189.4,258.7,498.9,269.7,512c3.1,3.7,7.6,5.8,12.4,5.8c0,0,0,0,0.1,0
	c4.8,0,9.3-2.1,12.4-5.7c11-12.9,269.8-317.3,269.8-512.1C682.2,126.6,555.6,0,400,0z M400.1,758.1
	c-52-64.6-249.7-320.8-249.7-475.9c0-137.6,112-249.6,249.6-249.6s249.6,112,249.6,249.6C649.6,441.7,452.2,694.2,400.1,758.1z"/>
<path class="st0" d="M400,156.9c-66.2,0-120,53.8-120,120s53.8,120,120,120s120-53.8,120-120S466.2,156.9,400,156.9z M400,364.3
	c-48.2,0-87.4-39.2-87.4-87.4s39.2-87.4,87.4-87.4s87.4,39.2,87.4,87.4S448.2,364.3,400,364.3z"/>
</svg>
