<?xml version="1.0" encoding="UTF-8"?><svg id="Layer_2" xmlns="http://www.w3.org/2000/svg" viewBox="0 0 193.48 539.63"><g id="Layer_1-2"><g><path d="M179.53,126.11c-.13,.24-.51,.46-.79,.47-1.32,.07-2.61-1.1-2.76-2.41-.08-.69,.41-1.5,1.16-1.99-.62-1.26-1.17-2.6-1.69-3.99,.02,.06,.03,.13,.05,.18-.05,.44-.07,.76-.14,1.07-.03,.14-.15,.31-.28,.37-.11,.05-.35,.03-.43-.06-.67-.76-.99-1.62-.69-2.64,.04-.13,.24-.34,.32-.32,.27,.06,.63,.14,.77,.33-1.41-4-2.61-8.37-4.33-12.6-1.54-3.8-3.7-8.12-6.19-11.97-.88-.68-1.68-1.45-2.31-2.36-1.41-.46-2.79-.98-4.01-1.86-1.36-.99-2.45-2.06-3.32-3.3-.12-.01-.23-.03-.35-.04,0,.1,0,.19,.02,.28,.44,2.5,1.46,4.5,4.43,4.56,.17,0,.34,.02,.5,.06,1.29,.33,1.8,.96,1.66,2.06-.15,1.19-1.02,1.09-1.88,1.04-.52-.03-1.05,.14-.97,.77,.08,.65,.59,1.3,.51,1.9-.31,2.41,.77,4.06,2.38,5.73,1.8,1.86,3.66,2.87,6.25,2.04,.71-.23,1.39-.05,1.63,.69,.33,1.02,.47,2.04-1.13,2.1-.62,.02-.84,.45-.79,1.03,.07,.73-.22,1.31-.72,1.79-1,.96-.94,2.09-.52,3.25,.28,.79,.7,1.53,.97,2.32,1.24,3.59,3.23,6.91,3.78,10.77,.27,1.88,1.2,3.44,3.29,4.04,1.28,.37,1.44,.36,2.39-1.62,1.44,1.25,3.05,2.08,4.77,2.62-.34-1.18-.67-2.36-1.01-3.54-.21-.25-.4-.51-.59-.77Z"/><path d="M150.14,84.13c-.76-.2-1.5-.42-2.23-.68-.09,.15-.18,.27-.3,.31-.25,.08-.67-.05-.88-.24-.32-.29-.59-.6-.84-.93-.1-.05-.21-.08-.31-.13-2.3-1.17-4.04-2.87-5.3-4.89-.1,.07-.2,.13-.34,.18-1.08,.38-1.35-1.6-2.06-2.46-1.15-1.4-1.22-2.89-.91-4.7,.51-2.97,.37-5.99-.5-8.97-1.03-3.52-1.48-7.17-3.02-10.59-.74-1.64-1.34-3.35-2.67-4.64,.43-.31,.55-.44,.69-.49,.64-.25,2.39,.97,1.55-1.2-.11-.3-.19-.67-.11-.97,.23-.96,1.04-1.64,1.89-1.81,.09-1.2,.42-2.36,1.04-3.42-.93-1.39-.99-2.74-.04-4.67,1.52-3.06,1.68-6.08,1-9.26-.26-1.2-.04-2.32,.2-3.47,.42-1.95-.03-3.63-1.47-5.06-1.2-1.19-2.23-2.4-1.86-4.39,.24-1.29-.97-2.23-1.93-2.72-2.45-1.26-4.4-3.59-7.57-3.44-1.08,.05-2.31-.54-2.96-1.66-1.05-1.81-2.7-1.85-4.4-1.41-3.14,.81-6.32,.68-9.5,.63-.81-.01-2.01-.05-2.36-.55-1.58-2.27-3.27-2.39-5.5-.98-.78,.49-1.47-.46-2.04-1.07-.56-.59-1.16-.61-1.68,.05-.72,.91-1.4,1.81-1.63,3.05-.23,1.26-.96,1.57-2.07,1.46-1.03-.1-1.97-.41-2.81-.99-1.49-1.03-2.81-.72-4.1,.38-1.41,1.21-2.66,2.49-3.39,4.28-.38,.92-.86,1.81-1.36,2.69-.06,.48-.15,.96-.3,1.44-.13,.32-.24,.65-.35,.97-.08,.23-.13,.48-.23,.7-.02,.08-.04,.17-.06,.25-.05,1.43-.43,2.97-1.07,4.36,.24,.65,.16,1.33-.24,1.9-.87,1.22-1.78,2.44-2.83,3.5-1.02,1.03-1.52,2.17-1.55,3.58-.04,2.52-.02,5.02,.84,7.46,.47,1.34,1.19,2.38,2.42,3.08-.34-1.47-.45-2.95,.05-4.41,.1-.29,.31-.63,.56-.78,.57-.34,.95,.06,1.14,.54,.44,1.12,1.34,1.86,2.11,2.72,.42,.46,.73,1.13,.84,1.74,.2,1.13,.48,2.48-.51,3.28-1.23,.98-2.06-.37-2.98-.95-.28-.17-.54-.39-.81-.58-.38,2.98-.9,5.92,.14,8.93,.51,1.47-.21,2.95-1.07,4.26-.86,1.3-.62,2.54,.34,3.7,1.07,1.29,2.48,2.62,1.39,4.42-.92,1.53-2.71,1.02-4.17,1.03-2.18,0-4.38,0-6.52-.31-2.35-.33-3.37-2.24-2.65-4.47,.21-.63,.46-1.29,.86-1.81,2.52-3.2,1.76-7.02,2.07-10.63,0-.12,.02-.18,.03-.22-.04,.06-.15,.11-.39-.05-.17-.11-.66,.1-.87,.3-.95,.93-1.01,2.14-.69,3.29,.83,3.05-.87,4.76-3.19,6.02-1.35,.73-2.71,1.3-3.37,2.82-.7,1.6-.9,3.31-.46,4.93,1.15,4.22,2.36,8.43,6.59,10.85,1.74,.99,3.3,2.28,4.92,3.48,.21,.16,.4,.58,.35,.81-.06,.26-.43,.63-.65,.63-1.98-.05-3.88-.3-5.79,.89-1.35,.84-2.92-.22-4.25-.89-.72-.37-1.24-1.12-1.93-1.58-.45-.3-.99-.14-1.21,.4-.26,.62-.36,1.3-.61,1.91-1.39,3.38-1.45,3.49,1.4,4.87,4.4,2.13,8.19,5.21,12.36,7.71,2.61,1.57,5.17,3.19,8.3,3.37,1.95,.11,3.31,1.82,5.17,1.81,1.82-.01,3.63-.68,5.45-.69,1.65-.01,3.3,.5,4.95,.71,.4,.05,1.17-.15,.49-.75-1.07-.93-.56-1.43,.38-1.74,1.63-.52,3.37-.53,4.98-.09,2.43,.66,4.65-.22,6.95-.54,1.24-.17,2.1-1.04,2.79-2.01,.86-1.21,1.76-1.35,2.95-.46,.4,.31,.99,.23,1.23-.34,.12-.28,.13-.68,.03-.98-.44-1.38-1.22-2.49-2.86-2.27-2.7,.37-4.87-.97-7.13-2.01-1.12-.52-1.18-1.18-.36-2.38,1.15-1.69,1.15-1.86-.22-2.66-.43-.25-.93-.39-1.37-.63-.27-.15-.47-.42-.81-.74,2.01-.41,3.96-.77,5.88-1.2,1.65-.37,2.98,.14,4.08,1.35,.45,.49,.84,1.05,1.2,1.61,.81,1.23,1.95,1.77,3.4,1.79,2.18,.02,4.36,.05,6.54,.14,3.93,.15,6.42,3.42,5.49,7.22-.36,1.47-.9,2.89-1.18,4.37-.37,1.95,.14,3.67,1.81,4.91,.54,.4,1.13,.74,1.63,1.18,1.05,.93,1.36,1.93,.76,3.15-2.58,5.16-3.71,10.75-4.88,16.33-.28,1.31-.46,2.65-.51,3.98-.09,2.17,.13,4.34-1.52,6.18-.46,.51-.46,1.62-.35,2.41,.24,1.82,.6,3.64,1.04,5.43,.44,1.8,1.69,2.86,3.53,3.14,1.42,.21,2.71-.08,3.49-1.43,1.08-1.89,1.97-3.9,3.18-5.7,1.47-2.19,1.84-3.91-.16-6.21-2.19-2.51-1.25-5.77-.57-8.68,.45-1.94,1.4-3.77,2.09-5.66,1.25-3.46,2.45-6.94,3.71-10.41,.53-1.45,.7-2.96,.56-4.46-.21-2.16-.58-4.27-.12-6.48,.18-.87-.42-1.92-.69-2.88-.27-.95-.62-1.89-.83-2.85-.05-.24,.21-.66,.45-.83,.23-.16,.72-.22,.92-.08,1.1,.75,2.12,1.62,3.23,2.36,.36,.24,.9,.2,1.36,.29,.08-.46,.16-.92,.24-1.38,.06-.3,.13-.6,.22-1.01,2.21,.71,3.09,2.95,4.84,4.15,.95-.38,1.28-1.31,1.07-2.05-.35-1.19-.57-2.39-.71-3.59Zm-57.64-7.98c-.91,.78-2.03,1.43-3.18,1.21-4.79-.91-9.6-.72-14.42-.49-.31,.01-.62-.18-.94-.28-.42-.13-.55-.91-.24-1.28,1.1-1.31,2.45-2.45,4.14-2.54,2.59-.13,3.38-1.7,3.79-3.83,.15-.8,.34-1.58,.74-3.42,2.01,3.25,3.06,5.76,5.37,7.32,.31,.21,.3,.9,.41,1.38,.24,1.03,.97,1.25,1.87,1.12,.66-.09,1.3-.32,1.95-.39,.28-.03,.58,.21,.87,.33-.12,.29-.16,.66-.37,.85Zm3.96-22.17c-.59-.25-1.19-.79-.85-1.53,.15-.33,.79-.69,1.14-.63,1.76,.29,3.52,.68,5.77,2.34-2.58,.46-4.35,.53-6.07-.18Zm5.4-13.85c-.47-.09-1.06-.35-1.29-.72-1.15-1.89-2.76-1.39-4.44-1.08-1.61,.3-3.2,.15-4.63,1.49-2.05,1.92-5.22,.71-5.59-2.02-.43-3.2-.3-6.38,1.25-9.33,.12-.22,.56-.43,.81-.38,.24,.05,.52,.39,.61,.66,.26,.78,.43,1.59,.67,2.53,.56-1.21,.95-2.33,1.57-3.29,.52-.8,1.31-1.42,2.13-2.29-1.24-.15-2.25-.21-3.22-.4-1.24-.24-1.7-1.07-1.27-2.2,.42-1.1,.92-2.16,1.33-3.26,.7-1.91,1.27-3.83,.51-5.88-.53-1.43,.04-2.61,1.03-3.65,1.05-1.11,2.21-2.07,3.65-2.63,1.27-.5,2.38-1.13,3.17-2.33,.89-1.36,2.3-1.32,3.6-.75,1.22,.53,2.29,1.4,3.51,1.95,2.14,.96,4.31,1.88,6.52,2.65,2.9,1.01,5.47,2.55,7.9,4.38,2.14,1.61,3.35,3.78,3.47,6.43,.14,3.01-.12,6.04,.44,9.03,.1,.56-.74,1.3-1.33,1.19-.65-.11-1.35-.21-1.91-.52-.73-.4-1.3-1.06-2-1.51-2.12-1.38-4.35-1.68-6.68-.56-.45,.22-.88,.49-1.33,.71-2.93,1.4-3.14,1.44-5.44-1.28-1.67-1.98-3.68-2.79-6.19-2.65-1.8,.1-3.35,.42-3.59,2.67-.04,.41-.58,.79-.94,1.13-.66,.61-.58,1.22,.12,1.6,2.51,1.39,5.06,2.82,8.08,1.83,1.33-.44,2.36,1.05,3.21,.71,1.73-.69,2.88-.5,3.88,1,3.04,.58,5.87,2.52,9.22,1.11,1.03-.43,1.72-.77,1.9-1.94,.12-.82,.84-1,1.56-.81,.88,.23,1.58,.84,1.46,1.78-.46,3.31-.44,6.68-1.41,9.94-.85,2.85-2.06,2.87-3.62,.76-1.37-1.85-3.79-2.11-5.37-3.64-.45-.43-.84,0-1.21,.41-.31,.34-.83,.76-1.2,.71-2.98-.44-5.95-.97-8.91-1.52Zm21.46,39.39c-1.32,.14-2.67,.24-4,.16-1.39-.08-2.61-.56-2.89-2.24-.18-1.1-1.1-1.63-2.01-2.08-1.48-.75-2.98-1.46-4.75-2.32,1.21-1.5,2.33-2.89,3.43-4.25,1.12,.04,.82,.88,.96,1.43,.16,.64,.23,1.32,.46,1.94,.43,1.14,2.14,1.32,2.89,.33,.94-1.24,1.38-2.64,1.52-4.18,.08-.92-.29-1.98,.7-2.7,2.82,3.45,3.95,7.65,5.23,11.77,.31,.99-.42,2.01-1.55,2.13Z"/><path d="M17.3,108.4c-1.51,2.98-2.85,6.04-3.93,9.24-4.26,12.61-6.37,25.88-7.81,39.15,.72,.71,1.53,1.35,2.35,1.94,.77,.56,1.63,1.53,2.64,.75,.97-.74,1.28-2,1.14-3.19-.1-.79-.59-1.54-.95-2.29-.31-.65-.34-1.3-.05-1.94,2.18-4.91,3.04-10.17,4.17-15.37,.53-2.46,1.08-4.91,1.72-7.34,.49-1.86,.57-3.53-.53-5.3-.97-1.55,.35-.96,1.08-.9,.25,.02,.71-.24,.75-.43,.72-3.61,1.44-7.23,2.04-10.86,.26-1.6-.98-3.12-2.62-3.48Z"/><path d="M193.09,179.46c-1.17-9.67-4.57-18.69-6.41-28.2-.43-2.21-.77-4.44-1.07-6.67-.2-.58-.4-1.16-.6-1.73-1.07-3.03-2.02-6.15-2.94-9.28-.33,.33-.61,.75-.81,1.39-.22,.69-1.12,.8-1.7,.35-.78-.61-1.44-1.39-2.13-2.11-.98-1.01-2.23-1.44-3.59-1.56-.15-.01-.5,.46-.48,.68,.12,1.28,.59,2.07,2.14,2.19,1.28,.1,1.32,.48,.91,1.67-.22,.62-.57,1.22-.65,1.85-.09,.81,.23,1.18,1.18,.8,.89-.36,1.38,.39,.96,1.01-1.57,2.34-1.08,4.42,.46,6.48,.62,.83,.99,1.72,.78,2.81-.37,1.9,.29,3.71,.93,5.39,1.18,3.13,2.1,6.35,3.4,9.45,1.48,3.52,2.34,7.3,3.45,10.98,.19,.64,.38,1.31,.38,1.97,0,1.02-.23,2.05-1.06,2.72-.97,.77-1.92,.16-2.78-.32-.72-.41-1.33-1.02-2.05-1.45-1.06-.63-2.11-2.3-3.34-1.21-.87,.77,.28,2.15,.79,3.18,1.05,2.14,2.4,3.99,4.52,5.26,1.04,.63,1.03,1.83-.04,2.44-1.47,.84-2.14,1.65-1.8,3.56,.37,2.08,.05,4.28,.01,6.43-.98-.04-1.96-.07-2.71-.86-.47-.48-.91-1-1.45-1.39-1.03-.75-2.29-.58-3.17,.41-1.33,1.51-2.56,3.11-3.95,4.56-1.25,1.31-1.75,1.25-3.39,.05-1.36-1-1.55-.98-2.2,.33-.3,.6-.5,1.25-.78,1.86-.28,.61-.6,1.2-1.35,1.35-.74,.15-2.23-.53-2.54-1.35-.34-.92-.44-1.94-.71-2.89-.13-.45-.34-1.05-.68-1.22-.77-.38-1.24,.33-1.6,.86-.85,1.25-1.6,2.56-2.42,3.83-1.01,1.54-2,3.1-3.1,4.58-.64,.87-1.87,.87-2.66,.07-.59-.59-1.08-1.28-1.62-1.92-1.01-1.22-2.28-1.27-3.65-.76-1.28,.48-2.37,1.24-3.37,2.17-.61,.57-1.25,1.12-1.91,1.63-.72,.55-1.63,.11-1.84-.87-.41-1.97-.8-3.94-1.22-5.91-.09-.43-.33-.82-.54-1.34-1.13,1.45-2.3,2.67-2.45,4.46-.16,2.01-1.53,2.85-3.28,3.3-.16,.04-.33,.08-.49,.13-4.83,1.34-5.06,1.19-5.48-3.7-.03-.33-.15-.65-.23-.96-1.61,.07-3.23,.22-4.84,.17-2.52-.07-5.03-.32-7.54-.42-3.57-.14-6.96-1.05-10.29-2.26-.46-.17-.9-.46-1.26-.79-.21-.19-.36-.58-.33-.86,.03-.28,.28-.71,.5-.76,.8-.19,1.65-.4,2.46-.33,3.01,.26,6.03,.49,9,1,2.07,.35,4,.13,5.92-.55,.26-.09,.55-.45,.58-.71,.02-.21-.28-.62-.51-.68-1.63-.4-3.26-.82-4.91-1.06-5.63-.83-11.28-1.58-16.92-2.38-.84-.12-1.63-.38-2.08-1.21-.55-1.01,.19-3.05,1.3-3.42,.63-.21,1.31-.26,1.98-.35,.63-.08,1.27-.11,2.68-.23-3.1-1.79-5.5-3.28-8.01-4.56-1.11-.56-2.01-1.04-2.35-2.35-.23-.87-1.13-1.21-1.94-1.43-1.29-.36-2.59-.75-3.92-.93-3.24-.43-6.2-1.41-8.66-3.67-.59-.54-1.44-.24-1.46,.58-.04,1.29-.56,2.22-1.44,3.07-1.44,1.4-2.81,2.87-4.25,4.27-1.34,1.3-2.11,2.5-.27,4.19,.72,.66,1.31,1.51,1.8,2.37,.49,.85,1.94,.79,1.89,2.09-.96,.72-1.94-.16-2.91,.04-5.26,1.07-4.43-.89-6.51,4.6-.73,1.92-2.05,2.95-4.06,3.3-1.65,.29-3.23,.76-4.95,.26-1.6-.46-2.9,.27-4.08,1.38-1.21,1.15-2.5,2.24-3.85,3.21-1.11,.8-2.29,.58-3.1-.53-1.48-2.04-2.99-4.06-3.94-6.43-.32-.8-.74-1.61-1.64-1.77-2.65-.45-3.57-2.2-3.74-4.62-.02-.33-.11-.68-.26-.96-.15-.27-.39-.6-.65-.67-.24-.06-.67,.11-.82,.31-.77,1.09-1.42,2.28-2.24,3.34-.5,.65-1.18,1.19-1.86,1.66-1.31,.92-2.91,.19-2.89-1.37,.01-1.49,.3-2.98,.4-4.48,.02-.27-.19-.71-.4-.78-.24-.08-.67,.07-.87,.27-.6,.58-1.09,1.28-1.69,1.86-.52,.51-1.19,.58-1.85,.22-.77-.43-1.42-1.11-1.32-1.98,.11-.97,.51-1.92,.88-2.85,.42-1.04,.29-1.96-.4-2.82-.73-.92-1.4-1.9-2.2-2.75-1.84-1.96-2.24-3.97-.78-6.37,.88-1.44,.81-1.74-.54-2.32-2.1-.9-2.56-2.51-2.37-4.49,.12-1.33,.42-2.65,.55-3.98,.08-.86-.18-1.67-.97-2.18-.36-.23-.73-.15-.8,.23-.12,.61,.7,1.42,.01,1.8-.67,.37-1.6,.27-2.42,.37-.14,.02-.28,0-.42,0-.05-1.17-.26-2.26-1.28-3.06-.25-.2-.51-.39-.77-.58-.16,1.65-.33,3.29-.48,4.94,.1-.03,.19-.07,.28-.12,.68-.43,1.45-.72,2.18-1.07,.19,1.28,.38,2.56,.56,3.79-.34,.57-.86,.51-1.35,.56-.96,.1-1.66,.59-1.55,1.59,.03,.26,.01,.46-.02,.64,.97,1.41,1.65,3.11,1.87,5.12,.35,3.14,.86,6.14,1.51,9.05,.18,.11,.37,.21,.58,.29,.53,.2,1.57-.09,1.38,.97-.15,.79-.49,1.59-.94,2.26-.02,.03-.06,.05-.09,.08,2.12,7.59,5.44,14.54,10.3,21.36,.08-.11,.18-.2,.33-.27,.43-.21,.92-.28,1.27-.38,.95,.07,1.68,1.1,1.57,2.17-.02,.22-.37,.59-.56,.58-.52,0-.99-.13-1.42-.35,3.71,5.24,6.1,10.65,7.57,16.4,.47-.69,1.21-.99,2.05-1.02,.16,0,.34,.03,.48,.09,1.04,.46,2.08,.93,3.39,1.51-1.18,2.19-2.34,4.37-3.52,6.54-.16,.29-.4,.69-.65,.73-.11,.02-.19,.05-.29,.07,.27,2.3,.46,4.65,.54,7.08,.14,4.32-.36,8.46-1.13,12.54,.3,.24,.65,.47,.79,.79,.68,1.53,.03,2.8-1.7,3.49-1.69,7.4-3.87,14.66-4.34,22.4-.04,.61-.06,1.22-.09,1.83,1.15,.42,2.29,.85,3.41,1.33,.24,.1,.56,.6,.49,.73-.21,.4-.55,.77-.92,1.03-.24,.17-.68,.25-.94,.15-.79-.29-1.51-.69-2.11-1.25-.24,12.07,1.54,23.49-1.02,35.71,1.47,2.37,2.2,5.15,3.41,7.65,.66,1.37,.42,2.99,.21,4.48-.24,1.66-.29,3.27-.01,4.96,.3,1.8,.11,3.68,.13,5.52,0,1.21-.3,2.33-1.15,3.23-1.34,1.42-1.81,3.13-1.91,5.05-.09,1.67-.73,3.28-2.38,3.78-.34,5.55-1.19,11.02-.59,16.73,.91,8.75,4.23,14.97,8.82,22.16,3.56,5.57,6.14,11.98,8.95,17.98,3.21,6.87,3.36,13.64,4.21,20.68,.56-.08,1.1,.32,1.14,.98,.05,.83,.09,1.67,.04,2.5-.13,2.05,.06,4.02,1.15,5.83,.81,1.35,1.22,2.89,.75,4.36-.66,2.04-.28,3.54,1.42,4.83,.5,.38,.01,1.49-.64,1.54-.82,.06-1.66,.05-2.48-.02-.73-.07-1.33,.16-1.82,.65-.22,.21-.45,.55-.44,.83,0,.24,.3,.62,.54,.69,1.77,.5,3.6,.81,5.33,1.42,2.23,.8,2.65,2.6,1.17,4.32-.11,.13-.24,.24-.35,.36-.75,.83-2.46,1.31-1.99,2.6,.66,1.84,1.57,3.77,3.79,4.38,.64,.18,1.33,.21,1.97,.39,.26,.07,.64,.37,.65,.58,.01,.25-.26,.69-.49,.76-4.58,1.32-7.77,.22-10.39-3.65-.53-.78-1-1.28-1.99-1.07-1.33,.28-2.65,.37-3.93-.3-.55-.29-1.11-.77-1.81-.34-.48,.29-.52,2.09,.06,2.85,.39,.52,1.02,.85,1.49,1.31,.54,.54,.39,1.5-.25,1.6-1.77,.26-3.51,1.33-5.35,.21-.45-.28-.94-.23-1.11,.41-.14,.53,.42,1.68,.85,1.66,.82-.03,1.7,.01,2.44-.27,1.87-.7,3.57-.54,5.32,.38,.88,.46,1.9,.63,2.85,.96,.68,.24,1.01,.8,1.29,1.44,.64,1.44,.12,2.2-1.47,2.07-.33-.03-.64-.18-.97-.24-.15-.03-.36-.01-.46,.07-.28,.23-.26,.56,.07,.81,.53,.41,1.13,.74,1.62,1.19,1.62,1.5,2.32,3.22,1.25,5.39-.8,1.63-1.42,3.34-1.71,5.2,1.26,.09,1.59-.73,2.03-1.38,.26-.39,.55-1.18,.72-1.15,.88,.14,.66,.98,.74,1.59,.07,.5,0,1.01,.08,1.51,.34,2.12-.67,3.49-2.38,4.57-1.31,.82-1.84,.54-2.02-1.24-.03-.3-.11-.6-.17-.9-.27,.16-.63,.25-.78,.48-1.06,1.57-1.12,2.33-.32,3.13,1.65,1.64,1.62,1.63,.93,3.23-.46,1.08-.82,2.2-1.23,3.3,0,0,.01,0,.02,0-.26,.39-.66,.77-.68,1.18-.18,2.74-1.44,5.07-2.68,7.42,1.2-.38,2.31-.21,3.29,.59,.22,.18,.44,.54,.42,.8-.01,.19-.44,.54-.63,.51-1.29-.21-2.68-.29-3.4-1.67-1.89,.61-3.82,1.18-4.96,3.39,4.16,0,8.13-.01,12.11,.02,.28,0,.67,.28,.79,.53,.11,.23,.05,.77-.14,.9-1.64,1.18-3.2,2.4-4.15,4.27-.21,.42-.64,.81-1.06,1.04-1.89,1.05-3.76,2.18-5.75,3.02-2.02,.85-4.21,.97-6.4,.71-1.82,1.55-4,1.43-6.2,1.44-1.98,0-4.02-.33-5.83,.98-.45,.33-1.3,.31-1.91,.18-1.78-.38-3.54-.9-5.3-1.35-1.71-.44-3,0-3.78,1.48-.44,.83-.77,1.72-1.11,2.61,2,2,3.9,4.12,5.6,6.35,.53,.14,1.06,.3,1.6,.45,0,0,0,0,0,0,0,0,0,0,0,0,.86,.24,1.73,.47,2.58,.73,15.92-2.87,33.31-1.81,48.16-1.34,.36,.01,.7,.06,1.05,.12,3.39-.86,6.76-1.82,10.1-2.88,.04-.25,.12-.49,.3-.7,.53-.64,1.35-1.12,1.68-1.84,.86-1.89,2.13-2.82,4.28-2.82,1.13,0,2.25-.57,3.39-.86,.5-.13,1.03-.22,1.54-.24,.45-.5,.91-.98,1.4-1.45-.26-.14-.51-.32-.69-.55-.24-.29-.08-.7,.32-.72,.57-.03,1.14,0,1.7,.07,1.07-.92,2.21-1.77,3.39-2.58-.08,.03-.15,.05-.23,.07-.48,.11-.97,.17-1.7,.28-.42-.13-1.08-.24-1.62-.54-.45-.25-.59-.83-.23-1.28,.94-1.14,2-1.4,3.53-.85,.63,.23,1.12,.7,1.03,1.47-.02,.19-.1,.33-.2,.46,.99-.65,2-1.28,3.03-1.87,.02-1,.65-1.56,2.36-2.07,.75-.23,1.28-.45,.96-1.27-.54-1.36,.05-2.28,1.05-3.04,1.67-1.26,3.59-2.11,5.63-1.43,1.31,.44,2.6,.72,3.9,.86,2.99-1.42,5.98-2.93,8.58-4.87,1.76-1.31,3.26-2.48,3.65-3.74-.58,0-1.16,0-1.73-.08-1.12-.15-1.98-.97-1.72-2.04,.97-3.97-2.17-5.57-4.27-7.79-1.72-.32-2.34-1.63-3.03-3.05-.64-1.34-1.65-2.51-2.48-3.76-.97-1.47-2.18-2.54-4.06-2.57-.33,0-.67-.08-.99-.17-1.14-.31-2.41-.56-3.05-1.61-.89-1.48,1.16-1.78,1.38-2.85,.32-1.54,1.09-1.92,2.5-1.19,.48,.25,.97-.04,1.3-.45,2.38-2.95,6.01-4.2,8.94-6.41,1.19-.89,2.58-1.46,3.39-2.83,.7-1.18,1.83-1.92,2.95-2.68,2.71-1.85,4.88-4.05,5.04-7.66,.05-1.14,.65-2.25,.97-3.38,.83-2.9,.69-3.16-1.85-4.97-1.4-1-2.9-1.65-4.61-1.88-2.66-.35-5.22-1.25-7.95-1.23-.79,0-1.59-.44-2.38-.7-.13-.04-.27-.21-.32-.35-.12-.33,.06-.61,.48-.63,2.35-.08,4.7-.11,7.05-.19,5.44-.17,9.65-2.81,12.11-7.56,1.23-2.38,2.48-4.75,3.7-7.13,.05-.1-.09-.29-.15-.47-1.37-.37-2.56,.53-3.86,.63-1.71,.13-3.01-1.4-2.75-3.25,.22-1.58-.89-2.97-2.28-2.8-.49,.06-1.02,.17-1.44,.41-3.2,1.81-6.18,.63-9.17-.6-2.86-1.17-4.27-3.68-5.54-6.25-.17-.34,0-1.07,.28-1.34,.28-.27,.94-.33,1.35-.22,.63,.17,1.29,.48,1.77,.91,1.68,1.48,3.48,2.6,5.81,2.65,1.84,.04,1.75,1.73,2.34,2.84,.12,.23,.57,.41,.86,.4,.28-.01,.72-.25,.79-.48,.23-.79,.44-1.61,.46-2.43,.05-1.68,.06-3.36,.64-4.97,.62-1.72,.37-2.98-1.78-3.16-2.47-3.5-6.52-4.94-9.74-7.47,2.66-.1,5.14,.91,7.71,1.34,1.35,.22,1.78-.04,2.13-1.42,.16-.65,.18-1.34,.36-1.98,.31-1.07,.97-1.82,2.19-1.55,2.69,.58,4.46-.92,6.18-2.59,.9-.88,1.4-1.92,1-3.17-.62-1.97-.61-3.98-.5-5.98,.19-3.4-.81-6.33-3.39-8.57-2.21-1.92-2.93-4.29-2.99-7.14-.11-5.88,.21-11.71,1.28-17.5,.36-1.94,1.45-2.92,3.45-2.98,1.17-.03,2.35,.05,3.51,.19,2.19,.26,3.49,1.77,2.54,3.86-.33,.73-.5,1.28-.5,1.74,.37-.67,.82-1.32,1.36-1.96,.77-.9,1.35-2.01,1.86-3.21-.21-.25-.35-.52-.33-.76,.01-.12,.21-.22,.32-.34,.15,0,.3,.04,.44,.07,.19-.53,.34-1.08,.5-1.64-.03,0-.06,0-.08-.01-1.54-.27-2.38-1.91-1.76-3.5,.08-.22,.6-.49,.77-.42,.6,.28,1.18,.61,1.77,.92,.41-2.24,.66-4.53,.88-6.67-.56-.29-1.08-.74-1.2-1.19-.21-.77,.28-1.29,.83-1.63,.23-.14,.47-.25,.72-.37,.02-.14,.03-.31,.05-.45,.84-6.54-.86-14.09-1.89-21-.2,.15-.45,.26-.79,.29-1.31,.1-1.55-1.58-2.32-2.42-2.87-3.14-4.86-6.8-6.19-10.83-.23-.7-1.11-1.57,0-2.12,.45-.23,1.33,.11,1.89,.42,1.66,.93,2.69,2.42,3.57,4.09,.58,1.11,1.12,2.93,2.58,2.67,1.86-.33,1.76-2.12,1.48-3.7-.06-.31-.05-.74,.12-.98,1.93-2.71,.32-4.55-1.46-6.35,.95,.01,1.91-.02,2.86,.07,1.06,.09,1.62,.71,1.51,1.61-.23,1.9-.48,3.8-.72,5.7,.18-.14,.38-.25,.57-.38,.77-4.1,2.73-7.51,6.9-10.65,1.12-.85,2.17-1.74,3.18-2.65,2.7-6.93,3.84-13.43,2.74-21.08-.19-1.3-.38-2.59-.57-3.87-.17-.05-.34-.09-.5-.15-.18-.06-.32-.58-.27-.85,.05-.27,.32-.66,.55-.71-.27-2.05-.47-4.1-.5-6.15-2.61-.3-4.05,.97-4.5,3.54-.49,2.8-.92,5.61-1.44,8.41-.4,2.19-1.82,3.46-3.93,2.68-2.95-1.08-5.39-.85-7.93,.86-.59,.4-1.62,.21-2.44,.15-1-.07-1.52-1.43-1.08-2.36,.87-1.83,2.71-2.42,4.2-3.46,.35-.24,.42-.58,.11-.85-.24-.21-.57-.33-.88-.45-.15-.06-.37-.1-.49-.03-2.12,1.25-4.73,1.84-5.88,4.42-.19,.42-.66,.75-1.07,1.02-.61,.4-1.28,.39-1.84-.12-.55-.5-.78-1.25-.36-1.81,.79-1.05,1.79-1.95,2.67-2.95,.47-.54,.59-1.2,.19-1.85-.43-.71-1.08-1.43-.55-2.29,.78-1.27,1.34-2.75,2.74-3.52,.63-.35,1.3-.15,1.89,.23,1.28,.83,2.23,.29,2.99-.78,1.46-2.05,3.01-4.06,3.91-6.44,1.95-5.19,3.49-10.49,4.36-15.97,.15-.96-.26-1.6-1.07-2.05-.86-.48-1.86-.24-2.09,.57-.19,.64-.29,1.31-.42,1.96-.3,1.53-.88,2.9-2.37,3.66-.94,.48-1.58,1.23-2.04,2.15-.98,1.94-2.14,3.81-2.9,5.84-1.95,5.22-5.05,9.83-7.51,14.77-.44,.88-1.11,1.68-1.8,2.39-.6,.63-1.45,.84-2.32,.52-1.26-.47-2.5-.97-3.74-1.47-1.55-.62-2.86-.71-3.84,1.04-.44,.79-1.4,.77-2.27,.57-2.7-.61-4.93-2.09-7.03-3.77-2.75-2.19-5.36-4.56-8.18-6.66-2.11-1.57-3.36-3.71-4.55-5.92-.85-1.57-.16-2.65,1.55-2.65,.33,0,.67,.06,1,.13,1.51,.35,3.08-1.01,4.42-.16,1.53,.98,2.78,2.39,4.13,3.63,1.48,1.37,2.73,2.93,3.9,4.59,.66,.94,1.62,1.68,2.5,2.45,.21,.18,.68,.24,.94,.13,.56-.23,.59-.8,.38-1.26-.93-1.97-1.89-3.93-2.87-5.87-.98-1.94-2.02-3.85-2.98-5.8-.1-.2,.09-.75,.28-.83,.22-.1,.69,.05,.87,.25,.89,1,1.81,2,2.54,3.12,.91,1.39,1.33,3.06,2.55,4.3,1.16,1.18,2.16,2.52,3.23,3.78,1-.47,.43-1.13,.22-1.63-1.51-3.73-3.16-7.4-3.97-11.37-.21-1.01-.18-1.98,.34-2.92,.41-.73,1.71-.98,2.14-.32,.64,.98,1.19,2.02,1.79,3.02,.34,.56,.65,1.26,1.41,1.25,.89-.01,.89-.83,1.05-1.46,.39-1.45,.75-2.91,1.2-4.34,.21-.68,.8-1.08,1.51-1.13,.72-.05,1.36,.32,1.7,.89,.85,1.46,1.43,3.03,1.43,4.76,0,.5-.14,1.01-.09,1.5,.08,.86,.37,1.64,1.28,1.96,.64,.22,1.54-.49,1.78-1.44,.16-.65,.26-1.32,.35-1.98,.6-4.16,2.58-7.55,5.78-10.24,.9-.76,1.69-1.52,2.21-2.66,1.52-3.37,2.41-3.7,5.71-2.49q1.52,.56,2.6-.87c1.03-1.37,1.71-1.35,2.64-.07,1.77,2.44,2.56,5.12,1.89,8.07-.42,1.86-.28,3.6,.11,5.45,.6,2.78,.86,5.63,1.37,8.43,.27,1.46,.71,2.88,1.15,4.3,.56,1.81,1.78,2.83,3.47,3,.08-1.32,.24-2.64,.52-3.98,.03-.15,.09-.3,.12-.45-1.33-6.29-1.62-12.91-2.11-19.15-2.95-3.7-5.26-7.59-5.66-11.49-.34-.35-.67-.7-.97-1.08-.27-.35-.36-.96-.29-1.41,.25-1.61,1.68-2.92,1.09-4.78-.5-1.59,1.48-2.53,1.21-4.22-.14-.88,.94-1.29,1.85-1.19,.66,.07,1.31,.27,1.95,.47,.6,.19,1.19,.35,1.77,.46,2.99-1.74,6.44-2.57,9.71-3.97,3.86-1.65,7.41-2.38,11.06-2.63,.04-.05,.05-.1,.09-.14,2.19-2.61,4.92-4.51,7.94-6.03,1.2-.6,2.23-.09,3.35,.29,1.91,.65,2,.55,2.89-1.95,.54,.36,1.1,.69,1.61,1.08,.87,.64,1.79,.84,2.83,.51,.79-.25,1.61-.41,2.36-.75,.69-2.02,1.51-4.05,2.43-6.21,1.09-2.53,1.88-5.12,2.65-7.72-.06-1.68-.18-3.38-.38-5.11Zm-12.3-33.99c-.19-.1-.38-.63-.29-.79,.65-1.04,1.91-1.58,2.83-1.29,.13,.04,.22,.23,.33,.34-.11,1.06-1.97,2.22-2.87,1.73ZM32.14,214.48c-.93,.06-1.87,.1-2.81,.17-.95,.07-1.59-.3-1.93-1.21-.35-.94-.75-1.86-1.12-2.8-.75-1.89-.76-1.94,1.41-2.35,.72-.14,1.25-.35,1.57-1.01,.23-.47,.55-1.01,1.12-.64,.83,.53,1.58,1.2,2.29,1.88,.19,.18,.22,.63,.18,.94-.21,1.65-.47,3.3-.72,5.02Zm5.99,291.47c-.14,.05-.55-.27-.59-.48-.1-.46-.07-.95-.08-1.42,.46-.1,1.04-.35,1.31-.17,.48,.31-.02,1.86-.64,2.07Zm7.97,6.93c-.25,.02-.52-.28-.78-.43-.02-.57,.24-.97,.8-.99,.25-.01,.68,.24,.74,.46,.17,.57-.23,.94-.76,.97Zm9.54-253.13c2.15-1.84,4.33-3.63,6.82-5.01,.44-.24,1-.38,1.31,.15,.12,.21,0,.72-.18,.93-1.91,2.13-4.02,3.99-6.9,4.7-.31,.08-.64,.05-.96,.07-.08-.13-.21-.25-.23-.38-.01-.15,.04-.36,.15-.45Zm-19.47-27.6c1.06-.13,1.95,.63,2.02,1.73,.09,1.43-.71,2.54-1.8,2.52-.92-.02-1.67-.89-1.79-2.06-.11-1.11,.58-2.05,1.57-2.18Zm-8.12,95.74c-.18-.59,.23-.92,.78-.91,.27,0,.71,.23,.77,.44,.18,.6-.24,.86-.81,.93-.25-.14-.68-.25-.75-.47Zm3.14,38.51c-.55,2.1-1.27,4.15-2.14,6.91-1.02-1.7-.76-2.86-.58-4.01,.18-1.15,.44-2.29,.59-3.44,.17-1.3,.56-1.86,1.16-1.57,.9,.45,1.18,1.3,.97,2.1Zm1.23-9.08c-.55,.3-1.4-.23-1.4-.88,0-.26,.23-.64,.46-.76,.6-.31,1.31,.17,1.4,.88-.15,.26-.24,.64-.47,.76Zm-1.33-44.06c.38-.35,.87-.23,1.26,.11,.39,.34,.62,.79,.4,1.26-.1,.2-.53,.25-.8,.36-.27-.16-.59-.27-.79-.49-.36-.37-.44-.88-.06-1.24Zm9.76-1.88c-.29,.32-.51,.76-.69,.75-3.68-.27-7.12-1.24-10.02-3.64-.34-.28-.45-.85-.63-1.31-.05-.13-.02-.38,.07-.47,.2-.21,.55-.57,.69-.52,3.36,1.31,6.71,2.66,10.04,4.05,.45,.19,.65,.72,.54,1.14Zm20.6,41.89c.32-.76,.74-1.48,1.19-2.17,.15-.24,.54-.32,.82-.48,1.02-.17,2.58,1.08,2.89,2.31,.28,1.12-.49,2.35-1.73,2.59-.63,.12-1.32,.1-1.97,0-1.07-.16-1.64-1.24-1.2-2.26Zm4.82,180.42c-1.12,.4-2.19-.14-2.73-1.39-.07-.17,.21-.71,.38-.74,1.22-.19,2.5,.47,2.85,1.37-.16,.26-.28,.67-.51,.76Zm1.58-243.51c-.71,2.59-1.43,5.18-2.22,7.74-.48,1.55-.43,2.95,.49,4.32,.35,.52,.98,1.2,.29,1.7-.45,.33-1.3,.32-1.9,.17-2.14-.53-4.32-.51-6.49-.7-7.18-.66-14.33-1.59-21.33-3.44-2.11-.56-4.16-1.35-6.02-2.52-1.22-.77-2.1-1.92-1.85-3.34,.4-2.25-.43-4.75,1.37-6.75,.6-.67,.43-1.52-.05-2.33-.99-1.7-.91-3.54-.36-5.36,.35-1.17,1.12-2.03,2.17-2.67,1.06-.66,1.85,.08,2.8,.32,2.62,.66,5.14,1.36,6.94,3.57,.27,.33,.85,.59,1.28,.59,4.53-.06,9.07-.15,13.6-.31,.99-.03,1.96-.45,2.96-.56,.44-.05,1.09,.12,1.32,.43,.21,.29,.16,1.03-.08,1.35-1.62,2.13-3.33,4.21-5.01,6.3-.52,.65-1.1,1.27-1.56,1.96-.12,.17,.09,.57,.17,.85,0,.02,.36,0,.46-.1,2.06-1.97,4.09-3.98,6.18-5.93,1.22-1.14,2.48-2.26,3.85-3.21,1.51-1.04,2.91-.37,3.38,1.49,.21,.81,.3,1.64,.49,2.76-.25,1.06-.5,2.37-.85,3.66Zm1.04-90.59c-.16,.26-.34,.63-.59,.69-.63,.17-1.29,.21-2.04,.31-.73-.18-1.56-.29-2.3-.61-.63-.27-.99-.91-.85-1.62,.14-.69,.69-1.21,1.38-1.22,1.73-.02,3.18,.71,4.33,2.01,.09,.1,.13,.34,.07,.44Zm50.63,238.1c.87-.29,1.69-.96,2.7-.46-.25,1.73-1.56,.99-2.51,1.06-.13,0-.27-.15-.4-.24,.07-.13,.11-.33,.21-.36Zm-7.17,1.17c.49-.03,.93,.08,.97,.63,.01,.16-.37,.48-.56,.48-.25,0-.59-.21-.72-.43-.07-.12,.2-.45,.32-.68Zm18.31-99.37c.7,1.8,.6,3.21,.06,4.6-.1,.25-.42,.53-.68,.57-.18,.03-.57-.3-.6-.51-.28-1.61-.09-3.12,1.22-4.66Zm-54.94-159.48c.3-.06,.67-.15,.93-.04,4.3,1.72,8.59,3.5,12.61,5.82,.5,.29,.78,1.01,1.05,1.58,.08,.17-.24,.75-.39,.75-.47,.01-1-.06-1.43-.26-1.79-.87-3.61-1.69-5.29-2.74-2.13-1.32-4.39-2.29-6.73-3.13-.62-.22-.99-.86-.99-1.6,.08-.13,.14-.35,.24-.37Zm.92,347.58c-.13-.03-.29-.19-.32-.32-.21-.76,.24-1.19,.84-1.5,.13-.06,.41-.08,.45-.01,.15,.24,.22,.53,.33,.79-.22,.61-.43,1.25-1.29,1.03Zm2.9-6.25c-.18-.2-.52-.41-.51-.61,.06-1.19,.64-1.9,1.63-1.99,.19-.02,.59,.35,.58,.53-.05,.91-.9,1.88-1.7,2.07Zm14.51-11.82c-1.67-.16-3.33-.34-4.99-.57-.65-.09-1.3-.29-1.93-.52-.69-.25-1.22-1.44-.95-2.12,.3-.76,.93-.85,1.64-.71,.16,.03,.33,.06,1.04,.19,1.84,.11,4.14,.53,5.72,2.59,.19,.25,.24,.6,.36,.9-.3,.08-.61,.26-.9,.24Zm10.92-5.84c.08-.21,.56-.41,.82-.37,1.04,.15,1.83,.71,2.29,1.67-.04,.16-.04,.34-.13,.43-.1,.1-.31,.19-.42,.14-.75-.32-1.52-.63-2.22-1.04-.22-.13-.42-.62-.34-.83Zm-1.24-8.34c.65,.6,.55,1.88-.23,2.1-2.43,.69-4.74,1.59-6.89,2.99-.9,.58-2.25,.56-3.41,.6-2.35,.09-4.7-.09-7,.63-.82,.26-1.66,.12-2.41-.38-.71-.48-1.44-1.07-1.42-1.95,.03-1.06,1.01-1.22,1.85-1.27,2.82-.18,5.55-1.21,8.47-.77,1.26,.19,2.62-.33,4.39-.59-1.06-1.39-2.11-1.44-3.05-1.73-1.6-.49-3.19-1.01-4.77-1.59-.23-.09-.48-.53-.46-.8,.01-.27,.3-.59,.55-.75,1.5-.98,3.2-.91,4.88-.83,1.79,.09,8.03,3,9.5,4.34Zm5.2-32.98c2.33-2.15,4.89-4.05,7.38-6.02,.19-.15,.7-.11,.9,.05,.19,.15,.2,.57,.23,.87,.01,.14-.1,.33-.2,.45-3.05,3.33-6,6.76-9.19,9.94-3.68,3.67-7.87,6.72-12.35,9.4-2.29,1.37-4.29,3.2-6.45,4.77-.52,.38-1.17,.57-1.79,.86-.48-.36-1.13-.59-1.21-.95-.64-2.69-2.51-4.71-3.71-7.09-.31-.61,.07-1.47,.77-1.54,2.89-.27,5.56-1.1,7.96-2.77,.76-.52,1.67-.31,2.34,.25,1.89,1.57,3.73,1.1,5.56-.04,.91-.56,1.51-1.34,1.31-2.49-.2-1.18,.17-2.07,1.42-2.17,2.84-.24,4.98-1.64,7.03-3.52Zm-.39-20.5c.14,.02,.39,.23,.37,.29-.09,.29-.19,.76-.39,.82-2.08,.56-4.18,1.06-6.24,1.57-.55-.1-1.09-.08-1.51-.3-1.75-.94-3.56-1.84-4.85-3.44-.09-.11-.13-.34-.08-.47,.05-.13,.25-.3,.36-.29,.66,.09,1.31,.24,1.97,.34,3.45,.5,6.91,.99,10.36,1.49Zm-6.32-35.26c-.12-.09-.26-.24-.27-.38-.05-.37,.18-.56,.59-.45,.93,.24,1.69,.75,2.32,1.45-.91-.06-1.84-.07-2.64-.63Zm14.52-40.13c-1,4.22-1.9,8.47-2.97,12.68-1.07,4.2-2.14,8.38-2.04,12.79-2.17-4.26-2.32-8.82-1.47-13.16,.91-4.72,1.78-9.53,3.65-14.03,.31-.75,.78-1.46,1.27-2.12,.14-.19,.62-.23,.91-.16,.28,.07,.63,.31,.74,.57,.47,1.14,.19,2.29-.08,3.44Zm-25.45-72.57c2.62-1.18,5.27-2.24,8.16-.57,1.61,.93,3.38,.33,4.84-.37,2.99-1.42,6.26-2.3,8.84-4.61,1.74-1.57,3.88-2.55,6.15-3.34,1.88-.65,3.6-1.76,5.38-2.7,1.92-1.02,3.8-2.14,5.75-3.11,1.33-.66,2.73-.07,3.28,1.36,.47,1.22,.74,2.52,1.09,3.75,1.16,.09,1.65-.68,1.99-1.4,.64-1.35,1.08-2.8,1.67-4.18,.09-.21,.49-.32,.77-.4,.1-.03,.34,.12,.4,.24,1.04,2.11,2.18,4.28,1.4,6.69-.71,2.2,.04,3.53,1.88,4.56,.24,.13,.49,.57,.44,.82-.1,.58-.68,.73-1.13,.63-1.76-.4-2.73,.08-3.31,1.96-.48,1.55-2.08,2.6-2.56,4.27-.26,.93-.94,1.28-1.92,1.16-1.48-.19-2.5,.54-3.23,1.75-5.86-.03-11.71-.08-17.57,.08-5.87,.16-11.74-.02-17.61-.05-1.17,0-2.35-.05-3.52-.07-1.56-.03-2.42-.89-2.88-2.33-.6-1.89-.14-3.32,1.69-4.15Zm2.28,153.59c1.61,.48,3.48-.65,4.55,1.28-1,1.29-2.54,1.41-3.95,1.77-1.44,.36-2.92,.63-4.39,.85-.76,.11-1.6-.71-1.71-1.5-.11-.82,.44-1.84,1.19-1.95,1.47-.21,2.96-.31,4.32-.44Zm-5.04-33.89c-.15,1.98-.33,3.96-.52,5.94-.16,1.68-.15,3.32,.34,4.97,.79,2.63,.78,5.29,0,7.91-.49,1.63-.55,3.27-.57,4.96-.04,3.86-.47,7.66-2.17,11.21-.38,.81-.35,1.59-.19,2.43,.38,2.07-.33,3.94-1.18,5.76-.04,.09-.31,.14-.45,.11-.14-.02-.29-.14-.37-.26-.08-.13-.14-.32-.11-.47,.97-4.31,.21-8.67,.46-13,.2-3.54-1.19-6.9-.99-10.46,.19-3.5-.07-7-.89-10.46-.4-1.7-.72-3.23-2.41-4.12-.93-.49-1.4-1.4-1.65-2.41-.28-1.14-.62-2.26-.85-3.41-.25-1.3-.78-2.71-.5-3.91,.37-1.58,2.27-.96,3.42-1.49,.63-.29,1.2-.64,1.42-1.31,.27-.84-.19-1.56-.49-2.29,.95,.14,1.94,.19,2.84,.48,1.58,.51,1.69,1.25,.57,2.88-.71,1.03-.65,1.42,.31,1.96,.44,.24,.89,.48,1.35,.65,2.05,.74,2.78,2.27,2.63,4.32Zm-2.58-48.27c-.54,2.75,0,5.29,.2,7.92,.08,1,.4,1.97,.49,2.97,.25,2.85-.09,3.12-3.09,2.56-.68-.13-1.29,.54-1.08,1.24,.34,1.12,.75,2.21,1.08,3.33,.18,.6-.5,1.36-1.15,1.3-.83-.08-1.65-.31-2.48-.33-.45,0-1.05,.18-1.33,.5-.35,.41-.05,.94,.36,1.28,1.28,1.08,2.62,2.09,3.85,3.23,.59,.55,1.02,1.29,1.45,1.99,.37,.6-.1,1.42-.82,1.43-.49,0-1-.2-1.49-.16-1.32,.1-2.42,1.29-1.9,2.35,1.34,2.71,.78,5.48,.67,8.26-3.36-.48-6.27-1.96-8.73-4.24-1.39-1.29-1-2.7,.64-3.67,1.49-.88,3.16-1.04,4.78-1.4,.13-.03,.34-.26,.32-.33-.1-.3-.21-.74-.42-.82-.94-.33-1.93-.52-2.88-.82-.3-.09-.58-.34-.82-.56-1.07-.99-2.13-1.99-3.2-2.99,1.11-2.15,3.34-2.59,4.66-4.11,.88-1.02,1.33-1.9,.3-3.05-.34-.38-.53-1,0-1.25,.29-.15,.91,.16,1.28,.41,.53,.37,.9,1,1.65,1,.15,0,.32-.09,.43-.2,.1-.1,.22-.31,.18-.42-.11-.29-.26-.6-.47-.82-.66-.7-2.01-1.1-1.64-2.25,.18-.56,1.38-.75,2.05-1.2,.44-.3,.53-.83,.25-1.33-.6-1.08-1.6-1.69-2.67-2.19-1.85-.86-3.5-1.99-4.74-3.64-.29-.39-.6-.78-.36-1.33,.79-.25,1.13,.45,1.65,.77,1.89,1.15,2.32,1.04,3.56-.86q1.21-1.84,3.51-1.2c1.15,.32,1.48,.05,1.64-.95,.37-2.37-.85-4.19-1.91-6.08-.24-.44-.36-.99,.12-1.34,.23-.17,.63-.21,.94-.17,4.1,.5,5.84,3.55,5.13,7.16Zm-3.43-12.79c.11-.09,.31-.11,.47-.1,1.01,.09,1.61,1.1,1.57,2.82-.2,.23-.42,.7-.79,.89-.48,.24-.95-.08-1.23-.51-.8-1.2-.79-2.49,0-3.1Zm17.99-139.01c-.43,.91-1.22,.98-2.1,.84-.82-.13-1.69-.49-2.44-.32-1.81,.41-2.84-.45-3.75-1.79-.56-.82-1.16-1.63-1.84-2.35-.58-.61-1.33-1.01-1.89-.93-1.06,.08-1.67,.39-1.87,1.09-.18,.63-.08,1.34-.27,1.95-.35,1.13-1.55,1.72-2.81,1.5-.95-.16-1.63-1.08-1.65-2.19-.04-1.66,.64-2.85,2.09-3.68,1.74-.98,3.82-1.05,5.49-2.32,.9-.69,1.82,.63,2.76,.64,1.52,.02,2.52,.48,3,2.03,.25,.8,1.04,1.25,1.83,1.58,.91,.39,1.83,.79,2.68,1.29,.89,.52,1.2,1.72,.77,2.63Zm44.1,33.77c.26,.12,.7,.21,.73,.38,.1,.53-.28,.86-.77,.89-.24,.02-.66-.2-.71-.39-.16-.56,.25-.79,.75-.88Zm43.9-54.4c-.94,.64-1.9,1.27-2.93,1.76-.68,.33-1.6,1.04-2.2,.18-.41-.59-.4-1.57-.36-2.36,.05-.93,.82-1.37,1.63-1.6,.62-.17,1.28-.23,1.92-.33,.49,.14,1.02,.19,1.41,.44,.38,.25,.71,.66,.9,1.08,.08,.19-.16,.67-.38,.83Z"/><path d="M35.31,161.1c-.47-1.49-.83-2.84-.31-4.35,.78-2.25,.2-4.28-1.52-5.98-.35-.35-.64-.78-.88-1.22-.39-.72-.92-1.42-.64-2.34,.18-.59,1.29-.69,2.73-.23,.16,.05,.32,.11,.47,.18,2.99,1.48,4.76,1.22,5.15-3.38,.3-3.49,.36-7.04-.37-10.51-.52-2.5-.55-4.98-.28-7.49,.03-.24,.38-.6,.59-.61,.25,0,.63,.25,.75,.49,1.23,2.56,2.6,5.06,3.07,7.91,.14,.82,.35,1.64,.59,2.44,.36,1.18,1.15,1.63,2.29,1.3,.8-.23,1.56-.63,2.37-.82,1.2-.29,2.38,.39,2.84,1.53,.13,.31,.21,.63,.31,.95,1.91,6.59,3.86,13.16,5.71,19.77,1.49,5.32,2.87,10.66,4.28,16,.26,.97,.43,1.97,.58,2.96,.14,.91-.62,1.72-1.49,1.54-.97-.2-1.94-.47-2.86-.84-3.41-1.37-6.51-3.37-10.12-4.38-2-.56-3.99-1.93-5.43-3.45-1.31-1.39-2.37-3.24-2.69-5.29-.08-.5-.09-1.01-.21-1.49-.41-1.7-1.31-2.33-2.89-1.67-1.3,.54-2.49,.84-3.87,.45-1.31-.36-2.64-.13-3.98,.09-2.31,.38-4.65,.6-6.98,.84-.19,.02-.61-.34-.6-.5,.02-.28,.23-.69,.46-.79,.75-.33,1.54-.71,2.34-.75,1.84-.1,3.68-.03,5.52-.01,1.65,.02,3.32,.3,5.04-.34Z"/><path d="M140.78,171.66c.75-3.11,.52-6.32,1.08-9.47,.55-3.1,.33-6.35,.37-9.53,.03-2.53-.14-5.03,2.23-6.85,.54-.41,.62-1.5,.79-2.3,.43-1.96,.78-3.94,1.22-5.89,.05-.21,.47-.48,.72-.48,.29,0,.62,.22,.85,.43,1.24,1.19,1.37,2.7,.85,4.19-.83,2.38-.59,4.61,.52,6.8,.64,1.28,.15,2.07-.9,2.97-1.65,1.42-1.79,3.5-1.57,5.53,.13,1.17,1.36,2.16,2.5,2.04,1.81-.18,3.58-.79,5.45-.22,.83,.25,1.63-.29,2.24-.9,4.49-4.51,9.92-4.15,15.49-2.99,.29,.06,.66,.35,.74,.61,.17,.57-.33,.87-.75,1.06-1.22,.56-2.42,1.19-3.7,1.56-5.28,1.51-9.59,4.72-13.98,7.8-.71,.5-.77,.99,.04,1.52,.39,.26,.28,.53-.19,.64-.96,.21-2.33-.15-2.81,.76-1.18,2.25-3.44,2.44-5.37,3.31-1.06,.48-2.07,1.08-3.15,1.52-1.21,.5-2.76-.77-2.66-2.11Z"/><path d="M141.11,140.53c.08,2.01-.03,3.99-.43,5.99-1.56,7.69-3.93,15.2-4.87,23.02-.03,.27-.36,.53-.58,.76-.32,.33-.9-.18-.91-.86-.03-1.67-.21-3.38,.03-5.02,.39-2.65,1.15-5.24,.32-7.94-.13-.43,.06-1,.19-1.48,1.29-4.89,1.65-9.86,1.46-14.89-.09-2.22,.75-4.27,1.37-6.35,.19-.65,.77-1.18,1.53-.99,.43,.11,.96,.47,1.11,.85,.36,.92,.66,1.9,.75,2.88,.12,1.33,.03,2.68,.03,4.02Z"/><path d="M18.46,153.38c-.1,.13-.18,.3-.31,.36-.14,.06-.36,.07-.49,0-1.15-.65-2.38-1.22-2.99-2.49-.13-.26-.11-.7,.03-.94,.14-.24,.56-.51,.79-.46,1.57,.35,2.9,2,2.96,3.53Z"/><path d="M180.71,174.05c1.58,.47,2.83,1.42,4.01,2.67q-2.05-.34-4.01-2.67Z"/><path d="M17.19,167.86c.04,.27,.21,.67,.1,.8-.41,.46-.92,.84-1.41,1.23-.1,.08-.33,.09-.46,.04-.11-.05-.25-.25-.24-.36,.11-.82,1.34-1.84,2.01-1.69Z"/></g></g></svg>