<?xml version="1.0" encoding="UTF-8"?><svg id="Layer_2" xmlns="http://www.w3.org/2000/svg" viewBox="0 0 465.34 240.43"><defs><style>.cls-1{fill:#b7b7b7;}.cls-2{fill:#a7a7a7;}.cls-3{fill:#6f5b05;}.cls-4{fill:#12870c;}.cls-5{fill:#16c20c;}.cls-6{fill:#836b04;}.cls-7{fill:#8b8b8b;}.cls-8{fill:#c5c5c5;}.cls-9{fill:#cbcbcb;}.cls-10{fill:#575757;}.cls-11{fill:#13920c;}.cls-12{fill:#0e0d0c;}.cls-13{fill:#16c10c;}.cls-14{fill:#9c9c9c;}.cls-15{fill:#aeaeae;}.cls-16{fill:#bd9900;}.cls-17{fill:#0c0c0c;}.cls-18{fill:#14a20c;}.cls-19{fill:silver;}.cls-20{fill:#756005;}.cls-21{fill:#ab8b01;}.cls-22{fill:#a9a9a9;}.cls-23{fill:#a0a0a0;}.cls-24{fill:#b2b2b2;}.cls-25{fill:#a6a6a6;}.cls-26{fill:#bababa;}.cls-27{fill:#bf9a00;}.cls-28{fill:#131313;}.cls-29{fill:#139a0c;}.cls-30{fill:#b4b4b4;}.cls-31{fill:#4d4008;}.cls-32{fill:#c9c9c9;}.cls-33{fill:#a68602;}.cls-34{fill:#16c40c;}.cls-35{fill:#656565;}.cls-36{fill:#16c50c;}.cls-37{fill:#201c0b;}.cls-38{fill:#a4a4a4;}.cls-39{fill:#987b03;}.cls-40{fill:#14ab0c;}.cls-41{fill:#a78702;}.cls-42{fill:#646464;}.cls-43{fill:#aa8a01;}.cls-44{fill:#967a03;}.cls-45{fill:#15b10c;}.cls-46{fill:#947903;}.cls-47{fill:#3a3009;}.cls-48{fill:#101010;}.cls-49{fill:#15b00c;}.cls-50{fill:#0c130c;}.cls-51{fill:#15ae0c;}.cls-52{fill:#937803;}.cls-53{fill:#15ac0c;}.cls-54{fill:#767676;}.cls-55{fill:#a98902;}.cls-56{fill:#e1e7e1;}.cls-57{fill:#9e8002;}.cls-58{fill:#977a03;}.cls-59{fill:#b8b8b8;}.cls-60{fill:#15b70c;}.cls-61{fill:#13980c;}.cls-62{fill:#a1a1a1;}.cls-63{fill:#181818;}.cls-64{fill:#997d03;}.cls-65{fill:#c8c8c8;}.cls-66{fill:#14a90c;}.cls-67{fill:#13970c;}.cls-68{fill:#c09b00;}.cls-69{fill:#bc9800;}.cls-70{fill:#ba9600;}.cls-71{fill:#957903;}.cls-72{fill:#171717;}.cls-73{fill:#0d200c;}.cls-74{fill:#12840c;}.cls-75{fill:#aaa;}.cls-76{fill:#afafaf;}.cls-77{fill:#a38402;}.cls-78{fill:#bebebe;}.cls-79{fill:#adadad;}.cls-80{fill:#c1c1c1;}.cls-81{fill:#161616;}.cls-82{fill:#b1b1b1;}.cls-83{fill:#16bf0c;}.cls-84{fill:#ad8c01;}.cls-85{fill:#ababab;}.cls-86{fill:#757575;}.cls-87{fill:#15bc0c;}.cls-88{fill:#4a3e08;}.cls-89{fill:#a68702;}.cls-90{fill:#bbb;}.cls-91{fill:#b3b3b3;}.cls-92{fill:#b08e01;}.cls-93{fill:#705b05;}.cls-94{fill:#606060;}.cls-95{fill:#917603;}.cls-96{fill:#149e0c;}.cls-97{fill:#a8a8a8;}.cls-98{fill:#acacac;}.cls-99{fill:#b99600;}.cls-100{fill:#595959;}.cls-101{fill:#c6c6c6;}.cls-102{fill:#c4c4c4;}.cls-103{fill:#888;}.cls-104{fill:#ac8b01;}.cls-105{fill:#5e5e5e;}.cls-106{fill:#b89501;}.cls-107{fill:#14aa0c;}.cls-108{fill:#9c7e03;}.cls-109{fill:#b9b9b9;}.cls-110{fill:#149b0c;}</style></defs><g id="Layer_1-2"><path class="cls-17" d="M464.8,240.43H0V.43C.73-.26,1.52,.08,2.29,.08c153.37-.02,306.74-.02,460.1,0,.76,0,1.54-.23,2.31,.23,.54,1.08,.3,2.38,.3,3.57,.01,77.75,.01,155.5,0,233.25,0,1.1,.16,2.26-.2,3.3Z"/><path class="cls-42" d="M166.07,116.2v-7.96h6.09c-.49,.54-.8,.87-1.21,1.32h-2.93c-.64,.37-.48,.78-.52,1.14,.8,1,2.2-.21,2.99,.76v.76c-.8,.84-1.91,.06-2.71,.42-.48,.65-.22,1.27-.24,1.91,1.09,.69,2.41-.09,3.25,.73,.43,.19,.86,.38,1.3,.57-.07,.11-.14,.23-.21,.34h-5.81Z"/><path class="cls-77" d="M136.7,167.91v1.4h-2.46c-.7,.76-.49,1.45-.23,2.28h3.09c.48,.48,.83,.83,1.37,1.37h-6.06v-7.86h5.63q-1.11,1.3-4.17,1.55v1.26h2.85Z"/><path class="cls-30" d="M120.37,98.38v2.14h3.2c.48,.48,.83,.83,1.47,1.47-2.16,.24-4.06,.07-6.1,.15v-8.16c1.75-.2,3.68-.02,5.65-.1,.12,.83-.58,1.01-.93,1.57h-3.24c-.04,.46-.07,.8-.09,1.1,.88,.75,1.99-.06,2.9,.61v1.22h-2.85Z"/><path class="cls-109" d="M136.34,156.71h-2.2c-.77,.54,0,1.46-.62,2.12-.26,.02-.6,.05-1.09,.09v-8.14h4.15c.26,.44,.7,1.2,1.13,1.96,.15-.12,.31-.24,.46-.36v2.61c-.39,.25-1.12,.72-1.84,1.19,0,.18,0,.35,0,.53Z"/><path class="cls-109" d="M123.05,108.23c.48,.49,1.1,1.1,1.73,1.73v2.29c-.59,.53-1.24,1.11-1.99,1.78-.66,.03-1.5,.08-2.36,.12-.08,.71-.15,1.3-.22,1.86-.25,.44-.66,.26-1,.32-.1-.09-.27-.17-.27-.25-.01-2.57-.01-5.15-.01-7.85h4.12Z"/><path class="cls-79" d="M143.52,186.6c-.92,1.51-2.34,.31-3.43,.84-2.05-2.28-.56-4.86-1.15-7.17,.41-.35,.78-.66,1.35-1.15,.88,.44,2.3-.76,3.23,.74,.27,.23,.47,.53,.75,.75v.75c.57,1.25,.57,2.49,0,3.74v.75c-.28,.22-.48,.52-.75,.75Z"/><path class="cls-22" d="M171.25,153.71c.8,.14,.96-1.29,1.81-.72,.94-.59-.13-1.82,.92-2.28,1.48-.06,1.59,1.18,2.04,2.16,.57,.06,1.15,.12,1.66,.18,.47,.31,.28,.7,.3,1.05-.52,.75-1.43,.04-2.04,.53-.39,.8-.15,1.65-.16,2.49,.53,.74,1.44-.01,2.11,.59,.02,.25,.06,.59,.1,1.08h-3.41c-.83-1.1-1.3-2.5-1.08-4-.78-.55-1.54-.23-2.25-.33-.19-.17-.25-.33-.19-.5,.06-.17,.13-.25,.19-.25Z"/><path class="cls-75" d="M184.7,140.14c-.81,.09-1.4,.15-2.1,.22v2.67c.42,.61,1.32-.1,1.73,.22,.53,.44,.39,.81,.35,1.24-1.02,.51-2.14,.13-3.2,.26-1-1.24-1.5-2.63-1.22-4.08-.58-.62-2.09-.23-1.35-1.78,.27-.05,.61-.12,1.06-.21,.75-.46-.29-1.67,.77-2.2,1.19,.17,1.74,.99,1.84,2.03,.72,.65,2.36-.48,2.1,1.64Z"/><path class="cls-26" d="M154,140.93h1.96c.56-.57,.17-1.23,.3-1.8,.36-.44,.79-.48,1.29-.23,.4,.98,.4,1.87-.63,2.48,.45,1.13,.75,2.22,1.57,3.01-.66,.62-1.31,.15-1.86,.4-.51-.97-.73-2.1-1.77-2.35-1.59,.32-.28,1.66-1.19,2.22h-1.02v-8.83h1.36v5.09Z"/><path class="cls-26" d="M179.61,93.21h1.25v4.66c.72,.8,1.44,.49,2.15,.36,.63-.55-.22-1.48,.5-2.01,.25-.03,.48-.06,.72-.09,.79,.45,.76,.84-.32,2.88,.46,.9,.96,1.88,1.46,2.85-.6,.43-1.22,.18-1.8,.2-.6-.79-.53-2.19-2-2.2-1.34,.29,0,1.64-.84,2.13-.34,.14-.68,.21-1.11-.14v-8.65Z"/><path class="cls-26" d="M247.05,150.04h1.36v5.09h1.96c.56-.57,.17-1.23,.3-1.8,.36-.43,.79-.5,1.27-.23,.57,1.01,.22,1.83-.63,2.67,.48,.95,.98,1.94,1.48,2.93-.55,.51-1.2,.05-1.72,.28-.69-.82-.6-2.23-2.05-2.29-1.34,.27-.03,1.61-.95,2.17h-1.02v-8.83Z"/><path class="cls-75" d="M200.16,110.39c.58-.91-.09-1.8,.77-2.32,1.36,.02,1.65,1.1,2.02,2.15,.56,.06,1.15,.13,1.71,.2,.44,.26,.27,.66,.31,1.01-.5,.8-1.39,.13-2.03,.55-.46,.77-.12,1.64-.22,2.47,.52,.76,1.41,.08,1.58,.2,.81,.59,.64,.97,.65,1.5h-3.52c-.51-1.29-1.32-2.51-.89-4.04-.55-.2-.98-.35-1.43-.5-.32-.92-.13-1.44,1.05-1.22Z"/><path class="cls-75" d="M162.49,96.08c.83,.14,1.48-.17,1.97,.34q.13,1.04-1.92,1.3c-.62,.77-.02,1.67-.34,2.38,.56,.91,1.45,.24,2.13,.68,.34,.2,.13,.61,.19,1.01-1.14,.66-2.35,.1-3.44,.36-.6-1.48-1.44-2.7-1.03-4.06-.38-.76-1.72-.13-1.52-1.37-.03-1,1.07-.28,1.37-.86,.41-.57-.27-1.46,.53-2,1.37,0,1.68,1.06,2.07,2.22Z"/><path class="cls-75" d="M135.28,100.5c.84,.09,1.42,.15,1.93,.2,.48,.31,.26,.71,.34,1.2-1.18,.38-2.37,.18-3.52,.16-.42-1.44-1.6-2.57-.94-3.92-.47-.78-1.75-.23-1.56-1.43-.03-1.05,1.11-.25,1.37-.84,.4-.61-.27-1.49,.56-2.02,1.37,0,1.66,1.08,2.02,2.1,.58,.5,1.49-.24,2.02,.51,0,.35,.17,.74-.2,1.01-.6,.43-1.65-.29-1.97,.54-.25,.65-.05,1.47-.05,2.48Z"/><path class="cls-23" d="M136.03,144.67h-2.24v-6.53c-.83-.09-1.41-.15-1.94-.21-.48-.27-.28-.68-.37-1.34,2.19-.15,4.36-.04,6.33-.08,.61,.35,.42,.76,.46,1.1-.51,.79-1.39,.12-2.24,.68v6.37Z"/><path class="cls-51" d="M144.03,214.28s.62,.36,1.16,.68c-.59,1.11-1.28,.68-1.84,.81-.92-.59-.68-2.41-2.32-2.25-1.11,.42,0,1.66-.78,2.19-.28,.02-.52,.04-.76,.06-.1-.07-.28-.14-.28-.2-.01-2.81-.01-5.63-.01-8.64,.11-.18,.49-.13,1.09-.13,.55,1.57,0,3.29,.35,4.99,.44,.53,1.11,.11,1.67,.25,1.02-.47-.03-1.69,.84-2.23h.73c1.58,1.44-1.06,2.55,.16,4.49Z"/><path class="cls-51" d="M374.59,215.74h-2.11c-.57-.79-.64-2.05-2.04-2.24-1.27,.24-.18,1.51-.9,2.15-.22,.02-.56,.06-1.06,.12v-8.87c.34-.04,.67-.08,1.27-.16v4.92c.81,.54,1.42,.3,2,.3,.74-.54-.05-1.46,.6-2.1,.26-.02,.59-.04,.9-.06,.58,.56,.51,1.51,.28,1.75-1.72,1.73-.25,2.75,1.07,4.19Z"/><path class="cls-43" d="M231.42,41.49h1.96c.56-.57,.17-1.23,.3-1.8,.36-.43,.79-.5,1.27-.23,1.1,1.41-.93,2.37-.42,4,.32,.35,.84,.93,1.37,1.52-.64,.55-1.28,.22-1.86,.3-.64-.76-.55-2.17-2-2.23-1.34,.27-.04,1.61-.95,2.17h-1.02v-8.83h1.36v5.09Z"/><path class="cls-76" d="M226.83,136.58h5.54c.46,.36,.3,.74,.27,1.35h-4.13c-.47,.83-.31,1.43-.23,2.14,1.11,.54,2.85-.5,3.55,1.45-1,.55-2.23,0-3.34,.29-.73,.81,.11,1.93-.57,2.84h-1.09v-8.07Z"/><path class="cls-35" d="M172.87,109.68q.12-.51,.84-1.46h3.28c.23,.23,.58,.58,.94,.93-1.03,1.12-2.59-.19-3.65,.75-.01,.27-.02,.51-.03,.76,1.08,.88,2.67,.93,3.57,2.11q.08,1.97-.77,3.41h-4.08c-.28-.24-.35-.66,.07-1.4h3.5c-.15-2.68-3.35-2.16-3.67-5.11Z"/><path class="cls-90" d="M151.76,185.85c.11-.79,1.12-1.29,.75-2.24,.84-.85-.07-2.13,.75-2.99v-.75c1.87,.21,1.01,1.33,.75,2.24,0,.62,0,1.24,0,1.86,.58,.79,1.35,.1,2.13,.6v-4.94c.49-.57,.91-.63,1.45-.33,.61,1.89-.61,4.11,.97,5.77-.43,.83-.8,1.54-1.17,2.26-.98,.16-1.39-.26-1.01-1.48h-4.62Z"/><path class="cls-91" d="M213.34,97.12c.4-.4,.66-.66,.93-.92,2.64-.18,2.64-.13,4.12,.97v3.85c-1.12,1.7-2.72,.94-4.08,1.07-.31-.31-.57-.57-.97-.97v-4Z"/><path class="cls-91" d="M244.22,152.87l1.25,1.25c-.4,1.49,.83,3.39-1.21,4.75h-2.99c-1.9-1.37-.75-3.25-1.12-4.76l.95-.95c.98-.61,2.14,.12,3.12-.29Z"/><path class="cls-91" d="M248.14,102.2c-.62-.61-.88-.88-1.25-1.25,.37-1.5-.78-3.38,1.12-4.76h3.07c2,1.36,.6,3.28,1.19,4.7l-1.01,1.01c-.98,.61-2.14-.12-3.12,.29Z"/><path class="cls-91" d="M150.02,153.09c.4,.4,.66,.66,1.03,1.03-.37,1.5,.78,3.38-1.12,4.76h-3.08c-1.9-1.37-.75-3.25-1.12-4.76,.37-.37,.63-.63,1.03-1.03h3.26Z"/><path class="cls-91" d="M233.57,153.95c.4-.4,.66-.66,.93-.92,2.64-.18,2.64-.13,4.12,.97v3.84c-1.1,1.8-2.76,.79-4.01,1.15l-1.04-1.03v-4Z"/><path class="cls-54" d="M186.92,117.43c.23-1.8,1.57-.62,2.2-1.51v-7.59c-.46-.65-1.38,.13-2.04-.5-.02-.26-.04-.6-.09-1.24,1.35,.18,2.76-.6,3.7,1.35v8.67q-1.38,1.2-3.77,.83Z"/><path class="cls-91" d="M207.46,116.19c-.4-.4-.66-.66-1.03-1.03,.37-1.5-.78-3.38,1.12-4.76h3.08c1.9,1.37,.75,3.25,1.12,4.76-.37,.37-.63,.63-1.03,1.03h-3.26Z"/><path class="cls-94" d="M181.23,116.19c-.48-.49-1.1-1.1-1.73-1.73v-4.54c.59-.53,1.24-1.1,2.02-1.8h2.55c.58,.37,1.05,.68,2.09,1.36h-3.76c-1.41,.65-1.28,2.04-2.15,2.72,.99,.46,.42,1.97,1.56,2.59h3.6v1.4h-4.18Z"/><path class="cls-29" d="M200.95,212.11c-.56-.06-1.14-.12-1.73-.18,.23-.99,.67-1.72,2.1-1.29-.51-2.05,.77-2.89,1.83-3.86,.82,.12,1.71-.3,2.48,.27,.03,.25,.06,.49,.09,.79-.75,.82-1.81,.22-2.68,.48-.56,.63-.37,1.32-.13,2.01,.59,.51,1.48-.17,2.01,.45,.02,.31,.03,.55,.05,.79-.47,.85-1.36,.18-2.22,.69v3.29c-.48,.1-.71,.15-1.14,.24-.95-1.05,.1-2.55-.66-3.69Z"/><path class="cls-1" d="M140.77,101.99c-.66-.66-1.19-1.18-1.64-1.63v-3.21c.37-.37,.64-.64,.94-.94h3.1c1.04,.69,1.28,1.56,.97,2.87h-3.51c-.04,.59-.06,.93-.09,1.52h3.66v1.39h-3.43Z"/><path class="cls-1" d="M211.3,155.96h-2.91c-.58,.39-.39,.79-.41,1.2,1.1,.63,2.38,.07,3.36,.32,.5,.42,.36,.79,.32,1.22-1.02,.5-2.14,.12-3.34,.27-.51-.6-1.07-1.26-1.77-2.07v-2.89c.34-.34,.6-.6,.96-.96h3.18c.69,.67,1.62,1.28,.62,2.91Z"/><path class="cls-1" d="M137.58,116.27h-3.54c-.37-.49-.9-1.17-1.69-2.21,.18-.83-.68-2.37,.98-3.6h3.2c.81,.64,1.44,1.47,.72,2.84h-2.96c-.63,.37-.48,.77-.52,1.18,1.07,.8,2.37,.06,3.47,.46,.45,.26,.23,.67,.34,1.34Z"/><path class="cls-58" d="M175.74,164.92c1.93-.27,2.15,1.42,2.95,2.85v3.45c-.79,.74-1.27,2.18-2.95,1.92-.64-.66-1.74-.08-2.46-1.08-.26-1.95-.26-4.12,.01-6.16,.72-.86,1.8-.35,2.45-.99Z"/><path class="cls-39" d="M202.72,164.92c1.93-.27,2.16,1.41,2.95,3.01v3.3c-.79,.74-1.27,2.18-2.95,1.92-.64-.66-1.74-.08-2.46-1.08-.26-1.95-.26-4.12,.01-6.16,.72-.86,1.8-.35,2.45-.99Z"/><path class="cls-1" d="M160.38,152.96h2.97c.89,.74,1.64,1.52,.83,3.05h-3.36c-.04,.5-.06,.74-.08,1.06,1.05,.83,2.34,.08,3.44,.45,.43,.25,.28,.65,.35,1.17-1.14,.49-2.34,.19-3.44,.21-.6-.6-1.13-1.12-1.75-1.74v-3.17c.33-.33,.68-.68,1.03-1.03Z"/><path class="cls-82" d="M229.69,158.94c-1.58,.33-2.01-1.17-2.98-1.85v-4.55c.58-.54,1.22-1.13,1.94-1.8h2.65c.56,.37,1.03,.68,2.05,1.35h-3.74c-1.41,.65-1.28,2.04-2.16,2.72,.92,.51,.61,1.84,.96,2.02,1.7,1.04,3.03,.19,4.13,.83,.54,1.47-.51,1.26-1.35,1.27-.5-.47-1-.47-1.5,0Z"/><path class="cls-1" d="M237.65,96.26c1.04,.8,1.36,1.63,.79,2.8h-2.97c-.6,.36-.52,.75-.53,1.17,1.04,.86,2.34,.09,3.43,.47,.44,.25,.28,.66,.32,1.05-.97,.76-2.13,.08-3.36,.54-.49-.69-1-1.38-1.79-2.49,.19-.74-.76-2.28,.94-3.53h3.17Z"/><path class="cls-71" d="M292.64,167.16h2.75c.25,1.27,.58,2.58,1.34,3.71,.42-.18,.55-.83,1.15-.72,.53,.36,.24,1.13,.75,1.5-.06,1.97-1.31,3.25-2.63,4.49-.83-.1-1.71,.24-2.51-.24,.39-1.33,2.02-1.09,2.68-2.21-.76-1.9-1.55-3.85-2.32-5.78h-1.22c-.22-.17-.3-.33-.22-.5,.07-.17,.15-.25,.22-.25Z"/><path class="cls-1" d="M251.93,141.77h-3.38c-.06,.49-.09,.73-.12,.98,1.02,1.2,2.61-.13,3.69,.79,.02,.25,.04,.49,.07,.86-.96,.67-2.09,.18-3.46,.4-.37-.55-.84-1.27-1.65-2.48,.17-.59-.87-2.13,.88-3.41h3.23c.75,.55,1.37,1.37,.74,2.87Z"/><path class="cls-71" d="M291.89,171.65c-.06,1.97-1.31,3.25-2.63,4.49-.83-.1-1.71,.24-2.51-.24,.39-1.33,2.02-1.09,2.68-2.21-.76-1.9-1.55-3.85-2.32-5.78h-1.22c-.22-.17-.3-.33-.22-.5,.07-.17,.15-.25,.22-.25h2.75c.25,1.27,.58,2.58,1.34,3.71,.42-.18,.55-.83,1.15-.72,.53,.36,.24,1.13,.75,1.5Z"/><path class="cls-61" d="M207.96,214.19h2.14v-3.86c.36-.55,.72-.57,1.28-.54,.68,.89,.41,2.06,.26,3.04-.16,1.08,1.2,1.59,.71,2.68-.96,.53-1.81,.4-2.53-.48-1.28,1.32-2.36,.89-3.25-.32v-4.87h1.38v4.34Z"/><path class="cls-1" d="M251.76,113.34h-2.91c-.58,.39-.39,.79-.41,1.18,1.09,.72,2.39-.02,3.5,.46,.35,.3,.21,.67,.17,1.1-1.02,.5-2.14,.12-3.34,.27-.51-.6-1.07-1.26-1.8-2.1,.07-1.09-.61-2.63,1.02-3.82h3.15c.69,.67,1.62,1.28,.62,2.91Z"/><path class="cls-61" d="M162.63,215.01c-1.27,1.39-2.34,.84-3.26-.25v-4.9h1.38v4.34h2.14v-3.91c.49-.57,.92-.64,1.5-.3,.45,1.75-.58,3.8,1.17,5.28-1.36,.79-2.22,.68-2.93-.25Z"/><path class="cls-1" d="M173.92,138.77h2.96c.37,.37,.72,.72,1.09,1.09v1.52c-1.02,.83-2.33,.07-3.42,.46-.44,.25-.27,.66-.31,1.06,1.07,.78,2.38,.05,3.49,.47,.43,.26,.22,.67,.28,1.2h-3.57c-.5-.49-1.02-1.02-1.7-1.69,.22-1.23-.58-2.77,1.18-4.09Z"/><path class="cls-71" d="M285.14,171.65c-.06,1.97-1.31,3.25-2.63,4.49-.83-.1-1.71,.24-2.51-.24,.39-1.33,2.02-1.09,2.68-2.21-.76-1.9-1.55-3.85-2.32-5.78h-1.22c-.22-.17-.3-.33-.22-.5,.07-.17,.15-.25,.22-.25h2.75c.25,1.27,.58,2.58,1.34,3.71,.42-.18,.55-.83,1.15-.72,.53,.36,.24,1.13,.75,1.5Z"/><path class="cls-46" d="M218.46,172.04c-.02,.29-.03,.54-.05,.79-.89,.75-1.85,.04-2.52,.3-1.18-.84-1.76-1.97-1.82-2.86-.09-1.33-.88-1.94-1.6-2.74,.25-.7,1.61,.06,1.52-1.19-.06-.71,.76-.91,1.07-1.42,.82,.5,.11,1.4,.73,2.26h2.55c.06,.5,.09,.74,.13,1.03-.74,.91-1.83,.17-2.72,.53-.47,.63-.31,1.29-.07,2.01,.48,1.43,2.08,.43,2.79,1.28Z"/><path class="cls-67" d="M386.3,214.27c-.04,1.97-1.3,3.22-2.6,4.46-.83-.03-1.69,.23-2.47-.16-.17-.2,.02-.3,.16-.56,.58-1.04,2.25-.47,2.46-1.97-1.35-1.62-1.24-4.15-2.76-5.92,.49-.61,1.16-.21,2-.4,.11,1.36,.59,2.62,1.31,3.76,.43-.16,.55-.82,1.16-.71,.55,.35,.23,1.13,.75,1.5Z"/><path class="cls-67" d="M359.32,214.27c-.04,1.97-1.3,3.22-2.6,4.46-.83-.03-1.69,.23-2.47-.16-.17-.2,.02-.3,.16-.56,.58-1.04,2.25-.47,2.46-1.97-1.35-1.62-1.24-4.15-2.76-5.92,.49-.61,1.16-.21,2-.4,.11,1.36,.59,2.62,1.31,3.76,.43-.16,.55-.82,1.16-.71,.55,.35,.23,1.13,.75,1.5Z"/><path class="cls-71" d="M278.4,171.65c-.04,1.97-1.3,3.22-2.6,4.46-.83-.03-1.69,.23-2.47-.16-.17-.2-.01-.31,.17-.56,.66-.91,2.1-.68,2.58-1.82-1.47-1.77-1.37-4.31-2.89-6.07,.49-.61,1.16-.21,2-.4,.11,1.36,.59,2.62,1.31,3.76,.43-.16,.55-.82,1.16-.71,.53,.36,.24,1.13,.75,1.5Z"/><path class="cls-46" d="M144.42,167.24c2.5,.16,1.94-1.96,3.21-2.27,.82,.46,.1,1.35,.53,1.97,.82,.52,1.87,.02,2.78,.28v1.35h-2.49c-.66,.77-.48,1.46-.24,2.16,.48,1.41,2.05,.5,2.79,1.27v.84c-.91,.49-1.84,.34-2.59,.21-2.11-1.39-1.29-4.28-3.99-5.81Z"/><path class="cls-64" d="M267.94,166.99c.77-1.43,1.3-2.81,2.89-3.51,.33,.09,1-.35,1.57,.31-.05,.28-.06,.87-.18,.9-1.31,.26-1.94,1.36-2.8,2.07v4.53c.96,.87,1.64,2.07,2.94,2.11,.1,.72-.03,1.03-.37,1.24-4.52-1-4.22-4.47-4.05-7.65Z"/><path class="cls-67" d="M231.19,214.27c-.61,2.31-.75,2.56-2.6,4.46-.83-.03-1.69,.23-2.47-.16-.17-.2,.02-.3,.16-.56,.58-1.04,2.25-.47,2.46-1.97-1.36-1.62-1.23-4.16-2.77-5.91,.5-.62,1.16-.22,2-.41,.11,1.36,.59,2.62,1.31,3.76,.43-.16,.55-.82,1.16-.71,.55,.35,.23,1.13,.75,1.5Z"/><path class="cls-52" d="M183.98,173.14c-.48,.13-.61-.33-.99-.56-.79-.04-1.45,1.17-2.44,.5-.35-.35-.7-.7-.95-.95v-4.88c.44-.02,.78-.04,1.36-.06v4.38h2.25v-4.33h1.36c.51,1.68-.38,3.64,.92,5.16-.41,.44-1.11,.28-1.5,.75Z"/><path class="cls-57" d="M345.79,171.26c-1.27,1.32-2.19,2.29-3.26,3.4-.47,.01-.57-.84-1.43-1.08,1.15-.53,2.06-.94,3.12-1.42,.46-.9-.4-2.33,.81-3.17-1.21-.76-.44-2.04-.73-2.9-.71-1.17-1.74-1.41-2.78-1.12-.19-.66-.31-1,.11-1.41,1.19-.85,2.04,.65,3.17,.72,1.73,2.4,.79,5.16,.99,7Z"/><path class="cls-25" d="M150.27,97.63h-1.17c-.59,.87-.31,1.82-.24,2.71,.48,.48,.92,.92,1.57,1.56-1.93,.34-3.65,.23-5.4,.11v-.98c.24-.54,.84-.31,1.36-.59,.43-1.36,.09-2.68-.78-3.85,1.17-.8,2.01-.63,2.74,.25,.45-.15,.56-.82,1.17-.7,.42,.41,1.19,.65,.75,1.5Z"/><path class="cls-25" d="M143.52,154.45h-1.17c-.59,.87-.31,1.82-.24,2.71,.48,.48,.92,.92,1.57,1.56-1.93,.34-3.65,.23-5.4,.11v-.98c.24-.54,.84-.31,1.36-.59,.43-1.36,.09-2.68-.78-3.85,1.17-.8,2.01-.63,2.74,.25,.45-.15,.56-.82,1.17-.7,.42,.41,1.19,.65,.75,1.5Z"/><path class="cls-95" d="M184.98,39.31c1.18-.12,.36,1.3,1.23,1.44,.56-.95,.13-2.06,.28-3.11,.05-.38,.28-.66,.74-.57,.66,1.97,.41,3.93,.16,5.8-.95,.43-1.3-.09-1.65-.57-1.2,.15-.37-1.29-1.21-1.48-.69,1.35,.02,2.86-.43,4.23-.28,.38-.66,.21-1.01,.22-.12-.2-.33-.4-.33-.6-.02-2.22-.02-4.43-.01-6.65,0-.51,.02-1.01,.75-.95,.75,.58,.74,1.67,1.5,2.24Z"/><path class="cls-25" d="M130.03,111.84h-1.17c-.59,.87-.31,1.82-.24,2.71,.48,.48,.92,.92,1.57,1.56-1.93,.34-3.65,.23-5.4,.11v-.98c.24-.54,.84-.31,1.23-.53,.81-1.45-.14-2.71-.6-3.96,1.1-.76,1.95-.59,2.68,.29,.45-.15,.56-.82,1.17-.7,.42,.41,1.19,.65,.75,1.5Z"/><path class="cls-92" d="M212.07,38.67c-1.44-.03-2.48-.19-3.14-1.44h6.57c.35,.25,.17,.63,.18,.98-.52,.75-1.42,.03-2.25,.7v6.31h-1.36v-6.55Z"/><path class="cls-95" d="M235.69,167.16c1.18-.12,.36,1.3,1.23,1.44,.56-.95,.13-2.06,.28-3.11,.05-.38,.28-.66,.74-.57,.66,1.97,.41,3.93,.16,5.8-.95,.43-1.3-.09-1.65-.57-1.2,.15-.37-1.29-1.21-1.48-.69,1.35,.02,2.86-.43,4.23-.28,.38-.66,.21-1.01,.22-.12-.2-.33-.4-.33-.6-.02-2.22-.02-4.43-.01-6.65,0-.51,.02-1.01,.75-.95,.75,.58,.74,1.67,1.5,2.24Z"/><path class="cls-25" d="M237.94,140.25h-1.14c-.72,.72-.18,1.63-.43,2.67,.55,.31,1.2,.68,2.56,1.45-2.75,.49-4.48,.38-6.22,.25v-.98c.24-.54,.84-.31,1.23-.53,.81-1.45-.14-2.71-.58-3.9,.6-.7,1.27-.46,1.84-.43,.29,.02,.56,.42,.85,.66,.42-.14,.53-.81,1.14-.69,.42,.41,1.19,.65,.75,1.5Z"/><path class="cls-36" d="M121.44,215.81c-1-2.07,.06-4.43-.57-6.61-1-.22-2.2-.11-2.93-1.57,2.26-.19,4.43-.05,7.45-.12-1.3,.88-1.46,1.95-2.96,1.39v6.88c-.33,.01-.66,.02-.99,.03Z"/><path class="cls-98" d="M174.99,185.11c.42-1.41,1.89-2.47,1.41-4.27-1.2-.58-2.36-.15-3.53,.28-.5-.94,.38-1.27,.88-1.89h3.22c.3,.3,.65,.65,1.01,1.01v3.36c-.61,.49-1.45,1.16-2.3,1.85,.97,.83,2.08,0,2.94,.66,.16,.59,.33,1.18-.63,1.25-.71-1.14-3.78,.87-3-2.24Z"/><path class="cls-84" d="M191.72,45.29c-1.08-.2-1.41-1.31-2.21-1.83-.17-1.47-.06-2.87,1.41-4.09h2.7c1.07,.68,1.27,1.57,.98,2.87h-3.51c-.04,.59-.06,.92-.11,1.52h3.54c.24,.87,.41,1.46-.55,1.53-.75-.56-1.5-.56-2.25,0Z"/><path class="cls-84" d="M154.76,173.14c-1.08-.21-1.38-1.34-2.1-1.69-.57-1.68,.36-2.88,.88-4.22h3.12c1.07,.68,1.27,1.57,.98,2.87h-3.51c-.04,.59-.06,.92-.11,1.52h3.54c.24,.87,.41,1.46-.55,1.53-.75-.56-1.5-.56-2.25,0Z"/><path class="cls-84" d="M188.48,173.14c-1.08-.2-1.41-1.31-2.13-1.77-.54-1.6,.39-2.79,.91-4.14h3.12c1.07,.68,1.27,1.57,.98,2.87h-3.51c-.04,.59-.06,.92-.11,1.52h3.54c.24,.87,.41,1.46-.55,1.53-.75-.56-1.5-.56-2.25,0Z"/><path class="cls-84" d="M222.2,173.14c-1.08-.2-1.41-1.31-2.13-1.77-.54-1.6,.39-2.79,.91-4.14h3.15c.89,.74,1.35,1.53,.89,2.87h-3.45c-.04,.59-.06,.92-.11,1.52h3.54c.24,.87,.41,1.46-.55,1.53-.75-.56-1.5-.56-2.25,0Z"/><path class="cls-98" d="M151.76,185.85c-.11,.57,.37,1.43-.75,1.5-.71-1.14-3.78,.87-3-2.24,.42-1.41,1.93-2.46,1.4-4.28-1.2-.6-2.36-.09-3.53,.27-.49-.95,.44-1.25,.85-1.89h3.25c.24,.24,.51,.51,.9,.9v3.71c-.4,.37-1.17,1.1-1.97,1.85,.89,.42,1.89,.04,2.85,.17Z"/><path class="cls-98" d="M134.53,185.11c.42-1.41,1.89-2.47,1.41-4.27-1.2-.58-2.36-.15-3.53,.28-.5-.94,.38-1.27,.88-1.89h3.22c.3,.3,.65,.65,1.01,1.01v3.36c-.61,.49-1.45,1.16-2.32,1.86,1,.76,2.06,.16,2.9,.45,.22,.78,.39,1.38-.58,1.44-.71-1.14-3.78,.87-3-2.24Z"/><path class="cls-84" d="M255.92,173.14c-1.08-.2-1.41-1.31-2.13-1.77-.54-1.6,.39-2.79,.91-4.14h3.15c.89,.74,1.35,1.53,.89,2.87h-3.45c-.04,.59-.06,.92-.11,1.52h3.54c.24,.87,.41,1.46-.55,1.53-.75-.56-1.5-.56-2.25,0Z"/><path class="cls-45" d="M377.31,215.76c-1.08-.2-1.41-1.3-2.23-1.84v-2.33c.56-.5,1.21-1.08,1.94-1.73q2.99,0,3.23,2.87h-3.59c-.03,.58-.05,.92-.08,1.51h3.53c.24,.86,.4,1.46-.56,1.52-.75-.56-1.5-.56-2.25,0Z"/><path class="cls-45" d="M316.61,215.76c-1.08-.2-1.41-1.3-2.23-1.84v-2.33c.56-.5,1.21-1.08,1.94-1.73q2.99,0,3.23,2.87h-3.58c-.03,.58-.05,.92-.08,1.51h3.53c.24,.86,.4,1.46-.56,1.52-.75-.56-1.5-.56-2.25,0Z"/><path class="cls-110" d="M255.33,215.63c-.37-1.84-1.86-3.43-1.65-5.45,.29-.49,.69-.39,1.19-.41,.47,1.2,.54,2.64,1.37,3.6,1.97-.41,.32-3.62,3.16-3.59-.47,1.7-.8,3.41-1.45,4.99-.39,.95-1.43,1.25-2.63,.86Z"/><path class="cls-102" d="M231.19,101.37c.09,.47-.2,.72-.59,.73-1.22,.04-2.44,.01-3.79,.01v-8.9h1.17c.46,.98,.08,1.97,.21,2.92,.37,.36,.67,.76,.81,1.26,.18,1.17,.69,2.13,1.8,2.69,.41,.34,.73,.71,.39,1.28Z"/><path class="cls-45" d="M181.74,215.76c-1.08-.2-1.41-1.3-2.23-1.84v-2.33c.56-.5,1.21-1.08,1.94-1.73q2.99,0,3.23,2.87h-3.58c-.03,.58-.05,.92-.08,1.51h3.53c.24,.86,.4,1.46-.56,1.52-.75-.56-1.5-.56-2.25,0Z"/><path class="cls-80" d="M168.25,179.13h1.38v6.3c.75,.57,1.88,.25,1.55,1.7-1.54,.5-3.23,.06-4.73,.23-.56-.33-.43-.73-.46-1.09,.48-.84,1.38-.15,2.25-.71v-4.95c-.44-.5-.44-1,0-1.5Z"/><path class="cls-45" d="M262.66,215.76c-1.08-.2-1.41-1.3-2.23-1.84v-2.33c.56-.5,1.21-1.08,1.94-1.73q2.99,0,3.23,2.87h-3.58c-.03,.58-.05,.92-.06,1.29,1.16,.59,2.44-.01,3.55,.33,.21,.76,.38,1.36-.59,1.42-.75-.56-1.5-.56-2.25,0Z"/><path class="cls-80" d="M188.48,179.13h1.38v6.3c.75,.57,1.88,.25,1.55,1.7-1.54,.5-3.23,.06-4.73,.23-.56-.33-.43-.73-.46-1.09,.48-.84,1.38-.15,2.25-.71v-4.95c-.44-.5-.44-1,0-1.5Z"/><path class="cls-78" d="M193.05,101.98v-1.09c.6-.55,1.27-.1,1.88-.35,.63-.73,.13-1.63,.28-2.41-.21-.82-1.19-.23-1.49-.97v-.7c.85-.62,1.81-.31,2.88-.24v3.92c.8,.69,1.98,.58,2.28,1.83h-5.84Z"/><path class="cls-78" d="M195.22,142.86c0-.75,0-1.49,0-2.25-.35-.63-1.98-.06-1.41-1.62,.86-.4,1.79-.3,2.86-.08v3.94c.8,.57,1.91,.36,2.07,1.6,.02-.02-.11,.26-.25,.26-1.74,.03-3.48,.02-5.1,.02-.51-.31-.41-.7-.43-1.06,.5-.97,1.72,.07,2.25-.81Z"/><path class="cls-24" d="M245.36,115.09v1.11h-3.43c-.5-.5-1.11-1.11-1.74-1.73v-2.3c.58-.53,1.21-1.11,1.98-1.81,1.24,.21,2.97-.73,3.96,1.35h-3.83c-.88,.56-.57,1.23-.62,1.8-.07,.8-.04,1.44,1.12,1.36,.82-.06,1.71-.27,2.56,.23Z"/><path class="cls-78" d="M240.26,144.6v-1.08c.6-.55,1.27-.1,1.85-.33,.74-.73,0-1.67,.36-2.29-.24-.97-1.23-.36-1.53-1.02v-.75c.83-.87,1.84-.04,2.87-.56v4.2c.8,.69,1.95,.63,2.36,1.83h-5.91Z"/><path class="cls-24" d="M225.31,116.27h-3.6c-.37-.48-.88-1.17-1.68-2.22v-2c.45-.26,1.2-.69,1.96-1.13-.13-.16-.25-.32-.38-.48h3.31l1.23,1.23c-1.62,.09-3.03,.17-4.44,.25-.53,.8-.15,1.68-.27,2.55,1.07,.79,2.37,.05,3.46,.46,.46,.26,.22,.68,.4,1.34Z"/><path class="cls-102" d="M234.19,116.32c-.47,.08-.73-.2-.73-.58-.03-1.71-.01-3.42-.01-5.47,1.81,.41,3.7-.73,5.18,1.14v4.55c-.32,.52-.72,.31-1.17,.37-.64-1.36,.02-2.87-.4-4.26-.66-.45-1.41-.14-2.12-.23-1.01,1.37,.21,3.11-.75,4.49Z"/><path class="cls-102" d="M200.47,102.12c-.47,.08-.73-.2-.73-.58-.03-1.71-.01-3.42-.01-5.27h4.27c.17,.2,.48,.57,.91,1.07v4.42c-.31,.53-.73,.3-1.16,.4-.65-1.39,0-2.89-.41-4.29-.66-.45-1.41-.14-2.12-.23-1.01,1.37,.21,3.11-.75,4.49Z"/><path class="cls-102" d="M126.29,102.12c-.47,.08-.73-.2-.73-.58-.03-1.71-.01-3.42-.01-5.27h4.28c.17,.19,.49,.56,.91,1.03v4.45c-.31,.53-.73,.3-1.16,.4-.65-1.39,0-2.89-.41-4.29-.66-.45-1.41-.14-2.12-.23-1.01,1.37,.21,3.11-.75,4.49Z"/><path class="cls-102" d="M186.98,158.94c-.47,.08-.73-.2-.73-.58-.03-1.71-.01-3.42-.01-5.27h4.27c.17,.2,.48,.57,.91,1.07v4.42c-.31,.53-.73,.3-1.16,.4-.65-1.39,0-2.89-.41-4.29-.66-.45-1.41-.14-2.12-.23-1.01,1.37,.21,3.11-.75,4.49Z"/><path class="cls-30" d="M171.25,153.71v.75h-3.39c-.66,.84-.29,1.8-.29,2.97h3.6v1.38h-3.45c-.44-.46-1.03-1.09-1.69-1.79v-2.28c.53-.44,1.19-.99,2.08-1.73,.78,.38,2.2-.81,3.13,.69Z"/><path class="cls-44" d="M125.27,168.11c-1.65,2.8-4.19,2.52-5.85,3.65-.54-.31-.68-.6-.62-1.02,.99-1,2.27-1.36,3.81-1.47-1.23-.97-2.47-1.36-3.77-1.54-.18-1.87,1.34-1.56,1.84-1.17,1.25,.98,2.67,1.34,4.59,1.56Z"/><path class="cls-107" d="M304.62,213.52c-.62,0-1.24,0-1.86,0-.78,.51-.11,1.4-.63,2.17-.15,.23-.55,.02-1.07,.1v-8.25h3.57c.5,1.12-.85,1.39-1.01,2.21-.16,.54-.17,1.07,.02,1.6,.16,.8,1.5,1.08,.99,2.18Z"/><path class="cls-108" d="M240.93,170.15c.49-1.73,2.29,.03,2.97-1.14-.69-1.12-2.48,.63-2.97-1.1,.61-.67,1.65-.04,2.25-.75,1.08,.2,1.41,1.31,2.26,1.86-.07,1.18-.11,2.38,.74,3.38-.4,.44-1.11,.28-1.5,.75h-1.5c-.32-.29-.77-.44-.97-.86-.04-.45-.25-.8-.64-1.04-.36-.28-.6-.62-.63-1.08Z"/><path class="cls-18" d="M174.99,211.28c-1.58,.62-.41,1.84-.75,3.02h3.64c.06,.5,.08,.73,.13,1.14-1.07,.71-2.32,.06-3.34,.37-.64-.64-1.17-1.16-1.69-1.69-.43-.68-.14-1.43-.27-2.47,.64-.43,1.45-.99,2.75-1.87h1.79c.23,.26,.48,.51,.75,.75,.15,.17,.2,.33,.15,.5-.05,.17-.1,.25-.15,.25h-1.5c-.5-.47-1-.47-1.5,0Z"/><path class="cls-18" d="M171.25,211.28h-1.5c-.5-.47-1-.47-1.5,0-1.58,.62-.41,1.84-.75,3.02h3.64c.06,.5,.08,.73,.13,1.14-1.07,.71-2.32,.06-3.34,.37-.64-.64-1.17-1.16-1.69-1.69-.43-.68-.14-1.43-.27-2.47,.64-.43,1.45-.99,2.75-1.87h1.79c.23,.26,.48,.51,.75,.75,.15,.17,.2,.33,.15,.5-.05,.17-.1,.25-.15,.25Z"/><path class="cls-33" d="M173.74,40.81c.65-.05,.8,.37,.74,.88-.12,1.06,.15,2,.76,2.86-.4,.44-1.11,.28-1.5,.75h-4.3c-.27-1.25-.69-2.49,1.07-3.74h2.48c.39,.37,.36,.84,.31,1.29,.11,.3-.64,.15-.33,.53,.31,.39-.27-.03,.21-.22,.5-.72-.17-1.7,.56-2.35Z"/><path class="cls-66" d="M251.42,215.76h-4.3c-.3-1.25-.62-2.48,.99-3.74h2.55c.39,.37,.36,.84,.31,1.29,.11,.3-.64,.15-.33,.53,.31,.39-.27-.03,.21-.22,.5-.72-.17-1.7,.56-2.35,.65-.05,.8,.37,.74,.88-.12,1.06,.15,2,.76,2.86-.4,.44-1.11,.28-1.5,.75Z"/><path class="cls-33" d="M220.95,40.81c.65-.05,.8,.37,.74,.88-.12,1.06,.15,2,.76,2.86-.4,.44-1.11,.28-1.5,.75h-4.29c-.3-1.26-.62-2.48,.99-3.74h2.55c.39,.37,.36,.84,.31,1.29,.11,.3-.64,.15-.33,.53,.31,.39-.27-.03,.21-.22,.5-.72-.17-1.7,.56-2.35Z"/><path class="cls-66" d="M345.84,215.76h-4.3c-.3-1.25-.62-2.48,.99-3.74h2.55c.39,.37,.36,.84,.31,1.29,.11,.3-.64,.15-.33,.53,.31,.39-.27-.03,.21-.22,.5-.72-.17-1.7,.56-2.35,.65-.05,.8,.37,.74,.88-.12,1.06,.15,2,.76,2.86-.4,.44-1.11,.28-1.5,.75Z"/><path class="cls-33" d="M210.96,168.66c.65-.05,.8,.37,.74,.88-.12,1.06,.15,2,.76,2.86-.4,.44-1.11,.28-1.5,.75h-4.3c-.3-1.25-.62-2.48,.99-3.74h2.55c.39,.37,.36,.84,.31,1.29,.11,.3-.64,.15-.33,.53,.31,.39-.27-.03,.21-.22,.5-.72-.17-1.7,.56-2.35Z"/><path class="cls-66" d="M130.03,215.76h-4.29c-.3-1.26-.62-2.48,.99-3.74h2.55c.39,.37,.36,.84,.31,1.29,.11,.3-.64,.15-.33,.53,.31,.39-.27-.03,.21-.22,.5-.72-.17-1.7,.56-2.35,.65-.05,.8,.37,.74,.88-.12,1.06,.15,2,.76,2.86-.4,.44-1.11,.28-1.5,.75Z"/><path class="cls-19" d="M155.51,159.69v-4.89c-.78-.68-1.68,.06-2.2-.67-.02-.24-.03-.48-.06-.9,1.09-.56,2.29-.15,3.76-.31,0,2.37,.01,4.65-.01,6.94,0,.37-.27,.66-.73,.57-.46-.04-.53-.47-.75-.75Z"/><path class="cls-34" d="M309.87,212.02v1.86c.24,.35,.59,.36,.96,.4,.19,.02,.36,.27,.54,.41-.01,.24-.03,.49-.05,.89h-4.26c-.1-.11-.2-.21-.3-.32,.72-.22,1.43-.44,1.41-.43,.31-2.19,.45-3.51-.96-4.61,1.23-.37,2.09-1.07,2.66,.3,.47,.5,.41,1,0,1.5Z"/><path class="cls-27" d="M161.51,169.41c0,.62,0,1.25,0,1.87,.29,.65,1.25,.08,1.5,.82-.01,.23-.03,.47-.05,.88h-4.26l-.3-.32c.72-.22,1.43-.44,2.15-.66l-.62-.64c.44-1.37-.25-2.54-.85-3.82,1.01-.3,1.87-1.01,2.44,.37,.47,.5,.41,1,0,1.5Z"/><path class="cls-38" d="M143.52,144.73h-4.03c-.81-.29-.13-1.49-.8-1.65,.51-.55,1.12-1.21,1.93-2.09h2.15c.38,.37,.45,.82,.32,1.3-.09,.25-.34,.3-.59,.36,.16,.25,.35,.31,.62,.24,.47,.18,.72,.53,.81,1.01-.03,.33-.17,.61-.41,.83Z"/><path class="cls-15" d="M196.72,184.36c-.92,.09-.98-1.63-2.21-.6,.23-1.7,2.21-1.26,2.3-2.63-1.15-1.17-2.69,.07-3.84-.84,.34-.36,.66-.7,1.04-1.1h3.15c.36,.36,.71,.71,1.03,1.03,.59,1.33-1.09,2.13-.73,3.39-.07,.43-.33,.67-.75,.75Z"/><path class="cls-38" d="M170.5,102.12h-4.03c-.81-.29-.13-1.49-.8-1.65,.51-.55,1.12-1.21,1.93-2.09h2.15c.38,.37,.45,.82,.32,1.3-.09,.25-.34,.3-.59,.36,.16,.25,.35,.31,.62,.24,.47,.18,.72,.53,.81,1.01-.03,.33-.17,.61-.41,.83Z"/><path class="cls-38" d="M197.47,158.94h-4.03c-.81-.29-.13-1.49-.8-1.65,.51-.55,1.12-1.21,1.93-2.09h2.15c.38,.37,.45,.82,.32,1.3-.09,.25-.34,.3-.59,.36,.16,.25,.35,.31,.62,.24,.47,.18,.72,.53,.81,1.01-.03,.33-.17,.61-.41,.83Z"/><path class="cls-38" d="M231.19,116.32h-4.03c-.81-.29-.13-1.49-.8-1.65,.51-.55,1.12-1.21,1.93-2.09h2.15c.38,.37,.45,.82,.32,1.3-.09,.25-.34,.3-.59,.36,.16,.25,.35,.31,.62,.24,.47,.18,.72,.53,.81,1.01-.03,.33-.17,.61-.41,.83Z"/><path class="cls-38" d="M190.73,144.73h-4.03c-.81-.29-.13-1.49-.8-1.65,.51-.55,1.12-1.21,1.93-2.09h2.15c.38,.37,.45,.82,.32,1.3-.09,.25-.34,.3-.59,.36,.16,.25,.35,.31,.62,.24,.47,.18,.72,.53,.81,1.01-.03,.33-.17,.61-.41,.83Z"/><path class="cls-71" d="M225.44,41.56c3.24,.22,3.72,1.08,1.99,3.65h-3.94c-.38-.23-.27-.62-.29-1.01,1.07-1.06,2.63,.19,3.73-.73-.41-1.06-2.1,.39-2.23-1.17,.04-.46,.47-.53,.75-.75Z"/><path class="cls-67" d="M330.1,212.02c3.24,.22,3.72,1.08,1.99,3.65h-3.94c-.38-.23-.27-.62-.29-1.01,1.09-.95,2.6,.05,3.77-.63-.45-1.15-2.14,.29-2.27-1.27,.04-.46,.47-.53,.75-.75Z"/><path class="cls-67" d="M323.36,212.02c3.24,.22,3.72,1.08,1.99,3.65h-3.94c-.38-.23-.27-.62-.29-1.01,1.09-.95,2.6,.05,3.77-.63-.45-1.15-2.14,.29-2.27-1.27,.04-.46,.47-.53,.75-.75Z"/><path class="cls-67" d="M242.43,212.02c3.24,.22,3.72,1.08,1.99,3.65h-3.94c-.38-.23-.27-.62-.29-1.01,1.07-1.06,2.63,.19,3.73-.73-.41-1.06-2.1,.39-2.23-1.17,.04-.46,.47-.53,.75-.75Z"/><path class="cls-67" d="M195.22,212.02c3.24,.22,3.72,1.08,1.99,3.65h-3.94c-.38-.23-.27-.62-.29-1.01,1.07-1.06,2.63,.19,3.73-.73-.41-1.06-2.1,.39-2.23-1.17,.04-.46,.47-.53,.75-.75Z"/><path class="cls-67" d="M188.48,212.02c3.24,.22,3.72,1.08,1.99,3.65h-3.94c-.38-.23-.27-.62-.29-1.01,1.07-1.06,2.63,.19,3.73-.73-.41-1.06-2.1,.39-2.23-1.17,.04-.46,.47-.53,.75-.75Z"/><path class="cls-97" d="M174.99,98.38c3.24,.22,3.72,1.08,1.99,3.65h-3.94c-.38-.23-.27-.62-.29-1.01,1.07-1.06,2.63,.19,3.73-.73-.41-1.06-2.1,.39-2.23-1.17,.04-.46,.47-.53,.75-.75Z"/><path class="cls-67" d="M134.53,212.02c3.24,.22,3.72,1.08,1.99,3.65h-3.94c-.38-.22-.27-.62-.29-1,1.07-1.06,2.63,.19,3.73-.73-.41-1.06-2.1,.39-2.23-1.17,.04-.46,.47-.53,.75-.75Z"/><path class="cls-97" d="M255.92,140.99c3.24,.22,3.72,1.08,1.99,3.65h-3.94c-.38-.23-.27-.62-.29-1.01,1.09-.95,2.6,.05,3.77-.63-.45-1.15-2.14,.29-2.27-1.27,.04-.46,.47-.53,.75-.75Z"/><path class="cls-67" d="M154.76,212.02c3.24,.22,3.72,1.08,1.99,3.65h-3.94c-.38-.22-.27-.62-.29-1,1.07-1.06,2.63,.19,3.73-.73-.41-1.06-2.1,.39-2.23-1.17,.04-.46,.47-.53,.75-.75Z"/><path class="cls-97" d="M208.71,140.99c3.24,.22,3.72,1.08,1.99,3.65h-3.94c-.38-.23-.27-.62-.29-1.01,1.07-1.06,2.63,.19,3.73-.73-.41-1.06-2.1,.39-2.23-1.17,.04-.46,.47-.53,.75-.75Z"/><path class="cls-97" d="M148.02,140.99c3.24,.22,3.72,1.08,1.99,3.65h-3.94c-.38-.22-.27-.62-.29-1,1.07-1.06,2.63,.19,3.73-.73-.41-1.06-2.1,.39-2.23-1.17,.04-.46,.47-.53,.75-.75Z"/><path class="cls-97" d="M141.27,112.58c3.24,.22,3.72,1.08,1.99,3.65h-3.94c-.38-.22-.27-.62-.29-1,1.07-1.06,2.63,.19,3.73-.73-.41-1.06-2.1,.39-2.23-1.17,.04-.46,.47-.53,.75-.75Z"/><path class="cls-97" d="M148.02,112.58c3.24,.22,3.72,1.08,1.99,3.65h-3.94c-.38-.22-.27-.62-.29-1,1.07-1.06,2.63,.19,3.73-.73-.41-1.06-2.1,.39-2.23-1.17,.04-.46,.47-.53,.75-.75Z"/><path class="cls-89" d="M146.76,39.31c.48,1.89,.96,3.78,1.44,5.66-.24,.39-.63,.31-.99,.32-.87-.46-.19-1.35-.54-1.96-.76-.64-1.67,0-2.3-.31-.98,.21-.14,1.67-1.35,1.53-.55-.35-.23-1.13-.75-1.5,.11-.79,1.12-1.29,.75-2.24,.58-.4,1.25,.05,1.83-.2,.29-.32,.52-.67,.77-1.02,.32-.33,.67-.57,1.14-.28Z"/><path class="cls-20" d="M196.97,39.31h1.5c.41,.34,.36,.81,.38,1.26,.01-.45-.04-.92,.37-1.26,1.44,.35,.46,1.51,.75,2.24-.28,.21-.28,.71-.75,.75-.52-.02-.77,.23-.75,.75-.2,.17-.27,.33-.2,.5,.07,.17,.13,.25,.2,.25-.11,.57,.37,1.43-.75,1.5-.25-.27-.5-.27-.75,0-1.44-.35-.46-1.51-.75-2.24,.94-1.11-.19-2.63,.75-3.74Z"/><path class="cls-106" d="M140.52,167.91c.85-.36,1.58-1.11,2.66-.71,.33,.33,.67,.67,1.02,1.01v4.6c-.35,.47-.73,.3-1.15,.31-.65-1.35,.02-2.85-.41-4.24-.66-.44-1.41-.14-2.11-.23-.18-.25-.18-.5,0-.75Z"/><path class="cls-87" d="M349.58,210.53c1.31-.88,2.58-1.33,3.67,.38v4.52c-.35,.47-.73,.3-1.32,.31v-4.08c-.9-.6-1.65-.3-2.36-.39-.17-.25-.17-.5,0-.75Z"/><path class="cls-96" d="M302.38,209.03c-.05-.71,.43-.72,.94-.75,.54-.04,1.3,.26,1.31-.74,1.06,.18,1.37,1.26,2.2,1.79v2.26c-.58,.66-1.15,1.55-2.2,1.93,0-1-.77-.7-1.31-.74-.51-.04-.99-.04-.94-.75,.39-.43,.92-.75,1.15-1.33,.06-.85-.74-1.12-1.15-1.66Z"/><path class="cls-85" d="M231.19,101.37c.02-.52-.23-.77-.75-.75-.55-1.15-1.24-2.19-2.25-2.99v-1.5h3.31c.77,.61,.49,1.75,1.35,2.17-.38,1.33-.56,2.44-1.66,3.06Z"/><path class="cls-109" d="M169.75,99.87v-1.5c-.49-1.73-2.27,.01-2.99-1.13v-.71c.07-.08,.14-.24,.22-.25,.71-.09,1.42-.15,2.37-.24,.51,.67,1.08,1.44,1.86,2.48-.08,.68-.02,1.84,.78,2.83-.5,.41-1,.47-1.5,0,.02-.52-.23-.77-.75-.75-.28-.17-.37-.33-.28-.5,.09-.17,.18-.25,.28-.25Z"/><path class="cls-109" d="M231.19,115.57c.02-.52-.23-.77-.75-.75-.28-.17-.37-.33-.28-.5,.09-.17,.18-.25,.28-.25v-1.5c-.49-1.73-2.27,.01-2.99-1.13v-.71c.07-.08,.14-.24,.22-.25,.71-.09,1.42-.15,2.37-.24,.51,.67,1.08,1.44,1.86,2.48-.08,.68-.02,1.84,.78,2.83-.5,.41-1,.47-1.5,0Z"/><path class="cls-109" d="M189.98,142.49v-1.5c-.49-1.73-2.27,.01-2.99-1.13v-.71c.07-.08,.14-.24,.22-.25,.71-.09,1.42-.15,2.37-.24,.51,.67,1.08,1.44,1.86,2.48-.08,.68-.02,1.84,.78,2.83-.5,.41-1,.47-1.5,0,.02-.52-.23-.77-.75-.75-.28-.17-.37-.33-.28-.5,.09-.17,.18-.25,.28-.25Z"/><path class="cls-109" d="M143.52,143.99c.02-.52-.23-.77-.75-.75-.28-.17-.37-.33-.28-.5,.09-.17,.18-.25,.28-.25v-1.5c-.49-1.73-2.27,.01-2.99-1.13v-.71c.07-.08,.14-.24,.22-.25,.71-.09,1.42-.15,2.37-.24,.51,.67,1.08,1.44,1.86,2.48-.08,.68-.02,1.84,.78,2.83-.5,.41-1,.47-1.5,0Z"/><path class="cls-15" d="M196.72,184.36c-.02-.52,.23-.77,.75-.75,1.55,1.27,.6,2.41,.04,3.65h-4.25c-.38-.23-.26-.63-.29-1.15,1.09-.55,2.36-.06,3.4-.29,.59-.46,.26-1,.35-1.46Z"/><path class="cls-56" d="M387.8,209.78v-5.12c1.02,2.3,.67,4.66,.73,7,.07,2.32,.01,4.65-.24,6.98-.81-2.67-.34-5.41-.5-8.11-.26-.17-.35-.33-.26-.5,.09-.17,.17-.25,.26-.25Z"/><path class="cls-109" d="M197.47,158.19c.02-.52-.23-.77-.75-.75-.28-.17-.37-.33-.28-.5,.09-.17,.18-.25,.28-.25v-1.5c-.49-1.73-2.27,.01-2.99-1.13v-.71c.07-.08,.14-.24,.22-.25,.71-.09,1.42-.15,2.37-.24,.51,.67,1.08,1.44,1.86,2.48-.08,.68-.02,1.84,.78,2.83-.5,.41-1,.47-1.5,0Z"/><path class="cls-82" d="M258.17,98.38c.09-.7-.22-1.45,.28-2.18h1.19c.27,2.07-1.42,3.8-.62,5.85h-2.35v-2.92c-.17-.18-.24-.36-.21-.56,.03-.2,.07-.3,.12-.3,.31-.18,.59-.16,.84,.11,.41,.32,.34,.81,.46,1.24-.07-.45-.14-.9,.29-1.24Z"/><path class="cls-25" d="M242.43,101.37c-.7,.05-.75-.41-.75-.92,0-1.94,0-3.87,0-5.81-.08-.66,.32-1.09,.75-1.5,.7-.05,.75,.41,.75,.92,0,1.94,0,3.87,0,5.81-.43,.41-.13,1.18-.75,1.5Z"/><path class="cls-32" d="M200.47,152.96h2.25c1.44,1.99,1.44,3.99,0,5.98-.72,.06-.74-.44-.75-.95-.04-1.19-.08-2.38-.32-3.56-.65,1.16-.35,2.38-.43,3.56-.03,.51-.03,1-.75,.95-.59-1.99-.59-3.99,0-5.98Z"/><path class="cls-11" d="M222.2,206.79c.7-.05,.75,.41,.75,.92,0,1.94,0,3.87,0,5.81-.43,.41-.13,1.18-.75,1.5-.7,.05-.75-.41-.75-.92,0-1.94,0-3.87,0-5.81-.08-.66,.32-1.09,.75-1.5Z"/><path class="cls-25" d="M255.92,107.35c.7-.05,.75,.41,.75,.92,0,1.94,0,3.87,0,5.81-.43,.41-.13,1.18-.75,1.5-.7,.05-.75-.41-.75-.92,0-1.94,0-3.87,0-5.81-.08-.66,.32-1.09,.75-1.5Z"/><path class="cls-41" d="M158.75,45.29c-.61,0-1.27,.13-1.83-.05-.4-.13-.67-.68-1.12-1.17v-3.57c.71-1.39,1.86-1.2,2.94-1.19,.51,.83-.33,1.4-.4,2.12-.09,.59-.09,1.18,.01,1.77,.08,.7,.92,1.28,.38,2.09Z"/><path class="cls-25" d="M201.97,135.76c.7-.05,.75,.41,.75,.92,0,1.94,0,3.87,0,5.81-.43,.41-.13,1.18-.75,1.5-.7,.05-.75-.41-.75-.92,0-1.94,0-3.87,0-5.81-.08-.66,.32-1.09,.75-1.5Z"/><path class="cls-11" d="M215.46,215.01c-.7,.05-.75-.41-.75-.92,0-1.94,0-3.87,0-5.81-.08-.66,.32-1.09,.75-1.5,.7-.05,.75,.41,.75,.92,0,1.94,0,3.87,0,5.81-.43,.41-.13,1.18-.75,1.5Z"/><path class="cls-44" d="M146.01,41.56q-.73,.68-1.92,.7c-.66-.26,.1-1.57-1.08-1.45,.33-1.2,.65-2.41,.99-3.67h1.71c.36,.75,.7,1.47,1.04,2.18-.52-.02-.77,.23-.75,.75-1.06,.5-.47,1,0,1.5Z"/><path class="cls-41" d="M152.01,45.29c-1.07-.04-2.3,.39-2.94-1.59v-3.2c.71-1.39,1.86-1.2,2.94-1.19,.51,.83-.33,1.4-.4,2.12-.09,.59-.09,1.18,.01,1.77,.08,.7,.92,1.28,.38,2.09Z"/><path class="cls-41" d="M330.85,173.14c-1.08,0-2.24,.2-2.94-1.19v-3.59c.71-1.39,1.86-1.2,2.94-1.19,.51,.83-.33,1.4-.4,2.12-.09,.59-.09,1.18,.01,1.77,.08,.7,.92,1.28,.38,2.09Z"/><path class="cls-59" d="M169,144.73c-1.07-.04-2.3,.38-2.94-1.57v-3.22c.71-1.39,1.86-1.2,2.94-1.19,.51,.83-.33,1.4-.4,2.12-.09,.59-.09,1.18,.01,1.77,.08,.7,.92,1.28,.38,2.09Z"/><path class="cls-41" d="M337.59,173.14c-1.08,0-2.24,.2-2.94-1.19v-3.59c.71-1.39,1.86-1.2,2.94-1.19,.51,.83-.33,1.4-.4,2.12-.09,.59-.09,1.18,.01,1.77,.08,.7,.92,1.28,.38,2.09Z"/><path class="cls-40" d="M270.16,215.76c-1.08,0-2.24,.2-2.94-1.19v-3.59c.71-1.39,1.86-1.2,2.94-1.19,.51,.83-.33,1.4-.4,2.12-.09,.59-.09,1.18,.01,1.77,.08,.7,.92,1.28,.38,2.09Z"/><path class="cls-16" d="M315.11,167.16h2.25c1.44,1.99,1.44,3.99,0,5.98-.73,.06-.74-.44-.75-.95-.03-1.43-.06-2.87-.66-4.3-.03,1.43-.06,2.87-.09,4.3-.01,.51-.02,1.01-.75,.95-1.44-1.99-1.44-3.99,0-5.98Z"/><path class="cls-16" d="M247.68,167.16h2.25c1.44,1.99,1.44,3.99,0,5.98-.73,.06-.74-.44-.75-.95-.03-1.43-.06-2.87-.66-4.3-.03,1.43-.06,2.87-.09,4.3-.01,.51-.02,1.01-.75,.95-.59-1.99-.59-3.99,0-5.98Z"/><path class="cls-70" d="M236.44,170.15c.6-.1,.74,.52,1.5,.93v-6.16c.46-.08,.73,.2,.73,.56,.03,2.52,.02,5.03,.02,7.44-1.36,.58-1.65-.47-2.25-.93v-1.84Z"/><path class="cls-99" d="M202.72,164.92c-.17,1.42-1.43,.38-2.13,.99v6.38c.29,.75,1.99-.72,2.13,.85h-2.89c-.04-1.29-.09-2.61-.11-3.93-.02-1.35,0-2.7,0-4.05,1.04-.5,2.04-.11,3-.24Z"/><path class="cls-16" d="M308.37,167.16h2.25c1.44,1.99,1.44,3.99,0,5.98-.73,.06-.74-.44-.75-.95-.03-1.43-.06-2.87-.66-4.3-.03,1.43-.06,2.87-.09,4.3-.01,.51-.02,1.01-.75,.95-.59-1.99-.59-3.99,0-5.98Z"/><path class="cls-39" d="M199.97,43.05c.47,.09,.72-.2,.74-.59,.04-.97,.01-1.95,.01-2.72,.43-.56,.81-.4,1.34-.39,.75,2.05-1.53,3.76-.43,5.87h-2.13c-.51-.7-.18-1.46-.28-2.17,.25-.38,.5-.38,.75,0Z"/><path class="cls-99" d="M175.74,164.92c-.17,1.42-1.43,.38-2.13,.99v6.38c.29,.75,1.99-.72,2.13,.85h-2.89c-.04-1.29-.09-2.61-.11-3.93-.02-1.35,0-2.7,0-4.05,1.04-.5,2.04-.11,3-.24Z"/><path class="cls-70" d="M185.73,42.3c.6-.1,.74,.52,1.5,.93v-6.16c.46-.08,.73,.2,.73,.56,.03,2.52,.02,5.03,.02,7.44-1.36,.58-1.65-.47-2.25-.93v-1.84Z"/><path class="cls-68" d="M140.52,167.91v5.16h-1.37v-5.76c.71-.19,1.31-.36,1.37,.6Z"/><path class="cls-32" d="M203.47,152.96c1.02-.28,1.59,.37,2.19,1.07v4.6c-.45,.54-.98,.23-1.44,.32-1.06-1.1-.64-2.49-.75-3.78,.06-.73-.29-1.47,0-2.2Z"/><path class="cls-16" d="M250.67,167.16c1.02-.28,1.59,.37,2.19,1.07v4.6c-.45,.54-.98,.23-1.44,.32-1.06-1.1-.64-2.49-.75-3.78,.06-.73-.29-1.47,0-2.2Z"/><path class="cls-68" d="M339.09,164.17c.47-.08,.73,.2,.74,.59,.03,2.6,.03,5.2,0,7.8,0,.38-.27,.67-.74,.59-.46-.4-1.07-.67-1.24-1.34-.06-.31-.07-.62-.05-.94,.04-.63,0-1.27-.02-1.91,.01-.34,.1-.66,.25-.96,1.12-1.06,.29-2.67,1.07-3.82Z"/><path class="cls-36" d="M349.58,210.53v5.16h-1.37v-5.76c.71-.19,1.31-.36,1.37,.6Z"/><path class="cls-1" d="M170.5,135.76c.47-.08,.73,.2,.74,.59,.03,2.6,.03,5.2,0,7.8,0,.38-.27,.67-.74,.59-.46-.4-1.07-.67-1.24-1.34-.06-.31-.07-.62-.05-.94,.04-.63,0-1.27-.02-1.91,.01-.34,.1-.66,.25-.96,1.12-1.06,.29-2.67,1.07-3.82Z"/><path class="cls-16" d="M318.11,167.16c1.02-.28,1.59,.37,2.19,1.07v4.6c-.45,.54-.98,.23-1.44,.32-1.06-1.1-.64-2.49-.75-3.78,.06-.73-.29-1.47,0-2.2Z"/><path class="cls-68" d="M160.25,36.32c.47-.08,.73,.2,.74,.59,.03,2.6,.03,5.2,0,7.8,0,.38-.27,.67-.74,.59-.46-.4-1.07-.67-1.24-1.34-.06-.31-.07-.62-.05-.94,.04-.63,0-1.27-.02-1.91,.01-.34,.1-.66,.25-.96,1.12-1.06,.29-2.67,1.07-3.82Z"/><path class="cls-68" d="M153.51,36.32c.47-.08,.73,.2,.74,.59,.03,2.6,.03,5.2,0,7.8,0,.38-.27,.67-.74,.59-.46-.4-1.07-.67-1.24-1.34-.06-.31-.07-.62-.05-.94,.04-.63,0-1.27-.02-1.91,.01-.34,.1-.66,.25-.96,1.12-1.06,.29-2.67,1.07-3.82Z"/><path class="cls-36" d="M271.65,206.79c.47-.08,.73,.2,.74,.59,.03,2.6,.03,5.2,0,7.8,0,.38-.27,.67-.74,.59-.46-.4-1.07-.67-1.24-1.34-.06-.31-.07-.62-.05-.94,.04-.63,0-1.27-.02-1.91,.01-.34,.1-.66,.25-.96,1.12-1.06,.29-2.67,1.07-3.82Z"/><path class="cls-68" d="M332.35,164.17c.47-.08,.73,.2,.74,.59,.03,2.6,.03,5.2,0,7.8,0,.38-.27,.67-.74,.59-.46-.4-1.07-.67-1.24-1.34-.06-.31-.07-.62-.05-.94,.04-.63,0-1.27-.02-1.91,.01-.34,.1-.66,.25-.96,1.12-1.06,.29-2.67,1.07-3.82Z"/><path class="cls-68" d="M6.89,14.02c-.6,.6-.86,.86-1.25,1.24H.72v-1.24H6.89Z"/><path class="cls-68" d="M7.46,15.26v-1.25h5.79c.06,.67-.54,.76-.79,1.25H7.46Z"/><path class="cls-68" d="M19.28,15.33h-4.78c-.51-.29-.32-.7-.4-1.3,1.91-.31,3.83-.05,5.75-.15,.48,.92-.75,.82-.57,1.45Z"/><path class="cls-68" d="M27.12,14.02c-.61,.61-.87,.87-1.25,1.25h-4.92v-1.25h6.18Z"/><path class="cls-68" d="M27.69,15.26v-1.25h5.79c.08,.12,.16,.24,.24,.35-.44,.17-.87,.34-1.31,.51,.1,.13,.2,.26,.3,.39h-5.02Z"/><path class="cls-68" d="M34.31,13.95h5.73c.13,.13,.29,.28,.29,.29-.32,.36-.66,.71-1.02,1.09h-4.58c-.52-.31-.31-.72-.42-1.38Z"/><path class="cls-68" d="M46.25,15.33h-4.78c-.51-.29-.32-.7-.4-1.3,1.91-.31,3.83-.05,5.75-.15,.48,.92-.75,.82-.57,1.45Z"/><path class="cls-68" d="M54.1,14.02c-.61,.61-.87,.87-1.25,1.25h-4.92v-1.25h6.18Z"/><path class="cls-68" d="M60.7,14.37c-.49,.12-.98,.23-1.47,.35,.15,.19,.3,.38,.45,.56h-4.84c-.32-.26-.35-.69-.07-1.27h5.69c.08,.12,.16,.24,.24,.36Z"/><path class="cls-68" d="M67.45,14.37c-.49,.12-.98,.23-1.47,.35,.15,.19,.3,.38,.45,.56h-4.84c-.32-.26-.35-.69-.07-1.27h5.69c.08,.12,.16,.24,.24,.36Z"/><path class="cls-68" d="M68.15,15.26v-1.25h5.78c.08,.12,.17,.24,.25,.36l-1.32,.48c.1,.14,.21,.28,.31,.41h-5.03Z"/><path class="cls-68" d="M74.9,15.27v-1.25h5.77c.1,.12,.19,.25,.29,.37l-1.59,.15c.19,.24,.39,.49,.58,.73h-5.04Z"/><path class="cls-68" d="M81.64,15.26v-1.25h5.79c.08,.12,.16,.24,.24,.35-.44,.17-.87,.34-1.31,.51,.1,.13,.2,.26,.3,.39h-5.02Z"/><path class="cls-68" d="M93.14,15.26h-4.76v-1.25h5.78c.09,.12,.18,.25,.27,.37-.51,.08-1.03,.15-1.54,.23,.08,.22,.17,.44,.25,.65Z"/><path class="cls-68" d="M101.16,14.37c-.48,.13-.96,.26-1.44,.39,.14,.18,.28,.35,.42,.53h-4.82c-.33-.28-.38-.7-.05-1.27h5.67c.07,.12,.15,.23,.22,.35Z"/><path class="cls-68" d="M107.91,14.38c-.5,.1-1,.2-1.5,.3,.16,.2,.32,.4,.48,.6h-4.85c-.31-.25-.35-.68-.06-1.27h5.67c.08,.12,.17,.24,.25,.37Z"/><path class="cls-68" d="M108.53,15.2q1.35-1.36,5.79-1.22c.22,.72-.56,.86-.75,1.22h-5.04Z"/><path class="cls-68" d="M121.47,14.08c-.54,.53-.88,.88-1.24,1.24h-4.6c-.49-.33-.3-.72-.34-1.24h6.18Z"/><path class="cls-68" d="M128.15,14.38c-.51,.09-1.02,.17-1.53,.26,.17,.21,.34,.41,.5,.62h-4.92c-.21-.46-.26-.8,.08-1.25h5.6c.09,.12,.17,.25,.26,.37Z"/><path class="cls-68" d="M134.88,14.37c-.44,.15-.89,.31-1.33,.46,.11,.14,.22,.29,.32,.43h-5.03v-1.25h5.78c.09,.12,.17,.24,.26,.35Z"/><path class="cls-68" d="M141.71,14.08c-.54,.53-.88,.88-1.24,1.24h-4.6c-.49-.33-.3-.72-.34-1.24h6.18Z"/><path class="cls-68" d="M142.34,15.27v-1.25h5.77l.29,.37-1.59,.15c.19,.24,.39,.49,.58,.73h-5.04Z"/><path class="cls-68" d="M155.12,14.37c-.49,.12-.98,.23-1.47,.35,.15,.19,.3,.38,.45,.56h-4.84c-.32-.26-.35-.69-.07-1.27h5.69c.08,.12,.16,.24,.24,.36Z"/><path class="cls-68" d="M155.83,15.26v-1.25h5.79c.08,.12,.16,.24,.24,.35-.44,.17-.87,.34-1.31,.51,.1,.13,.2,.26,.3,.39h-5.02Z"/><path class="cls-68" d="M162.57,15.26v-1.24h5.76c.11,.66-.53,.73-.76,1.24h-5.01Z"/><path class="cls-68" d="M175.33,14.35c-.42,.2-.84,.4-1.27,.59,.08,.11,.17,.23,.25,.34h-4.82c-.25-.16-.27-.52-.23-1.18,1.91-.47,3.89-.11,6.07,.24Z"/><path class="cls-68" d="M175.97,15.2q1.35-1.36,5.79-1.22c.22,.72-.56,.86-.75,1.22h-5.04Z"/><path class="cls-68" d="M188.84,14.38c-.51,.09-1.02,.17-1.53,.26l.5,.62h-4.92c-.21-.46-.26-.8,.08-1.25h5.6c.09,.12,.17,.25,.26,.37Z"/><path class="cls-68" d="M195.59,14.38c-.51,.09-1.02,.17-1.53,.26,.17,.21,.34,.41,.5,.62h-4.92c-.21-.46-.26-.8,.08-1.25h5.6c.09,.12,.17,.25,.26,.37Z"/><path class="cls-68" d="M202.33,14.38l-1.5,.3c.16,.2,.32,.4,.48,.6h-4.85c-.3-.25-.36-.68-.04-1.27h5.66c.08,.12,.17,.24,.25,.37Z"/><path class="cls-68" d="M203.05,15.17c-.02-.32-.03-.66-.06-1.13h5.83q-1.36,1.48-5.77,1.13Z"/><path class="cls-68" d="M209.78,15.26v-1.24h5.76c.11,.66-.53,.73-.76,1.24h-5.01Z"/><path class="cls-68" d="M216.43,15.2q1.35-1.36,5.79-1.22c.22,.72-.56,.86-.75,1.22h-5.04Z"/><path class="cls-68" d="M223.17,15.2q1.35-1.36,5.79-1.22c.22,.72-.56,.86-.75,1.22h-5.04Z"/><path class="cls-68" d="M230.01,15.26v-1.24h5.76c.11,.66-.53,.73-.76,1.24h-5.01Z"/><path class="cls-68" d="M241.82,15.33h-4.78c-.51-.29-.32-.7-.4-1.3,1.91-.31,3.83-.05,5.75-.15,.48,.92-.75,.82-.57,1.45Z"/><path class="cls-68" d="M243.5,15.26v-1.23h5.75c.14,.66-.53,.72-.74,1.23h-5.01Z"/><path class="cls-68" d="M250.15,15.2q1.35-1.36,5.79-1.22c.22,.72-.56,.86-.75,1.22h-5.04Z"/><path class="cls-68" d="M256.98,15.26v-1.25h5.79c.08,.12,.16,.24,.24,.35-.44,.17-.87,.34-1.31,.51,.1,.13,.2,.26,.3,.39h-5.02Z"/><path class="cls-68" d="M269.84,14.08c-.54,.53-.88,.88-1.24,1.24h-4.6c-.49-.33-.3-.72-.34-1.24h6.18Z"/><path class="cls-68" d="M276.51,14.38c-.5,.1-1,.2-1.5,.3,.16,.2,.32,.4,.48,.6h-4.85c-.3-.25-.36-.68-.04-1.27h5.66c.08,.12,.17,.24,.25,.37Z"/><path class="cls-68" d="M283.24,14.37c-.48,.13-.96,.26-1.44,.39,.14,.18,.28,.35,.42,.53h-4.82c-.33-.28-.38-.7-.05-1.27h5.67c.07,.12,.15,.23,.22,.35Z"/><path class="cls-68" d="M283.95,15.26v-1.25h5.79c.06,.67-.54,.76-.79,1.25h-5Z"/><path class="cls-68" d="M296.87,14.02c-.6,.6-.86,.86-1.25,1.24h-4.92v-1.24h6.17Z"/><path class="cls-68" d="M297.45,15.26v-1.25h5.79c.08,.12,.16,.24,.24,.35-.44,.17-.87,.34-1.31,.51,.1,.13,.2,.26,.3,.39h-5.02Z"/><path class="cls-68" d="M304.1,15.2q1.35-1.36,5.79-1.22c.22,.72-.56,.86-.75,1.22h-5.04Z"/><path class="cls-68" d="M316.97,14.37l-1.33,.46c.11,.14,.22,.29,.32,.43h-5.03v-1.25h5.78c.09,.12,.17,.24,.26,.35Z"/><path class="cls-68" d="M317.67,15.26v-1.25h5.79c.06,.67-.54,.76-.79,1.25h-5Z"/><path class="cls-68" d="M324.42,15.26v-1.25h5.78c.08,.12,.17,.24,.25,.35-.44,.16-.88,.32-1.32,.48,.1,.14,.21,.28,.31,.41h-5.03Z"/><path class="cls-68" d="M337.19,14.36c-.43,.18-.86,.36-1.29,.54,.1,.13,.19,.25,.29,.38h-4.84c-.32-.26-.35-.69-.07-1.27h5.69c.08,.12,.15,.23,.23,.35Z"/><path class="cls-68" d="M337.82,15.2q1.35-1.36,5.79-1.22c.22,.72-.56,.86-.75,1.22h-5.04Z"/><path class="cls-68" d="M350.69,14.37l-1.33,.46c.11,.14,.22,.29,.33,.43h-5.03v-1.25h5.78c.09,.12,.17,.24,.26,.35Z"/><path class="cls-68" d="M351.41,15.17c-.02-.32-.03-.66-.06-1.13h5.83q-1.36,1.48-5.77,1.13Z"/><path class="cls-68" d="M358.02,13.95h5.73c.13,.13,.29,.28,.29,.29-.32,.36-.66,.71-1.02,1.09h-4.58c-.52-.31-.31-.72-.42-1.38Z"/><path class="cls-68" d="M364.89,15.26v-1.23h5.75c.14,.66-.53,.72-.74,1.23h-5.01Z"/><path class="cls-68" d="M371.63,15.26v-1.24h5.76c.11,.66-.53,.73-.76,1.24h-5.01Z"/><path class="cls-68" d="M378.37,15.26v-1.25h5.79c.08,.12,.16,.24,.24,.35-.44,.17-.87,.34-1.31,.51,.1,.13,.2,.26,.3,.39h-5.02Z"/><path class="cls-68" d="M391.29,14.02c-.61,.61-.87,.87-1.25,1.25h-4.92v-1.25h6.18Z"/><path class="cls-68" d="M391.86,15.27v-1.25h5.77c.09,.67-.54,.75-.77,1.25h-5Z"/><path class="cls-68" d="M398.6,15.26v-1.25h5.79l.24,.36c-.44,.17-.87,.34-1.31,.51,.1,.13,.2,.26,.3,.39h-5.02Z"/><path class="cls-68" d="M411.52,14.02c-.61,.61-.87,.87-1.25,1.25h-4.92v-1.25h6.18Z"/><path class="cls-68" d="M412.09,15.26v-1.24h5.76c.11,.66-.53,.73-.76,1.24h-5.01Z"/><path class="cls-68" d="M424.88,14.38c-.51,.09-1.02,.17-1.53,.26,.17,.21,.34,.41,.5,.62h-4.92c-.21-.46-.26-.8,.08-1.25h5.6c.09,.12,.17,.25,.26,.37Z"/><path class="cls-68" d="M425.46,13.95h5.73c.13,.13,.29,.28,.29,.29-.32,.36-.66,.71-1.02,1.09h-4.58c-.52-.31-.31-.72-.42-1.38Z"/><path class="cls-68" d="M432.32,15.27v-1.25h5.77c.09,.67-.54,.75-.77,1.25h-5Z"/><path class="cls-68" d="M439.07,15.26v-1.25h5.79c.08,.12,.16,.24,.24,.35-.44,.17-.87,.34-1.31,.51,.1,.13,.2,.26,.3,.39h-5.02Z"/><path class="cls-68" d="M445.83,15.17c-.02-.32-.03-.66-.06-1.13h5.83q-1.36,1.48-5.77,1.13Z"/><path class="cls-68" d="M452.55,15.27v-1.25h5.77c.09,.67-.54,.75-.77,1.25h-5Z"/><path class="cls-68" d="M464.37,15.33h-4.78c-.51-.29-.32-.7-.4-1.3,1.91-.31,3.83-.05,5.75-.15,.48,.92-.75,.82-.57,1.45Z"/><path class="cls-68" d="M.54,67.78H6.32c.13,.13,.29,.28,.29,.29-.32,.36-.66,.71-1.02,1.09H1.02c-.54-.31-.3-.72-.48-1.38Z"/><path class="cls-68" d="M7.46,69.09v-1.25h5.79c.08,.12,.16,.24,.24,.35-.44,.17-.87,.34-1.31,.51l.3,.39H7.46Z"/><path class="cls-68" d="M14.21,69.1v-1.24h5.76c.11,.66-.53,.73-.76,1.24h-5.01Z"/><path class="cls-68" d="M25.7,69.09h-4.76v-1.25h5.78c.09,.12,.18,.25,.27,.37-.51,.08-1.03,.15-1.54,.23,.08,.22,.17,.44,.25,.65Z"/><path class="cls-68" d="M27.69,69.1v-1.25h5.77c.09,.67-.54,.75-.77,1.25h-5Z"/><path class="cls-68" d="M34.43,69.1v-1.25h5.77c.09,.67-.54,.75-.77,1.25h-5Z"/><path class="cls-68" d="M41.18,69.1v-1.24h5.76c.11,.66-.53,.73-.76,1.24h-5.01Z"/><path class="cls-68" d="M54.04,67.91c-.54,.53-.88,.88-1.24,1.24h-4.6c-.49-.33-.3-.72-.34-1.24h6.18Z"/><path class="cls-68" d="M54.49,67.78h5.79c.13,.13,.29,.28,.29,.29-.32,.36-.66,.71-1.02,1.09h-4.58c-.54-.31-.3-.72-.48-1.38Z"/><path class="cls-68" d="M67.58,67.85c-.61,.61-.87,.87-1.25,1.25h-4.92v-1.25h6.18Z"/><path class="cls-68" d="M74.18,68.2c-.43,.17-.87,.34-1.3,.51,.1,.13,.2,.27,.3,.4h-4.85c-.3-.25-.36-.68-.04-1.27h5.66c.08,.12,.16,.24,.24,.35Z"/><path class="cls-68" d="M74.9,69.1v-1.24h5.76c.11,.66-.53,.73-.76,1.24h-5.01Z"/><path class="cls-68" d="M87.67,68.19c-.43,.18-.86,.36-1.29,.54,.1,.13,.19,.25,.29,.38h-4.83c-.31-.27-.37-.69-.05-1.27h5.66c.08,.12,.15,.23,.23,.35Z"/><path class="cls-68" d="M94.43,68.21c-.51,.09-1.02,.17-1.53,.26,.17,.21,.34,.41,.5,.62h-5.02v-1.25h5.78c.09,.12,.17,.25,.26,.37Z"/><path class="cls-68" d="M101.24,67.91c-.54,.53-.88,.88-1.24,1.24h-4.6c-.49-.33-.3-.72-.34-1.24h6.18Z"/><path class="cls-68" d="M107.99,67.91c-.54,.53-.88,.88-1.24,1.24h-4.6c-.49-.33-.3-.72-.34-1.24h6.18Z"/><path class="cls-68" d="M108.62,69.09v-1.23h5.75c.14,.66-.53,.72-.74,1.23h-5.01Z"/><path class="cls-68" d="M122.15,67.85c-1.19,.53-1.62,.72-2.04,.91,.09,.12,.18,.24,.27,.36h-4.82c-.33-.28-.38-.7-.05-1.27h6.65Z"/><path class="cls-68" d="M122.11,69.09v-1.25h5.79c.08,.12,.16,.24,.24,.35-.44,.17-.87,.34-1.31,.51,.1,.13,.2,.26,.3,.39h-5.02Z"/><path class="cls-68" d="M134.96,67.91c-.54,.53-.88,.88-1.24,1.24h-4.6c-.49-.33-.3-.72-.34-1.24h6.18Z"/><path class="cls-68" d="M141.63,68.2c-.44,.15-.89,.31-1.33,.46,.11,.14,.22,.29,.33,.43h-5.03v-1.25h5.78c.09,.12,.17,.24,.26,.35Z"/><path class="cls-68" d="M142.33,69.1v-1.25h5.79c.06,.67-.54,.76-.79,1.25h-5Z"/><path class="cls-68" d="M148.9,67.78h5.79c.13,.13,.29,.28,.29,.29-.32,.36-.66,.71-1.02,1.09h-4.58c-.54-.31-.3-.72-.48-1.38Z"/><path class="cls-68" d="M161.99,67.85c-.6,.6-.86,.86-1.25,1.24h-4.92v-1.24h6.17Z"/><path class="cls-68" d="M168.74,67.85c-.6,.6-.86,.86-1.25,1.24h-4.92v-1.24h6.17Z"/><path class="cls-68" d="M169.33,69c-.02-.32-.03-.66-.06-1.13h5.83q-1.36,1.48-5.77,1.13Z"/><path class="cls-68" d="M180.81,69.22c-1.48,0-2.96,0-4.43-.01-.09,0-.18-.16-.32-.29v-1.07h5.78c.09,.12,.18,.25,.27,.37-.51,.08-1.03,.15-1.54,.23,.08,.26,.17,.52,.25,.78Z"/><path class="cls-68" d="M188.83,68.2c-.44,.15-.89,.31-1.33,.46,.11,.14,.22,.29,.33,.43h-5.03v-1.25h5.78l.26,.35Z"/><path class="cls-68" d="M195.71,67.85c-.6,.6-.86,.86-1.25,1.24h-4.92v-1.24h6.17Z"/><path class="cls-68" d="M196.21,69.03q1.34-1.36,5.78-1.22c.22,.72-.56,.86-.75,1.22h-5.03Z"/><path class="cls-68" d="M203.03,69.1v-1.24h5.76c.11,.66-.53,.73-.76,1.24h-5.01Z"/><path class="cls-68" d="M215.89,67.91c-.54,.53-.88,.88-1.24,1.24h-4.6c-.49-.33-.3-.72-.34-1.24h6.18Z"/><path class="cls-68" d="M222.69,67.85c-.6,.6-.86,.86-1.25,1.24h-4.92v-1.24h6.17Z"/><path class="cls-68" d="M223.27,69.09v-1.23h5.75c.14,.66-.53,.72-.74,1.23h-5.01Z"/><path class="cls-68" d="M236.12,67.91c-.54,.53-.88,.88-1.24,1.24h-4.6c-.49-.33-.3-.72-.34-1.24h6.18Z"/><path class="cls-68" d="M241.64,69.16h-4.6c-.51-.29-.32-.7-.39-1.26,1.9-.41,3.83-.02,5.73-.23,.32,.87-.49,.99-.74,1.49Z"/><path class="cls-68" d="M249.52,68.19c-.43,.18-.86,.36-1.29,.54,.1,.13,.19,.25,.29,.38h-4.83c-.31-.27-.37-.69-.05-1.27h5.66c.08,.12,.15,.23,.23,.35Z"/><path class="cls-68" d="M255.13,69.16h-4.6c-.51-.29-.32-.7-.4-1.3,1.91-.32,3.83-.02,5.74-.19,.32,.86-.5,.98-.75,1.48Z"/><path class="cls-68" d="M263,68.19c-.42,.2-.84,.4-1.27,.59,.08,.11,.17,.23,.25,.34h-4.82c-.24-.17-.29-.51-.19-1.27,1.87-.34,3.85,.02,6.02,.33Z"/><path class="cls-68" d="M269.74,68.19c-.42,.2-.84,.4-1.27,.59,.08,.11,.17,.23,.25,.34h-4.82c-.24-.17-.29-.51-.19-1.27,1.87-.34,3.85,.02,6.02,.33Z"/><path class="cls-68" d="M276.64,67.85c-.6,.6-.86,.86-1.25,1.24h-4.92v-1.24h6.17Z"/><path class="cls-68" d="M277.21,69.09v-1.25h5.79c.08,.12,.16,.24,.24,.35l-1.31,.51c.1,.13,.2,.26,.3,.39h-5.02Z"/><path class="cls-68" d="M283.95,69.1v-1.25h5.79c.06,.67-.54,.76-.79,1.25h-5Z"/><path class="cls-68" d="M290.7,69.09v-1.25h5.78c.08,.12,.17,.24,.25,.35-.44,.16-.88,.32-1.32,.48,.1,.14,.21,.28,.31,.41h-5.03Z"/><path class="cls-68" d="M303.47,68.19c-.43,.18-.86,.36-1.29,.54,.1,.13,.19,.25,.29,.38h-4.83c-.31-.27-.37-.69-.05-1.27h5.66c.08,.12,.15,.23,.23,.35Z"/><path class="cls-68" d="M308.94,69.09h-4.76v-1.25h5.78c.09,.12,.18,.25,.27,.37-.51,.08-1.03,.15-1.54,.23l.25,.65Z"/><path class="cls-68" d="M310.94,69.1v-1.24h5.76c.11,.66-.53,.73-.76,1.24h-5.01Z"/><path class="cls-68" d="M317.68,69.1v-1.24h5.76c.11,.66-.53,.73-.76,1.24h-5.01Z"/><path class="cls-68" d="M324.42,69.1v-1.24h5.76c.11,.66-.53,.73-.76,1.24h-5.01Z"/><path class="cls-68" d="M331.16,69.1v-1.25h5.77c.09,.67-.54,.75-.77,1.25h-5Z"/><path class="cls-68" d="M337.9,69.1v-1.25h5.79c.06,.67-.54,.76-.79,1.25h-5Z"/><path class="cls-68" d="M350.68,68.2c-.43,.17-.87,.34-1.3,.51,.1,.13,.2,.27,.3,.4h-4.85c-.31-.25-.35-.68-.06-1.27h5.67c.08,.12,.16,.24,.24,.35Z"/><path class="cls-68" d="M357.43,68.2c-.44,.15-.89,.31-1.33,.46,.11,.14,.22,.29,.33,.43h-5.03v-1.25h5.78c.09,.12,.17,.24,.26,.35Z"/><path class="cls-68" d="M358.14,69.1v-1.25h5.77c.09,.67-.54,.75-.77,1.25h-5Z"/><path class="cls-68" d="M370.91,68.19c-.43,.18-.86,.36-1.29,.54,.1,.13,.19,.25,.29,.38h-4.83c-.31-.27-.37-.69-.05-1.27h5.66c.08,.12,.15,.23,.23,.35Z"/><path class="cls-68" d="M378.41,67.85c-1.19,.53-1.62,.72-2.04,.91,.09,.12,.18,.24,.27,.36h-4.82c-.33-.28-.38-.7-.05-1.27h6.65Z"/><path class="cls-68" d="M383.12,69.09h-4.76v-1.25h5.78c.09,.12,.18,.25,.27,.37-.51,.08-1.03,.15-1.54,.23,.08,.22,.17,.44,.25,.65Z"/><path class="cls-68" d="M391.9,67.85c-1.19,.53-1.62,.72-2.04,.91,.09,.12,.18,.24,.27,.36h-4.82c-.33-.28-.38-.7-.05-1.27h6.65Z"/><path class="cls-68" d="M398.03,67.85c-.61,.61-.87,.87-1.25,1.25h-4.93v-1.25h6.18Z"/><path class="cls-68" d="M404.62,68.19c-.42,.2-.84,.4-1.27,.59,.08,.11,.17,.23,.25,.34h-4.82c-.24-.17-.29-.51-.24-.91,.13-.15,.28-.47,.43-.47,1.81-.03,3.63-.02,5.45-.02l.19,.46Z"/><path class="cls-68" d="M405.36,69c-.02-.32-.03-.66-.06-1.13h5.83q-1.36,1.48-5.77,1.13Z"/><path class="cls-68" d="M418.11,68.19c-.42,.2-.84,.4-1.27,.59,.08,.11,.17,.23,.25,.34h-4.82c-.24-.17-.29-.51-.24-.91,.13-.15,.28-.47,.43-.47,1.81-.03,3.63-.02,5.45-.02l.19,.46Z"/><path class="cls-68" d="M418.83,69.1v-1.25h5.79c.06,.67-.54,.76-.79,1.25h-5Z"/><path class="cls-68" d="M431.62,68.21c-.51,.09-1.02,.17-1.53,.26,.17,.21,.34,.41,.5,.62h-5.02v-1.25h5.78c.09,.12,.17,.25,.26,.37Z"/><path class="cls-68" d="M432.24,69.03q1.34-1.36,5.78-1.22c.22,.72-.56,.86-.75,1.22h-5.03Z"/><path class="cls-68" d="M439.07,69.1v-1.24h5.76c.11,.66-.53,.73-.76,1.24h-5.01Z"/><path class="cls-68" d="M445.73,69.03q1.34-1.36,5.78-1.22c.22,.72-.56,.86-.75,1.22h-5.03Z"/><path class="cls-68" d="M458.57,68.19c-.42,.2-.84,.4-1.27,.59,.08,.11,.17,.23,.25,.34h-4.82c-.24-.17-.29-.51-.24-.91,.13-.15,.28-.47,.43-.47,1.81-.03,3.63-.02,5.45-.02l.19,.46Z"/><path class="cls-68" d="M465.34,68.21c-.51,.09-1.02,.17-1.53,.26,.17,.21,.34,.41,.5,.62h-5.02v-1.25h5.78c.09,.12,.17,.25,.26,.37Z"/><path class="cls-68" d="M7.5,70.84c-1.19,.53-1.62,.72-2.04,.91,.09,.12,.18,.24,.27,.36H.91c-.33-.28-.38-.7-.05-1.27H7.5Z"/><path class="cls-68" d="M13.57,70.9c-.54,.53-.88,.88-1.24,1.24H7.73c-.49-.33-.3-.72-.34-1.24h6.18Z"/><path class="cls-68" d="M14.2,72.09v-1.25h5.77c.09,.67-.54,.75-.77,1.25h-5Z"/><path class="cls-68" d="M20.95,72.08v-1.25h5.79c.08,.12,.16,.24,.24,.35-.44,.17-.87,.34-1.31,.51,.1,.13,.2,.26,.3,.39h-5.02Z"/><path class="cls-68" d="M32.44,72.08h-4.76v-1.25h5.78c.09,.12,.18,.25,.27,.37-.51,.08-1.03,.15-1.54,.23,.08,.22,.17,.44,.25,.65Z"/><path class="cls-68" d="M39.19,72.08h-4.76v-1.25h5.78c.09,.12,.18,.25,.27,.37-.51,.08-1.03,.15-1.54,.23,.08,.22,.17,.44,.25,.65Z"/><path class="cls-68" d="M45.93,72.08h-4.76v-1.25h5.78c.09,.12,.18,.25,.27,.37-.51,.08-1.03,.15-1.54,.23,.08,.22,.17,.44,.25,.65Z"/><path class="cls-68" d="M52.68,72.08h-4.76v-1.25h5.78c.09,.12,.18,.25,.27,.37-.51,.08-1.03,.15-1.54,.23,.08,.22,.17,.44,.25,.65Z"/><path class="cls-68" d="M60.69,71.18c-.43,.18-.86,.36-1.29,.54,.1,.13,.19,.25,.29,.38h-4.83c-.31-.27-.37-.69-.05-1.27h5.66c.08,.12,.15,.23,.23,.35Z"/><path class="cls-68" d="M61.41,72.09v-1.25h5.77c.09,.67-.54,.75-.77,1.25h-5Z"/><path class="cls-68" d="M80.93,71.19c-.43,.17-.87,.34-1.3,.51,.1,.13,.2,.27,.3,.4h-4.85c-.3-.25-.36-.68-.04-1.27h5.66c.08,.12,.16,.24,.24,.35Z"/><path class="cls-68" d="M87.69,71.2c-.51,.09-1.02,.17-1.53,.26,.17,.21,.34,.41,.5,.62h-5.02v-1.25h5.78l.26,.37Z"/><path class="cls-68" d="M88.39,72.09v-1.25h5.77c.09,.67-.54,.75-.77,1.25h-5Z"/><path class="cls-68" d="M101.3,70.84c-.6,.6-.86,.86-1.25,1.24h-4.92v-1.24h6.17Z"/><path class="cls-68" d="M101.79,72.02q1.34-1.36,5.78-1.22c.22,.72-.56,.86-.75,1.22h-5.03Z"/><path class="cls-68" d="M108.64,71.99c-.02-.32-.03-.66-.06-1.13h5.83q-1.36,1.48-5.77,1.13Z"/><path class="cls-68" d="M121.13,70.83c.02,.2,.07,.32,.03,.37-.25,.27-.52,.53-.81,.82-.77,.41-1.63,.18-2.46,.17-.83,0-1.7,.27-2.53-.25v-1.11h5.77Z"/><path class="cls-68" d="M122.11,72.08v-1.23h5.75c.14,.66-.53,.72-.74,1.23h-5.01Z"/><path class="cls-68" d="M134.87,71.18c-.42,.2-.84,.4-1.27,.59,.08,.11,.17,.23,.25,.34h-4.82c-.24-.17-.29-.51-.24-.91,.13-.15,.28-.47,.43-.47,1.81-.03,3.63-.02,5.45-.02,.06,.15,.13,.31,.19,.46Z"/><path class="cls-68" d="M135.6,72.09v-1.24h5.76c.11,.66-.53,.73-.76,1.24h-5.01Z"/><path class="cls-68" d="M142.36,71.99c-.02-.32-.03-.66-.06-1.13h5.83q-1.36,1.48-5.77,1.13Z"/><path class="cls-68" d="M153.97,72.15h-4.6c-.51-.29-.32-.7-.39-1.26,1.9-.42,3.83-.02,5.73-.24,.32,.88-.49,1-.74,1.5Z"/><path class="cls-68" d="M155.83,72.08v-1.23h5.75c.14,.66-.53,.72-.74,1.23h-5.01Z"/><path class="cls-68" d="M169.35,70.84c-1.19,.53-1.62,.72-2.04,.91,.09,.12,.18,.24,.27,.36h-4.82c-.33-.28-.38-.7-.05-1.27h6.65Z"/><path class="cls-68" d="M174.2,72.15h-4.6c-.51-.29-.32-.7-.4-1.3,1.91-.32,3.83-.02,5.74-.19,.32,.86-.5,.98-.75,1.48Z"/><path class="cls-68" d="M182.07,71.18c-.42,.2-.84,.4-1.27,.59,.08,.11,.17,.23,.25,.34h-4.82c-.24-.17-.29-.51-.19-1.27,1.87-.34,3.85,.02,6.02,.33Z"/><path class="cls-68" d="M188.97,70.84c-.6,.6-.86,.86-1.25,1.24h-4.92v-1.24h6.17Z"/><path class="cls-68" d="M189.56,71.99c-.02-.32-.03-.66-.06-1.13h5.83q-1.36,1.48-5.77,1.13Z"/><path class="cls-68" d="M202.06,70.83c.02,.2,.07,.32,.03,.37-.25,.27-.52,.53-.81,.82-.77,.41-1.63,.14-2.46,.18-.83,.04-1.67,0-2.53,0v-1.38h5.77Z"/><path class="cls-68" d="M203.03,72.09v-1.25h5.79c.06,.67-.54,.76-.79,1.25h-5Z"/><path class="cls-68" d="M209.77,72.08v-1.25h5.78c.08,.12,.17,.24,.25,.36-.44,.16-.88,.32-1.32,.48,.1,.14,.21,.28,.31,.41h-5.03Z"/><path class="cls-68" d="M216.52,72.09v-1.24h5.76c.11,.66-.53,.73-.76,1.24h-5.01Z"/><path class="cls-68" d="M229.44,70.84c-.61,.61-.87,.87-1.25,1.25h-4.92v-1.25h6.18Z"/><path class="cls-68" d="M229.83,70.77h5.79c.13,.13,.29,.28,.29,.29-.32,.36-.66,.71-1.02,1.09h-4.58c-.54-.31-.3-.72-.48-1.38Z"/><path class="cls-68" d="M242.77,71.18c-.43,.18-.86,.36-1.29,.54,.1,.13,.19,.25,.29,.38h-4.83c-.31-.27-.37-.69-.05-1.27h5.66c.08,.12,.15,.23,.23,.35Z"/><path class="cls-68" d="M243.49,72.08v-1.25h5.78c.08,.12,.17,.24,.25,.35-.44,.16-.88,.32-1.32,.48,.1,.14,.21,.28,.31,.41h-5.03Z"/><path class="cls-68" d="M250.24,72.08v-1.25h5.78c.08,.12,.17,.24,.25,.35l-1.32,.48c.1,.14,.21,.28,.31,.41h-5.03Z"/><path class="cls-68" d="M263.15,70.84c-.6,.6-.86,.86-1.25,1.24h-4.92v-1.24h6.17Z"/><path class="cls-68" d="M269.74,71.18c-.42,.2-.84,.4-1.27,.59,.08,.11,.17,.23,.25,.34h-4.82c-.24-.17-.29-.51-.24-.91,.13-.15,.28-.47,.43-.47,1.81-.03,3.63-.02,5.45-.02,.06,.15,.13,.31,.19,.46Z"/><path class="cls-68" d="M275.22,72.08h-4.76v-1.25h5.78c.09,.12,.18,.25,.27,.37-.51,.08-1.03,.15-1.54,.23,.08,.22,.17,.44,.25,.65Z"/><path class="cls-68" d="M277.21,72.08v-1.25h5.78l.25,.35-1.32,.48c.1,.14,.21,.28,.31,.41h-5.03Z"/><path class="cls-68" d="M290.13,70.84c-.61,.61-.87,.87-1.25,1.25h-4.92v-1.25h6.18Z"/><path class="cls-68" d="M290.7,72.09v-1.25h5.79c.06,.67-.54,.76-.79,1.25h-5Z"/><path class="cls-68" d="M303.61,70.84c-.6,.6-.86,.86-1.25,1.24h-4.92v-1.24h6.17Z"/><path class="cls-68" d="M310.22,71.19c-.44,.15-.89,.31-1.33,.46,.11,.14,.22,.29,.32,.43h-5.03v-1.25h5.78c.09,.12,.17,.24,.26,.35Z"/><path class="cls-68" d="M310.93,72.08v-1.25h5.79c.08,.12,.16,.24,.24,.35-.44,.17-.87,.34-1.31,.51,.1,.13,.2,.26,.3,.39h-5.02Z"/><path class="cls-68" d="M323.71,71.19c-.44,.15-.89,.31-1.33,.46l.33,.43h-5.03v-1.25h5.78c.09,.12,.17,.24,.26,.35Z"/><path class="cls-68" d="M324.43,72.08v-1.23h5.75c.14,.66-.53,.72-.74,1.23h-5.01Z"/><path class="cls-68" d="M331.18,71.99c-.02-.32-.03-.66-.06-1.13h5.83q-1.36,1.48-5.77,1.13Z"/><path class="cls-68" d="M337.91,72.09v-1.25h5.77c.09,.67-.54,.75-.77,1.25h-5Z"/><path class="cls-68" d="M350.82,70.84c-.6,.6-.86,.86-1.25,1.24h-4.92v-1.24h6.17Z"/><path class="cls-68" d="M357.57,70.84c-.6,.6-.86,.86-1.25,1.24h-4.92v-1.24h6.17Z"/><path class="cls-68" d="M364.31,70.84c-.61,.61-.87,.87-1.25,1.25h-4.92v-1.25h6.18Z"/><path class="cls-68" d="M371.06,70.84c-.61,.61-.87,.87-1.25,1.25h-4.92v-1.25h6.18Z"/><path class="cls-68" d="M371.62,72.08v-1.25h5.78c.08,.12,.17,.24,.25,.35-.44,.16-.88,.32-1.32,.48,.1,.14,.21,.28,.31,.41h-5.03Z"/><path class="cls-68" d="M383.12,72.08h-4.76v-1.25h5.78c.09,.12,.18,.25,.27,.37l-1.54,.23c.08,.22,.17,.44,.25,.65Z"/><path class="cls-68" d="M391.9,70.84c-1.19,.53-1.62,.72-2.04,.91,.09,.12,.18,.24,.27,.36h-4.82c-.33-.28-.38-.7-.05-1.27h6.65Z"/><path class="cls-68" d="M397.88,71.18c-.42,.2-.84,.4-1.27,.59l.25,.34h-4.82c-.24-.17-.29-.51-.24-.91,.13-.15,.28-.47,.43-.47,1.81-.03,3.63-.02,5.45-.02,.06,.15,.13,.31,.19,.46Z"/><path class="cls-68" d="M404.63,71.19c-.43,.17-.87,.34-1.3,.51,.1,.13,.2,.27,.3,.4h-4.85c-.31-.25-.35-.68-.06-1.27h5.67c.08,.12,.16,.24,.24,.35Z"/><path class="cls-68" d="M411.36,71.18c-.42,.2-.84,.4-1.27,.59l.25,.34h-4.82c-.24-.17-.29-.51-.24-.91,.13-.15,.28-.47,.43-.47,1.81-.03,3.63-.02,5.45-.02,.06,.15,.13,.31,.19,.46Z"/><path class="cls-68" d="M418.12,71.19c-.44,.15-.89,.31-1.33,.46,.11,.14,.22,.29,.32,.43h-5.03v-1.25h5.78c.09,.12,.17,.24,.26,.35Z"/><path class="cls-68" d="M423.59,72.08h-4.76v-1.25h5.78c.09,.12,.18,.25,.27,.37-.51,.08-1.03,.15-1.54,.23l.25,.65Z"/><path class="cls-68" d="M425.58,72.09v-1.25h5.77c.09,.67-.54,.75-.77,1.25h-5Z"/><path class="cls-68" d="M432.32,72.09v-1.24h5.76c.11,.66-.53,.73-.76,1.24h-5.01Z"/><path class="cls-68" d="M445.24,70.84c-.61,.61-.87,.87-1.25,1.25h-4.92v-1.25h6.18Z"/><path class="cls-68" d="M445.83,71.99c-.02-.32-.03-.66-.06-1.13h5.83q-1.36,1.48-5.77,1.13Z"/><path class="cls-68" d="M452.55,72.08v-1.25h5.79c.08,.12,.16,.24,.24,.35-.44,.17-.87,.34-1.31,.51,.1,.13,.2,.26,.3,.39h-5.02Z"/><path class="cls-68" d="M459.32,71.99c-.02-.32-.03-.66-.06-1.13h5.83q-1.36,1.48-5.77,1.13Z"/><path class="cls-85" d="M211.71,97.63c.21,.08,.42,.17,.86,.35-1.08,.72-2.15,.24-3.11,.4-.5,.44-1,.44-1.5,0h-1.5c-.5-1.5,1.18-.81,1.5-1.5,.29-.74-.69-1.89,.75-2.24,.46,.04,.53,.47,.75,.75v1.5c.6,.71,1.64,.06,2.25,.75Z"/><path class="cls-103" d="M256.67,98.38v.75c-.52-.02-.77,.23-.75,.75-.43,.45-.6,1.04-.9,1.56-.18,.24-.38,.47-.6,.68-1.44-.35-.46-1.51-.75-2.24,.94-1.11-.19-2.63,.75-3.74h1.5c.71,.59,.76,1.41,.75,2.24Z"/><path class="cls-86" d="M160.76,117.07v-9.72c.86-.46,1.57-.64,1.5,.75-.61,2.74-.61,5.48,0,8.22,.07,1.39-.64,1.21-1.5,.75Z"/><path class="cls-68" d="M.59,10.96H6.32c.13,.13,.29,.28,.29,.29-.32,.36-.66,.71-1.02,1.09H1.01c-.52-.31-.31-.72-.42-1.38Z"/><path class="cls-68" d="M7.46,12.27v-1.25h5.79c.06,.67-.54,.76-.79,1.25H7.46Z"/><path class="cls-68" d="M20.23,11.38c-.48,.13-.96,.26-1.44,.39,.14,.18,.28,.35,.42,.53h-4.82c-.33-.28-.38-.7-.05-1.27h5.67c.07,.12,.15,.23,.22,.35Z"/><path class="cls-68" d="M26.02,12.34h-4.78c-.51-.29-.32-.7-.4-1.3,1.91-.31,3.83-.05,5.75-.15,.48,.92-.75,.82-.57,1.45Z"/><path class="cls-68" d="M33.86,11.03c-.61,.61-.87,.87-1.25,1.25h-4.92v-1.25h6.18Z"/><path class="cls-68" d="M34.44,12.27v-1.23h5.75c.14,.66-.53,.72-.74,1.23h-5.01Z"/><path class="cls-68" d="M41.09,12.21q1.35-1.36,5.79-1.22c.22,.72-.56,.86-.75,1.22h-5.04Z"/><path class="cls-68" d="M47.83,12.21q1.35-1.36,5.79-1.22c.22,.72-.56,.86-.75,1.22h-5.04Z"/><path class="cls-68" d="M54.58,12.21q1.35-1.36,5.79-1.22c.22,.72-.56,.86-.75,1.22h-5.04Z"/><path class="cls-68" d="M67.45,11.39c-.5,.1-1,.2-1.5,.3,.16,.2,.32,.4,.48,.6h-4.85c-.31-.25-.35-.68-.06-1.27h5.67c.08,.12,.17,.24,.25,.37Z"/><path class="cls-68" d="M72.91,12.27h-4.76v-1.25h5.78c.09,.12,.18,.25,.27,.37-.51,.08-1.03,.15-1.54,.23,.08,.22,.17,.44,.25,.65Z"/><path class="cls-68" d="M74.9,12.27v-1.24h5.76c.11,.66-.53,.73-.76,1.24h-5.01Z"/><path class="cls-68" d="M81.66,12.17c-.02-.32-.03-.66-.06-1.13h5.83q-1.36,1.48-5.77,1.13Z"/><path class="cls-68" d="M94.56,11.03c-.6,.6-.86,.86-1.25,1.24h-4.92v-1.24h6.17Z"/><path class="cls-68" d="M101.16,11.38c-.48,.13-.96,.26-1.44,.39l.42,.53h-4.82c-.33-.28-.38-.7-.05-1.27h5.67c.07,.12,.15,.23,.22,.35Z"/><path class="cls-68" d="M108.04,11.03c-.6,.6-.86,.86-1.25,1.24h-4.92v-1.24h6.17Z"/><path class="cls-68" d="M114.63,11.36l-1.27,.59c.08,.11,.17,.23,.25,.34h-4.82c-.25-.16-.27-.52-.23-1.18,1.91-.47,3.89-.11,6.07,.24Z"/><path class="cls-68" d="M115.36,12.27v-1.25h5.79c.08,.12,.16,.24,.24,.35-.44,.17-.87,.34-1.31,.51,.1,.13,.2,.26,.3,.39h-5.02Z"/><path class="cls-68" d="M128.14,11.39c-.5,.1-1,.2-1.5,.3,.16,.2,.32,.4,.48,.6h-4.85c-.31-.25-.35-.68-.06-1.27h5.67c.08,.12,.17,.24,.25,.37Z"/><path class="cls-68" d="M128.85,12.27v-1.24h5.76c.11,.66-.53,.73-.76,1.24h-5.01Z"/><path class="cls-68" d="M141.63,11.39c-.5,.1-1,.2-1.5,.3l.48,.6h-4.85c-.31-.25-.35-.68-.06-1.27h5.67c.08,.12,.17,.24,.25,.37Z"/><path class="cls-68" d="M142.33,12.27v-1.25h5.78l.25,.35c-.44,.16-.88,.32-1.32,.48,.1,.14,.21,.28,.31,.41h-5.03Z"/><path class="cls-68" d="M148.96,10.96h5.73c.13,.13,.29,.28,.29,.29-.32,.36-.66,.71-1.02,1.09h-4.58c-.52-.31-.31-.72-.42-1.38Z"/><path class="cls-68" d="M155.74,12.21q1.35-1.36,5.79-1.22c.22,.72-.56,.86-.75,1.22h-5.04Z"/><path class="cls-68" d="M162.57,12.27v-1.23h5.75c.14,.66-.53,.72-.74,1.23h-5.01Z"/><path class="cls-68" d="M175.34,11.38c-.48,.13-.96,.26-1.44,.39,.14,.18,.28,.35,.42,.53h-4.82c-.33-.28-.38-.7-.05-1.27h5.67c.07,.12,.15,.23,.22,.35Z"/><path class="cls-68" d="M176.07,12.17c-.02-.32-.03-.66-.06-1.13h5.83q-1.36,1.48-5.77,1.13Z"/><path class="cls-68" d="M188.83,11.38l-1.33,.46,.33,.43h-5.03v-1.25h5.78c.09,.12,.17,.24,.26,.35Z"/><path class="cls-68" d="M195.57,11.38c-.48,.13-.96,.26-1.44,.39,.14,.18,.28,.35,.42,.53h-4.82c-.33-.28-.38-.7-.05-1.27h5.67c.07,.12,.15,.23,.22,.35Z"/><path class="cls-68" d="M202.32,11.38c-.44,.15-.89,.31-1.33,.46,.11,.14,.22,.29,.33,.43h-5.03v-1.25h5.78c.09,.12,.17,.24,.26,.35Z"/><path class="cls-68" d="M203.03,12.27v-1.25h5.79c.08,.12,.16,.24,.24,.35-.44,.17-.87,.34-1.31,.51,.1,.13,.2,.26,.3,.39h-5.02Z"/><path class="cls-68" d="M215.94,11.03c-.6,.6-.86,.86-1.25,1.24h-4.92v-1.24h6.17Z"/><path class="cls-68" d="M222.69,11.03c-.61,.61-.87,.87-1.25,1.25h-4.92v-1.25h6.18Z"/><path class="cls-68" d="M223.28,12.17c-.02-.32-.03-.66-.06-1.13h5.83q-1.36,1.48-5.77,1.13Z"/><path class="cls-68" d="M235.78,11.02c.02,.2,.07,.32,.03,.37-.25,.27-.52,.53-.87,.88h-4.82c-.21-.46-.26-.8,.08-1.25h5.59Z"/><path class="cls-68" d="M242.77,11.36c-.42,.2-.84,.4-1.27,.59,.08,.11,.17,.23,.25,.34h-4.82c-.25-.16-.27-.52-.23-1.18,1.91-.47,3.89-.11,6.07,.24Z"/><path class="cls-68" d="M243.5,12.27v-1.23h5.75c.14,.66-.53,.72-.74,1.23h-5.01Z"/><path class="cls-68" d="M250.12,10.96h5.73c.13,.13,.29,.28,.29,.29-.32,.36-.66,.71-1.02,1.09h-4.58c-.52-.31-.31-.72-.42-1.38Z"/><path class="cls-68" d="M256.98,12.27v-1.25h5.79c.06,.67-.54,.76-.79,1.25h-5Z"/><path class="cls-68" d="M263.73,12.27v-1.25h5.79c.08,.12,.16,.24,.24,.35-.44,.17-.87,.34-1.31,.51,.1,.13,.2,.26,.3,.39h-5.02Z"/><path class="cls-68" d="M270.48,12.27v-1.23h5.75c.14,.66-.53,.72-.74,1.23h-5.01Z"/><path class="cls-68" d="M283.25,11.38l-1.33,.46,.33,.43h-5.03v-1.25h5.78c.09,.12,.17,.24,.26,.35Z"/><path class="cls-68" d="M289.99,11.38c-.44,.15-.89,.31-1.33,.46l.33,.43h-5.03v-1.25h5.78c.09,.12,.17,.24,.26,.35Z"/><path class="cls-68" d="M290.72,12.17c-.02-.32-.03-.66-.06-1.13h5.83q-1.36,1.48-5.77,1.13Z"/><path class="cls-68" d="M297.44,12.27v-1.25h5.78c.08,.12,.17,.24,.25,.35-.44,.16-.88,.32-1.32,.48,.1,.14,.21,.28,.31,.41h-5.03Z"/><path class="cls-68" d="M304.19,12.27v-1.25h5.79c.08,.12,.16,.24,.24,.35-.44,.17-.87,.34-1.31,.51,.1,.13,.2,.26,.3,.39h-5.02Z"/><path class="cls-68" d="M300.96,169.93c-.02-.32-.03-.66-.06-1.13h5.83q-1.36,1.48-5.77,1.13Z"/><path class="cls-68" d="M327.35,168.79c-.61,.61-.87,.87-1.25,1.25h-4.92v-1.25h6.18Z"/><path class="cls-68" d="M310.94,12.27v-1.23h5.75c.14,.66-.53,.72-.74,1.23h-5.01Z"/><path class="cls-68" d="M322.75,12.34h-4.78c-.51-.29-.32-.7-.4-1.3,1.91-.31,3.83-.05,5.75-.15,.48,.92-.75,.82-.57,1.45Z"/><path class="cls-68" d="M324.42,12.27v-1.25h5.78l.25,.35c-.44,.16-.88,.32-1.32,.48,.1,.14,.21,.28,.31,.41h-5.03Z"/><path class="cls-68" d="M331.18,12.17c-.02-.32-.03-.66-.06-1.13h5.83q-1.36,1.48-5.77,1.13Z"/><path class="cls-68" d="M342.66,12.27h-4.76v-1.25h5.78c.09,.12,.18,.25,.27,.37-.51,.08-1.03,.15-1.54,.23,.08,.22,.17,.44,.25,.65Z"/><path class="cls-68" d="M350.82,11.03c-.6,.6-.86,.86-1.25,1.24h-4.92v-1.24h6.17Z"/><path class="cls-68" d="M357.44,11.39c-.51,.09-1.02,.17-1.53,.26,.17,.21,.34,.41,.5,.62h-4.92c-.21-.46-.26-.8,.08-1.25h5.6c.09,.12,.17,.25,.26,.37Z"/><path class="cls-68" d="M364.17,11.38c-.44,.15-.89,.31-1.33,.46,.11,.14,.22,.29,.32,.43h-5.03v-1.25h5.78c.09,.12,.17,.24,.26,.35Z"/><path class="cls-68" d="M364.79,12.21q1.35-1.36,5.79-1.22c.22,.72-.56,.86-.75,1.22h-5.04Z"/><path class="cls-68" d="M74.32,70.84c-.6,.6-.86,.86-1.25,1.24h-4.92v-1.24h6.17Z"/><path class="cls-68" d="M377.67,11.39c-.5,.1-1,.2-1.5,.3,.16,.2,.32,.4,.48,.6h-4.85c-.3-.25-.36-.68-.04-1.27h5.66c.08,.12,.17,.24,.25,.37Z"/><path class="cls-68" d="M383.44,12.34h-4.78c-.51-.29-.32-.7-.4-1.3,1.91-.31,3.83-.05,5.75-.15,.48,.92-.75,.82-.57,1.45Z"/><path class="cls-9" d="M165.35,183.33c-.43,.18-.86,.36-1.29,.54,.1,.13,.19,.25,.29,.38h-4.83c-.31-.27-.37-.69-.05-1.27h5.66c.08,.12,.15,.23,.23,.35Z"/><path class="cls-9" d="M185.73,182.99c-.61,.61-.87,.87-1.25,1.25h-4.92v-1.25h6.18Z"/><path class="cls-68" d="M385.13,12.17c-.02-.32-.03-.66-.06-1.13h5.83q-1.36,1.48-5.77,1.13Z"/><path class="cls-68" d="M391.74,10.96h5.73c.13,.13,.29,.28,.29,.29-.32,.36-.66,.71-1.02,1.09h-4.58c-.52-.31-.31-.72-.42-1.38Z"/><path class="cls-68" d="M398.62,12.17c-.02-.32-.03-.66-.06-1.13h5.83q-1.36,1.48-5.77,1.13Z"/><path class="cls-68" d="M405.35,12.28v-1.25h5.77c.09,.67-.54,.75-.77,1.25h-5Z"/><path class="cls-68" d="M418.11,11.37c-.43,.18-.86,.36-1.29,.54,.1,.13,.19,.25,.29,.38h-4.84c-.32-.26-.35-.69-.07-1.27h5.69c.08,.12,.15,.23,.23,.35Z"/><path class="cls-68" d="M418.84,12.27v-1.23h5.75c.14,.66-.53,.72-.74,1.23h-5.01Z"/><path class="cls-68" d="M425.58,12.27v-1.25h5.79c.08,.12,.16,.24,.24,.35-.44,.17-.87,.34-1.31,.51,.1,.13,.2,.26,.3,.39h-5.02Z"/><path class="cls-68" d="M432.34,12.17c-.02-.32-.03-.66-.06-1.13h5.83q-1.36,1.48-5.77,1.13Z"/><path class="cls-68" d="M445.24,11.03c-.61,.61-.87,.87-1.25,1.25h-4.92v-1.25h6.18Z"/><path class="cls-68" d="M445.72,12.21q1.35-1.36,5.79-1.22c.22,.72-.56,.86-.75,1.22h-5.04Z"/><path class="cls-68" d="M452.56,12.27v-1.24h5.76c.11,.66-.53,.73-.76,1.24h-5.01Z"/><path class="cls-68" d="M464.05,12.27h-4.76v-1.25h5.78c.09,.12,.18,.25,.27,.37-.51,.08-1.03,.15-1.54,.23,.08,.22,.17,.44,.25,.65Z"/><path class="cls-79" d="M174.99,185.11v1.13c.71,.72,1.62,.2,2.42,.37,.38,.08,.67,.28,.58,.74h-5.28c.12-1.68,.87-2.31,2.29-2.24Z"/><path class="cls-79" d="M148.02,185.11v1.13c.71,.72,1.62,.2,2.42,.37,.38,.08,.67,.28,.58,.74h-5.28c.12-1.68,.87-2.31,2.29-2.24Z"/><path class="cls-79" d="M134.53,185.11v1.13c.71,.72,1.62,.2,2.42,.37,.38,.08,.67,.28,.58,.74h-5.28c.12-1.68,.87-2.31,2.29-2.24Z"/><path class="cls-101" d="M173.49,96.88c-.08-.45,.2-.72,.56-.73,1.2-.04,2.41-.02,3.51-.02,.47,.29,.41,.66,.42,1.22-1.16,.65-2.5,.09-3.75,.28-.42-.08-.68-.32-.75-.75Z"/><path class="cls-101" d="M207.21,139.5c-.08-.45,.2-.72,.56-.73,1.2-.04,2.41-.02,3.51-.02,.47,.29,.41,.66,.42,1.22-1.16,.65-2.5,.09-3.75,.28-.42-.08-.68-.32-.75-.75Z"/><path class="cls-21" d="M161.51,169.41v-1.5c2.6-1.25,2.83-1.18,3.63,1.24-1.01,1.13-1.34-.67-2.32-.45-.33,.18-.82,.44-1.31,.71Z"/><path class="cls-100" d="M162.25,116.32c-.21-.09-.61-.17-.61-.26-.03-2.57-.03-5.13,0-7.7,0-.09,.4-.17,.61-.26v8.22Z"/><path class="cls-101" d="M254.42,139.5c-.08-.45,.2-.72,.56-.73,1.2-.04,2.41-.02,3.51-.02,.47,.29,.41,.66,.42,1.22-1.16,.65-2.5,.09-3.75,.28-.42-.08-.68-.32-.75-.75Z"/><path class="cls-101" d="M146.52,139.5c-.08-.45,.2-.72,.56-.73,1.2-.04,2.41-.02,3.52-.02,.47,.29,.42,.66,.41,1.22-1.16,.64-2.5,.09-3.74,.28-.42-.08-.68-.32-.75-.75Z"/><path class="cls-49" d="M309.87,212.02v-1.5c2.6-1.25,2.83-1.18,3.63,1.24-1.01,1.13-1.34-.67-2.32-.45-.33,.18-.82,.44-1.31,.71Z"/><path class="cls-101" d="M139.78,111.09c-.08-.45,.2-.72,.56-.73,1.2-.04,2.41-.02,3.52-.02,.47,.29,.42,.66,.41,1.22-1.16,.64-2.5,.09-3.74,.28-.42-.08-.68-.32-.75-.75Z"/><path class="cls-101" d="M146.52,111.09c-.08-.45,.2-.72,.56-.73,1.2-.04,2.41-.02,3.52-.02,.47,.29,.42,.66,.41,1.22-1.16,.64-2.5,.09-3.74,.28-.42-.08-.68-.32-.75-.75Z"/><path class="cls-55" d="M220.95,40.81c0,.7,0,1.41,0,2.11,0,.51-.1,.93-.75,.88-.26-.17-.35-.33-.26-.5,.09-.17,.17-.25,.26-.25v-1.5c-.12-1.23-1.08-.6-1.69-.74-.53-.12-1.31,.25-1.31-.76,.61-.67,1.65-.04,2.25-.75,.82,.18,1.32,.68,1.5,1.5Z"/><path class="cls-70" d="M223.94,40.06c.08-.21,.16-.59,.25-.59,1.39-.04,2.78-.03,4.23-.03-.82,1.95-2.42,1.22-3.73,1.37-.43-.07-.68-.32-.75-.75Z"/><path class="cls-83" d="M153.26,210.53c.08-.21,.16-.59,.25-.59,1.39-.04,2.78-.03,4.23-.03-.82,1.95-2.42,1.22-3.73,1.37-.43-.07-.68-.32-.75-.75Z"/><path class="cls-83" d="M133.03,210.53c.08-.21,.16-.59,.25-.59,1.39-.04,2.78-.03,4.23-.03-.82,1.95-2.42,1.22-3.73,1.37-.43-.07-.68-.32-.75-.75Z"/><path class="cls-53" d="M130.03,211.28c0,.7,0,1.41,0,2.11,0,.51-.1,.93-.75,.88-.26-.17-.35-.33-.26-.5,.09-.17,.17-.25,.26-.25v-1.5c0-1.01-.78-.64-1.31-.76-.6-.13-1.56,.49-1.69-.74,.61-.67,1.65-.04,2.25-.75,.82,.18,1.32,.68,1.5,1.5Z"/><path class="cls-55" d="M210.96,168.66c0,.7,0,1.41,0,2.11,0,.51-.1,.93-.75,.88-.26-.17-.35-.33-.26-.5,.09-.17,.17-.25,.26-.25v-1.5c0-1.01-.78-.64-1.31-.76-.6-.13-1.56,.49-1.69-.74,.61-.67,1.65-.04,2.25-.75,.82,.18,1.32,.68,1.5,1.5Z"/><path class="cls-53" d="M345.84,211.28c0,.7,0,1.41,0,2.11,0,.51-.1,.93-.75,.88-.26-.17-.35-.33-.26-.5,.09-.17,.17-.25,.26-.25v-1.5c-.12-1.23-1.08-.6-1.69-.74-.53-.12-1.31,.25-1.31-.76,.61-.67,1.65-.04,2.25-.75,.82,.18,1.32,.68,1.5,1.5Z"/><path class="cls-8" d="M209.46,95.39c-.52,.02-.77-.23-.75-.75-.04-.75,.74-.9,1.02-1.43h2.37c.5,.33,.3,.72,.34,1.05-.71,1.14-2.5-.6-2.99,1.13Z"/><path class="cls-83" d="M328.6,210.53c.08-.21,.16-.59,.25-.59,1.39-.04,2.78-.03,4.23-.03-.82,1.95-2.42,1.22-3.73,1.37-.43-.07-.68-.32-.75-.75Z"/><path class="cls-83" d="M321.86,210.53c.08-.21,.16-.59,.25-.59,1.39-.04,2.78-.03,4.23-.03-.82,1.95-2.42,1.22-3.73,1.37-.43-.07-.68-.32-.75-.75Z"/><path class="cls-55" d="M173.74,40.81c0,.7,0,1.41,0,2.11,0,.51-.1,.93-.75,.88-.26-.17-.35-.33-.26-.5,.09-.17,.17-.25,.26-.25v-1.5c0-1.01-.78-.64-1.31-.76-.6-.13-1.56,.49-1.69-.74,.61-.67,1.65-.04,2.25-.75,.82,.18,1.32,.68,1.5,1.5Z"/><path class="cls-83" d="M193.73,210.53c.08-.21,.16-.59,.25-.59,1.39-.04,2.78-.03,4.23-.03-.82,1.95-2.42,1.22-3.73,1.37-.43-.07-.68-.32-.75-.75Z"/><path class="cls-53" d="M250.67,213.52v-1.5c-.12-1.23-1.08-.6-1.69-.74-.53-.12-1.31,.25-1.31-.76,.61-.67,1.65-.04,2.25-.75,.82,.18,1.32,.68,1.5,1.5,0,.7,0,1.41,0,2.11,0,.51-.1,.93-.75,.88-.26-.17-.35-.33-.26-.5,.09-.17,.17-.25,.26-.25Z"/><path class="cls-83" d="M186.98,210.53c.08-.21,.16-.59,.25-.59,1.39-.04,2.78-.03,4.23-.03-.82,1.95-2.42,1.22-3.73,1.37-.43-.07-.68-.32-.75-.75Z"/><path class="cls-2" d="M207.96,98.38h1.5v3.67h-1.5v-3.67Z"/><path class="cls-83" d="M240.93,210.53c.08-.21,.16-.59,.25-.59,1.39-.04,2.78-.03,4.23-.03-.82,1.95-2.42,1.22-3.73,1.37-.43-.07-.68-.32-.75-.75Z"/><path class="cls-93" d="M250.67,167.16c.25,.5,.5,1,.75,1.5-.98,1.37,.2,3.11-.75,4.49h-.75v-5.98h.75Z"/><path class="cls-7" d="M203.47,152.96c.25,.5,.5,1,.75,1.5-.98,1.37,.2,3.11-.75,4.49h-.75v-5.98h.75Z"/><path class="cls-6" d="M332.35,164.17c-.06,1.53,.35,3.13-.75,4.49-.75,.6-1.5,.6-2.25,0-.05-.7,.43-.7,.93-.76,.37-.04,.65-.28,.57-.73,1.23-.12,.6-1.08,.74-1.68,.12-.53-.25-1.3,.76-1.31Z"/><path class="cls-6" d="M339.09,164.17c-.06,1.53,.35,3.13-.75,4.49-.75,.6-1.5,.6-2.25,0-.05-.7,.43-.7,.93-.76,.37-.04,.65-.28,.57-.73,1.01,0,.64-.78,.76-1.31,.14-.6-.49-1.56,.74-1.68Z"/><path class="cls-93" d="M310.62,173.14v-5.98h.75c.65,.42,1.21,.9,1.18,1.77-.22,1.45,.06,3.04-1.18,4.21h-.75Z"/><path class="cls-16" d="M312.12,168.66c-.25-.5-.5-1-.75-1.5h1.5c.28,.33,.52,.69,.73,1.07,.43,1.74,.56,3.43-.73,4.91h-.75c-.58-1.5-.58-2.99,0-4.49Z"/><path class="cls-88" d="M312.87,167.91v-.75h1.5c.59,1.99,.59,3.99,0,5.98h-.75c-.98-1.64,.26-3.6-.75-5.23Z"/><path class="cls-6" d="M160.25,36.32c-.06,1.53,.35,3.13-.75,4.49-.75,.6-1.5,.6-2.25,0-.08-.46,.19-.69,.57-.73,.5-.06,.98-.06,.93-.76,1.23-.12,.6-1.08,.74-1.68,.12-.53-.25-1.3,.76-1.31Z"/><path class="cls-74" d="M271.65,206.79c-.06,1.53,.35,3.13-.75,4.49-.75,.6-1.5,.6-2.25,0-.05-.7,.43-.7,.93-.76,.37-.04,.65-.28,.57-.73,1.23-.12,.6-1.08,.74-1.68,.12-.53-.25-1.3,.76-1.31Z"/><path class="cls-6" d="M153.51,36.32c-.06,1.53,.35,3.13-.75,4.49-.75,.6-1.5,.6-2.25,0-.05-.7,.43-.7,.93-.76,.37-.04,.65-.28,.57-.73,1.23-.12,.6-1.08,.74-1.68,.12-.53-.25-1.3,.76-1.31Z"/><path class="cls-30" d="M201.97,143.99c.11-.57-.37-1.43,.75-1.5q.96,.73,1.99,.87c.42,.25,.21,.66,.3,1.24-1.09,.03-2.19,.72-3.04-.61Z"/><path class="cls-93" d="M318.11,167.16c.25,.5,.5,1,.75,1.5-.98,1.37,.2,3.11-.75,4.49h-.75v-5.98h.75Z"/><path class="cls-30" d="M255.92,115.57c.11-.57-.37-1.43,.75-1.5,.95,.76,.96,.73,1.99,.87,.42,.25,.21,.66,.3,1.24-1.09,.03-2.19,.72-3.04-.61Z"/><path class="cls-30" d="M242.43,101.37c.11-.57-.37-1.43,.75-1.5,.16,1.45,1.48,.25,1.83,.77,.57,.35,.37,.75,.46,1.34-1.09,.03-2.19,.72-3.04-.61Z"/><path class="cls-62" d="M170.5,135.76c-.06,1.53,.35,3.13-.75,4.49-.75,.6-1.5,.6-2.25,0-.05-.7,.43-.7,.93-.76,.37-.04,.65-.28,.57-.73,1.23-.12,.6-1.08,.74-1.68,.12-.53-.25-1.3,.76-1.31Z"/><path class="cls-60" d="M215.46,215.01c.11-.57-.37-1.43,.75-1.5,.95,.76,.96,.73,1.99,.87,.42,.25,.21,.66,.3,1.24-1.09,.03-2.19,.72-3.04-.61Z"/><path class="cls-65" d="M155.51,159.69c.52-.02,.77,.23,.75,.75-.29,1.18-1.09,1.62-2.25,1.5-.25-.27-.5-.27-.75,0-.91-.03-.78-.62-.68-1.19,.75-1.04,2.46,.69,2.93-1.06Z"/><path class="cls-60" d="M222.2,215.01c.11-.57-.37-1.43,.75-1.5,.16,1.45,1.48,.25,1.83,.77,.57,.35,.37,.75,.46,1.34-1.09,.03-2.19,.72-3.04-.61Z"/><path class="cls-33" d="M240.93,170.15c.52-.02,.77,.23,.75,.75,.19,.53,.49,1,.75,1.5,.52-.02,.77,.23,.75,.75h-2.84c-.08-1.05-.75-2.14,.59-2.99Z"/><path class="cls-68" d="M308.37,167.16v5.98c-.47,.08-.73-.2-.73-.58-.03-1.6-.03-3.21,0-4.82,0-.38,.27-.67,.73-.58Z"/><path class="cls-9" d="M200.47,152.96v5.98c-.47,.08-.73-.2-.73-.58-.03-1.6-.03-3.21,0-4.82,0-.38,.27-.67,.73-.58Z"/><path class="cls-10" d="M162.25,108.1c-.06-1.12-.93-.64-1.5-.75,.88-1.51,2.32-.29,3.29-.81,.58,.48,.52,.9,.25,1.56h-2.04Z"/><path class="cls-68" d="M247.68,167.16v5.98c-.47,.08-.73-.2-.73-.58-.03-1.6-.03-3.21,0-4.82,0-.38,.27-.67,.73-.58Z"/><path class="cls-100" d="M160.76,117.07c.57-.11,1.43,.37,1.5-.75h2.14c.04,.53,.07,.86,.09,1.14-.66,.66-2.34,.45-3.73-.39Z"/><path class="cls-68" d="M314.37,173.14v-5.98h.75v5.98h-.75Z"/><path class="cls-9" d="M126.29,102.12v-5.23c.41,.21,.6,.27,.74,.39,.06,.06,.01,.24,.01,.36,0,1.19,0,2.39,0,3.58,0,.51-.07,.95-.75,.9Z"/><path class="cls-65" d="M146.52,139.5c.52-.02,.77,.23,.75,.75s.23,.77,.75,.75c.02,.52-.23,.77-.75,.75h-1.18c-.23-.82-.95-1.7,.43-2.24Z"/><path class="cls-65" d="M139.78,111.09c.52-.02,.77,.23,.75,.75s.23,.77,.75,.75c.02,.52-.23,.77-.75,.75h-1.18c-.23-.82-.95-1.7,.43-2.24Z"/><path class="cls-65" d="M146.52,111.09c.52-.02,.77,.23,.75,.75s.23,.77,.75,.75c.02,.52-.23,.77-.75,.75h-1.18c-.23-.82-.95-1.7,.43-2.24Z"/><path class="cls-9" d="M186.98,158.94v-5.23c.41,.21,.6,.27,.74,.39,.06,.06,.01,.24,.01,.36,0,1.19,0,2.39,0,3.58,0,.51-.07,.95-.75,.9Z"/><path class="cls-9" d="M234.19,116.32v-5.23c.41,.21,.6,.27,.74,.39,.06,.06,.01,.24,.01,.36,0,1.19,0,2.39,0,3.58,0,.51-.07,.95-.75,.9Z"/><path class="cls-69" d="M297.88,169.41c-.18-1.35,.57-1.97,1.77-2.32-.13,1.31-.34,1.92-1.02,3.06-.46-.04-.47-.53-.75-.75Z"/><path class="cls-13" d="M231.19,214.27c-1.12-.06-.64-.93-.75-1.5,.29-.74-.69-1.89,.75-2.24,.45,.05,.54,.46,.75,.75-.09,.45,.25,1.01-.25,1.36-.63,.43-.5,1.04-.5,1.63Z"/><path class="cls-65" d="M173.49,96.88c.52-.02,.77,.23,.75,.75s.23,.77,.75,.75c.02,.52-.23,.77-.75,.75h-1.18c-.23-.82-.95-1.7,.43-2.24Z"/><path class="cls-3" d="M312.87,167.91c.68-.05,.75,.4,.75,.91,0,1.44,0,2.88,0,4.32h-.75v-5.23Z"/><path class="cls-13" d="M386.3,214.27c-1.12-.06-.64-.93-.75-1.5,.29-.74-.69-1.89,.75-2.24,.45,.05,.54,.46,.75,.75-.09,.45,.25,1.01-.25,1.36-.63,.43-.5,1.04-.5,1.63Z"/><path class="cls-13" d="M359.32,214.27c-1.12-.06-.64-.93-.75-1.5,.29-.74-.69-1.89,.75-2.24,.45,.05,.54,.46,.75,.75-.09,.45,.25,1.01-.25,1.36-.63,.43-.5,1.04-.5,1.63Z"/><path class="cls-65" d="M207.21,139.5c.52-.02,.77,.23,.75,.75s.23,.77,.75,.75c.02,.52-.23,.77-.75,.75h-1.18c-.23-.82-.95-1.7,.43-2.24Z"/><path class="cls-9" d="M200.47,102.12v-5.23c.41,.21,.6,.27,.74,.39,.06,.06,.01,.24,.01,.36,0,1.19,0,2.39,0,3.58,0,.51-.07,.95-.75,.9Z"/><path class="cls-65" d="M254.42,139.5c.52-.02,.77,.23,.75,.75s.23,.77,.75,.75c.02,.52-.23,.77-.75,.75h-1.18c-.23-.82-.95-1.7,.43-2.24Z"/><path class="cls-105" d="M203.47,158.94c0-1.19,0-2.39,0-3.58,0-.51,.07-.95,.75-.9v4.49h-.75Z"/><path class="cls-91" d="M255.92,107.35c-.11,.57,.37,1.43-.75,1.5-.37,0-.74,0-1.11,0-.45-.34-.5-.77-.25-1.27,.66-.44,1.41-.14,2.11-.23Z"/><path class="cls-90" d="M143.52,154.45c-.25-.5-.5-1-.75-1.5,1.35-.07,2.19,.45,2.27,1.88-.73,.5-1.32,.7-1.53-.39Z"/><path class="cls-9" d="M156.95,149.91v1.94c-.31,.51-.72,.31-1.06,.36-.76-.58-.11-1.34-.38-1.78,.38-.62,.78-.41,1.44-.51Z"/><path class="cls-68" d="M196.97,39.31c0,.95,0,1.9,0,2.84,0,.51-.09,.94-.75,.89-.05-1.2,.25-2.46-.74-3.74h1.49Z"/><path class="cls-5" d="M328.6,210.53c.52-.02,.77,.23,.75,.75s.23,.77,.75,.75c.02,.52-.23,.77-.75,.75-.73,.03-1.05-.6-1.35-1.04-.33-.49-.32-1.16,.6-1.2Z"/><path class="cls-69" d="M279.15,167.16v.75c-.29,.74,.69,1.89-.75,2.24-.46-.04-.47-.53-.75-.75-.12-1.16,.32-1.95,1.5-2.24Z"/><path class="cls-5" d="M321.86,210.53c.52-.02,.77,.23,.75,.75s.23,.77,.75,.75c.02,.52-.23,.77-.75,.75-.73,.03-1.05-.6-1.35-1.04-.33-.49-.32-1.16,.6-1.2Z"/><path class="cls-90" d="M130.03,111.84c-.25-.5-.5-1-.75-1.5,1.35-.07,2.19,.45,2.27,1.88-.73,.5-1.32,.7-1.53-.39Z"/><path class="cls-43" d="M235.69,167.16h-1.5v-2.24h1.5v2.24Z"/><path class="cls-5" d="M240.93,210.53c.52-.02,.77,.23,.75,.75s.23,.77,.75,.75c.02,.52-.23,.77-.75,.75-.73,.03-1.05-.6-1.35-1.04-.33-.49-.32-1.16,.6-1.2Z"/><path class="cls-5" d="M193.73,210.53c.52-.02,.77,.23,.75,.75s.23,.77,.75,.75c.02,.52-.23,.77-.75,.75-.73,.03-1.05-.6-1.35-1.04-.33-.49-.32-1.16,.6-1.2Z"/><path class="cls-5" d="M186.98,210.53c.52-.02,.77,.23,.75,.75s.23,.77,.75,.75c.02,.52-.23,.77-.75,.75-.73,.03-1.05-.6-1.35-1.04-.33-.49-.32-1.16,.6-1.2Z"/><path class="cls-5" d="M153.26,210.53c.52-.02,.77,.23,.75,.75s.23,.77,.75,.75c.02,.52-.23,.77-.75,.75-.73,.03-1.05-.6-1.35-1.04-.33-.49-.32-1.16,.6-1.2Z"/><path class="cls-5" d="M133.03,210.53c.52-.02,.77,.23,.75,.75s.23,.77,.75,.75c.02,.52-.23,.77-.75,.75-.73,.03-1.05-.6-1.35-1.04-.33-.49-.32-1.16,.6-1.2Z"/><path class="cls-90" d="M150.27,97.63c-.25-.5-.5-1-.75-1.5,1.35-.07,2.19,.45,2.27,1.88-.73,.5-1.32,.7-1.53-.39Z"/><path class="cls-69" d="M285.89,167.16v.75c-.29,.74,.69,1.89-.75,2.24-.46-.04-.47-.53-.75-.75-.12-1.16,.32-1.95,1.5-2.24Z"/><path class="cls-69" d="M292.64,167.16v.75c-.29,.74,.69,1.89-.75,2.24-.46-.04-.47-.53-.75-.75-.12-1.16,.32-1.95,1.5-2.24Z"/><path class="cls-91" d="M201.97,135.76c-.11,.57,.37,1.43-.75,1.5-.37,0-.74,0-1.11,0-.45-.34-.5-.77-.25-1.27,.66-.44,1.41-.14,2.11-.23Z"/><path class="cls-83" d="M222.2,206.79c-.11,.57,.37,1.43-.75,1.5-.37,0-.74,0-1.11,0-.45-.34-.5-.77-.25-1.27,.66-.44,1.41-.14,2.11-.23Z"/><path class="cls-31" d="M250.67,173.14c0-1.19,0-2.39,0-3.58,0-.51,.07-.95,.75-.9v4.49h-.75Z"/><path class="cls-31" d="M312.12,168.66v4.49h-.75c0-1.19,0-2.39,0-3.58,0-.51,.07-.95,.75-.9Z"/><path class="cls-31" d="M318.11,173.14c0-1.19,0-2.39,0-3.58,0-.51,.07-.95,.75-.9v4.49h-.75Z"/><path class="cls-4" d="M288.78,214.33h1.99c.54,.31,.29,.72,.38,1.04-.61,.69-1.33,.35-1.99,.27-.45-.26-.2-.67-.38-1.32Z"/><path class="cls-43" d="M184.98,39.31h-1.5v-2.24h1.5v2.24Z"/><path class="cls-15" d="M256.67,98.38c-1.44-.35-.46-1.51-.75-2.24h1.5v2.24h-.75Z"/><path class="cls-9" d="M254.42,96.14c0,.95,0,1.9,0,2.84,0,.51-.09,.94-.75,.89-.05-1.2,.25-2.46-.74-3.74h1.49Z"/><path class="cls-91" d="M242.43,93.14c-.11,.57,.37,1.43-.75,1.5-.37,0-.74,0-1.11,0-.45-.34-.5-.77-.25-1.27,.66-.44,1.41-.14,2.11-.23Z"/><path class="cls-16" d="M223.94,40.06c.52-.02,.77,.23,.75,.75s.23,.77,.75,.75c.02,.52-.23,.77-.75,.75-.73,.03-1.05-.6-1.35-1.04-.33-.49-.32-1.16,.6-1.2Z"/><path class="cls-83" d="M215.46,206.79c-.11,.57,.37,1.43-.75,1.5-.37,0-.74,0-1.11,0-.45-.34-.5-.77-.25-1.27,.66-.44,1.41-.14,2.11-.23Z"/><path class="cls-90" d="M237.94,140.25c-.25-.5-.5-1-.75-1.5,1.35-.07,2.19,.45,2.27,1.88-.73,.5-1.32,.7-1.53-.39Z"/><path class="cls-4" d="M275.47,215.91v-1.34c.74-.66,1.4,.01,2.11-.45v1.34c-.74,.66-1.4-.01-2.11,.45Z"/><path class="cls-4" d="M284.33,214.12v1.34c-.74,.66-1.4-.01-2.11,.45v-1.34c.74-.66,1.4,.01,2.11-.45Z"/><path class="cls-101" d="M214.78,143.53c.73-.65,1.39,.02,1.91-.32,.37,.75,.32,1.17-.11,1.52-.96,.11-1.38-.53-1.8-1.2Z"/><path class="cls-6" d="M152.76,43.8c.25,.5,.5,1,.75,1.5h-1.5c.05-.7-.43-.7-.93-.76-.37-.04-.65-.28-.57-.73,.75-.6,1.5-.6,2.25,0Z"/><path class="cls-62" d="M168.25,179.13v1.5h-2.24c.5-1.21,1.2-1.64,2.24-1.5Z"/><path class="cls-14" d="M144.27,185.11v-3.74c1.08,1.22,1.08,2.52,0,3.74Z"/><path class="cls-6" d="M159.5,43.8c.25,.5,.5,1,.75,1.5h-1.5c.05-.7-.43-.7-.93-.76-.37-.04-.65-.28-.57-.73,.75-.6,1.5-.6,2.25,0Z"/><path class="cls-101" d="M263.26,102.22c-.33-.29-.6-.5-.86-.74-.17-.16-.31-.34-.47-.51,.61-.62,1.31-.33,1.99-.22,.34,.57,.55,1.1-.67,1.47Z"/><path class="cls-98" d="M154.01,182.12c-.29-.74,.69-1.89-.75-2.24,.03-.91,.62-.78,1.5-.62-.23,.96,.64,2.09-.75,2.86Z"/><path class="cls-6" d="M331.6,171.65c.25,.5,.5,1,.75,1.5h-1.5c.05-.7-.43-.7-.93-.76-.37-.04-.65-.28-.57-.73,.75-.6,1.5-.6,2.25,0Z"/><path class="cls-101" d="M243.69,137.87c-.48,.24-.9,.19-1.25-.23-.12-.97,.52-1.38,1.21-1.81,.41,.73,.41,1.38,.04,2.04Z"/><path class="cls-101" d="M216.57,158.94c-.95,.09-1.37-.53-1.81-1.22,.75-.39,1.41-.42,2.07-.02,.23,.48,.18,.9-.26,1.25Z"/><path class="cls-62" d="M188.48,179.13v1.5h-2.24c.5-1.21,1.2-1.64,2.24-1.5Z"/><path class="cls-101" d="M216.38,138.76c.65,.14,.65,.6,.51,1.19-.5,.63-1.23,.23-1.91,.21q.67-.96,1.4-1.4Z"/><path class="cls-62" d="M169.75,143.24c.25,.5,.5,1,.75,1.5h-1.5c.08-.46-.19-.69-.57-.73-.5-.06-.98-.06-.93-.76,.75-.6,1.5-.6,2.25,0Z"/><path class="cls-101" d="M216.56,152.96c.46,.32,.49,.75,.29,1.24-.64,.58-1.32,0-2.01,.16,.39-.83,.76-1.5,1.73-1.4Z"/><path class="cls-101" d="M196.45,93.21c.4,.74,.41,1.4,.03,2.05-.48,.23-.9,.19-1.25-.24-.11-.96,.53-1.38,1.22-1.81Z"/><path class="cls-74" d="M270.91,214.27c.25,.5,.5,1,.75,1.5h-1.5c.08-.46-.19-.69-.57-.73-.5-.06-.98-.06-.93-.76,.75-.6,1.5-.6,2.25,0Z"/><path class="cls-101" d="M196.5,137.86c-.46,.25-.89,.22-1.24-.2-.32-.93,.59-1.2,1.05-2.03,.54,.85,.56,1.51,.19,2.24Z"/><path class="cls-101" d="M262.07,114.96h2.02v1.07c-1.15,.83-1.45-.38-2.02-1.07Z"/><path class="cls-6" d="M338.34,171.65c.25,.5,.5,1,.75,1.5h-1.5c.05-.7-.43-.7-.93-.76-.37-.04-.65-.28-.57-.73,.75-.6,1.5-.6,2.25,0Z"/><path class="cls-98" d="M153.26,180.62c0,.7,0,1.41,0,2.11,0,.51-.1,.93-.75,.88,0-.7,0-1.41,0-2.11,0-.51,.1-.93,.75-.88Z"/><path class="cls-99" d="M351.77,171.66v1.13c-.32,.51-.72,.31-1.13,.37-.56-.95-.54-1.57,1.13-1.5Z"/><path class="cls-75" d="M207.96,96.88c.08,.46-.19,.69-.57,.73-.5,.06-.98,.06-.93,.76-.95-.05-.79-.65-.64-1.25,.68-.46,1.43-.15,2.13-.24Z"/><path class="cls-69" d="M142.27,43.05c1.12,.06,.64,.93,.75,1.5,0,1.03-.75,.57-1.42,1.05,.12-1.18,.99-1.73,.67-2.54Z"/><path class="cls-99" d="M350.26,167.39c1.3-.45,1.67-.06,1.58,.89-.35,.43-.77,.48-1.37,.19-.05-.26-.11-.59-.21-1.08Z"/><path class="cls-13" d="M128.54,209.78c-.35,1.44-1.51,.46-2.25,.75,.35-1.44,1.51-.46,2.25-.75Z"/><path class="cls-68" d="M222.2,173.14c.75-1.02,1.49-1.02,2.25,0h-2.25Z"/><path class="cls-68" d="M154.76,173.14c.75-1.02,1.49-1.02,2.25,0h-2.25Z"/><path class="cls-69" d="M297.88,169.41c.52-.02,.77,.23,.75,.75v1.5c-1.12-.06-.64-.93-.75-1.5v-.75Z"/><path class="cls-13" d="M231.94,211.28c-.52,.02-.77-.23-.75-.75,.04-.93,.64-.78,1.28-.64,.46,.7-.84,.76-.53,1.39Z"/><path class="cls-68" d="M255.92,173.14c.75-1.02,1.49-1.02,2.25,0h-2.25Z"/><path class="cls-13" d="M249.92,209.78c-.35,1.44-1.51,.46-2.25,.75,.35-1.44,1.51-.46,2.25-.75Z"/><path class="cls-75" d="M211.71,97.63c-.74-.28-1.9,.69-2.25-.75,.74,.28,1.9-.69,2.25,.75Z"/><path class="cls-69" d="M284.39,169.41c.52-.02,.77,.23,.75,.75v1.5c-1.12-.06-.64-.93-.75-1.5v-.75Z"/><path class="cls-68" d="M188.48,173.14c.75-1.02,1.49-1.02,2.25,0h-2.25Z"/><path class="cls-13" d="M344.34,209.78c-.35,1.44-1.51,.46-2.25,.75,.35-1.44,1.51-.46,2.25-.75Z"/><path class="cls-69" d="M209.46,167.16c-.35,1.44-1.51,.46-2.25,.75,.35-1.44,1.51-.46,2.25-.75Z"/><path class="cls-69" d="M172.24,39.31c-.35,1.44-1.51,.46-2.25,.75,.35-1.44,1.51-.46,2.25-.75Z"/><path class="cls-13" d="M360.07,211.28c-.52,.02-.77-.23-.75-.75,.04-.93,.64-.78,1.28-.64,.46,.7-.84,.76-.53,1.39Z"/><path class="cls-69" d="M291.14,169.41c.52-.02,.77,.23,.75,.75v1.5c-1.12-.06-.64-.93-.75-1.5v-.75Z"/><path class="cls-68" d="M191.72,45.29c.75-1.02,1.49-1.02,2.25,0h-2.25Z"/><path class="cls-13" d="M387.05,211.28c-.52,.02-.77-.23-.75-.75,.06-1.12,.93-.64,1.5-.75v.75c-.52-.02-.77,.23-.75,.75Z"/><path class="cls-69" d="M243.18,167.16c-.35,1.44-1.51,.46-2.25,.75,.35-1.44,1.51-.46,2.25-.75Z"/><path class="cls-69" d="M277.65,169.41c.52-.02,.77,.23,.75,.75v1.5c-1.12-.06-.64-.93-.75-1.5v-.75Z"/><path class="cls-36" d="M377.31,215.76c.75-1.02,1.49-1.02,2.25,0h-2.25Z"/><path class="cls-9" d="M254.42,101.37c.18-.82,.68-1.31,1.5-1.5v1.5c-.22,.2-.47,.31-.76,.35-.3,0-.54-.13-.74-.35Z"/><path class="cls-69" d="M219.45,39.31c-.35,1.44-1.51,.46-2.25,.75,.35-1.44,1.51-.46,2.25-.75Z"/><path class="cls-36" d="M181.74,215.76c.75-1.02,1.49-1.02,2.25,0h-2.25Z"/><path class="cls-36" d="M262.66,215.76c.75-1.02,1.49-1.02,2.25,0h-2.25Z"/><path class="cls-36" d="M316.61,215.76c.75-1.02,1.49-1.02,2.25,0h-2.25Z"/><path class="cls-9" d="M190.73,143.99h1.5c-.06,1.12-.93,.64-1.5,.75v-.75Z"/><path class="cls-9" d="M229.69,158.94c-.05-.7,.43-.79,.93-.73,.37,.04,.65,.28,.57,.73h-1.5Z"/><path class="cls-68" d="M183.98,173.14c.06-1.12,.93-.64,1.5-.75-.06,1.12-.93,.64-1.5,.75Z"/><path class="cls-68" d="M220.95,45.29c.06-1.12,.93-.64,1.5-.75-.06,1.12-.93,.64-1.5,.75Z"/><path class="cls-9" d="M197.47,158.19h1.5c-.06,1.12-.93,.64-1.5,.75v-.75Z"/><path class="cls-68" d="M244.68,173.14c.06-1.12,.93-.64,1.5-.75-.06,1.12-.93,.64-1.5,.75Z"/><path class="cls-105" d="M258.17,98.38v1.46c-1.14-.28-.59-1-.75-1.46h.75Z"/><path class="cls-104" d="M199.97,43.05h-.75v-.75c-.02-.52,.23-.77,.75-.75v1.5Z"/><path class="cls-9" d="M231.19,115.57h1.5c-.06,1.12-.93,.64-1.5,.75v-.75Z"/><path class="cls-9" d="M170.5,101.37h1.5c-.06,1.12-.93,.64-1.5,.75v-.75Z"/><path class="cls-9" d="M143.52,143.99h1.5c-.06,1.12-.93,.64-1.5,.75v-.75Z"/><path class="cls-61" d="M168.25,211.28c-.05-.7,.43-.79,.93-.73,.37,.04,.65,.28,.57,.73h-1.5Z"/><path class="cls-68" d="M210.96,173.14c.06-1.12,.93-.64,1.5-.75-.06,1.12-.93,.64-1.5,.75Z"/><path class="cls-36" d="M130.03,215.76c.06-1.12,.93-.64,1.5-.75-.06,1.12-.93,.64-1.5,.75Z"/><path class="cls-68" d="M173.74,45.29c.06-1.12,.93-.64,1.5-.75-.06,1.12-.93,.64-1.5,.75Z"/><path class="cls-36" d="M251.42,215.76c.06-1.12,.93-.64,1.5-.75-.06,1.12-.93,.64-1.5,.75Z"/><path class="cls-99" d="M199.22,39.31c-.09,.45,.22,.98-.27,1.39-.87-.21-.32-.93-.48-1.39h.75Z"/><path class="cls-61" d="M174.99,211.28c-.05-.7,.43-.79,.93-.73,.37,.04,.65,.28,.57,.73h-1.5Z"/><path class="cls-36" d="M345.84,215.76c.06-1.12,.93-.64,1.5-.75-.06,1.12-.93,.64-1.5,.75Z"/><path class="cls-61" d="M171.25,211.28v-.75c.36-.03,.7,.05,.59,.5-.03,.12-.39,.17-.59,.25Z"/><path class="cls-68" d="M198.47,43.8c-.36,.03-.7-.05-.59-.5,.03-.12,.39-.17,.59-.25v.75Z"/><path class="cls-14" d="M144.27,180.62c-.52,.02-.77-.23-.75-.75,.52-.02,.77,.23,.75,.75Z"/><path class="cls-61" d="M177.99,210.53c-.52,.02-.77-.23-.75-.75,.52-.02,.77,.23,.75,.75Z"/><path class="cls-68" d="M196.97,45.29c-.03-.36,.05-.69,.5-.59,.12,.03,.17,.39,.25,.59h-.75Z"/><path class="cls-14" d="M143.52,186.6c-.02-.52,.23-.77,.75-.75,.02,.52-.23,.77-.75,.75Z"/><path class="cls-61" d="M177.99,211.28v-.75c.36-.03,.7,.05,.59,.5-.03,.12-.39,.17-.59,.25Z"/><path class="cls-9" d="M153.26,161.93c-.03-.36,.05-.69,.5-.59,.12,.03,.17,.39,.25,.59h-.75Z"/><path class="cls-103" d="M255.17,101.37h.75c.02,.52-.23,.77-.75,.75-.2-.17-.27-.33-.2-.5,.07-.17,.13-.25,.2-.25Z"/><path class="cls-9" d="M255.17,101.37v.75h-.75v-.75h.75Z"/><path class="cls-61" d="M171.25,210.53c-.52,.02-.77-.23-.75-.75,.52-.02,.77,.23,.75,.75Z"/><path class="cls-48" d="M133.74,152.21c.78,0,1.25,0,1.73,0,.35,0,.71,.04,1.04,.06,.4,.71,.44,1.41,.01,2.04-.61,.9-1.48,1.14-2.53,.73-.43-.78-.12-1.64-.25-2.84Z"/><path class="cls-48" d="M120.35,112.57v-2.71c.84-.51,1.71-.17,2.54-.27,.66,.73,.6,1.44,.05,2.24-.6,.87-1.43,.78-2.59,.74Z"/><path class="cls-14" d="M142.77,181.37c1.08,1.22,1.08,2.52,0,3.74-.82-.18-1.9-.1-1.5-1.5,.45-.09,.98,.22,1.4-.27-.21-.87-.94-.32-1.4-.48-.4-1.4,.68-1.32,1.5-1.5Z"/><path class="cls-81" d="M142.77,181.37c.08,.46-.19,.69-.57,.73-.5,.06-.98,.06-.93,.76-1.39-.23-.56-1.25-.71-2.01,.81-.11,1.73-.88,2.2,.51Z"/><path class="cls-63" d="M141.27,183.61c-.05,.7,.43,.7,.93,.76,.37,.04,.65,.28,.57,.73-.23,1.39-1.25,.56-2.01,.7-.11-.81-.88-1.72,.51-2.2Z"/><path class="cls-28" d="M214.95,97.7h1.81c.31,.96,.28,1.87,.03,2.79q-2.06,.02-1.84-2.79Z"/><path class="cls-28" d="M243.69,157.31c-.23,.04-.46,.12-.68,.13-.35,0-.71-.04-1.14-.06-.31-.95-.28-1.87-.03-2.79q2.06-.02,1.85,2.72Z"/><path class="cls-28" d="M248.49,100.7v-2.76c.58-.56,1.23-.18,1.84-.32,.62,.87,.3,1.82,.26,2.72-.56,.54-1.2,.15-2.1,.36Z"/><path class="cls-28" d="M147.55,154.45h1.62c.63,.85,.29,1.8,.27,2.7-.55,.55-1.2,.16-1.87,.31-.46-1.02-.44-2.01-.02-3.01Z"/><path class="cls-28" d="M237,157.38h-1.88c-.27-.98-.3-1.9,0-2.86h1.88c.27,.98,.3,1.9,0,2.86Z"/><path class="cls-28" d="M209.93,114.83h-1.62c-.63-.85-.29-1.8-.27-2.7,.55-.55,1.2-.16,1.87-.31,.46,1.02,.44,2.01,.02,3.01Z"/><path class="cls-17" d="M142.87,98.02c-.91,.47-1.58,.51-2.45-.03,.83-.44,1.5-.55,2.45,.03Z"/><path class="cls-17" d="M210.31,154.84c-.91,.47-1.58,.51-2.45-.03,.83-.44,1.5-.55,2.45,.03Z"/><path class="cls-17" d="M136.13,112.21c-.89,.5-1.56,.5-2.45,0,.82-.48,1.49-.54,2.45,0Z"/><path class="cls-12" d="M174.35,166.59c1.18-.42,2.02-.16,2.78,.89v3.17c-.63,.74-1.41,1.48-2.78,.78v-4.85Z"/><path class="cls-12" d="M204.1,170.57c-.79,1.15-1.7,1.14-2.78,1.04v-4.92c1.01-.75,1.88-.3,2.78,.76v3.13Z"/><path class="cls-17" d="M160.65,154.81c.91-.47,1.58-.51,2.45,.03-.83,.44-1.5,.55-2.45-.03Z"/><path class="cls-17" d="M237.22,98c-.78,.59-1.53,.59-2.32,0,.78-.59,1.53-.59,2.32,0Z"/><path class="cls-17" d="M250.77,140.61c-.87,.54-1.54,.5-2.45,.03,.82-.51,1.48-.54,2.45-.03Z"/><path class="cls-17" d="M248.33,112.23c.87-.54,1.54-.5,2.45-.03-.82,.51-1.48,.54-2.45,.03Z"/><path class="cls-17" d="M176.59,140.61c-.87,.54-1.54,.5-2.45,.03,.82-.51,1.48-.54,2.45-.03Z"/><path class="cls-37" d="M194.41,40.98c-1.48,.89-2.39,.34-3.32,.37,.86-.83,1.82-.5,3.32-.37Z"/><path class="cls-37" d="M156.87,168.99c-.92,.5-1.84,.55-3.09,.13,1.21-.74,2.17-.38,3.09-.13Z"/><path class="cls-37" d="M187.87,169.08c.92-.5,1.84-.55,3.09-.13-1.21,.74-2.17,.38-3.09,.13Z"/><path class="cls-37" d="M221.24,169.03c1.21-.53,2.21-.53,3.42,0-1.21,.53-2.21,.53-3.42,0Z"/><path class="cls-37" d="M258.38,169.03c-1.21,.53-2.21,.53-3.42,0,1.21-.53,2.21-.53,3.42,0Z"/><path class="cls-73" d="M376.35,211.65c1.21-.53,2.21-.53,3.42,0-1.21,.53-2.21,.53-3.42,0Z"/><path class="cls-73" d="M319.07,211.65c-1.21,.53-2.21,.53-3.42,0,1.21-.53,2.21-.53,3.42,0Z"/><path class="cls-72" d="M228.19,97.63h2.68c.85,1.29-.04,2.09-.43,2.99h-2.25v-2.99Z"/><path class="cls-73" d="M183.85,211.61c-.92,.5-1.84,.55-3.09,.13,1.21-.74,2.17-.38,3.09-.13Z"/><path class="cls-73" d="M264.78,211.62c-.9,.53-1.81,.51-3.08,.12,1.19-.76,2.14-.41,3.08-.12Z"/><path class="cls-50" d="M302.38,209.03h2.59c.53,.32,.39,.84,.4,1.31,0,.48,0,.95,0,1.44-1.05,.49-2.04,.11-3,.24v-2.99Z"/><path class="cls-17" d="M242.43,172.4c-.72-.13-1.11-.62-1.4-1.24,.24-.09,.44-.17,.65-.25h2.26c-.16,1.09-1.75,.4-1.51,1.5Z"/><path class="cls-17" d="M172.99,43.05v.75c-.5,.26-.99,.53-1.41,.75-.86,.04-.95-.8-1.57-.97,.18-.22,.3-.5,.43-.51,.85-.04,1.7-.02,2.55-.02Z"/><path class="cls-17" d="M250.67,213.52v.75c-.5,.26-.99,.53-1.41,.75-.83,0-1.01-.73-1.52-1.04,.12-.15,.24-.43,.37-.44,.85-.04,1.7-.02,2.55-.02Z"/><path class="cls-17" d="M220.2,43.05v.75c-.5,.26-.99,.53-1.41,.75-.86,.04-.95-.8-1.57-.97,.18-.22,.3-.5,.43-.51,.85-.04,1.7-.02,2.55-.02Z"/><path class="cls-17" d="M345.09,213.52v.75c-.5,.26-.99,.53-1.41,.75-.83,0-1.01-.73-1.52-1.04,.12-.15,.24-.43,.37-.44,.85-.04,1.7-.02,2.55-.02Z"/><path class="cls-17" d="M210.21,170.9v.75c-.5,.26-.99,.53-1.41,.75-.86,.04-.95-.8-1.57-.97,.18-.22,.3-.5,.43-.51,.85-.04,1.7-.02,2.55-.02Z"/><path class="cls-17" d="M129.28,213.52c0,.25,0,.5,0,.75-.5,.26-.99,.53-1.41,.75-.86,.04-.95-.8-1.57-.97,.18-.22,.3-.5,.43-.51,.85-.04,1.7-.02,2.55-.02Z"/><path class="cls-17" d="M142.77,142.49v.75c-.7-.09-1.46,.21-2.28-.34,.73-.65,1.55-.31,2.28-.41Z"/><path class="cls-17" d="M169.75,99.87v.75c-.7-.09-1.46,.21-2.28-.34,.73-.65,1.55-.31,2.28-.41Z"/><path class="cls-17" d="M196.72,156.7v.75c-.7-.09-1.46,.21-2.28-.34,.73-.65,1.55-.31,2.28-.41Z"/><path class="cls-17" d="M230.44,114.08v.75c-.7-.09-1.46,.21-2.28-.34,.73-.65,1.55-.31,2.28-.41Z"/><path class="cls-17" d="M189.98,142.49v.75c-.7-.09-1.46,.21-2.28-.34,.73-.65,1.55-.31,2.28-.41Z"/><path class="cls-47" d="M146.01,41.56h-1.16c-.68-.98-.21-1.98-.27-3.05,1.05,.28,.23,1.69,1.43,1.55v1.5Z"/><path class="cls-17" d="M159.5,43.8h-2.25v-2.99h2.25v.75c.44,.5,.44,1,0,1.5v.75Z"/><path class="cls-17" d="M152.76,43.8h-2.25v-2.99h2.25v.75c.44,.5,.44,1,0,1.5v.75Z"/><path class="cls-17" d="M331.6,171.65h-2.25v-2.99h2.25v.75c.44,.5,.44,1,0,1.5v.75Z"/><path class="cls-17" d="M169.75,143.24h-2.25v-2.99h2.25v.75c.44,.5,.44,1,0,1.5v.75Z"/><path class="cls-17" d="M338.34,171.65h-2.25v-2.99h2.25v.75c.44,.5,.44,1,0,1.5v.75Z"/><path class="cls-17" d="M270.91,214.27h-2.25v-2.99h2.25v.75c.44,.5,.44,1,0,1.5v.75Z"/><path class="cls-6" d="M338.34,170.9v-1.5c.7-.05,.79,.43,.73,.93-.04,.37-.28,.65-.73,.57Z"/><path class="cls-62" d="M169.75,142.49v-1.5c.7-.05,.79,.43,.73,.93-.04,.37-.28,.65-.73,.57Z"/><path class="cls-6" d="M159.5,43.05v-1.5c.7-.05,.79,.43,.73,.93-.04,.37-.28,.65-.73,.57Z"/><path class="cls-6" d="M152.76,43.05v-1.5c.7-.05,.79,.43,.73,.93-.04,.37-.28,.65-.73,.57Z"/><path class="cls-74" d="M270.91,213.52v-1.5c.7-.05,.79,.43,.73,.93-.04,.37-.28,.65-.73,.57Z"/><path class="cls-6" d="M331.6,170.9v-1.5c.7-.05,.79,.43,.73,.93-.04,.37-.28,.65-.73,.57Z"/></g></svg>